<svg width="681" height="460" viewBox="0 0 681 460" fill="none" xmlns="http://www.w3.org/2000/svg">
<rect width="680.229" height="460" fill="white"/>
<path d="M198.152 199.813C204.81 199.813 210.651 201.114 215.674 203.717C220.758 206.32 224.662 210.042 227.386 214.884C230.17 219.665 231.562 225.234 231.562 231.589C231.562 237.944 230.17 243.512 227.386 248.294C224.662 253.015 220.758 256.676 215.674 259.279C210.651 261.882 204.81 263.183 198.152 263.183H176V199.813H198.152ZM197.698 252.379C204.356 252.379 209.501 250.563 213.132 246.932C216.764 243.3 218.579 238.186 218.579 231.589C218.579 224.992 216.764 219.847 213.132 216.155C209.501 212.402 204.356 210.526 197.698 210.526H188.71V252.379H197.698Z" fill="black"/>
<path d="M281.477 236.945C281.477 238.761 281.356 240.395 281.114 241.848H244.345C244.647 245.479 245.918 248.324 248.158 250.382C250.397 252.44 253.151 253.469 256.419 253.469C261.14 253.469 264.5 251.441 266.497 247.386H280.206C278.753 252.228 275.969 256.223 271.853 259.37C267.738 262.457 262.684 264 256.692 264C251.85 264 247.492 262.941 243.618 260.822C239.805 258.644 236.809 255.587 234.63 251.653C232.512 247.719 231.453 243.179 231.453 238.035C231.453 232.83 232.512 228.26 234.63 224.326C236.749 220.392 239.715 217.365 243.528 215.247C247.341 213.129 251.729 212.069 256.692 212.069C261.473 212.069 265.74 213.098 269.493 215.156C273.306 217.214 276.241 220.15 278.299 223.963C280.418 227.715 281.477 232.043 281.477 236.945ZM268.313 233.314C268.252 230.045 267.072 227.443 264.772 225.506C262.472 223.509 259.658 222.51 256.329 222.51C253.181 222.51 250.518 223.478 248.339 225.415C246.221 227.291 244.92 229.924 244.436 233.314H268.313Z" fill="black"/>
<path d="M281.131 237.853C281.131 232.769 282.129 228.26 284.127 224.326C286.185 220.392 288.938 217.365 292.388 215.247C295.899 213.129 299.803 212.069 304.1 212.069C307.853 212.069 311.121 212.826 313.905 214.339C316.75 215.852 319.02 217.759 320.714 220.059V212.887H333.515V263.183H320.714V255.829C319.08 258.19 316.81 260.157 313.905 261.73C311.06 263.243 307.762 264 304.009 264C299.772 264 295.899 262.911 292.388 260.732C288.938 258.553 286.185 255.496 284.127 251.562C282.129 247.567 281.131 242.998 281.131 237.853ZM320.714 238.035C320.714 234.948 320.109 232.315 318.898 230.136C317.688 227.897 316.054 226.202 313.996 225.052C311.938 223.842 309.729 223.236 307.368 223.236C305.008 223.236 302.829 223.811 300.832 224.961C298.834 226.111 297.2 227.806 295.929 230.045C294.719 232.224 294.113 234.827 294.113 237.853C294.113 240.879 294.719 243.542 295.929 245.842C297.2 248.082 298.834 249.807 300.832 251.017C302.89 252.228 305.068 252.833 307.368 252.833C309.729 252.833 311.938 252.258 313.996 251.108C316.054 249.898 317.688 248.203 318.898 246.024C320.109 243.785 320.714 241.121 320.714 238.035Z" fill="black"/>
<path d="M352.284 196V263.183H339.574V196H352.284Z" fill="black"/>
<path d="M394.439 230.681C398.01 231.347 400.945 233.132 403.245 236.037C405.545 238.943 406.695 242.271 406.695 246.024C406.695 249.413 405.848 252.409 404.153 255.012C402.519 257.554 400.128 259.551 396.981 261.004C393.834 262.457 390.111 263.183 385.814 263.183H358.487V199.813H384.634C388.931 199.813 392.623 200.509 395.71 201.901C398.857 203.293 401.218 205.23 402.791 207.712C404.425 210.193 405.243 213.008 405.243 216.155C405.243 219.847 404.244 222.934 402.247 225.415C400.31 227.897 397.707 229.652 394.439 230.681ZM371.197 225.96H382.818C385.844 225.96 388.174 225.294 389.809 223.963C391.443 222.571 392.26 220.603 392.26 218.061C392.26 215.519 391.443 213.552 389.809 212.16C388.174 210.768 385.844 210.072 382.818 210.072H371.197V225.96ZM383.998 252.833C387.085 252.833 389.476 252.107 391.17 250.654C392.926 249.202 393.803 247.144 393.803 244.481C393.803 241.757 392.895 239.639 391.08 238.125C389.264 236.552 386.813 235.765 383.726 235.765H371.197V252.833H383.998Z" fill="#7B7B7B"/>
<path d="M432.804 264C427.962 264 423.604 262.941 419.73 260.822C415.857 258.644 412.8 255.587 410.561 251.653C408.382 247.719 407.292 243.179 407.292 238.035C407.292 232.89 408.412 228.351 410.651 224.417C412.951 220.482 416.069 217.456 420.003 215.338C423.937 213.159 428.325 212.069 433.167 212.069C438.009 212.069 442.397 213.159 446.331 215.338C450.265 217.456 453.352 220.482 455.591 224.417C457.891 228.351 459.041 232.89 459.041 238.035C459.041 243.179 457.861 247.719 455.501 251.653C453.201 255.587 450.053 258.644 446.059 260.822C442.125 262.941 437.706 264 432.804 264ZM432.804 252.924C435.104 252.924 437.252 252.379 439.25 251.29C441.307 250.14 442.942 248.445 444.152 246.206C445.363 243.966 445.968 241.243 445.968 238.035C445.968 233.253 444.697 229.591 442.155 227.049C439.673 224.447 436.617 223.146 432.985 223.146C429.354 223.146 426.297 224.447 423.816 227.049C421.395 229.591 420.184 233.253 420.184 238.035C420.184 242.816 421.364 246.508 423.725 249.111C426.146 251.653 429.172 252.924 432.804 252.924Z" fill="#7B7B7B"/>
<path d="M489.791 263.183L479.441 247.567L470.271 263.183H456.653L473.086 237.944L456.472 212.887H470.816L481.075 228.411L490.335 212.887H503.954L487.43 237.944L504.135 263.183H489.791Z" fill="#7B7B7B"/>
</svg>
