<svg width="678" height="462" viewBox="0 0 678 462" fill="none" xmlns="http://www.w3.org/2000/svg">
<rect width="677.376" height="462" fill="url(#paint0_linear_283_45)"/>
<path d="M192.041 266L183.421 255.671C181.035 256.268 178.595 256.566 176.101 256.566C170.788 256.566 165.908 255.319 161.462 252.825C157.016 250.331 153.492 246.888 150.889 242.496C148.287 238.05 146.985 233.035 146.985 227.45C146.985 221.92 148.287 216.959 150.889 212.567C153.492 208.121 157.016 204.651 161.462 202.157C165.908 199.663 170.788 198.416 176.101 198.416C181.469 198.416 186.348 199.663 190.74 202.157C195.186 204.651 198.683 208.121 201.232 212.567C203.834 216.959 205.135 221.92 205.135 227.45C205.135 232.493 204.051 237.101 201.882 241.276C199.768 245.397 196.867 248.758 193.18 251.361L206.193 266H192.041ZM158.697 227.45C158.697 231.246 159.429 234.58 160.893 237.454C162.356 240.327 164.39 242.55 166.992 244.123C169.649 245.641 172.685 246.4 176.101 246.4C179.517 246.4 182.526 245.641 185.129 244.123C187.731 242.55 189.764 240.327 191.228 237.454C192.692 234.58 193.424 231.246 193.424 227.45C193.424 223.655 192.692 220.347 191.228 217.528C189.764 214.654 187.731 212.459 185.129 210.94C182.526 209.422 179.517 208.663 176.101 208.663C172.685 208.663 169.649 209.422 166.992 210.94C164.39 212.459 162.356 214.654 160.893 217.528C159.429 220.347 158.697 223.655 158.697 227.45Z" fill="white"/>
<path d="M250.607 210.94V255.997H239.14V250.304C237.676 252.255 235.751 253.801 233.365 254.939C231.034 256.024 228.486 256.566 225.72 256.566C222.196 256.566 219.079 255.834 216.368 254.37C213.657 252.852 211.515 250.656 209.943 247.782C208.425 244.855 207.665 241.384 207.665 237.372V210.94H219.052V235.746C219.052 239.324 219.946 242.089 221.735 244.041C223.525 245.939 225.964 246.888 229.055 246.888C232.2 246.888 234.667 245.939 236.456 244.041C238.245 242.089 239.14 239.324 239.14 235.746V210.94H250.607Z" fill="white"/>
<path d="M267.534 217.528C268.998 215.359 271.004 213.597 273.553 212.242C276.155 210.886 279.11 210.208 282.417 210.208C286.267 210.208 289.737 211.157 292.827 213.055C295.972 214.953 298.439 217.664 300.228 221.188C302.072 224.658 302.994 228.697 302.994 233.306C302.994 237.914 302.072 242.008 300.228 245.586C298.439 249.111 295.972 251.849 292.827 253.801C289.737 255.753 286.267 256.729 282.417 256.729C279.056 256.729 276.101 256.078 273.553 254.777C271.058 253.421 269.052 251.686 267.534 249.572V255.997H256.148V195.813H267.534V217.528ZM291.364 233.306C291.364 230.595 290.794 228.263 289.656 226.312C288.571 224.305 287.107 222.787 285.264 221.757C283.475 220.727 281.523 220.212 279.408 220.212C277.348 220.212 275.396 220.754 273.553 221.838C271.763 222.869 270.299 224.387 269.161 226.393C268.076 228.399 267.534 230.758 267.534 233.468C267.534 236.179 268.076 238.538 269.161 240.544C270.299 242.55 271.763 244.095 273.553 245.18C275.396 246.21 277.348 246.725 279.408 246.725C281.523 246.725 283.475 246.183 285.264 245.099C287.107 244.014 288.571 242.469 289.656 240.463C290.794 238.457 291.364 236.071 291.364 233.306Z" fill="white"/>
<path d="M347.459 232.493C347.459 234.119 347.35 235.583 347.133 236.884H314.195C314.466 240.137 315.605 242.686 317.611 244.529C319.617 246.373 322.084 247.294 325.012 247.294C329.241 247.294 332.25 245.478 334.04 241.845H346.32C345.019 246.183 342.525 249.761 338.838 252.581C335.151 255.346 330.624 256.729 325.256 256.729C320.919 256.729 317.015 255.78 313.545 253.882C310.129 251.93 307.445 249.192 305.493 245.668C303.596 242.144 302.647 238.077 302.647 233.468C302.647 228.806 303.596 224.712 305.493 221.188C307.391 217.664 310.048 214.953 313.463 213.055C316.879 211.157 320.81 210.208 325.256 210.208C329.539 210.208 333.362 211.13 336.723 212.974C340.139 214.817 342.769 217.447 344.612 220.863C346.51 224.224 347.459 228.101 347.459 232.493ZM335.666 229.239C335.612 226.312 334.555 223.98 332.494 222.245C330.434 220.456 327.913 219.561 324.931 219.561C322.111 219.561 319.726 220.429 317.774 222.164C315.876 223.845 314.71 226.203 314.277 229.239H335.666Z" fill="white"/>
<path d="M349.751 255.997V250.466H358.291V200.53H349.751V195H364.716V250.466H373.255V255.997H349.751Z" fill="white"/>
<path d="M394.556 257.054C381.706 257.054 373.654 248.026 373.654 235.014C373.654 221.513 382.926 212.648 394.149 212.648C406.918 212.648 414.237 221.595 414.237 234.282V236.64H380.242C380.323 246.074 385.854 251.361 394.637 251.361C400.574 251.361 406.023 247.945 407.406 242.089L413.668 243.553C411.31 251.442 404.315 257.054 394.556 257.054ZM380.405 231.435H407.65C407.243 222.652 401.143 218.423 394.149 218.423C387.236 218.423 380.893 223.465 380.405 231.435Z" fill="white"/>
<path d="M437.305 257.054C425.187 257.054 416.647 247.864 416.647 234.932C416.647 221.92 424.78 212.648 436.817 212.648C445.6 212.648 449.992 218.341 451.212 220.537H451.7V213.706H458.206V248.352C458.206 249.653 459.02 250.304 460.321 250.304H462.273V255.997H458.125C454.628 255.997 452.025 253.394 451.944 249.734V249.328H451.456C450.399 251.036 446.495 257.054 437.305 257.054ZM437.63 251.279C446.495 251.279 451.944 243.879 451.944 235.014C451.944 224.522 445.438 218.504 437.549 218.504C429.253 218.504 423.235 225.336 423.235 235.014C423.235 244.855 429.497 251.279 437.63 251.279Z" fill="white"/>
<path d="M468.771 255.997V213.706H475.114V220.781H475.602C476.822 217.203 480.97 212.648 487.151 212.648H489.916V219.073H486.094C478.368 219.073 475.196 225.336 475.196 233.387V255.997H468.771Z" fill="white"/>
<path d="M494.767 255.997V213.706H501.192V219.887H501.68C503.47 216.064 508.024 212.648 514.612 212.648C524.452 212.648 530.389 220.049 530.389 229.402V255.997H523.964V229.809C523.964 223.058 519.003 218.667 513.066 218.667C506.397 218.667 501.192 223.79 501.192 230.785V255.997H494.767Z" fill="white"/>
<defs>
<linearGradient id="paint0_linear_283_45" x1="338.688" y1="0" x2="338.688" y2="462" gradientUnits="userSpaceOnUse">
<stop stop-color="#14191D"/>
<stop offset="1" stop-color="#0C1114"/>
</linearGradient>
</defs>
</svg>
