<svg width="679" height="461" viewBox="0 0 679 461" fill="none" xmlns="http://www.w3.org/2000/svg">
<rect width="679" height="460.188" fill="url(#paint0_linear_283_39)"/>
<rect x="191.754" y="177.469" width="113.921" height="111.064" rx="29.0472" fill="#FFC501"/>
<path d="M260.17 237.799C259.199 240.481 257.265 242.703 254.726 244.06C252.176 245.416 249.204 245.811 246.364 245.17C243.569 244.602 241.046 243.118 239.207 240.964C237.368 238.809 236.322 236.11 236.241 233.308C236.117 230.458 237.044 227.669 238.852 225.454C240.66 223.239 243.227 221.749 246.079 221.257C251.876 220.211 257.375 218.025 262.247 214.824C268.385 210.665 268.575 201.708 261.631 199.017C250.426 194.674 235.828 194.981 223.772 205.148C218.532 209.649 214.711 215.53 212.754 222.109C210.789 228.724 210.756 235.763 212.658 242.427C214.565 249.122 218.319 255.18 223.502 259.929C228.686 264.678 235.095 267.931 242.018 269.326L241.252 269.395L251.007 270.358L258.97 268.835C264.216 267.459 269.078 264.957 273.209 261.508C288.02 249.171 288.991 229.497 281.658 216.76C280.678 215.058 278.33 214.288 276.426 214.848C276.185 214.919 276.155 214.93 275.914 215.001C266.358 217.807 263.865 227.915 260.175 237.799" fill="black"/>
<rect x="191.754" y="177.469" width="113.921" height="111.064" rx="29.0472" stroke="black" stroke-width="2.49214"/>
<path d="M352.37 259.707C345.278 259.707 339.323 257.469 334.503 252.994C329.683 248.45 327.273 241.771 327.273 232.958V232.751C327.273 224.902 329.58 218.705 334.193 214.161C338.875 209.548 344.934 207.242 352.37 207.242C359.806 207.242 365.865 209.514 370.547 214.058C375.229 218.602 377.57 224.799 377.57 232.648V232.855C377.57 241.737 375.16 248.45 370.341 252.994C365.521 257.469 359.531 259.707 352.37 259.707ZM352.37 251.135C360.288 251.135 364.247 245.558 364.247 234.404V230.686C364.247 226.004 363.18 222.389 361.046 219.842C358.911 217.294 356.019 216.02 352.37 216.02C348.721 216.02 345.829 217.294 343.695 219.842C341.629 222.389 340.596 226.004 340.596 230.686V234.404C340.596 245.558 344.521 251.135 352.37 251.135Z" fill="white"/>
<path d="M385.416 258.571V208.481H395.847C396.329 209.514 396.742 210.787 397.087 212.302C397.913 214.987 398.326 218.051 398.326 221.494V224.283C399.359 218.43 401.114 214.23 403.593 211.683C406.072 209.066 408.895 207.758 412.062 207.758C414.265 207.758 415.849 208.55 416.813 210.133V219.738C410.616 219.601 406.003 220.909 402.973 223.663C400.013 226.417 398.532 231.202 398.532 238.019V258.571H385.416Z" fill="white"/>
<path d="M430.258 203.007C428.193 203.007 426.437 202.319 424.991 200.942C423.545 199.496 422.822 197.74 422.822 195.674C422.822 193.609 423.545 191.853 424.991 190.407C426.437 188.961 428.193 188.238 430.258 188.238C432.393 188.238 434.183 188.961 435.629 190.407C437.075 191.853 437.798 193.609 437.798 195.674C437.798 197.74 437.075 199.496 435.629 200.942C434.183 202.319 432.393 203.007 430.258 203.007ZM423.752 258.571V208.481H436.868V258.571H423.752Z" fill="white"/>
<path d="M447.242 208.481H486.281V220.461L457.26 249.483H486.281V258.571H445.486V247.004L474.094 218.086H447.242V208.481Z" fill="white"/>
<defs>
<linearGradient id="paint0_linear_283_39" x1="339.5" y1="0" x2="339.5" y2="460.188" gradientUnits="userSpaceOnUse">
<stop stop-color="#14191D"/>
<stop offset="1" stop-color="#0C1114"/>
</linearGradient>
</defs>
</svg>
