<svg width="135" height="135" viewBox="0 0 135 135" fill="none" xmlns="http://www.w3.org/2000/svg">
<g opacity="0.43">
<path fill-rule="evenodd" clip-rule="evenodd" d="M103.288 33.4633C103.333 33.5588 103.446 33.7981 103.588 34.0999C103.692 34.0635 103.805 34.0235 103.963 33.9683C104.212 34.1104 104.718 34.0197 104.802 34.4661C104.877 34.8678 105.56 34.6887 105.424 35.2118C105.981 35.656 105.989 36.3692 106.107 36.9508C106.213 37.4783 106.558 37.9255 106.515 38.5193C106.478 39.0357 106.702 39.5715 106.811 40.1007C106.637 40.2917 106.474 40.4685 106.25 40.7142C106.428 40.8072 106.561 40.8772 106.772 40.9871C106.779 41.1215 106.793 41.3428 106.807 41.5826C107.091 41.7267 107.357 41.8625 107.67 42.0215C107.685 42.2556 107.7 42.4879 107.717 42.7417C107.844 42.6817 107.962 42.6254 108.164 42.5296C108.115 42.8205 108.074 43.0598 108.031 43.3114C108.094 43.3164 108.19 43.3239 108.341 43.3355C108.026 44.0232 107.131 44.0204 106.795 44.7903C106.7 45.378 106.949 46.1339 106.627 46.8269C106.504 47.0945 107.03 47.2858 106.652 47.579C106.518 47.6833 106.99 47.9793 106.636 48.1845C106.88 48.637 106.709 49.0876 106.683 49.552C106.661 49.9371 106.712 50.3596 106.785 50.7602C106.846 51.0939 106.891 51.4307 106.938 51.7669C106.981 52.0711 106.987 52.3843 107.066 52.6786C107.133 52.9293 107.413 53.1933 107.361 53.389C107.291 53.6522 107.281 53.8704 107.47 54.1305C107.209 54.1966 107.049 54.2372 106.889 54.2777C106.729 54.7435 106.561 55.2024 105.867 55.1314L105.072 54.3365C104.136 54.5981 103.215 54.9295 102.172 54.4473C101.943 54.1739 101.464 53.9395 101.412 53.4032C100.359 53.0528 100.07 52.1536 99.823 51.23C99.5259 50.1184 99.459 48.9826 99.5317 47.8022C98.6106 47.6178 97.7105 47.4879 96.8416 47.2469C96.2439 47.0812 95.5887 46.9035 95.14 46.4787C94.6753 46.0384 94.0606 45.7086 93.8716 44.9799C93.7866 44.6539 93.3733 44.4721 93.2378 44.0662C93.1562 43.8225 93.0257 43.5915 92.9946 43.3105C92.9779 43.159 92.8341 43.0213 92.6664 42.7425C92.6753 42.5021 92.8319 42.0335 92.6706 41.7417C92.4357 41.318 92.9826 41.0221 92.5915 40.6431C92.7828 40.6168 92.8677 40.6051 92.9999 40.5868C93.1226 40.3608 93.2614 40.1054 93.4066 39.8392C93.6237 39.9063 93.8058 39.9624 94.0271 40.031C94.1492 40.4546 94.2827 40.9174 94.436 41.4494C94.7733 41.0382 95.0334 40.7203 95.2558 40.4491C95.4574 40.4491 95.5642 40.4488 95.6831 40.4488C95.7802 40.7481 95.8788 41.0504 96.009 41.4494C96.2708 41.2364 96.474 41.071 96.7258 40.8658C96.9371 41.1898 97.1495 41.5143 97.3582 41.8336C97.3477 42.0163 97.3366 42.2139 97.3252 42.4174C97.4612 42.4174 97.5256 42.4258 97.5281 42.416C97.5723 42.2625 97.6089 42.1065 97.6553 41.918C97.801 41.9843 97.891 42.0249 98.0073 42.0773C97.9015 42.4002 97.801 42.7073 97.6861 43.0571C97.8299 42.9854 97.944 42.9285 98.155 42.823C98.1553 43.1842 98.1556 43.5049 98.1564 43.9232C98.6328 43.8672 99.0553 43.8177 99.5081 43.7647C99.9515 43.4629 100.094 43.0065 100.133 42.4605C100.226 41.1978 100.46 39.9424 100.54 38.6867C100.621 37.4011 100.759 36.084 100.438 34.7906C100.363 34.488 100.427 34.1515 100.427 33.8081L101.224 33.0113C101.323 33.023 101.493 33.0433 101.668 33.0633C101.83 33.3989 101.996 33.7443 102.212 34.1934C102.387 33.8856 102.529 33.6357 102.714 33.3103C102.824 33.3395 102.994 33.385 103.288 33.4633Z" fill="black"/>
<path fill-rule="evenodd" clip-rule="evenodd" d="M71.1846 97.456C71.015 97.7778 70.8759 98.0423 70.6958 98.3841C70.623 98.1842 70.575 98.0523 70.5139 97.8852C70.0783 97.7972 69.6475 97.7594 69.3398 98.1709C69.206 98.0926 69.12 98.0421 69 97.9721L68.3746 98.5976C68.2496 98.5976 68.1658 98.622 68.1089 98.5934C67.7244 98.4005 67.361 98.0776 66.9606 98.0248C66.4456 97.9574 66.2713 97.5604 65.979 97.2886C65.7413 97.0682 65.5992 96.7411 65.4257 96.4549C64.806 95.431 64.3371 94.3369 63.992 93.1956C63.7802 92.4935 63.6097 91.7739 63.4884 91.0507C63.3699 90.3442 63.3377 89.6229 63.2649 88.8856C63.117 88.918 62.9509 88.9497 62.7874 88.9916C61.2069 89.3972 59.5976 89.5274 57.971 89.5138C57.2034 89.5074 56.6817 88.9902 56.0926 88.6232C55.8566 88.4766 55.6834 88.2284 55.4815 88.0266C55.2969 87.435 55.6742 86.9922 55.9138 86.4361C56.2839 86.538 56.6642 86.6429 57.0926 86.7604C57.0998 86.7132 57.1123 86.6313 57.1345 86.4841C57.2381 86.4838 57.3791 86.4422 57.4776 86.4897C58.0859 86.7815 58.6825 86.6429 59.268 86.4472C60.4601 86.0496 61.6439 85.6293 62.9118 85.1904C62.9004 84.7798 62.7763 84.2565 62.9043 83.8048C63.022 83.3884 62.6086 82.9472 63.0662 82.5719C62.9337 82.5583 62.8416 82.5488 62.7044 82.535C62.7427 82.3179 62.7816 82.098 62.8357 81.7918C62.7672 81.6094 62.6628 81.3312 62.5603 81.0589C62.6817 80.9225 62.7944 80.7959 62.9568 80.6135C62.7891 80.5924 62.7016 80.5816 62.5656 80.5644C62.8402 80.196 62.5287 79.8418 62.5523 79.4606C62.577 79.0578 62.4687 78.6469 62.4115 78.1844C62.4895 78.1724 62.5709 78.1599 62.7261 78.1363C62.6728 78.0042 62.6222 77.8798 62.5589 77.7238C62.6578 77.7132 62.7488 77.7032 62.9137 77.686C62.4812 77.0553 62.3563 76.3273 62.2933 75.6236C62.228 74.8982 62.0709 74.1475 62.3466 73.3426C62.4701 73.3307 62.6356 73.3146 62.8227 73.2963C63.0192 73.9198 63.2189 74.5331 62.9954 75.1847L63.6009 75.7902C63.6791 75.6613 63.7891 75.5608 63.7705 75.4984C63.6947 75.2471 63.5792 75.0078 63.5303 74.8895C63.5936 74.2333 63.6456 73.6972 63.7111 73.0209C64.0151 73.2827 64.213 73.454 64.4035 73.6178C64.3368 73.7771 64.286 73.8984 64.2327 74.0261C64.2885 74.0353 64.3804 74.0689 64.3926 74.05C64.5387 73.8285 64.6728 73.5989 64.841 73.3202C65.0159 73.3685 65.2288 73.427 65.4432 73.4859C65.4479 73.5739 65.4531 73.6786 65.459 73.7916C65.7099 73.9792 66.1672 73.909 66.2144 74.3643C66.1014 74.3701 66.0009 74.3751 65.8979 74.3798C65.9198 74.4517 65.9209 74.55 65.9623 74.5714C66.0789 74.6325 66.2122 74.6619 66.3854 74.7185C66.7283 75.1447 66.6763 75.7074 66.6508 76.2521C66.6267 76.7677 66.5456 77.2801 66.477 77.9056C66.7016 77.8448 66.8973 77.7924 67.1175 77.7332C67.1977 77.9878 67.246 78.1416 67.2966 78.3032C67.3646 78.3068 67.4656 78.3112 67.6233 78.319C67.4851 78.51 67.3687 78.6713 67.2022 78.9028C67.3943 78.9867 67.5581 79.0578 67.748 79.1405L67.2438 79.6446C67.3421 79.93 67.4279 80.1791 67.5095 80.4162C67.6594 80.4217 67.7643 80.4256 67.9154 80.4311C67.7893 80.6144 67.6766 80.7787 67.5128 81.018C67.6905 81.098 67.8512 81.1693 68.0417 81.2549C67.9315 81.4034 67.8127 81.5633 67.6577 81.7715C67.8549 81.862 68.0148 81.9353 68.2796 82.0569C68.0059 82.1774 67.8065 82.2651 67.5661 82.3712C67.64 82.6083 67.7155 82.8503 67.7888 83.0858C67.8726 83.1119 67.9442 83.1607 67.997 83.1452C68.09 83.1177 68.1652 83.0302 68.2582 83.0039C68.6194 82.9014 68.9734 83.1471 69.3299 83.0477C69.7144 82.9408 70.0594 83.0722 70.4281 83.1277C70.7602 83.1777 71.0258 83.234 71.2518 83.4916C71.329 83.5799 71.4906 83.5938 71.6399 83.6516C71.668 83.7595 71.7077 83.9136 71.7624 84.1243C71.5814 84.3525 71.7066 84.7754 71.1885 85.0041C70.2835 85.4033 69.3782 85.8556 68.5847 86.4786C68.5406 86.5133 68.4454 86.483 68.3165 86.483C68.3429 86.9236 68.369 87.3611 68.402 87.9105C68.4262 87.9414 68.5314 88.0743 68.6447 88.2181C68.5225 88.3858 68.4057 88.5466 68.2238 88.7962C68.5661 88.8536 68.8218 88.8967 69.203 88.9608C68.9714 89.0874 68.8174 89.1721 68.6214 89.2792C68.6272 89.3478 68.6389 89.4866 68.6513 89.6373C68.9814 89.792 69.0592 90.0107 68.9365 90.4561C69.1569 90.8464 69.3687 91.2215 69.5456 91.5343C69.4645 91.7098 69.4192 91.8078 69.3609 91.9344L69.6924 91.9344C69.6394 92.3339 69.52 92.7337 69.555 93.1196C69.5861 93.4677 69.7865 93.8003 69.932 94.1923C69.9623 94.1987 70.0864 94.2234 70.2832 94.2625C70.2882 94.6012 70.2932 94.9338 70.2976 95.2536C70.4356 95.2689 70.5372 95.28 70.7132 95.2994C70.7291 95.5379 70.7446 95.7722 70.7618 96.0332L71.2032 96.4746C71.1966 96.8255 71.1899 97.1814 71.1846 97.456Z" fill="black"/>
<path fill-rule="evenodd" clip-rule="evenodd" d="M92.8216 81.8541C93.5945 81.9274 93.5956 81.9279 93.7855 81.2688C93.933 81.3924 94.0468 81.5145 94.1848 81.5942C94.2828 81.6506 94.4135 81.6503 94.5212 81.6736C94.5215 81.7816 94.5212 81.853 94.5212 81.944C94.6764 81.8877 94.825 81.8341 95.0679 81.7461C95.1409 82.1633 95.2095 82.5567 95.2786 82.9501C95.8635 83.117 95.4879 83.6258 95.6256 83.8907C95.8386 84.2996 95.5273 84.7447 95.8488 85.0878C96.2239 85.4878 95.8741 85.9332 95.9271 86.3315C95.9735 86.6777 95.8352 87.0725 96.0512 87.3574C96.2131 87.3998 96.341 87.4334 96.5515 87.4889C96.454 87.8396 96.3696 88.1455 96.2847 88.452L96.0357 89.1475C96.0615 89.4603 96.0873 89.7732 96.1215 90.191L96.27 90.3396C96.1417 91.178 96.0226 91.9617 95.8838 92.8712C96.1101 92.7976 96.2472 92.7532 96.4746 92.6796C96.5576 93.1791 96.6417 93.6846 96.7319 94.2279C97.5118 93.8445 98.2458 93.4842 99.0029 93.1124C99.0592 93.2804 99.1067 93.4223 99.1711 93.6144C99.5123 93.4525 99.8313 93.3012 100.196 93.1285L100.525 93.4578C100.849 93.4442 101.133 93.432 101.427 93.4198C101.614 93.5883 101.793 93.7496 101.964 93.9034L102.513 93.9031L102.396 95.1793C102.414 95.5261 102.209 95.6632 101.904 95.7251C101.811 95.744 101.712 95.8012 101.645 95.8703C100.881 96.6693 99.8766 97.0783 98.9052 97.5294C98.1889 97.8625 97.4388 98.1224 96.6603 98.4322C96.6598 98.7287 96.5407 99.0721 96.8163 99.4072C96.5765 99.7959 96.3308 100.195 96.1006 100.568C95.7878 100.566 95.5382 100.564 95.2878 100.563C95.2828 100.463 95.2778 100.361 95.2703 100.209C95.0393 100.128 94.7905 100.04 94.6423 99.9888C94.4443 100.259 94.2694 100.498 94.0984 100.731C93.7656 100.622 93.4654 100.523 93.1584 100.422C93.1584 100.523 93.1584 100.594 93.1584 100.62C92.8208 100.617 92.4807 100.615 92.011 100.611C91.5582 100.014 90.6187 99.7465 90.0568 99.0041C89.9394 98.8484 89.637 98.7554 89.4236 98.7623C88.5577 98.7898 87.9327 98.2032 87.2073 97.8975C86.9302 97.7809 86.5949 97.6166 86.35 97.3856C85.9605 97.0194 85.5283 96.6754 85.2259 96.2437C84.7476 95.5611 84.2384 94.832 84.686 93.9275C84.8339 93.6285 85.0716 93.3742 85.3173 93.0308L86.498 94.2115C86.5893 93.7904 86.6504 93.5083 86.7415 93.0875C86.8814 93.1563 87.0485 93.2379 87.2151 93.3201C87.2242 93.2532 87.2334 93.1863 87.2426 93.1194L87.9391 93.8159C88.0032 93.6197 88.0496 93.4778 88.0932 93.3437C88.6954 93.3034 89.0468 93.6716 89.3725 94.0861C89.5179 94.0167 89.6362 93.96 89.8261 93.8695C89.9286 94.0913 90.0299 94.312 90.1523 94.5788C90.2239 94.4756 90.2725 94.4364 90.2772 94.3923C90.2895 94.2868 90.2467 94.163 90.2867 94.0741C90.6876 93.1818 90.3255 92.1691 90.7356 91.281C90.3961 90.6805 90.7914 90.0847 90.7642 89.4784C90.7362 88.8479 90.9469 88.2085 91.0357 87.5706C91.1215 86.9529 90.8716 86.3066 91.1898 85.7069C90.9424 84.8565 90.9605 84.0067 91.1901 83.1564C90.7994 82.8035 91.2647 82.2461 90.8608 81.866L91.5435 81.1833C91.6409 81.1831 91.7836 81.1831 91.9263 81.1831C91.7622 81.6725 91.9585 82.1075 92.0832 82.6503C92.629 82.2916 92.3389 81.4807 93.019 81.3085C92.9535 81.4895 92.8999 81.6375 92.8216 81.8541Z" fill="black"/>
<path fill-rule="evenodd" clip-rule="evenodd" d="M83.0632 75.6085C82.674 75.2897 83.1332 74.7528 82.5674 74.659C82.561 74.7731 82.5549 74.8741 82.5488 74.9752C82.513 74.9749 82.4663 74.9899 82.4433 74.973C82.0163 74.6582 81.687 74.2839 81.6479 73.7184C81.6054 73.0968 81.5577 72.4749 81.4933 71.8553C81.473 71.6596 81.3919 71.4702 81.3261 71.2318C80.8317 71.0116 80.2734 70.8292 79.742 70.6243C79.1715 70.4042 78.7468 69.9716 78.1651 69.7709C77.8562 69.6646 77.7559 69.0358 77.4397 68.8434C77.0855 68.6285 76.6754 68.5544 76.6527 68.0408C75.9075 67.2856 75.95 66.3081 75.8753 65.3412L77.1366 64.08C77.2804 64.0761 77.4228 64.0725 77.6529 64.0661C77.7057 64.5025 77.7582 64.9392 77.8165 65.4223C77.8906 65.4492 78.0683 65.513 78.3062 65.5988C78.3772 65.5277 78.5541 65.4325 78.5546 65.3359C78.5585 64.9184 78.8856 64.7585 79.083 64.5122C79.3423 64.6077 79.5588 64.6877 79.7995 64.7762C79.8278 65.0322 79.8572 65.2965 79.9014 65.6971C80.2054 65.4619 80.4092 65.3043 80.6771 65.0969L81.4028 65.8226C81.9308 65.3279 81.3675 64.6524 81.8006 64.2243C81.6984 63.7313 81.7764 63.239 81.7959 62.7449C81.8186 62.1752 81.8106 61.6036 81.7987 61.0331C81.7873 60.5075 81.7809 59.9792 81.722 59.4584C81.661 58.922 81.5399 58.3923 81.4802 58.0578C81.6809 57.6328 81.7939 57.3932 81.9344 57.0961C82.1079 57.1264 82.3289 57.1125 82.4835 57.2072C82.6024 57.2799 82.6534 57.4837 82.7056 57.6386C82.7648 57.8149 82.7911 58.0017 82.9991 58.208C83.1268 57.8943 83.2542 57.5803 83.3947 57.2349C83.777 57.3579 84.1862 57.4895 84.8067 57.6891C84.7981 57.6805 84.9349 57.8418 85.0971 57.9712C85.2231 58.0717 85.3805 58.133 85.5682 58.2357C85.5904 58.3179 85.632 58.4695 85.6706 58.6097C85.8294 58.6158 85.9349 58.6197 86.0288 58.623C86.2925 59.764 86.6248 60.8859 86.8236 62.0469C86.9904 63.0217 87.0871 63.005 86.9527 63.4625C87.0524 63.4678 87.1529 63.4728 87.2336 63.477C87.3058 64.7474 87.3777 66.0075 87.4507 67.2865L87.702 67.5377C88.4774 67.3659 89.2275 67.1993 90.0118 67.0252C90.0784 67.2307 90.1192 67.3564 90.1828 67.551C90.5198 67.5255 90.9413 67.7032 91.1817 67.2418C91.4113 67.3176 91.5987 67.3795 91.783 67.4406C91.8005 67.5463 91.8219 67.6776 91.8513 67.8575C92.2314 67.8578 92.5726 67.8581 92.9415 67.8584C93.052 68.1093 93.1464 68.3231 93.2508 68.5602C93.3827 68.5949 93.5415 68.6371 93.6878 68.6757C93.7186 68.7598 93.7697 68.8276 93.7586 68.8825C93.7328 69.0055 93.6328 69.1243 93.64 69.2404C93.682 69.9336 93.6442 70.0124 93.0948 70.282C92.3832 70.631 91.7064 71.0946 90.9574 71.3145C89.9541 71.6093 88.896 71.7179 87.7617 71.9244C87.6884 72.4141 87.6581 73.0157 87.6789 73.6451C87.6992 74.2539 87.5607 74.8911 87.182 75.5907C87.1201 75.3389 87.0948 75.2359 87.039 75.0118C86.7642 75.4127 86.5335 75.7489 86.3031 76.0849L86.157 76.036C86.1945 75.7326 86.232 75.4297 86.2697 75.1265L85.7428 75.1265L85.2259 75.6434C84.9841 75.5393 84.7137 75.4222 84.3955 75.285L83.7681 75.9124C83.4644 75.7814 83.192 75.664 83.0632 75.6085Z" fill="black"/>
<path fill-rule="evenodd" clip-rule="evenodd" d="M71.491 57.4677C71.2934 57.7897 71.1193 58.0737 70.8736 58.4743C70.2967 58.561 69.5946 58.6523 68.8986 58.7753C68.0685 58.9219 67.209 58.9108 66.4108 59.2275C66.226 59.3008 66.0502 59.3961 65.8065 59.511C65.2634 59.4027 64.6335 58.8233 64.0624 59.5276C63.5103 59.5524 63.0169 59.1295 62.5508 59.5068C62.1777 59.4097 61.8215 59.2278 61.4722 59.2411C59.877 59.3011 58.3562 58.978 56.7288 58.3805C56.3407 58.0818 55.8826 57.6243 55.3493 57.2392C54.5095 56.6326 54.2738 55.6262 54.4992 54.599C54.5617 54.3156 54.4079 53.9835 54.721 53.722C54.939 53.5402 55.0436 53.2229 55.2438 52.8922C55.3923 52.8836 55.5889 52.872 55.8368 52.8572C55.9817 53.4291 55.8043 54.0591 56.2552 54.571C56.8887 54.2545 56.5739 53.5138 56.9912 52.9749C57.1016 52.9688 57.2974 52.9575 57.4817 52.9475C57.5664 53.3708 57.6233 53.656 57.7282 54.1812C57.9517 53.7512 58.1824 53.5171 58.1552 53.3184C58.0861 52.8156 58.3221 52.3503 58.2074 51.8286C58.1008 51.3428 58.191 50.8112 58.3024 50.2867C58.46 49.5455 58.4048 48.7618 58.487 48.0011C58.6077 46.8831 58.6419 45.7562 58.9173 44.6519C59.0267 44.2154 58.9437 43.7288 58.9328 43.2649C58.9228 42.8429 59.1558 42.4212 58.8984 42.0344L59.9167 41.0161L60.5736 41.673C60.5736 41.7296 60.5736 41.9251 60.5739 42.1608C60.6846 42.0017 60.8001 41.8479 60.9023 41.6858C61.0061 41.5208 61.0972 41.3476 61.2451 41.088C61.7029 41.608 62.1594 42.0172 62.8279 41.9795C62.8537 42.1541 62.8684 42.2538 62.8987 42.455C63.0658 42.4067 63.259 42.3501 63.6188 42.2452C63.445 42.55 63.3859 42.6535 63.3054 42.7951C63.4442 42.8495 63.591 42.8831 63.7096 42.9606C63.827 43.0364 63.915 43.1566 64.0141 43.2557C64.1188 43.9217 64.2232 44.588 64.3378 45.3195C64.2876 45.3826 64.1813 45.515 64.025 45.7096C64.1516 45.7296 64.2301 45.7426 64.3326 45.759C64.3956 45.9125 64.4656 46.083 64.543 46.2732C63.8445 46.9073 64.5264 47.5985 64.3817 48.2779C64.5835 48.3054 64.6838 48.319 64.7296 48.3253C64.7298 48.8736 64.7298 49.4267 64.7296 49.985C64.7726 49.983 64.7043 49.9864 64.7337 49.9847C64.7335 50.2332 64.7335 50.4897 64.7337 50.7465C64.6596 50.7556 64.586 50.7648 64.5119 50.774L64.9106 51.1726C64.7501 51.1882 64.6568 51.1971 64.4481 51.2176C64.6432 51.3622 64.7732 51.4583 64.9556 51.5935C65.0114 52.0274 65.0785 52.5494 65.1516 53.1149C64.9597 53.1446 64.8284 53.1643 64.7118 53.1821C64.7579 53.7734 64.8051 54.3797 64.8528 54.9916C65.0155 54.9372 65.1654 54.8866 65.3839 54.8131C65.4203 55.1215 65.4517 55.3866 65.4811 55.6354C65.5602 55.679 65.6169 55.7356 65.6765 55.7392C66.6546 55.795 67.6638 55.7104 68.6024 55.9299C69.6596 56.177 70.8389 56.3442 71.491 57.4677Z" fill="black"/>
<path fill-rule="evenodd" clip-rule="evenodd" d="M71.0496 36.0166C71.0496 35.9234 71.0496 35.8517 71.0496 35.7779C70.9874 35.7701 70.9241 35.7529 70.8619 35.7557C70.4866 35.7729 70.0852 35.8673 69.7509 35.8506C69.4236 35.8348 69.1185 35.8784 68.8037 35.8789C68.385 35.8795 67.852 35.814 67.5718 35.5561C67.0707 35.0944 66.5588 34.6408 66.1687 34.0219C65.4952 32.9537 65.292 31.8382 65.2945 30.6325C65.2976 29.1019 65.2956 27.5714 65.2956 25.9623C64.7273 26.0048 64.2154 25.524 63.6352 25.911C63.0369 25.7191 62.4395 25.5265 61.8412 25.3346C61.2893 25.1575 60.9295 24.7305 60.5419 24.3391C60.2662 24.0601 59.9878 23.7838 59.7104 23.5065C59.6399 22.9257 59.5694 22.3449 59.5006 21.7741L60.7618 20.5129C60.9048 21.0601 61.0269 21.5281 61.1471 21.9876C61.9522 21.8599 61.3898 20.9549 62.0233 20.7689C62.6291 20.8632 62.3181 21.504 62.5061 21.9934C62.7274 21.6328 62.8556 21.4229 63.0127 21.1664C63.4953 21.4035 63.7487 21.7797 63.8934 22.3113C64.0369 22.2483 64.1499 22.1986 64.3201 22.1234C64.5014 22.1298 64.3334 22.3249 64.4408 22.494C64.7484 22.5584 65.1229 22.637 65.586 22.7341C65.5244 20.1739 66.2387 17.7022 65.7157 15.2309L66.4752 14.4713C66.6665 14.7797 66.8336 15.049 67.0621 15.4174C67.1987 15.132 67.3039 14.9124 67.448 14.6112L68.0355 15.1987C68.189 15.109 68.2751 15.0585 68.3614 15.0082C68.423 15.0315 68.4944 15.0429 68.5438 15.0818C68.6274 15.147 68.687 15.245 68.7745 15.3036C69.7148 15.9357 69.9472 16.951 70.1254 17.951C70.3186 19.0326 70.3905 20.1362 70.5246 21.313C71.3433 21.3877 72.1554 21.0098 73.096 20.9032C73.1745 20.9624 73.3064 21.0626 73.4585 21.1775C73.7709 21.2122 74.1631 21.1559 74.4421 21.3077C75.0537 21.6406 75.8383 21.7355 76.2136 22.5795C76.1825 22.6628 76.1184 22.8507 76.0443 23.0348C75.9702 23.2183 75.886 23.3968 75.7967 23.6C75.3924 23.5967 75.0043 24.1142 74.6684 23.6567C74.0726 23.9854 73.5482 24.2744 73.0399 24.5545C72.7928 24.4879 72.5688 24.4276 72.3156 24.3593L71.4794 25.1955C71.368 25.1264 71.2834 25.0745 71.179 25.0101C70.6318 25.0814 70.6521 25.6214 70.5196 25.8504C70.559 26.384 70.5893 26.7924 70.6221 27.2433C70.5166 27.2577 70.4319 27.2691 70.2856 27.2893C70.3225 27.5051 70.3622 27.7374 70.4105 28.0206C70.3747 28.0159 70.4619 28.027 70.591 28.0434C70.3281 28.4823 70.6501 28.8654 70.7859 29.3099C70.5899 29.3565 70.4611 29.3871 70.2637 29.434C70.3733 29.5853 70.4808 29.7332 70.6074 29.9087C70.5693 29.9751 70.5196 30.0614 70.4311 30.216C70.7054 30.5553 71.0354 30.9725 70.4788 31.3254C70.5241 31.676 70.4522 32.1161 70.6229 32.2518C71.1357 32.6602 70.9702 33.266 71.2251 33.7313C71.6304 34.236 71.6371 34.2288 72.0824 34.3915C72.0155 34.9836 71.8203 35.5325 71.5021 36.0688C71.3758 36.0541 71.2351 36.0383 71.0496 36.0166Z" fill="black"/>
<path fill-rule="evenodd" clip-rule="evenodd" d="M18.2177 71.7405C18.0525 71.9523 17.9531 72.08 17.8276 72.2411C18.0114 72.2505 18.1158 72.2555 18.2832 72.2641C18.4448 72.8016 18.2982 73.3674 18.3623 73.9146L18.5988 73.9146C18.5575 74.258 18.5158 74.6017 18.4806 74.894C18.6285 75.223 19.0908 75.2988 18.9201 75.7649C19.3912 75.6719 19.8179 75.5828 20.2462 75.5042C21.5902 75.2585 22.9114 74.8796 24.3062 74.964C25.1049 75.012 25.8675 75.0678 26.4822 75.6691C26.5857 75.7705 26.7909 75.7674 27.0241 75.8346C26.9403 76.2077 26.8614 76.557 26.7629 76.9948C24.3664 77.6205 22.0153 78.3937 19.4262 78.6702C19.382 78.8315 19.2071 79.1052 19.281 79.2618C19.5733 79.8823 19.5722 80.5242 19.5716 81.1782C19.5716 81.2582 19.6813 81.3379 19.7404 81.4187C19.6158 81.5744 19.5094 81.7063 19.3476 81.9081C19.5022 81.9928 19.6335 82.0647 19.8634 82.1907C19.8159 82.7263 19.9614 83.307 20.2976 83.8726C20.4928 84.201 20.4564 84.6666 20.5477 85.2076L22.1929 86.8528C22.0588 87.0052 21.947 87.1321 21.8204 87.2759C21.8731 87.387 21.9297 87.5058 21.9978 87.6482L21.4758 88.1701C21.1577 88.0152 20.8315 87.8562 20.4553 87.6732C20.374 87.8822 20.2926 88.0907 20.1957 88.3392C20.0502 88.2648 19.9361 88.2068 19.822 88.1488C19.7615 88.1737 19.6749 88.1815 19.6435 88.2273C19.384 88.6085 18.8937 88.5569 18.6819 88.4239C17.8193 87.8828 16.671 87.6429 16.3537 86.4533C15.6155 85.699 15.5095 84.6663 15.123 83.7546C14.997 83.457 15.4029 83.1255 14.937 82.8595C14.7455 82.7501 14.7802 82.2385 14.7188 81.9084C14.6633 81.6091 14.5939 81.3104 14.5722 81.0083C14.5467 80.6535 14.5878 80.2937 14.56 79.9395C14.5364 79.6444 14.4553 79.354 14.3929 79.0256C12.7818 79.2546 11.2374 78.8357 9.6772 78.5653C8.58476 77.8865 7.3674 77.3837 6.46985 76.2074C6.4382 75.7499 6.39739 75.1644 6.35408 74.5353C6.74497 74.2777 6.90849 73.7122 7.54257 73.7538C7.61004 74.2094 7.67694 74.6616 7.74468 75.1186C7.8549 75.1217 7.9579 75.1253 8.05923 75.1283C8.55506 74.8024 8.10753 74.0539 8.67527 73.7633C8.86294 73.8232 9.05061 73.8837 9.24606 73.9459C9.19859 74.1628 9.14445 74.4112 9.08726 74.6716C9.28132 74.6719 9.42401 74.6719 9.56671 74.6719C9.55922 74.2358 9.76465 74.0248 10.3199 74.0764C10.4662 74.2683 10.8415 74.3815 10.7855 74.8313C10.9409 74.7769 11.0931 74.7236 11.3102 74.6469C11.3518 74.9301 11.3885 75.1811 11.4262 75.4382C11.5648 75.3724 11.6833 75.3154 11.932 75.1972C11.8088 75.4115 11.7502 75.5128 11.648 75.6905C11.7857 75.7988 11.9245 75.9964 12.0886 76.0206C12.7682 76.1205 13.4554 76.168 14.2149 76.2419C14.2344 75.8837 14.2532 75.6128 14.2627 75.3418C14.3188 73.7411 14.0858 72.1217 14.5664 70.5473C14.2763 70.2683 14.5942 69.9904 14.57 69.7097C14.5428 69.3921 14.5453 69.072 14.5381 68.8566L15.047 68.3477C15.1558 68.9179 14.9545 69.5029 15.5719 69.8638C15.7046 69.3391 15.8346 68.8255 15.9931 68.2C16.1821 68.459 16.3276 68.6589 16.4934 68.8857C16.6996 68.8177 17.007 68.7175 17.3362 68.6092C17.3967 68.7825 17.447 68.9271 17.5061 69.0962C17.6019 69.0337 17.6849 68.979 17.7718 68.9221C17.8087 68.944 17.8879 68.9654 17.8926 68.9979C17.957 69.431 17.9301 69.8977 18.0883 70.2908C18.2871 70.7838 18.1183 71.2641 18.2177 71.7405Z" fill="black"/>
<path fill-rule="evenodd" clip-rule="evenodd" d="M39.7668 65.648C39.63 64.3046 39.5242 63.18 39.3993 62.0573C39.281 60.994 39.047 59.9521 38.7604 58.931C38.6555 58.9199 38.5539 58.9093 38.3798 58.8913C38.3626 58.6175 38.3451 58.3463 38.3268 58.0587L38.8257 57.5598C39.1988 57.5598 39.6152 57.6759 39.8968 57.5304C40.2402 57.3524 40.4856 57.524 40.7465 57.5745C41.6508 57.7491 42.452 58.0429 42.8745 59.0262C43.1344 59.6309 43.3923 60.238 43.6433 60.8477C43.719 61.0312 43.8154 61.2064 43.9442 61.4723L43.9445 62.2372L44.4209 62.7136C44.6638 63.555 44.8667 64.256 45.0883 65.0228C45.721 64.9021 46.3148 64.8018 46.9028 64.6747C48.068 64.4229 49.2212 64.404 50.3506 64.8332C50.5935 64.9257 50.8142 65.0775 51.1543 65.261C51.1871 65.3476 51.2681 65.5603 51.3564 65.7941C51.2731 66.0228 51.1832 66.2699 51.1127 66.4626C50.6338 66.6955 50.227 66.9184 49.8009 67.0942C49.3747 67.2704 48.9292 67.3995 48.4922 67.5495C48.0038 67.1611 47.6813 67.8379 47.1774 67.7455C46.7637 67.6694 46.2865 67.9428 45.7654 68.0803C45.7854 70.0736 46.0161 72.0422 46.377 73.9978C46.4045 74.148 46.5688 74.2729 46.6696 74.4092C46.5896 75.0244 46.2051 75.3273 45.6171 75.4289L45.3764 75.1882C44.6599 75.3678 43.9883 75.5363 43.2535 75.7204C42.776 75.6827 42.4831 75.166 42.0267 74.9961C41.5183 74.807 41.3157 74.3345 40.9986 74.1385C40.3831 72.5214 39.9981 70.9509 40.0031 69.2585L39.4878 68.7432C38.6555 68.892 37.8179 68.6641 36.9867 68.4503C36.708 68.3787 36.4631 68.1661 36.2097 68.0075C35.6941 67.6847 35.1444 67.4231 34.7119 66.9651C33.8849 66.0886 33.7608 64.9973 34.2683 63.8785C34.5884 63.173 35.1833 62.7719 35.6805 62.1664C35.9981 63.0775 35.2347 63.7361 35.334 64.6666C36.0192 63.9182 35.7807 62.8063 36.6405 62.2041C36.7843 62.4046 36.9284 62.6053 37.08 62.8168C37.2613 62.73 37.5278 62.6028 37.7843 62.4806L38.7457 63.442C38.8909 63.977 39.0161 64.5303 39.2002 65.0636C39.2591 65.2352 39.4725 65.3538 39.7668 65.648Z" fill="black"/>
<path fill-rule="evenodd" clip-rule="evenodd" d="M43.1366 43.429C43.2085 44.0678 43.2745 44.6514 43.347 45.2963L44.3184 46.2677C44.159 46.6408 44.0044 47.0043 43.8292 47.4143C43.1474 47.4243 42.5616 47.1189 42.0297 46.8085C41.9367 47.012 41.8542 47.1916 41.7318 47.4584C41.3595 47.3915 40.9797 47.3832 40.6485 47.2524C39.6566 46.8602 38.9414 46.0973 38.2788 45.3691C38.118 44.9568 37.9742 44.5887 37.7946 44.1292C37.5539 44.3072 37.3976 44.5218 37.2429 44.5209C36.2593 44.5157 35.2735 44.4954 34.2941 44.4127C33.766 44.3677 33.1872 44.2986 32.7419 44.0459C32.0906 43.6756 31.5387 43.1303 30.9018 42.6262C30.8082 42.0718 30.6161 41.5048 30.6472 40.9507C30.6758 40.4413 30.9451 39.9455 31.1486 39.3194C31.3499 39.3275 31.5453 39.3347 31.7435 39.3425C31.7413 39.4513 31.7141 40.9027 31.7141 40.9027C31.821 40.903 31.9282 40.903 32.0856 40.9027C32.1772 40.3175 32.1913 39.6576 32.9545 39.3202C33.0051 39.644 33.0442 39.8958 33.1131 40.3383C33.2671 39.9871 33.3535 39.7914 33.4728 39.5199C33.7038 39.5665 33.9517 39.6167 34.2527 39.6778C34.253 40.0956 34.253 40.4238 34.2532 40.82C34.407 40.7183 34.4903 40.6639 34.6283 40.5732C34.746 41.034 35.243 41.3372 34.9484 41.9271C35.9273 42.0282 36.7135 41.8372 37.5386 41.6706C37.8237 38.6176 38.1025 35.6309 38.3851 32.6043L39.1155 31.8739C39.244 32.2584 39.347 32.5646 39.4511 32.8747C39.8379 32.8228 39.8234 32.4613 39.9334 32.1826C41.0186 32.1451 41.8048 32.6671 42.4189 33.5121C42.485 34.0446 42.5527 34.5915 42.6219 35.1498C42.6521 35.1484 42.7224 35.1459 42.9147 35.1384C42.7973 35.2903 42.6843 35.4366 42.5711 35.5832C42.6763 35.5868 42.7818 35.5907 42.8873 35.5946L42.6055 35.8764C43.063 37.3716 42.8503 38.913 43.0977 40.4446C44.468 40.0548 45.8176 39.4349 47.3037 39.0587C47.4719 39.1703 47.6626 39.2972 47.8878 39.4474C47.8811 39.212 47.8761 39.0354 47.8714 38.8652C48.2967 38.541 48.7198 38.9796 49.192 38.8227C49.6057 38.6856 50.1335 38.8919 50.6171 38.9468L51.516 39.8458C51.516 39.9913 51.516 40.134 51.516 40.3338C50.6532 41.0301 49.5643 41.2306 48.4952 41.5812C48.4938 41.6087 48.4888 41.7092 48.4866 41.753C47.8672 42.127 47.038 41.8902 46.5446 42.5429C45.9342 42.4665 45.4683 42.8791 44.9233 43.0193C44.3728 43.1611 43.8156 43.2747 43.1366 43.429Z" fill="black"/>
<path fill-rule="evenodd" clip-rule="evenodd" d="M77.2805 33.4769C77.525 33.4089 77.7174 33.3553 77.9998 33.2767C78.2052 33.5643 78.412 33.8544 78.6672 34.2112C79.0145 34.3047 79.4565 34.5341 79.977 34.2845C79.909 33.8717 79.7396 33.4908 79.937 33.0246C80.0753 32.697 79.8804 32.2284 79.8321 31.8231C79.7788 31.3772 79.8809 30.9341 79.7316 30.4755C79.6058 30.0899 79.7102 29.6357 79.6483 29.2212C79.5839 28.7931 79.4426 28.3764 79.3351 27.9553L80.1885 27.1019C80.4728 27.2962 80.7832 27.4589 80.7485 27.9877C81.0028 27.7557 81.1996 27.576 81.3795 27.4117C81.8096 27.6879 82.1988 27.9383 82.5797 28.1826C82.505 28.3534 82.452 28.4741 82.3895 28.6166C82.4698 28.6751 82.5405 28.7493 82.6269 28.7862C83.359 29.0963 83.5033 29.3095 83.5 30.1174C83.4983 30.4544 83.6885 30.7862 83.9203 30.8803C84.2846 31.028 83.8609 31.2545 84.2507 31.3372C83.9539 31.3658 83.8606 31.3747 83.6996 31.3903L84.1213 31.812C83.9922 32.0027 83.8803 32.1673 83.7474 32.3631L84.1613 32.777C84.1694 33.1726 84.1755 33.4519 84.1805 33.6845C84.7029 33.679 85.1846 33.6737 85.5855 33.6698L86.1557 34.2401C86.4822 34.2401 86.8237 34.2401 87.174 34.2406C87.2162 34.3916 87.2423 34.4871 87.2884 34.6548C87.5288 34.7364 87.8245 34.8372 88.206 34.9671C88.3648 35.418 88.5402 35.9161 88.7068 36.3891L88.0758 37.0202C86.92 37.3347 85.799 37.639 84.6813 37.9427C84.7499 38.2633 84.8045 38.5185 84.8509 38.7347C84.656 38.8019 84.5056 38.8536 84.2471 38.9427L84.9517 39.6473C84.6355 39.7919 84.4145 39.893 84.0008 40.0823C84.2951 40.1279 84.3756 40.1401 84.5305 40.1639C84.5222 40.4332 84.5133 40.7181 84.4992 41.1687C84.1707 40.9335 83.965 40.7861 83.7388 40.6237C83.8084 40.4807 83.8648 40.3649 83.9361 40.2175C83.8901 40.1498 83.8343 40.0679 83.766 39.9679C83.6369 40.0304 83.5189 40.0884 83.4001 40.1462C83.2987 39.9799 83.1968 39.8119 83.0242 39.5271C83.0125 39.7958 83.0081 39.8996 83.0053 39.9613C82.6224 40.2231 82.2607 40.471 81.8795 40.7322C81.7352 40.6867 81.5472 40.627 81.3265 40.5579C81.1622 40.2792 80.9756 39.9627 80.7849 39.6403C80.9573 39.5168 81.1766 39.3602 81.3956 39.2034C81.3756 39.1678 81.3554 39.1326 81.3354 39.0965C81.0406 39.1942 80.746 39.2917 80.4861 39.3777C80.3782 39.0671 80.2704 38.7578 80.1583 38.4357C78.8143 38.0879 77.4731 37.8322 76.2474 37.22C75.4304 36.7711 75.0228 35.9277 74.4909 35.2137C74.0773 34.6584 74.1353 33.9152 74.3285 33.2317C74.356 33.1343 74.3749 33.0349 74.4126 32.8728L75.1655 32.1199C75.4032 32.1199 75.6172 32.1201 75.7677 32.1201C75.7677 32.4166 75.7674 32.7179 75.7671 32.8964L76.233 33.3622C76.3565 33.1521 76.4754 32.9505 76.6111 32.7198C76.7968 32.7134 76.9673 32.7079 77.2036 32.6998C77.2319 32.9847 77.2552 33.2195 77.2805 33.4769Z" fill="black"/>
<path fill-rule="evenodd" clip-rule="evenodd" d="M39.524 86.7866C39.6951 86.7866 39.8377 86.7866 40.0399 86.7866C39.9727 87.6472 39.9055 88.5029 39.8389 89.3585C39.8758 89.3749 39.913 89.391 39.9499 89.4068C40.0193 89.2802 40.1365 89.1581 40.1479 89.0267C40.1695 88.7819 40.1298 88.5323 40.2767 88.3133C40.4177 87.8074 40.5585 87.3013 40.6953 86.8091C41.1914 86.7566 41.1664 87.132 41.3175 87.519C41.4291 87.2713 41.5013 87.1109 41.5787 86.9379C41.6881 86.9379 41.8308 86.9379 41.974 86.9379C42.2767 87.24 42.5793 87.5426 42.8855 87.8488C42.8833 88.0231 42.8816 88.2014 42.8791 88.3893C42.928 88.4104 42.9799 88.4551 43.0246 88.4482C43.3258 88.4052 43.6284 88.3641 43.9249 88.2974C44.2433 88.2255 44.552 87.9879 44.8752 88.296C44.9124 88.3316 45.0151 88.311 45.0842 88.2991C45.3496 88.253 45.615 88.1536 45.8777 88.1625C46.1395 88.1711 46.3977 88.2855 46.7444 88.3763C46.8724 88.5043 47.0742 88.7061 47.2755 88.9079C47.2752 89.1581 47.2755 89.4076 47.2755 89.6164C45.9796 90.23 44.6989 90.8366 43.4185 91.4429C43.3208 91.7644 43.2153 92.1103 43.1095 92.4565C43.0848 92.4507 43.0601 92.4448 43.0354 92.439C43.0351 92.8313 43.0351 93.2238 43.0351 93.7252C43.0912 93.7885 43.2011 93.9129 43.3413 94.0714C43.3261 94.8512 43.3105 95.668 43.298 96.3268C43.6523 97.0181 44.2747 97.4695 43.6884 98.2763C43.3138 98.1899 42.7594 98.6705 42.3402 98.0153C42.1556 98.1172 41.9282 98.2418 41.6809 98.3781C41.6667 98.4506 41.6409 98.5808 41.6206 98.6821C41.2197 98.671 40.8691 98.6608 40.36 98.6463C39.8325 98.2293 39.1573 97.6958 38.4469 97.1341C38.3958 95.8254 38.3455 94.5359 38.292 93.1675C37.8739 93.2635 37.4741 93.394 37.0651 93.4393C36.6421 93.4859 36.2098 93.4495 35.7695 93.4495C35.634 93.1925 35.4958 92.9304 35.3461 92.6475C35.1807 92.7286 35.0624 92.7863 34.9152 92.8579L34.4039 92.3465C34.4036 92.2619 34.4039 92.155 34.4036 92.0309C34.5771 91.7713 34.7592 91.4987 34.9841 91.1617C36.1518 90.8335 37.4286 90.4745 38.6704 90.125C39.1648 89.0237 38.9821 87.8066 39.524 86.7866Z" fill="black"/>
</g>
</svg>
