<svg width="318" height="397" viewBox="0 0 318 397" fill="none" xmlns="http://www.w3.org/2000/svg">
<g clip-path="url(#clip0_233_3443)">
<rect x="0.585938" y="0.201172" width="316.8" height="465.6" rx="24" fill="#E1EFFF"/>
<path d="M36.9299 45.4816C37.9667 45.4816 38.8955 45.6976 39.6947 46.0864C40.4723 46.4752 41.0987 47.0368 41.5307 47.7712C41.9627 48.5056 42.2003 49.348 42.2003 50.2984C42.2003 51.3136 41.9195 52.1992 41.4011 52.9552C40.8611 53.7328 40.1483 54.2728 39.2627 54.5752L42.4595 60.6016H39.6947L36.8219 55.1152H33.4523V60.6016H30.9683V45.4816H36.9299ZM33.4523 52.9552H36.7355C37.6211 52.9552 38.3339 52.7176 38.8523 52.2424C39.3707 51.7672 39.6515 51.1192 39.6515 50.2984C39.6515 49.4992 39.3707 48.8512 38.8523 48.376C38.3339 47.9008 37.6211 47.6416 36.7355 47.6416H33.4523V52.9552ZM43.9626 52.1128C44.4162 51.2488 45.0426 50.6008 45.8634 50.1256C46.6842 49.6504 47.613 49.4128 48.6714 49.4128C49.7298 49.4128 50.6586 49.6288 51.4794 50.0608C52.3002 50.4928 52.9266 51.1192 53.4018 51.8968C53.877 52.696 54.1146 53.6248 54.1362 54.6832C54.1362 54.9856 54.1146 55.2664 54.0714 55.5688H45.7338V55.6984C45.777 56.6704 46.0794 57.4264 46.641 57.988C47.181 58.5496 47.9154 58.8304 48.8226 58.8304C49.5354 58.8304 50.1402 58.6792 50.637 58.3336C51.1122 57.988 51.4362 57.5128 51.609 56.8864H53.9418C53.7258 58.0096 53.1858 58.9384 52.3002 59.6512C51.4146 60.3856 50.313 60.7312 48.9954 60.7312C47.829 60.7312 46.8354 60.5152 45.9714 60.04C45.1074 59.5648 44.4594 58.9168 43.9842 58.0528C43.509 57.2104 43.293 56.2168 43.293 55.0936C43.293 53.9704 43.509 52.9768 43.9626 52.1128ZM51.7602 53.8624C51.6522 53.0632 51.3282 52.4368 50.7882 51.9832C50.2482 51.5296 49.5786 51.292 48.7578 51.292C47.9802 51.292 47.3322 51.5296 46.7706 52.0048C46.209 52.48 45.9066 53.0848 45.8202 53.8624H51.7602ZM56.6506 51.5944H54.7282V49.5424H56.6506V46.4536H59.005V49.5424H61.6618V51.5944H59.005V57.3616C59.005 57.7936 59.0914 58.1176 59.2642 58.2904C59.437 58.4632 59.7178 58.5496 60.1498 58.5496H61.921V60.6016H59.6746C58.6162 60.6016 57.8386 60.364 57.3634 59.8672C56.8882 59.392 56.6506 58.636 56.6506 57.5992V51.5944ZM65.3545 45.5248C65.6137 45.784 65.7649 46.1296 65.7649 46.5184C65.7649 46.9288 65.6137 47.2744 65.3545 47.5336C65.0737 47.7928 64.7281 47.9224 64.3393 47.9224C63.9289 47.9224 63.5833 47.7928 63.3241 47.5336C63.0433 47.2744 62.9137 46.9288 62.9137 46.5184C62.9137 46.1296 63.0433 45.784 63.3241 45.5248C63.5833 45.2656 63.9289 45.1144 64.3393 45.1144C64.7281 45.1144 65.0737 45.2656 65.3545 45.5248ZM63.1729 49.5424H65.5057V60.6016H63.1729V49.5424ZM73.9053 49.5424V51.724H72.8685C71.8965 51.724 71.2053 52.048 70.7733 52.6744C70.3413 53.3008 70.1253 54.1 70.1253 55.0504V60.6016H67.7925V49.5424H69.8661L70.1253 51.2056C70.4277 50.6872 70.8381 50.2984 71.3565 49.996C71.8533 49.6936 72.5229 49.5424 73.3869 49.5424H73.9053ZM75.1181 52.1128C75.5717 51.2488 76.1981 50.6008 77.0189 50.1256C77.8397 49.6504 78.7685 49.4128 79.8269 49.4128C80.8853 49.4128 81.8141 49.6288 82.6349 50.0608C83.4557 50.4928 84.0821 51.1192 84.5573 51.8968C85.0325 52.696 85.2701 53.6248 85.2917 54.6832C85.2917 54.9856 85.2701 55.2664 85.2269 55.5688H76.8893V55.6984C76.9325 56.6704 77.2349 57.4264 77.7965 57.988C78.3365 58.5496 79.0709 58.8304 79.9781 58.8304C80.6909 58.8304 81.2957 58.6792 81.7925 58.3336C82.2677 57.988 82.5917 57.5128 82.7645 56.8864H85.0973C84.8813 58.0096 84.3413 58.9384 83.4557 59.6512C82.5701 60.3856 81.4685 60.7312 80.1509 60.7312C78.9845 60.7312 77.9909 60.5152 77.1269 60.04C76.2629 59.5648 75.6149 58.9168 75.1397 58.0528C74.6645 57.2104 74.4485 56.2168 74.4485 55.0936C74.4485 53.9704 74.6645 52.9768 75.1181 52.1128ZM82.9157 53.8624C82.8077 53.0632 82.4837 52.4368 81.9437 51.9832C81.4037 51.5296 80.7341 51.292 79.9133 51.292C79.1357 51.292 78.4877 51.5296 77.9261 52.0048C77.3645 52.48 77.0621 53.0848 76.9757 53.8624H82.9157ZM102.902 50.6008C103.658 51.3784 104.047 52.6312 104.047 54.3592V60.6016H101.714V54.3808C101.714 53.4304 101.52 52.696 101.131 52.1776C100.742 51.6808 100.159 51.4216 99.4032 51.4216C98.5824 51.4216 97.956 51.724 97.4808 52.2856C97.0056 52.8472 96.7896 53.6248 96.7896 54.6184V60.6016H94.4352V54.3808C94.4352 53.4088 94.2192 52.6744 93.8304 52.1776C93.4416 51.6808 92.8584 51.4216 92.1024 51.4216C91.3032 51.4216 90.6768 51.724 90.2016 52.3072C89.7264 52.912 89.5104 53.6896 89.5104 54.6832V60.6016H87.1776V49.5424H89.208L89.4672 50.9896C90.2448 49.9528 91.3248 49.4344 92.7072 49.4128C93.4848 49.4128 94.1544 49.5856 94.7592 49.9096C95.3424 50.2552 95.796 50.752 96.12 51.4216C96.5088 50.7952 97.0056 50.2984 97.6536 49.9528C98.28 49.6072 99.036 49.4128 99.9432 49.4128C101.153 49.4128 102.125 49.8232 102.902 50.6008ZM106.421 52.1128C106.875 51.2488 107.501 50.6008 108.322 50.1256C109.143 49.6504 110.072 49.4128 111.13 49.4128C112.188 49.4128 113.117 49.6288 113.938 50.0608C114.759 50.4928 115.385 51.1192 115.86 51.8968C116.336 52.696 116.573 53.6248 116.595 54.6832C116.595 54.9856 116.573 55.2664 116.53 55.5688H108.192V55.6984C108.236 56.6704 108.538 57.4264 109.1 57.988C109.64 58.5496 110.374 58.8304 111.281 58.8304C111.994 58.8304 112.599 58.6792 113.096 58.3336C113.571 57.988 113.895 57.5128 114.068 56.8864H116.4C116.184 58.0096 115.644 58.9384 114.759 59.6512C113.873 60.3856 112.772 60.7312 111.454 60.7312C110.288 60.7312 109.294 60.5152 108.43 60.04C107.566 59.5648 106.918 58.9168 106.443 58.0528C105.968 57.2104 105.752 56.2168 105.752 55.0936C105.752 53.9704 105.968 52.9768 106.421 52.1128ZM114.219 53.8624C114.111 53.0632 113.787 52.4368 113.247 51.9832C112.707 51.5296 112.037 51.292 111.216 51.292C110.439 51.292 109.791 51.5296 109.229 52.0048C108.668 52.48 108.365 53.0848 108.279 53.8624H114.219ZM127.51 50.6224C128.33 51.4432 128.762 52.7392 128.762 54.5104V60.6016H126.408V54.64C126.408 53.6032 126.17 52.804 125.738 52.2424C125.285 51.7024 124.637 51.4216 123.773 51.4216C122.844 51.4216 122.11 51.7456 121.591 52.3936C121.073 53.0416 120.814 53.9056 120.814 55.0288V60.6016H118.481V49.5424H120.511L120.77 50.9896C121.591 49.9528 122.779 49.4128 124.313 49.4128C125.609 49.4128 126.689 49.8232 127.51 50.6224ZM131.597 51.5944H129.674V49.5424H131.597V46.4536H133.951V49.5424H136.608V51.5944H133.951V57.3616C133.951 57.7936 134.037 58.1176 134.21 58.2904C134.383 58.4632 134.664 58.5496 135.096 58.5496H136.867V60.6016H134.621C133.562 60.6016 132.785 60.364 132.309 59.8672C131.834 59.392 131.597 58.636 131.597 57.5992V51.5944ZM149.434 45.4816C151.076 45.4816 152.372 45.8272 153.279 46.5184C154.186 47.2096 154.662 48.1816 154.662 49.4128C154.662 50.32 154.402 51.076 153.927 51.6592C153.452 52.2424 152.761 52.6312 151.854 52.8256C154.1 53.2144 155.245 54.4024 155.245 56.3896C155.245 57.7072 154.748 58.744 153.776 59.4784C152.804 60.2344 151.422 60.6016 149.629 60.6016H143.883V45.4816H149.434ZM146.367 51.8968H149.499C150.342 51.8968 150.99 51.7024 151.465 51.3136C151.94 50.9248 152.178 50.4064 152.178 49.7152C152.178 49.0456 151.94 48.5272 151.465 48.1384C150.99 47.7496 150.342 47.5552 149.499 47.5552H146.367V51.8968ZM146.367 58.5064H149.65C150.622 58.5064 151.378 58.312 151.897 57.9232C152.415 57.5344 152.696 56.9728 152.696 56.26C152.696 55.5256 152.415 54.964 151.897 54.5536C151.357 54.1648 150.601 53.9488 149.65 53.9488H146.367V58.5064ZM157.314 45.4816H159.647V60.6016H157.314V45.4816ZM171.848 49.5424V60.6016H169.796L169.537 59.1976C168.695 60.2344 167.55 60.7312 166.124 60.7312C164.828 60.7312 163.77 60.3424 162.971 59.5216C162.15 58.7224 161.761 57.4264 161.761 55.6336V49.5424H164.094V55.396C164.094 56.476 164.31 57.2968 164.742 57.8584C165.174 58.42 165.8 58.7008 166.664 58.7008C167.55 58.7008 168.241 58.3768 168.759 57.7288C169.256 57.0808 169.515 56.1736 169.515 55.0288V49.5424H171.848ZM174.406 52.1128C174.86 51.2488 175.486 50.6008 176.307 50.1256C177.128 49.6504 178.057 49.4128 179.115 49.4128C180.174 49.4128 181.102 49.6288 181.923 50.0608C182.744 50.4928 183.37 51.1192 183.846 51.8968C184.321 52.696 184.558 53.6248 184.58 54.6832C184.58 54.9856 184.558 55.2664 184.515 55.5688H176.178V55.6984C176.221 56.6704 176.523 57.4264 177.085 57.988C177.625 58.5496 178.359 58.8304 179.266 58.8304C179.979 58.8304 180.584 58.6792 181.081 58.3336C181.556 57.988 181.88 57.5128 182.053 56.8864H184.386C184.17 58.0096 183.63 58.9384 182.744 59.6512C181.858 60.3856 180.757 60.7312 179.439 60.7312C178.273 60.7312 177.279 60.5152 176.415 60.04C175.551 59.5648 174.903 58.9168 174.428 58.0528C173.953 57.2104 173.737 56.2168 173.737 55.0936C173.737 53.9704 173.953 52.9768 174.406 52.1128ZM182.204 53.8624C182.096 53.0632 181.772 52.4368 181.232 51.9832C180.692 51.5296 180.022 51.292 179.202 51.292C178.424 51.292 177.776 51.5296 177.214 52.0048C176.653 52.48 176.35 53.0848 176.264 53.8624H182.204ZM195.084 50.104C195.862 50.5576 196.488 51.2056 196.942 52.0696C197.374 52.9336 197.611 53.9272 197.611 55.072C197.611 56.1952 197.374 57.1888 196.942 58.0528C196.488 58.9168 195.862 59.5648 195.084 60.04C194.285 60.5152 193.378 60.7312 192.384 60.7312C191.563 60.7312 190.851 60.58 190.246 60.2776C189.641 59.9752 189.144 59.5648 188.799 59.0464V64.9216H186.466V49.5424H188.496L188.777 51.184C189.663 50.0176 190.872 49.4128 192.384 49.4128C193.378 49.4128 194.285 49.6504 195.084 50.104ZM194.328 57.7288C194.933 57.0376 195.235 56.152 195.235 55.072C195.235 53.992 194.933 53.1064 194.328 52.4152C193.723 51.7456 192.946 51.4 191.995 51.4C191.023 51.4 190.246 51.7456 189.663 52.4152C189.058 53.0848 188.777 53.9488 188.777 55.0288C188.777 56.152 189.058 57.0376 189.663 57.7288C190.246 58.42 191.023 58.7656 191.995 58.7656C192.946 58.7656 193.723 58.42 194.328 57.7288ZM205.594 49.5424V51.724H204.557C203.585 51.724 202.894 52.048 202.462 52.6744C202.03 53.3008 201.814 54.1 201.814 55.0504V60.6016H199.481V49.5424H201.554L201.814 51.2056C202.116 50.6872 202.526 50.2984 203.045 49.996C203.542 49.6936 204.211 49.5424 205.075 49.5424H205.594ZM209.256 45.5248C209.515 45.784 209.666 46.1296 209.666 46.5184C209.666 46.9288 209.515 47.2744 209.256 47.5336C208.975 47.7928 208.63 47.9224 208.241 47.9224C207.83 47.9224 207.485 47.7928 207.226 47.5336C206.945 47.2744 206.815 46.9288 206.815 46.5184C206.815 46.1296 206.945 45.784 207.226 45.5248C207.485 45.2656 207.83 45.1144 208.241 45.1144C208.63 45.1144 208.975 45.2656 209.256 45.5248ZM207.074 49.5424H209.407V60.6016H207.074V49.5424ZM220.723 50.6224C221.544 51.4432 221.976 52.7392 221.976 54.5104V60.6016H219.621V54.64C219.621 53.6032 219.384 52.804 218.952 52.2424C218.498 51.7024 217.85 51.4216 216.986 51.4216C216.057 51.4216 215.323 51.7456 214.804 52.3936C214.286 53.0416 214.027 53.9056 214.027 55.0288V60.6016H211.694V49.5424H213.724L213.984 50.9896C214.804 49.9528 215.992 49.4128 217.526 49.4128C218.822 49.4128 219.902 49.8232 220.723 50.6224ZM224.81 51.5944H222.888V49.5424H224.81V46.4536H227.164V49.5424H229.821V51.5944H227.164V57.3616C227.164 57.7936 227.251 58.1176 227.424 58.2904C227.596 58.4632 227.877 58.5496 228.309 58.5496H230.08V60.6016H227.834C226.776 60.6016 225.998 60.364 225.523 59.8672C225.048 59.392 224.81 58.636 224.81 57.5992V51.5944Z" fill="#203854"/>
<g clip-path="url(#clip1_233_3443)">
<rect width="316.8" height="362.8" transform="translate(0.585938 103.002)" fill="#E1EFFF"/>
<path fill-rule="evenodd" clip-rule="evenodd" d="M317.385 135.686C317.385 162.004 298.234 183.848 273.107 188.044C298.234 192.24 317.385 214.085 317.385 240.402C317.385 266.719 298.234 288.563 273.107 292.759C298.234 296.955 317.385 318.8 317.385 345.117C317.385 374.434 293.618 398.202 264.3 398.202C237.983 398.202 216.139 379.05 211.943 353.923C207.747 379.05 185.902 398.202 159.585 398.202C133.268 398.202 111.423 379.05 107.228 353.923C103.032 379.05 81.1876 398.202 54.8699 398.202C25.552 398.202 1.78516 374.434 1.78516 345.117C1.78516 318.8 20.9366 296.955 46.063 292.759C20.9366 288.563 1.78516 266.719 1.78516 240.402C1.78516 214.085 20.9366 192.24 46.063 188.044C20.9366 183.848 1.78516 162.004 1.78516 135.686C1.78516 106.368 25.552 82.6016 54.8699 82.6016C81.1876 82.6016 103.032 101.753 107.228 126.879C111.423 101.753 133.268 82.6016 159.585 82.6016C185.902 82.6016 207.747 101.753 211.943 126.879C216.139 101.753 237.983 82.6016 264.3 82.6016C293.618 82.6016 317.385 106.368 317.385 135.686ZM107.228 144.493C103.51 166.755 85.9389 184.327 63.6769 188.044C85.9389 191.761 103.51 209.333 107.228 231.595C110.945 209.333 128.517 191.761 150.779 188.044C128.517 184.327 110.945 166.755 107.228 144.493ZM168.391 188.044C190.654 184.327 208.225 166.755 211.943 144.493C215.66 166.755 233.232 184.327 255.494 188.044C233.232 191.761 215.66 209.333 211.943 231.595C208.225 209.333 190.654 191.761 168.391 188.044ZM211.943 336.311C215.66 314.048 233.232 296.477 255.494 292.759C233.232 289.042 215.66 271.47 211.943 249.208C208.225 271.47 190.654 289.042 168.391 292.759C190.654 296.477 208.225 314.048 211.943 336.311ZM107.228 249.208C110.945 271.47 128.517 289.042 150.779 292.759C128.517 296.477 110.945 314.048 107.228 336.311C103.51 314.048 85.9389 296.477 63.6769 292.759C85.9389 289.042 103.51 271.47 107.228 249.208Z" fill="#375E8E"/>
<path fill-rule="evenodd" clip-rule="evenodd" d="M317.385 447.686C317.385 474.004 298.234 495.848 273.107 500.044C298.234 504.24 317.385 526.085 317.385 552.402C317.385 578.719 298.234 600.563 273.107 604.759C298.234 608.955 317.385 630.8 317.385 657.117C317.385 686.434 293.618 710.202 264.3 710.202C237.983 710.202 216.139 691.05 211.943 665.923C207.747 691.05 185.902 710.202 159.585 710.202C133.268 710.202 111.423 691.05 107.228 665.923C103.032 691.05 81.1876 710.202 54.8699 710.202C25.552 710.202 1.78516 686.434 1.78516 657.117C1.78516 630.8 20.9366 608.955 46.063 604.759C20.9366 600.563 1.78516 578.719 1.78516 552.402C1.78516 526.085 20.9366 504.24 46.063 500.044C20.9366 495.848 1.78516 474.004 1.78516 447.686C1.78516 418.368 25.552 394.602 54.8699 394.602C81.1876 394.602 103.032 413.753 107.228 438.879C111.423 413.753 133.268 394.602 159.585 394.602C185.902 394.602 207.747 413.753 211.943 438.879C216.139 413.753 237.983 394.602 264.3 394.602C293.618 394.602 317.385 418.368 317.385 447.686ZM107.228 456.493C103.51 478.755 85.9389 496.327 63.6769 500.044C85.9389 503.761 103.51 521.333 107.228 543.595C110.945 521.333 128.517 503.761 150.779 500.044C128.517 496.327 110.945 478.755 107.228 456.493ZM168.391 500.044C190.654 496.327 208.225 478.755 211.943 456.493C215.66 478.755 233.232 496.327 255.494 500.044C233.232 503.761 215.66 521.333 211.943 543.595C208.225 521.333 190.654 503.761 168.391 500.044ZM211.943 648.311C215.66 626.048 233.232 608.477 255.494 604.759C233.232 601.042 215.66 583.47 211.943 561.208C208.225 583.47 190.654 601.042 168.391 604.759C190.654 608.477 208.225 626.048 211.943 648.311ZM107.228 561.208C110.945 583.47 128.517 601.042 150.779 604.759C128.517 608.477 110.945 626.048 107.228 648.311C103.51 626.048 85.9389 608.477 63.6769 604.759C85.9389 601.042 103.51 583.47 107.228 561.208Z" fill="#375E8E"/>
</g>
</g>
<defs>
<clipPath id="clip0_233_3443">
<rect x="0.585938" y="0.201172" width="316.8" height="465.6" rx="24" fill="white"/>
</clipPath>
<clipPath id="clip1_233_3443">
<rect width="316.8" height="362.8" fill="white" transform="translate(0.585938 103.002)"/>
</clipPath>
</defs>
</svg>
