<svg width="317" height="466" viewBox="0 0 317 466" fill="none" xmlns="http://www.w3.org/2000/svg">
<g clip-path="url(#clip0_270_6132)">
<rect width="316.8" height="465.6" rx="24" fill="#719DD3"/>
<path d="M36.7665 45.6004C38.5905 45.6004 40.0305 45.9844 41.0385 46.7524C42.0465 47.5204 42.5745 48.6004 42.5745 49.9684C42.5745 50.9764 42.2865 51.8164 41.7585 52.4644C41.2305 53.1124 40.4625 53.5444 39.4545 53.7604C41.9505 54.1924 43.2225 55.5124 43.2225 57.7204C43.2225 59.1844 42.6705 60.3364 41.5905 61.1524C40.5105 61.9924 38.9745 62.4004 36.9825 62.4004H30.5985V45.6004H36.7665ZM33.3585 52.7284H36.8385C37.7745 52.7284 38.4945 52.5124 39.0225 52.0804C39.5505 51.6484 39.8145 51.0724 39.8145 50.3044C39.8145 49.5604 39.5505 48.9844 39.0225 48.5524C38.4945 48.1204 37.7745 47.9044 36.8385 47.9044H33.3585V52.7284ZM33.3585 60.0724H37.0065C38.0865 60.0724 38.9265 59.8564 39.5025 59.4244C40.0785 58.9924 40.3905 58.3684 40.3905 57.5764C40.3905 56.7604 40.0785 56.1364 39.5025 55.6804C38.9025 55.2484 38.0625 55.0084 37.0065 55.0084H33.3585V60.0724ZM56.538 50.1124V62.4004H54.258L53.97 60.8404C53.034 61.9924 51.762 62.5444 50.178 62.5444C48.738 62.5444 47.562 62.1124 46.674 61.2004C45.762 60.3124 45.33 58.8724 45.33 56.8804V50.1124H47.922V56.6164C47.922 57.8164 48.162 58.7284 48.642 59.3524C49.122 59.9764 49.818 60.2884 50.778 60.2884C51.762 60.2884 52.53 59.9284 53.106 59.2084C53.658 58.4884 53.946 57.4804 53.946 56.2084V50.1124H56.538ZM61.1563 58.3444C61.2043 58.9924 61.4923 59.5204 62.0443 59.9284C62.5963 60.3364 63.3163 60.5284 64.2043 60.5284C64.9723 60.5284 65.6203 60.3844 66.1003 60.0964C66.5803 59.8084 66.8443 59.4004 66.8443 58.8964C66.8443 58.4884 66.7243 58.1764 66.5083 57.9604C66.2683 57.7684 65.9803 57.6244 65.5963 57.5284C65.2123 57.4324 64.6363 57.3364 63.8683 57.2404C62.7883 57.1204 61.9003 56.9524 61.2043 56.7364C60.5083 56.5204 59.9563 56.1844 59.5243 55.7044C59.0923 55.2244 58.9003 54.6004 58.9003 53.7844C58.9003 53.0404 59.0923 52.3684 59.5243 51.7924C59.9563 51.2164 60.5323 50.7604 61.2763 50.4244C62.0203 50.1124 62.8603 49.9444 63.8203 49.9444C65.3563 49.9444 66.6283 50.3044 67.5883 50.9764C68.5483 51.6724 69.0763 52.6324 69.1723 53.8804H66.6523C66.5803 53.3284 66.2923 52.8724 65.8123 52.5124C65.3083 52.1524 64.6843 51.9604 63.9403 51.9604C63.1723 51.9604 62.5723 52.1044 62.1163 52.3924C61.6363 52.6804 61.4203 53.0884 61.4203 53.5684C61.4203 53.9524 61.5163 54.2164 61.7563 54.4084C61.9963 54.6004 62.2843 54.7204 62.6443 54.7924C62.9803 54.8644 63.5563 54.9364 64.3483 55.0324C65.4043 55.1524 66.2923 55.3204 67.0123 55.5604C67.7323 55.8004 68.3083 56.1604 68.7403 56.6644C69.1723 57.1684 69.3883 57.8404 69.3883 58.7044C69.3883 59.4724 69.1483 60.1684 68.7163 60.7444C68.2603 61.3204 67.6363 61.7764 66.8683 62.0884C66.0763 62.4004 65.1883 62.5444 64.2283 62.5444C62.5723 62.5444 61.2283 62.1844 60.2203 61.4404C59.2123 60.6964 58.6843 59.6644 58.6603 58.3444H61.1563ZM73.9148 45.6484C74.2028 45.9364 74.3708 46.3204 74.3708 46.7524C74.3708 47.2084 74.2028 47.5924 73.9148 47.8804C73.6028 48.1684 73.2188 48.3124 72.7868 48.3124C72.3308 48.3124 71.9468 48.1684 71.6588 47.8804C71.3468 47.5924 71.2028 47.2084 71.2028 46.7524C71.2028 46.3204 71.3468 45.9364 71.6588 45.6484C71.9468 45.3604 72.3308 45.1924 72.7868 45.1924C73.2188 45.1924 73.6028 45.3604 73.9148 45.6484ZM71.4908 50.1124H74.0828V62.4004H71.4908V50.1124ZM86.6556 51.3124C87.5676 52.2244 88.0476 53.6644 88.0476 55.6324V62.4004H85.4316V55.7764C85.4316 54.6244 85.1676 53.7364 84.6876 53.1124C84.1836 52.5124 83.4636 52.2004 82.5036 52.2004C81.4716 52.2004 80.6556 52.5604 80.0796 53.2804C79.5036 54.0004 79.2156 54.9604 79.2156 56.2084V62.4004H76.6236V50.1124H78.8796L79.1676 51.7204C80.0796 50.5684 81.3996 49.9684 83.1036 49.9684C84.5436 49.9684 85.7436 50.4244 86.6556 51.3124ZM90.6928 52.9684C91.1968 52.0084 91.8928 51.2884 92.8048 50.7604C93.7168 50.2324 94.7488 49.9684 95.9248 49.9684C97.1008 49.9684 98.1328 50.2084 99.0448 50.6884C99.9568 51.1684 100.653 51.8644 101.181 52.7284C101.709 53.6164 101.973 54.6484 101.997 55.8244C101.997 56.1604 101.973 56.4724 101.925 56.8084H92.6608V56.9524C92.7088 58.0324 93.0448 58.8724 93.6688 59.4964C94.2688 60.1204 95.0848 60.4324 96.0928 60.4324C96.8848 60.4324 97.5568 60.2644 98.1088 59.8804C98.6368 59.4964 98.9968 58.9684 99.1888 58.2724H101.781C101.541 59.5204 100.941 60.5524 99.9568 61.3444C98.9728 62.1604 97.7488 62.5444 96.2848 62.5444C94.9888 62.5444 93.8848 62.3044 92.9248 61.7764C91.9648 61.2484 91.2448 60.5284 90.7168 59.5684C90.1888 58.6324 89.9488 57.5284 89.9488 56.2804C89.9488 55.0324 90.1888 53.9284 90.6928 52.9684ZM99.3568 54.9124C99.2368 54.0244 98.8768 53.3284 98.2768 52.8244C97.6768 52.3204 96.9328 52.0564 96.0208 52.0564C95.1568 52.0564 94.4368 52.3204 93.8128 52.8484C93.1888 53.3764 92.8528 54.0484 92.7568 54.9124H99.3568ZM106.086 58.3444C106.134 58.9924 106.422 59.5204 106.974 59.9284C107.526 60.3364 108.246 60.5284 109.134 60.5284C109.902 60.5284 110.55 60.3844 111.03 60.0964C111.51 59.8084 111.774 59.4004 111.774 58.8964C111.774 58.4884 111.654 58.1764 111.438 57.9604C111.198 57.7684 110.91 57.6244 110.526 57.5284C110.142 57.4324 109.566 57.3364 108.798 57.2404C107.718 57.1204 106.83 56.9524 106.134 56.7364C105.438 56.5204 104.886 56.1844 104.454 55.7044C104.022 55.2244 103.83 54.6004 103.83 53.7844C103.83 53.0404 104.022 52.3684 104.454 51.7924C104.886 51.2164 105.462 50.7604 106.206 50.4244C106.95 50.1124 107.79 49.9444 108.75 49.9444C110.286 49.9444 111.558 50.3044 112.518 50.9764C113.478 51.6724 114.006 52.6324 114.102 53.8804H111.582C111.51 53.3284 111.222 52.8724 110.742 52.5124C110.238 52.1524 109.614 51.9604 108.87 51.9604C108.102 51.9604 107.502 52.1044 107.046 52.3924C106.566 52.6804 106.35 53.0884 106.35 53.5684C106.35 53.9524 106.446 54.2164 106.686 54.4084C106.926 54.6004 107.214 54.7204 107.574 54.7924C107.91 54.8644 108.486 54.9364 109.278 55.0324C110.334 55.1524 111.222 55.3204 111.942 55.5604C112.662 55.8004 113.238 56.1604 113.67 56.6644C114.102 57.1684 114.318 57.8404 114.318 58.7044C114.318 59.4724 114.078 60.1684 113.646 60.7444C113.19 61.3204 112.566 61.7764 111.798 62.0884C111.006 62.4004 110.118 62.5444 109.158 62.5444C107.502 62.5444 106.158 62.1844 105.15 61.4404C104.142 60.6964 103.614 59.6644 103.59 58.3444H106.086ZM118.25 58.3444C118.298 58.9924 118.586 59.5204 119.138 59.9284C119.69 60.3364 120.41 60.5284 121.298 60.5284C122.066 60.5284 122.714 60.3844 123.194 60.0964C123.674 59.8084 123.938 59.4004 123.938 58.8964C123.938 58.4884 123.818 58.1764 123.602 57.9604C123.362 57.7684 123.074 57.6244 122.69 57.5284C122.306 57.4324 121.73 57.3364 120.962 57.2404C119.882 57.1204 118.994 56.9524 118.298 56.7364C117.602 56.5204 117.05 56.1844 116.618 55.7044C116.186 55.2244 115.994 54.6004 115.994 53.7844C115.994 53.0404 116.186 52.3684 116.618 51.7924C117.05 51.2164 117.626 50.7604 118.37 50.4244C119.114 50.1124 119.954 49.9444 120.914 49.9444C122.45 49.9444 123.722 50.3044 124.682 50.9764C125.642 51.6724 126.17 52.6324 126.266 53.8804H123.746C123.674 53.3284 123.386 52.8724 122.906 52.5124C122.402 52.1524 121.778 51.9604 121.034 51.9604C120.266 51.9604 119.666 52.1044 119.21 52.3924C118.73 52.6804 118.514 53.0884 118.514 53.5684C118.514 53.9524 118.61 54.2164 118.85 54.4084C119.09 54.6004 119.378 54.7204 119.738 54.7924C120.074 54.8644 120.65 54.9364 121.442 55.0324C122.498 55.1524 123.386 55.3204 124.106 55.5604C124.826 55.8004 125.402 56.1604 125.834 56.6644C126.266 57.1684 126.482 57.8404 126.482 58.7044C126.482 59.4724 126.242 60.1684 125.81 60.7444C125.354 61.3204 124.73 61.7764 123.962 62.0884C123.17 62.4004 122.282 62.5444 121.322 62.5444C119.666 62.5444 118.322 62.1844 117.314 61.4404C116.306 60.6964 115.778 59.6644 115.754 58.3444H118.25ZM133.645 62.4004L139.933 45.6004H143.221L149.485 62.4004H146.533L144.949 58.2484H138.061L136.501 62.4004H133.645ZM138.829 55.8964H144.181L141.493 48.5764L138.829 55.8964ZM162.309 45.6004V62.4004H160.053L159.741 60.5524C158.757 61.8964 157.413 62.5444 155.733 62.5444C154.605 62.5444 153.597 62.3044 152.733 61.8004C151.845 61.2964 151.149 60.5764 150.669 59.6164C150.165 58.6564 149.925 57.5524 149.925 56.2564C149.925 55.0084 150.165 53.9284 150.669 52.9684C151.173 52.0084 151.869 51.2884 152.757 50.7604C153.621 50.2324 154.629 49.9684 155.733 49.9684C156.621 49.9684 157.413 50.1364 158.085 50.4724C158.757 50.8084 159.285 51.2404 159.717 51.8164V45.6004H162.309ZM158.757 59.2324C159.405 58.4884 159.741 57.5044 159.741 56.3044C159.741 55.0804 159.405 54.0964 158.757 53.3284C158.085 52.5604 157.221 52.1764 156.165 52.1764C155.085 52.1764 154.221 52.5604 153.573 53.3284C152.901 54.0964 152.589 55.0564 152.589 56.2564C152.589 57.4804 152.901 58.4644 153.573 59.2324C154.221 60.0004 155.085 60.3604 156.165 60.3604C157.221 60.3604 158.085 60.0004 158.757 59.2324ZM163.618 50.1124H166.402L169.786 59.6164L173.122 50.1124H175.858L171.322 62.4004H168.154L163.618 50.1124ZM179.594 45.6484C179.882 45.9364 180.05 46.3204 180.05 46.7524C180.05 47.2084 179.882 47.5924 179.594 47.8804C179.282 48.1684 178.898 48.3124 178.466 48.3124C178.01 48.3124 177.626 48.1684 177.338 47.8804C177.026 47.5924 176.882 47.2084 176.882 46.7524C176.882 46.3204 177.026 45.9364 177.338 45.6484C177.626 45.3604 178.01 45.1924 178.466 45.1924C178.898 45.1924 179.282 45.3604 179.594 45.6484ZM177.17 50.1124H179.762V62.4004H177.17V50.1124ZM184.367 58.3444C184.415 58.9924 184.703 59.5204 185.255 59.9284C185.807 60.3364 186.527 60.5284 187.415 60.5284C188.183 60.5284 188.831 60.3844 189.311 60.0964C189.791 59.8084 190.055 59.4004 190.055 58.8964C190.055 58.4884 189.935 58.1764 189.719 57.9604C189.479 57.7684 189.191 57.6244 188.807 57.5284C188.423 57.4324 187.847 57.3364 187.079 57.2404C185.999 57.1204 185.111 56.9524 184.415 56.7364C183.719 56.5204 183.167 56.1844 182.735 55.7044C182.303 55.2244 182.111 54.6004 182.111 53.7844C182.111 53.0404 182.303 52.3684 182.735 51.7924C183.167 51.2164 183.743 50.7604 184.487 50.4244C185.231 50.1124 186.071 49.9444 187.031 49.9444C188.567 49.9444 189.839 50.3044 190.799 50.9764C191.759 51.6724 192.287 52.6324 192.383 53.8804H189.863C189.791 53.3284 189.503 52.8724 189.023 52.5124C188.519 52.1524 187.895 51.9604 187.151 51.9604C186.383 51.9604 185.783 52.1044 185.327 52.3924C184.847 52.6804 184.631 53.0884 184.631 53.5684C184.631 53.9524 184.727 54.2164 184.967 54.4084C185.207 54.6004 185.495 54.7204 185.855 54.7924C186.191 54.8644 186.767 54.9364 187.559 55.0324C188.615 55.1524 189.503 55.3204 190.223 55.5604C190.943 55.8004 191.519 56.1604 191.951 56.6644C192.383 57.1684 192.599 57.8404 192.599 58.7044C192.599 59.4724 192.359 60.1684 191.927 60.7444C191.471 61.3204 190.847 61.7764 190.079 62.0884C189.287 62.4004 188.399 62.5444 187.439 62.5444C185.783 62.5444 184.439 62.1844 183.431 61.4404C182.423 60.6964 181.895 59.6644 181.871 58.3444H184.367ZM197.222 61.7764C196.262 61.2484 195.542 60.5284 195.014 59.5684C194.486 58.6084 194.246 57.5044 194.246 56.2564C194.246 55.0324 194.486 53.9524 195.014 52.9924C195.542 52.0324 196.262 51.2884 197.222 50.7604C198.182 50.2324 199.262 49.9684 200.51 49.9684C201.734 49.9684 202.814 50.2324 203.774 50.7604C204.734 51.2884 205.454 52.0324 205.982 52.9924C206.51 53.9524 206.774 55.0324 206.774 56.2564C206.774 57.5044 206.51 58.6084 205.982 59.5684C205.454 60.5284 204.734 61.2484 203.774 61.7764C202.814 62.3044 201.734 62.5444 200.51 62.5444C199.262 62.5444 198.182 62.3044 197.222 61.7764ZM203.126 59.2084C203.798 58.4404 204.134 57.4564 204.134 56.2564C204.134 55.0564 203.798 54.0964 203.126 53.3284C202.454 52.5604 201.59 52.1764 200.51 52.1764C199.406 52.1764 198.542 52.5604 197.894 53.3284C197.222 54.0964 196.91 55.0564 196.91 56.2564C196.91 57.4564 197.222 58.4404 197.894 59.2084C198.542 59.9764 199.406 60.3364 200.51 60.3364C201.59 60.3364 202.454 59.9764 203.126 59.2084ZM215.65 50.1124V52.5364H214.498C213.418 52.5364 212.65 52.8964 212.17 53.5924C211.69 54.2884 211.45 55.1764 211.45 56.2324V62.4004H208.858V50.1124H211.162L211.45 51.9604C211.786 51.3844 212.242 50.9524 212.818 50.6164C213.37 50.2804 214.114 50.1124 215.074 50.1124H215.65ZM218.972 50.1124L222.404 59.5924L225.74 50.1124H228.5L222.932 64.3204C222.644 65.0644 222.38 65.6404 222.14 66.0244C221.9 66.4084 221.588 66.7204 221.252 66.9124C220.892 67.1044 220.412 67.2004 219.836 67.2004H217.052V64.9204H218.876C219.356 64.9204 219.716 64.8484 219.908 64.7044C220.1 64.5604 220.292 64.2004 220.508 63.6724L221.012 62.4964L216.212 50.1124H218.972Z" fill="white"/>
<g clip-path="url(#clip1_270_6132)">
<rect width="316.8" height="359.8" transform="translate(0 105.801)" fill="#719DD3"/>
<path fill-rule="evenodd" clip-rule="evenodd" d="M80.1 90.2027L0 9.80273V170.603L80.1 90.2027ZM160.2 90.2027L80.1 9.80273V90.2027V170.603L160.2 90.2027ZM240.3 90.2027L160.2 9.80273V90.2027V170.603L240.3 90.2027ZM240.3 90.2027V9.80273L320.4 90.2027L240.3 170.603V90.2027Z" fill="#E1EFFF"/>
<path fill-rule="evenodd" clip-rule="evenodd" d="M80.1 251.004L0 170.604V331.404L80.1 251.004ZM160.2 251.004L80.1 170.604V251.004V331.404L160.2 251.004ZM240.3 251.004L160.2 170.604V251.004V331.404L240.3 251.004ZM240.3 251.004V170.604L320.4 251.004L240.3 331.404V251.004Z" fill="#E1EFFF"/>
<path fill-rule="evenodd" clip-rule="evenodd" d="M80.1 411.802L0 331.402V492.202L80.1 411.802ZM160.2 411.802L80.1 331.402V411.802V492.202L160.2 411.802ZM240.3 411.802L160.2 331.402V411.802V492.202L240.3 411.802ZM240.3 411.802V331.402L320.4 411.802L240.3 492.202V411.802Z" fill="#E1EFFF"/>
</g>
</g>
<defs>
<clipPath id="clip0_270_6132">
<rect width="316.8" height="465.6" rx="24" fill="white"/>
</clipPath>
<clipPath id="clip1_270_6132">
<rect width="316.8" height="359.8" fill="white" transform="translate(0 105.801)"/>
</clipPath>
</defs>
</svg>
