<svg width="40" height="40" viewBox="0 0 40 40" fill="none" xmlns="http://www.w3.org/2000/svg">
<path d="M37.788 3.62392e-06H2.206C1.91609 0.000134865 1.62904 0.0573837 1.36126 0.16848C1.09348 0.279576 0.850214 0.442342 0.645355 0.64748C0.440496 0.852617 0.278061 1.09611 0.167329 1.36404C0.0565968 1.63197 -0.000261843 1.91909 9.06496e-07 2.209V37.791C3.66697e-07 38.3763 0.232322 38.9378 0.645941 39.3519C1.05956 39.7661 1.62066 39.9992 2.206 40H21.362V24.51H16.15V18.473H21.362V14.02C21.362 8.854 24.516 6.04 29.125 6.04C30.6805 6.03517 32.2351 6.11428 33.782 6.277V11.677H30.582C28.076 11.677 27.593 12.868 27.593 14.616V18.47H33.572L32.79 24.507H27.6V40H37.788C38.0783 40.0003 38.3658 39.9433 38.6341 39.8324C38.9024 39.7216 39.1462 39.5589 39.3516 39.3538C39.5571 39.1486 39.72 38.905 39.8313 38.6369C39.9425 38.3687 39.9999 38.0813 40 37.791V2.207C39.9999 1.91679 39.9425 1.62945 39.8313 1.36142C39.72 1.09339 39.557 0.849921 39.3515 0.644943C39.1461 0.439965 38.9022 0.277497 38.634 0.166833C38.3657 0.0561683 38.0782 -0.000522151 37.788 3.62392e-06Z" fill="white"/>
</svg>
