<svg width="925" height="225" viewBox="0 0 925 225" fill="none" xmlns="http://www.w3.org/2000/svg">
<path d="M31.3291 225C27.2395 225 22.7848 224.416 17.9649 223.247C12.999 222.225 8.76339 220.399 5.25803 217.77C1.75268 215.141 0 211.563 0 207.035V205.501C0.438169 202.872 1.46056 200.316 3.06719 197.833C4.67381 195.351 6.42649 193.087 8.32522 191.042C14.6056 184.323 22.2006 178.846 31.11 174.611C40.1655 170.521 49.6592 167.308 59.591 164.971C69.6689 162.634 79.3817 160.954 88.7293 159.932C94.7176 159.202 100.706 158.69 106.694 158.398C112.683 158.252 118.671 158.179 124.659 158.179H131.451C141.967 143.866 150.876 128.457 158.179 111.952C165.482 95.3019 171.543 78.7975 176.363 62.4391L173.734 63.0964C171.835 67.186 169.06 71.6407 165.409 76.4606C161.904 81.2804 157.96 86.1733 153.578 91.1392C149.343 95.9591 145.034 100.56 140.652 104.942C136.271 109.177 132.327 112.902 128.822 116.115C125.024 119.474 120.497 123.126 115.239 127.069C109.981 131.013 104.357 134.737 98.369 138.242C92.5268 141.602 86.4654 144.377 80.185 146.568C74.0506 148.759 68.1353 149.854 62.4391 149.854C54.9903 149.854 49.8053 147.663 46.8841 143.281C44.1091 138.9 42.7215 133.861 42.7215 128.165C42.7215 122.614 43.6709 116.699 45.5696 110.419C47.6144 104.138 50.1704 98.0039 53.2376 92.0156C56.3048 86.0273 59.591 80.7692 63.0964 76.2415C65.4333 73.3204 67.8432 70.3992 70.3262 67.4781C72.8092 64.557 75.2921 61.7089 77.7751 58.9338C74.1237 56.4508 70.9834 53.4567 68.3544 49.9513C65.8715 46.446 64.63 42.6485 64.63 38.5589C64.63 37.5365 64.776 36.149 65.0682 34.3963C65.5063 32.4976 66.0906 30.8179 66.8208 29.3574C67.6972 27.7507 68.7926 26.9474 70.1071 26.9474C71.1295 26.9474 72.0058 27.3126 72.7361 28.0428C73.6125 28.6271 74.0506 29.3574 74.0506 30.2337C74.0506 31.2561 73.6855 32.4245 72.9552 33.7391C72.2249 34.9075 71.8598 36.4411 71.8598 38.3398C71.8598 41.6991 72.8091 44.7663 74.7079 47.5414C76.7527 50.1704 79.2356 52.5073 82.1568 54.5521C93.5492 43.0136 106.183 33.0818 120.058 24.7566C134.08 16.2853 149.708 10.443 166.943 7.22979C171.616 6.35346 176.363 5.91529 181.183 5.91529C186.149 5.91529 190.896 6.64557 195.424 8.10613C200.097 9.42064 203.895 11.5385 206.816 14.4596C209.883 17.3807 211.417 21.3242 211.417 26.2902C211.417 30.964 210.102 35.3457 207.473 39.4352C204.844 43.5248 201.412 47.2493 197.176 50.6086C193.087 53.8218 188.851 56.5239 184.469 58.7147C180.38 75.6573 174.61 92.8919 167.162 110.419C159.713 127.799 150.803 143.866 140.433 158.617C144.231 158.909 148.759 159.567 154.017 160.589C159.275 161.758 164.314 163.218 169.133 164.971C174.099 166.723 177.97 168.768 180.745 171.105C181.621 171.689 182.059 172.493 182.059 173.515C182.059 174.245 181.767 174.903 181.183 175.487C180.599 176.217 179.796 176.582 178.773 176.582C178.335 176.582 177.897 176.436 177.459 176.144C177.166 175.998 176.801 175.852 176.363 175.706C174.464 174.391 172.42 173.223 170.229 172.201C168.038 171.324 165.774 170.521 163.437 169.791C159.056 168.33 154.455 167.235 149.635 166.504C144.815 165.774 140.068 165.263 135.394 164.971C133.934 166.87 132.473 168.695 131.013 170.448C129.552 172.201 128.018 173.953 126.412 175.706C117.502 185.346 107.278 193.963 95.74 201.558C84.3476 209.153 71.9328 215.214 58.4956 219.742C54.8442 220.91 51.0467 221.933 47.1032 222.809C43.1597 223.832 39.2162 224.489 35.2726 224.781C34.6884 224.781 34.0312 224.781 33.3009 224.781C32.7167 224.927 32.0594 225 31.3291 225ZM121.373 64.63C128.822 64.63 136.709 64.1188 145.034 63.0964C153.359 62.074 161.027 60.4674 168.038 58.2765C168.768 57.1081 169.791 55.6475 171.105 53.8948C172.42 51.9961 173.88 50.3895 175.487 49.075C177.24 47.6144 178.992 46.8841 180.745 46.8841C181.913 46.8841 182.863 47.2493 183.593 47.9796C184.469 48.7098 185.054 49.5131 185.346 50.3895C189.873 47.9065 194.109 44.5472 198.053 40.3116C201.996 36.076 203.968 31.4752 203.968 26.5093C203.968 22.8578 202.799 20.0097 200.463 17.9649C198.126 15.9202 195.204 14.4596 191.699 13.5833C188.34 12.7069 184.907 12.2687 181.402 12.2687C176.874 12.2687 172.42 12.7069 168.038 13.5833C151.826 16.7965 137.147 22.3466 124.002 30.2337C110.857 37.9747 98.8802 47.2493 88.072 58.0574C93.184 60.3944 98.5881 62.074 104.284 63.0964C109.981 64.1188 115.677 64.63 121.373 64.63ZM177.24 54.7712L178.116 54.5521C178.408 53.9679 178.554 53.5297 178.554 53.2376C178.554 52.9455 178.481 52.5073 178.335 51.9231C178.335 51.1928 178.262 50.8277 178.116 50.8277C177.97 51.4119 177.824 52.0691 177.678 52.7994C177.532 53.3836 177.386 54.0409 177.24 54.7712ZM63.3155 143.281C64.63 143.281 65.8715 143.208 67.0399 143.062C68.3544 142.77 69.6689 142.478 70.9834 142.186C80.185 140.141 89.3135 136.417 98.369 131.013C107.571 125.463 116.261 118.963 124.44 111.514C132.765 104.065 140.287 96.3973 147.006 88.5102C153.87 80.6232 159.567 73.1743 164.094 66.1636C157.376 67.6242 150.511 68.7926 143.5 69.6689C136.49 70.5453 129.479 70.9834 122.468 70.9834C115.896 70.9834 109.25 70.3992 102.532 69.2308C95.813 67.9163 89.5326 65.7984 83.6904 62.8773C78.4323 68.4275 73.1743 74.8539 67.9163 82.1568C62.8043 89.4596 58.4956 97.0545 54.9903 104.942C51.631 112.829 49.9513 120.57 49.9513 128.165C49.9513 131.962 50.8277 135.467 52.5803 138.681C54.4791 141.748 58.0574 143.281 63.3155 143.281ZM30.0146 218.647C30.7449 218.647 31.5482 218.647 32.4245 218.647C33.3009 218.647 34.1042 218.574 34.8345 218.427C38.6319 218.135 42.3564 217.478 46.0078 216.456C49.8053 215.579 53.3836 214.557 56.7429 213.389C69.3038 209.153 80.9883 203.384 91.7965 196.081C102.605 188.924 112.171 180.891 120.497 171.981C121.665 170.813 122.76 169.572 123.783 168.257C124.805 166.943 125.901 165.774 127.069 164.752C125.609 164.606 124.148 164.533 122.687 164.533C121.227 164.533 119.766 164.533 118.306 164.533C113.486 164.533 108.666 164.679 103.846 164.971C99.1723 165.263 94.4985 165.701 89.8247 166.285C81.3535 167.162 72.444 168.622 63.0964 170.667C53.8948 172.858 45.0584 175.779 36.5871 179.43C28.2619 183.082 21.1052 187.829 15.1168 193.671C13.3642 195.424 11.6845 197.322 10.0779 199.367C8.47128 201.558 7.52191 203.895 7.2298 206.378C7.08374 206.67 7.01071 207.108 7.01071 207.692C7.01071 210.759 8.39825 213.023 11.1733 214.484C13.9484 216.091 17.0886 217.186 20.594 217.77C24.2454 218.354 27.3856 218.647 30.0146 218.647Z" fill="white"/>
<path d="M206.385 153.359C203.61 153.359 201.2 152.483 199.155 150.73C197.256 148.978 196.307 146.203 196.307 142.405C196.307 139.338 196.891 136.198 198.059 132.984C199.228 129.625 200.323 126.996 201.346 125.097C203.683 120.424 206.166 116.115 208.795 112.171C211.424 108.082 213.395 105.161 214.71 103.408C212.081 103.554 208.941 102.897 205.289 101.436C201.784 99.9757 199.301 98.0769 197.84 95.74C195.942 98.5151 193.24 103.043 189.734 109.323C186.229 115.458 181.774 121.957 176.37 128.822C175.494 129.99 174.471 130.574 173.303 130.574C171.112 130.574 170.017 129.625 170.017 127.726C170.017 126.996 170.236 126.339 170.674 125.755C172.865 122.687 175.567 118.744 178.78 113.924C182.139 108.958 185.352 103.846 188.42 98.5881C191.633 93.184 194.189 88.3642 196.088 84.1285C196.672 82.814 197.256 81.4265 197.84 79.9659C198.571 78.5054 199.228 77.1178 199.812 75.8033C200.396 74.7809 201.2 73.9046 202.222 73.1743C203.244 72.298 204.413 71.8598 205.727 71.8598C206.896 71.8598 208.064 72.371 209.233 73.3934C210.401 74.2697 210.985 75.2921 210.985 76.4606C210.985 77.7751 210.474 79.4547 209.452 81.4995C208.575 83.3982 207.626 85.37 206.604 87.4148C205.581 89.4596 205.07 91.2853 205.07 92.8919C205.07 94.2064 206.166 95.0828 208.356 95.5209C210.547 95.9591 212.154 96.1782 213.176 96.1782C217.12 96.1782 220.406 95.3749 223.035 93.7683C225.664 92.1616 227.49 91.3583 228.512 91.3583C229.389 91.3583 230.119 91.7235 230.703 92.4538C231.433 93.038 231.798 93.6952 231.798 94.4255C231.798 95.4479 231.36 96.3242 230.484 97.0545C228.439 98.9533 226.029 101.655 223.254 105.161C220.479 108.666 217.704 112.463 214.929 116.553C212.154 120.643 209.744 124.659 207.699 128.603C207.115 130.063 206.239 132.108 205.07 134.737C204.048 137.366 203.537 139.849 203.537 142.186C203.537 146.13 204.924 148.101 207.699 148.101C208.868 148.101 210.182 147.663 211.643 146.787C213.249 145.91 214.783 144.888 216.243 143.72C219.749 140.506 222.816 137.366 225.445 134.299C228.22 131.086 230.995 127.507 233.77 123.564C236.545 119.62 239.759 114.873 243.41 109.323C243.994 108.301 245.017 107.79 246.477 107.79C248.376 107.79 249.325 108.666 249.325 110.419C249.325 111.295 248.887 112.537 248.011 114.143C245.966 117.795 243.264 121.811 239.905 126.193C236.691 130.574 233.332 134.737 229.827 138.681C226.467 142.478 223.473 145.399 220.844 147.444C216.17 151.388 211.351 153.359 206.385 153.359Z" fill="white"/>
<path d="M246.97 151.168C242.15 151.168 238.791 149.927 236.892 147.444C235.139 144.815 234.263 141.675 234.263 138.023C234.263 134.518 234.847 130.867 236.016 127.069C237.184 123.272 238.426 119.766 239.74 116.553C241.201 113.194 242.369 110.711 243.246 109.104C245.875 104.576 248.796 100.195 252.009 95.9591C255.368 91.7235 258.947 87.999 262.744 84.7858C266.542 81.4265 270.412 78.8705 274.356 77.1178C278.445 75.2191 282.535 74.2697 286.624 74.2697C293.635 74.2697 298.601 76.1685 301.522 79.9659C304.443 83.6173 305.904 87.5609 305.904 91.7965C305.904 93.2571 305.685 94.7907 305.247 96.3973C304.662 98.5881 303.932 100.487 303.056 102.093C302.325 103.7 301.376 104.503 300.208 104.503C299.185 104.503 298.236 103.992 297.36 102.97C296.483 101.947 296.191 100.925 296.483 99.9026C296.775 98.8802 297.14 97.8578 297.579 96.8354C298.163 95.813 298.528 94.7906 298.674 93.7683C298.82 93.038 298.893 92.3807 298.893 91.7965C299.039 91.2123 299.112 90.628 299.112 90.0438C299.112 86.1003 297.798 83.3982 295.169 81.9377C292.686 80.3311 289.984 79.5278 287.063 79.5278C283.703 79.5278 280.198 80.4771 276.547 82.3759C273.041 84.2746 269.974 86.4654 267.345 88.9484C264.132 92.1616 260.918 95.8861 257.705 100.122C254.492 104.357 251.717 108.666 249.38 113.048C249.088 113.778 248.285 115.531 246.97 118.306C245.802 121.081 244.633 124.221 243.465 127.726C242.442 131.086 241.931 134.226 241.931 137.147C241.931 139.192 242.369 140.944 243.246 142.405C244.268 143.866 245.948 144.596 248.285 144.596C250.768 144.596 253.616 143.427 256.829 141.091C260.188 138.754 263.547 135.906 266.907 132.546C270.412 129.041 273.552 125.682 276.327 122.468C279.103 119.255 281.147 116.772 282.462 115.019C283.338 113.851 284.141 112.61 284.872 111.295C285.748 109.834 286.624 108.52 287.501 107.352C287.939 106.767 288.815 106.475 290.13 106.475C291.298 106.475 292.467 106.84 293.635 107.571C294.95 108.155 295.461 109.031 295.169 110.2C294.584 111.222 293.489 113.486 291.882 116.991C290.422 120.351 289.034 124.075 287.72 128.165C286.405 132.108 285.748 135.613 285.748 138.681C285.748 142.478 286.917 144.669 289.253 145.253C290.86 145.545 292.54 144.961 294.292 143.5C296.191 142.04 297.871 140.36 299.331 138.462C300.938 136.563 302.106 135.175 302.837 134.299C305.904 130.209 308.752 126.047 311.381 121.811C314.156 117.429 316.931 113.34 319.706 109.542C320.583 108.374 321.605 107.79 322.773 107.79C324.818 107.79 325.841 108.885 325.841 111.076C325.841 111.806 324.891 113.705 322.992 116.772C321.094 119.693 318.757 123.053 315.982 126.85C313.353 130.648 310.87 134.08 308.533 137.147C306.196 140.214 303.567 143.208 300.646 146.129C297.725 149.051 294 150.511 289.473 150.511C285.237 150.511 282.316 149.562 280.709 147.663C279.249 145.764 278.518 143.647 278.518 141.31C278.518 139.265 278.737 137.147 279.176 134.956C279.614 132.619 280.052 130.648 280.49 129.041L279.614 128.384C278.299 129.99 276.327 132.035 273.698 134.518C271.069 137.001 268.148 139.557 264.935 142.186C261.722 144.669 258.509 146.787 255.295 148.539C252.228 150.292 249.453 151.168 246.97 151.168Z" fill="white"/>
<path d="M337.372 152.483C329.777 152.483 324.08 150 320.283 145.034C316.486 140.068 314.587 134.591 314.587 128.603C314.587 124.805 315.171 121.154 316.339 117.648C317.508 113.997 319.042 110.565 320.94 107.352C322.693 104.138 325.03 100.56 327.951 96.6164C330.872 92.6728 334.231 88.8754 338.029 85.2239C341.826 81.5725 345.916 78.5784 350.298 76.2415C354.679 73.9046 359.28 72.7361 364.1 72.7361C368.19 72.7361 371.184 73.9776 373.082 76.4606C375.127 78.9435 376.15 81.7916 376.15 85.0049C376.15 86.0273 375.857 87.6339 375.273 89.8247C374.689 92.0156 373.886 94.2795 372.863 96.6164C371.987 98.9533 370.892 100.998 369.577 102.751C368.263 104.357 366.802 105.161 365.195 105.161C364.319 105.161 363.516 104.869 362.785 104.284C362.055 103.554 361.69 102.824 361.69 102.093C361.69 101.655 362.274 100.633 363.443 99.0263C364.611 97.4197 365.78 95.4479 366.948 93.111C368.116 90.7741 368.701 88.2911 368.701 85.6621C368.701 84.0555 368.263 82.5949 367.386 81.2804C366.656 79.9659 365.195 79.3087 363.005 79.3087C359.353 79.3087 355.629 80.4771 351.831 82.814C348.18 85.0049 344.747 87.853 341.534 91.3583C338.321 94.7176 335.473 98.1499 332.99 101.655C330.507 105.015 328.608 107.936 327.294 110.419C325.833 113.048 324.665 115.823 323.788 118.744C323.058 121.519 322.693 124.367 322.693 127.288C322.693 130.209 323.131 133.13 324.007 136.052C324.884 138.973 326.417 141.383 328.608 143.281C330.799 145.18 333.866 146.129 337.81 146.129C342.191 146.129 346.427 145.034 350.517 142.843C354.606 140.652 358.039 138.169 360.814 135.394C363.735 132.619 366.072 130.136 367.824 127.945C369.723 125.755 371.622 123.272 373.521 120.497C375.565 117.575 378.121 113.778 381.189 109.104C381.773 108.082 382.649 107.571 383.818 107.571C385.862 107.571 386.885 108.666 386.885 110.857C386.885 111.587 386.739 112.171 386.447 112.61C382.503 118.89 378.121 125.097 373.301 131.232C368.628 137.366 363.297 142.478 357.308 146.568C351.466 150.511 344.82 152.483 337.372 152.483Z" fill="white"/>
<path d="M396.151 152.483C388.556 152.483 383.225 150.292 380.158 145.91C377.237 141.383 375.776 136.125 375.776 130.136C375.776 125.755 376.872 120.57 379.063 114.581C381.254 108.447 384.248 102.459 388.045 96.6164C391.989 90.7741 396.516 85.9542 401.628 82.1568C406.74 78.2132 412.218 76.2415 418.06 76.2415C421.857 76.2415 424.851 77.3369 427.042 79.5278C429.379 81.5725 430.548 84.2016 430.548 87.4148C430.548 93.5492 428.576 99.4645 424.632 105.161C420.689 110.857 415.577 115.531 409.296 119.182C403.016 122.833 396.297 124.659 389.141 124.659C388.264 124.659 387.388 124.659 386.512 124.659C385.635 124.513 384.759 124.367 383.883 124.221C383.444 126.12 383.225 128.311 383.225 130.794C383.225 134.591 384.102 138.096 385.854 141.31C387.753 144.523 391.331 146.129 396.589 146.129C400.971 146.129 405.207 145.034 409.296 142.843C413.386 140.652 416.818 138.169 419.593 135.394C422.368 132.619 424.705 130.136 426.604 127.945C428.503 125.755 430.475 123.272 432.519 120.497C434.564 117.575 437.12 113.778 440.187 109.104C440.772 108.082 441.648 107.571 442.816 107.571C444.861 107.571 445.884 108.666 445.884 110.857C445.884 111.587 445.738 112.171 445.445 112.61C441.502 119.328 437.12 125.755 432.3 131.889C427.48 137.877 422.076 142.843 416.088 146.787C410.246 150.584 403.6 152.483 396.151 152.483ZM390.674 117.868C396.224 117.868 401.409 116.407 406.229 113.486C411.195 110.419 415.212 106.621 418.279 102.093C421.492 97.5657 423.099 92.9649 423.099 88.2911C423.099 86.6845 422.661 85.37 421.784 84.3476C421.054 83.3252 419.739 82.814 417.841 82.814C414.043 82.814 410.392 84.1285 406.886 86.7575C403.381 89.2405 400.168 92.4537 397.247 96.3973C394.472 100.195 392.062 103.992 390.017 107.79C388.118 111.587 386.731 114.8 385.854 117.429C386.585 117.575 387.315 117.722 388.045 117.868C388.922 117.868 389.798 117.868 390.674 117.868Z" fill="white"/>
<path d="M549.379 165.628C547.042 165.628 544.705 165.482 542.368 165.19C540.177 165.044 537.913 164.898 535.576 164.752C526.521 163.583 519.072 160.37 513.23 155.112C507.534 150 503.298 143.866 500.523 136.709C497.894 129.406 496.579 122.249 496.579 115.239C496.579 108.812 497.383 102.532 498.989 96.3973C500.742 90.1168 503.006 84.0555 505.781 78.2132C513.23 63.0234 523.308 49.5131 536.015 37.6826C548.868 25.852 563.984 16.5774 581.365 9.85882L581.146 8.98247C573.551 9.27459 565.445 10.1509 556.828 11.6115C548.21 13.0721 539.739 15.1168 531.414 17.7459C523.235 20.3749 516.005 23.6612 509.724 27.6047C498.916 34.0312 493.512 42.8676 493.512 54.1139C493.512 56.1587 492.271 57.1811 489.788 57.1811C487.451 57.1811 486.282 56.1587 486.282 54.1139C486.282 40.8228 492.636 30.3798 505.343 22.7848C512.938 18.2571 521.555 14.5326 531.195 11.6115C540.835 8.69036 550.766 6.49951 560.99 5.03895C571.214 3.57839 580.781 2.8481 589.69 2.8481C591.881 2.8481 594.072 2.8481 596.263 2.8481C598.454 2.8481 600.645 2.99416 602.835 3.28628C607.071 2.26388 611.38 1.46057 615.761 0.876341C620.143 0.292114 624.525 0 628.907 0C630.513 0 632.631 0.219086 635.26 0.657259C638.035 0.949368 640.737 1.53359 643.366 2.40994C646.141 3.14022 648.478 4.16262 650.377 5.47713C652.276 6.79163 653.225 8.47128 653.225 10.5161C653.225 11.3924 652.86 12.1227 652.13 12.7069C651.399 13.1451 650.523 13.3642 649.501 13.3642C648.478 13.3642 647.748 13.1451 647.31 12.7069C646.872 12.2687 646.433 11.6845 645.995 10.9542C644.535 8.47127 641.906 7.08374 638.108 6.79163C634.311 6.35346 630.951 6.13437 628.03 6.13437C627.592 6.13437 627.081 6.2074 626.497 6.35347C626.058 6.35347 625.547 6.35347 624.963 6.35347L624.744 7.22979C639.057 11.3194 650.012 18.4031 657.607 28.481C665.202 38.4129 668.999 49.8783 668.999 62.8773C668.999 73.5394 666.808 83.9094 662.427 93.9873C658.045 103.919 651.984 113.267 644.243 122.03C636.648 130.648 627.738 138.242 617.514 144.815C607.436 151.388 596.555 156.5 584.871 160.151C573.332 163.802 561.502 165.628 549.379 165.628ZM549.16 159.275C560.406 159.275 571.506 157.522 582.461 154.017C593.415 150.511 603.712 145.691 613.352 139.557C622.991 133.423 631.463 126.339 638.765 118.306C646.068 110.127 651.764 101.363 655.854 92.0156C660.09 82.5219 662.207 72.8092 662.207 62.8773C662.207 52.5073 659.724 43.5248 654.759 35.9299C649.793 28.335 642.928 22.3466 634.165 17.9649C625.547 13.4372 615.469 10.6621 603.931 9.63973C582.753 14.3135 564.35 23.0039 548.722 35.7108C533.094 48.2717 521.117 63.2425 512.792 80.6232C510.017 86.1733 507.826 91.9426 506.219 97.9309C504.613 103.773 503.809 109.761 503.809 115.896C503.809 121.884 504.905 128.018 507.095 134.299C509.286 140.433 512.719 145.764 517.392 150.292C522.212 154.82 528.566 157.595 536.453 158.617C538.498 158.909 540.615 159.056 542.806 159.056C544.997 159.202 547.115 159.275 549.16 159.275Z" fill="white"/>
<path d="M668.869 175.268C666.386 175.268 665.145 174.099 665.145 171.762C665.145 170.448 665.364 169.06 665.802 167.6C666.24 166.139 666.532 164.752 666.678 163.437C668.139 156.134 670.037 147.955 672.374 138.9C674.857 129.698 677.632 120.643 680.7 111.733C683.767 102.678 686.98 94.7907 690.339 88.0721C689.025 88.2181 687.126 88.5832 684.643 89.1675C682.16 89.6056 679.896 90.3359 677.851 91.3583C675.807 92.2347 674.784 93.4761 674.784 95.0828C674.784 96.1052 673.981 96.9815 672.374 97.7118C670.768 98.296 669.38 98.5881 668.212 98.5881C666.021 98.5881 664.925 97.4927 664.925 95.3019C664.925 93.111 665.948 91.2123 667.993 89.6056C670.184 87.999 672.813 86.6115 675.88 85.443C679.093 84.1285 682.233 83.1061 685.3 82.3759C688.514 81.6456 691.07 81.1344 692.968 80.8423C695.451 75.5842 698.372 69.5959 701.732 62.8773C705.237 56.0127 709.254 49.221 713.781 42.5024C718.309 35.6378 723.275 29.5764 728.679 24.3184C734.229 18.9143 740.291 15.1168 746.863 12.926C749.346 12.0497 751.975 11.6115 754.75 11.6115C760.3 11.6115 764.098 12.853 766.143 15.3359C768.333 17.6728 769.429 20.3019 769.429 23.223C769.429 25.9981 768.699 28.554 767.238 30.8909C765.777 33.0818 764.171 34.1772 762.418 34.1772C761.396 34.1772 760.519 33.8121 759.789 33.0818C759.059 32.2055 758.913 31.4021 759.351 30.6719C760.958 28.1889 761.761 25.779 761.761 23.4421C761.761 21.8354 761.177 20.5209 760.008 19.4985C758.986 18.4761 757.233 17.9649 754.75 17.9649C752.851 17.9649 751.099 18.2571 749.492 18.8413C743.796 20.74 738.465 24.0993 733.499 28.9192C728.679 33.739 724.224 39.2162 720.135 45.3505C716.191 51.3388 712.686 57.4002 709.619 63.5346C706.552 69.5229 703.996 74.8539 701.951 79.5278C706.186 78.7975 709.692 78.3593 712.467 78.2132C715.242 77.9211 718.09 77.629 721.011 77.3369C723.932 77.0448 727.657 76.6797 732.184 76.2415H732.842C734.594 76.2415 735.471 77.1178 735.471 78.8705C735.471 79.7468 735.252 80.5501 734.813 81.2804C734.375 82.0107 733.718 82.4489 732.842 82.5949C724.809 83.4713 718.236 84.2016 713.124 84.7858C708.158 85.224 703.338 85.8082 698.664 86.5385C693.553 99.3914 688.806 112.244 684.424 125.097C680.042 137.95 676.537 151.095 673.908 164.533C673.762 165.847 673.543 167.162 673.251 168.476C672.959 169.791 672.666 171.105 672.374 172.42C671.936 174.318 670.768 175.268 668.869 175.268Z" fill="white"/>
<path d="M762.983 155.112C760.5 155.112 758.236 154.382 756.191 152.921C754.147 151.461 753.124 148.905 753.124 145.253C753.124 140.579 754.293 135.613 756.63 130.355C759.113 125.097 762.18 119.328 765.831 113.048C761.157 118.452 755.899 124.294 750.057 130.574C744.361 136.855 738.665 141.894 732.968 145.691C728.002 148.905 723.913 150.511 720.7 150.511C718.071 150.511 716.099 149.635 714.784 147.882C713.324 146.13 712.594 143.866 712.594 141.091C712.594 137.877 713.324 134.737 714.784 131.67C717.998 124.075 721.649 115.823 725.739 106.913C729.828 97.8578 734.137 89.8978 738.665 83.0331C739.103 82.4489 739.541 82.0107 739.979 81.7186C740.563 81.2804 741.221 81.0613 741.951 81.0613C742.973 81.0613 743.85 81.3535 744.58 81.9377C745.456 82.5219 745.894 83.2522 745.894 84.1285C745.894 84.4206 745.748 84.8588 745.456 85.443C744.58 87.4878 742.973 90.7741 740.636 95.3019C738.446 99.6835 735.889 104.722 732.968 110.419C730.047 116.115 727.053 121.957 723.986 127.945C721.649 132.473 720.481 136.417 720.481 139.776C720.481 142.405 721.43 143.72 723.329 143.72C724.205 143.72 725.154 143.427 726.177 142.843C730.558 140.36 734.429 137.439 737.788 134.08C741.148 130.721 744.434 127.288 747.647 123.783C749.692 121.592 751.664 119.401 753.562 117.21C755.607 115.019 757.579 112.756 759.478 110.419C760.208 109.688 761.595 107.936 763.64 105.161C765.831 102.386 768.241 99.3184 770.87 95.9591C773.499 92.4537 775.836 89.3866 777.881 86.7575C780.072 83.9825 781.386 82.3028 781.824 81.7186C782.993 80.5502 784.745 79.9659 787.082 79.9659C788.251 79.9659 789.273 80.258 790.15 80.8423C791.172 81.2804 791.683 82.0837 791.683 83.2522C791.683 84.2746 790.953 86.0273 789.492 88.5102C788.178 90.8471 786.571 93.4761 784.672 96.3973C782.774 99.1723 780.948 101.728 779.195 104.065C777.443 106.402 776.201 108.155 775.471 109.323C774.887 110.346 773.791 112.317 772.185 115.239C770.578 118.014 768.825 121.3 766.927 125.097C765.174 128.749 763.64 132.327 762.326 135.833C761.011 139.338 760.354 142.259 760.354 144.596C760.354 147.225 761.449 148.539 763.64 148.539C765.977 148.539 768.679 147.079 771.746 144.158C774.814 141.237 778.027 137.658 781.386 133.423C784.745 129.041 787.886 124.732 790.807 120.497C793.728 116.115 796.211 112.463 798.256 109.542C798.84 108.812 799.424 108.374 800.008 108.228C800.593 108.082 801.031 108.009 801.323 108.009C802.783 108.009 803.66 108.885 803.952 110.638C803.952 111.076 803.441 112.317 802.418 114.362C801.396 116.407 800.373 118.087 799.351 119.401C798.037 121.3 795.992 124.221 793.217 128.165C790.588 131.962 787.52 136.052 784.015 140.433C780.656 144.669 776.931 148.466 772.842 151.826C770.213 154.017 766.926 155.112 762.983 155.112Z" fill="white"/>
<path d="M822.774 153.359C819.999 153.359 817.589 152.483 815.545 150.73C813.646 148.978 812.696 146.203 812.696 142.405C812.696 139.338 813.281 136.198 814.449 132.984C815.618 129.625 816.713 126.996 817.735 125.097C820.072 120.424 822.555 116.115 825.184 112.171C827.813 108.082 829.785 105.161 831.1 103.408C828.47 103.554 825.33 102.897 821.679 101.436C818.174 99.9757 815.691 98.0769 814.23 95.74C812.331 98.5151 809.629 103.043 806.124 109.323C802.619 115.458 798.164 121.957 792.76 128.822C791.883 129.99 790.861 130.574 789.693 130.574C787.502 130.574 786.406 129.625 786.406 127.726C786.406 126.996 786.625 126.339 787.063 125.755C789.254 122.687 791.956 118.744 795.17 113.924C798.529 108.958 801.742 103.846 804.809 98.5881C808.023 93.184 810.579 88.3642 812.477 84.1285C813.062 82.814 813.646 81.4265 814.23 79.9659C814.96 78.5054 815.618 77.1178 816.202 75.8033C816.786 74.7809 817.589 73.9046 818.612 73.1743C819.634 72.298 820.803 71.8598 822.117 71.8598C823.286 71.8598 824.454 72.371 825.622 73.3934C826.791 74.2697 827.375 75.2921 827.375 76.4606C827.375 77.7751 826.864 79.4547 825.842 81.4995C824.965 83.3982 824.016 85.37 822.993 87.4148C821.971 89.4596 821.46 91.2853 821.46 92.8919C821.46 94.2064 822.555 95.0828 824.746 95.5209C826.937 95.9591 828.544 96.1782 829.566 96.1782C833.509 96.1782 836.796 95.3749 839.425 93.7683C842.054 92.1616 843.879 91.3583 844.902 91.3583C845.778 91.3583 846.508 91.7235 847.093 92.4538C847.823 93.038 848.188 93.6952 848.188 94.4255C848.188 95.4479 847.75 96.3242 846.874 97.0545C844.829 98.9533 842.419 101.655 839.644 105.161C836.869 108.666 834.094 112.463 831.319 116.553C828.544 120.643 826.134 124.659 824.089 128.603C823.505 130.063 822.628 132.108 821.46 134.737C820.437 137.366 819.926 139.849 819.926 142.186C819.926 146.13 821.314 148.101 824.089 148.101C825.257 148.101 826.572 147.663 828.032 146.787C829.639 145.91 831.173 144.888 832.633 143.72C836.138 140.506 839.206 137.366 841.835 134.299C844.61 131.086 847.385 127.507 850.16 123.564C852.935 119.62 856.148 114.873 859.8 109.323C860.384 108.301 861.406 107.79 862.867 107.79C864.766 107.79 865.715 108.666 865.715 110.419C865.715 111.295 865.277 112.537 864.4 114.143C862.356 117.795 859.654 121.811 856.294 126.193C853.081 130.574 849.722 134.737 846.216 138.681C842.857 142.478 839.863 145.399 837.234 147.444C832.56 151.388 827.74 153.359 822.774 153.359Z" fill="white"/>
<path d="M874.971 152.483C867.376 152.483 862.045 150.292 858.978 145.91C856.057 141.383 854.596 136.125 854.596 130.136C854.596 125.755 855.692 120.57 857.883 114.581C860.073 108.447 863.068 102.459 866.865 96.6164C870.809 90.7741 875.336 85.9542 880.448 82.1568C885.56 78.2132 891.037 76.2415 896.88 76.2415C900.677 76.2415 903.671 77.3369 905.862 79.5278C908.199 81.5725 909.368 84.2016 909.368 87.4148C909.368 93.5492 907.396 99.4645 903.452 105.161C899.509 110.857 894.397 115.531 888.116 119.182C881.836 122.833 875.117 124.659 867.961 124.659C867.084 124.659 866.208 124.659 865.331 124.659C864.455 124.513 863.579 124.367 862.702 124.221C862.264 126.12 862.045 128.311 862.045 130.794C862.045 134.591 862.922 138.096 864.674 141.31C866.573 144.523 870.151 146.129 875.409 146.129C879.791 146.129 884.027 145.034 888.116 142.843C892.206 140.652 895.638 138.169 898.413 135.394C901.188 132.619 903.525 130.136 905.424 127.945C907.323 125.755 909.294 123.272 911.339 120.497C913.384 117.575 915.94 113.778 919.007 109.104C919.591 108.082 920.468 107.571 921.636 107.571C923.681 107.571 924.703 108.666 924.703 110.857C924.703 111.587 924.557 112.171 924.265 112.61C920.322 119.328 915.94 125.755 911.12 131.889C906.3 137.877 900.896 142.843 894.908 146.787C889.066 150.584 882.42 152.483 874.971 152.483ZM869.494 117.868C875.044 117.868 880.229 116.407 885.049 113.486C890.015 110.419 894.032 106.621 897.099 102.093C900.312 97.5657 901.919 92.9649 901.919 88.2911C901.919 86.6845 901.48 85.37 900.604 84.3476C899.874 83.3252 898.559 82.814 896.661 82.814C892.863 82.814 889.212 84.1285 885.706 86.7575C882.201 89.2405 878.988 92.4537 876.067 96.3973C873.292 100.195 870.882 103.992 868.837 107.79C866.938 111.587 865.551 114.8 864.674 117.429C865.404 117.575 866.135 117.722 866.865 117.868C867.741 117.868 868.618 117.868 869.494 117.868Z" fill="white"/>
<path d="M140.931 215.902V197.008H142.96V213.999H151.328V215.902H140.931Z" fill="white"/>
<path d="M164.547 215.902V197.008H176.72V198.91H166.576V205.478H176.213V207.381H166.576V213.999H176.72V215.902H164.547Z" fill="white"/>
<path d="M188.267 215.902L195.165 197.008H197.346L204.244 215.902H202.113L200.49 211.286H192.045L190.397 215.902H188.267ZM192.705 209.384H199.78L195.951 198.53H196.56L192.705 209.384Z" fill="white"/>
<path d="M216.907 215.902V197.008H223.12C224.997 197.008 226.628 197.397 228.015 198.175C229.401 198.936 230.475 200.026 231.236 201.446C231.996 202.85 232.377 204.515 232.377 206.442C232.377 208.353 231.996 210.018 231.236 211.438C230.475 212.858 229.401 213.957 228.015 214.735C226.628 215.513 224.997 215.902 223.12 215.902H216.907ZM218.936 213.999H223.12C224.574 213.999 225.834 213.695 226.899 213.087C227.964 212.461 228.784 211.582 229.359 210.449C229.951 209.316 230.247 207.981 230.247 206.442C230.247 204.904 229.951 203.576 229.359 202.461C228.767 201.328 227.939 200.457 226.874 199.849C225.808 199.223 224.557 198.91 223.12 198.91H218.936V213.999Z" fill="white"/>
<path d="M245.873 215.902V197.008H258.046V198.91H247.902V205.478H257.539V207.381H247.902V213.999H258.046V215.902H245.873Z" fill="white"/>
<path d="M271.545 215.902V197.008H278.037C279.272 197.008 280.354 197.253 281.284 197.744C282.213 198.217 282.932 198.893 283.439 199.772C283.963 200.635 284.225 201.641 284.225 202.79C284.225 204.126 283.87 205.267 283.16 206.214C282.467 207.161 281.52 207.829 280.32 208.217L284.733 215.902H282.349L277.733 207.761L279.103 208.547H273.574V215.902H271.545ZM273.574 206.645H278.139C278.95 206.645 279.661 206.493 280.269 206.189C280.878 205.867 281.351 205.419 281.689 204.844C282.027 204.253 282.197 203.56 282.197 202.765C282.197 201.97 282.027 201.286 281.689 200.711C281.351 200.136 280.878 199.696 280.269 199.392C279.661 199.071 278.95 198.91 278.139 198.91H273.574V206.645Z" fill="white"/>
<path d="M312.947 220.72V194.472H314.976V220.72H312.947Z" fill="white"/>
<path d="M344.589 215.902V197.008H356.762V198.91H346.618V205.478H356.255V207.381H346.618V213.999H356.762V215.902H344.589Z" fill="white"/>
<path d="M370.261 215.902V197.008H372.037L383.119 212.909H382.434V197.008H384.463V215.902H382.688L371.606 199.899H372.29V215.902H370.261Z" fill="white"/>
<path d="M402.35 215.902V198.91H397.126V197.008H409.553V198.91H404.379V215.902H402.35Z" fill="white"/>
<path d="M422.2 215.902V197.008H428.692C429.927 197.008 431.009 197.253 431.938 197.744C432.868 198.217 433.587 198.893 434.094 199.772C434.618 200.635 434.88 201.641 434.88 202.79C434.88 204.126 434.525 205.267 433.815 206.214C433.122 207.161 432.175 207.829 430.975 208.217L435.387 215.902H433.004L428.388 207.761L429.758 208.547H424.229V215.902H422.2ZM424.229 206.645H428.794C429.605 206.645 430.315 206.493 430.924 206.189C431.533 205.867 432.006 205.419 432.344 204.844C432.682 204.253 432.851 203.56 432.851 202.765C432.851 201.97 432.682 201.286 432.344 200.711C432.006 200.136 431.533 199.696 430.924 199.392C430.315 199.071 429.605 198.91 428.794 198.91H424.229V206.645Z" fill="white"/>
<path d="M448.591 215.902V197.008H460.763V198.91H450.619V205.478H460.256V207.381H450.619V213.999H460.763V215.902H448.591Z" fill="white"/>
<path d="M474.263 215.902V197.008H480.755C481.989 197.008 483.071 197.253 484.001 197.744C484.931 198.217 485.649 198.893 486.157 199.772C486.681 200.635 486.943 201.641 486.943 202.79C486.943 203.94 486.681 204.946 486.157 205.808C485.649 206.67 484.931 207.347 484.001 207.837C483.088 208.31 482.006 208.547 480.755 208.547H476.292V215.902H474.263ZM476.292 206.645H480.856C481.668 206.645 482.378 206.493 482.987 206.189C483.595 205.867 484.069 205.419 484.407 204.844C484.745 204.253 484.914 203.56 484.914 202.765C484.914 201.97 484.745 201.286 484.407 200.711C484.069 200.136 483.595 199.696 482.987 199.392C482.378 199.071 481.668 198.91 480.856 198.91H476.292V206.645Z" fill="white"/>
<path d="M500.703 215.902V197.008H507.195C508.429 197.008 509.511 197.253 510.441 197.744C511.371 198.217 512.089 198.893 512.597 199.772C513.121 200.635 513.383 201.641 513.383 202.79C513.383 204.126 513.028 205.267 512.318 206.214C511.624 207.161 510.678 207.829 509.477 208.217L513.89 215.902H511.506L506.891 207.761L508.26 208.547H502.731V215.902H500.703ZM502.731 206.645H507.296C508.108 206.645 508.818 206.493 509.427 206.189C510.035 205.867 510.509 205.419 510.847 204.844C511.185 204.253 511.354 203.56 511.354 202.765C511.354 201.97 511.185 201.286 510.847 200.711C510.509 200.136 510.035 199.696 509.427 199.392C508.818 199.071 508.108 198.91 507.296 198.91H502.731V206.645Z" fill="white"/>
<path d="M527.093 215.902V197.008H539.266V198.91H529.122V205.478H538.759V207.381H529.122V213.999H539.266V215.902H527.093Z" fill="white"/>
<path d="M552.765 215.902V197.008H554.54L565.623 212.909H564.938V197.008H566.967V215.902H565.192L554.109 199.899H554.794V215.902H552.765Z" fill="white"/>
<path d="M581.583 215.902V197.008H593.755V198.91H583.611V205.478H593.248V207.381H583.611V213.999H593.755V215.902H581.583Z" fill="white"/>
<path d="M613.899 216.206C612.563 216.206 611.388 215.927 610.374 215.369C609.36 214.811 608.573 214.05 608.016 213.087C607.458 212.106 607.179 210.99 607.179 209.739V197.008H609.208V209.739C609.208 210.652 609.402 211.455 609.791 212.148C610.197 212.824 610.746 213.357 611.439 213.746C612.149 214.118 612.969 214.304 613.899 214.304C614.829 214.304 615.641 214.118 616.334 213.746C617.044 213.357 617.593 212.824 617.982 212.148C618.388 211.455 618.591 210.652 618.591 209.739V197.008H620.62V209.739C620.62 210.99 620.341 212.106 619.783 213.087C619.225 214.05 618.439 214.811 617.424 215.369C616.427 215.927 615.252 216.206 613.899 216.206Z" fill="white"/>
<path d="M635.156 215.902V197.008H641.648C642.882 197.008 643.964 197.253 644.894 197.744C645.824 198.217 646.543 198.893 647.05 199.772C647.574 200.635 647.836 201.641 647.836 202.79C647.836 204.126 647.481 205.267 646.771 206.214C646.078 207.161 645.131 207.829 643.93 208.217L648.343 215.902H645.959L641.344 207.761L642.713 208.547H637.185V215.902H635.156ZM637.185 206.645H641.749C642.561 206.645 643.271 206.493 643.88 206.189C644.488 205.867 644.962 205.419 645.3 204.844C645.638 204.253 645.807 203.56 645.807 202.765C645.807 201.97 645.638 201.286 645.3 200.711C644.962 200.136 644.488 199.696 643.88 199.392C643.271 199.071 642.561 198.91 641.749 198.91H637.185V206.645Z" fill="white"/>
<path d="M676.557 220.72V194.472H678.586V220.72H676.557Z" fill="white"/>
<path d="M714.565 216.206C713.365 216.206 712.274 215.978 711.294 215.521C710.313 215.065 709.485 214.456 708.809 213.695C708.132 212.917 707.65 212.064 707.363 211.134L709.189 210.449C709.629 211.734 710.313 212.715 711.243 213.391C712.173 214.05 713.28 214.38 714.565 214.38C715.377 214.38 716.087 214.253 716.696 213.999C717.321 213.729 717.803 213.357 718.141 212.884C718.479 212.41 718.648 211.861 718.648 211.235C718.648 210.305 718.395 209.587 717.888 209.08C717.38 208.572 716.653 208.184 715.706 207.913L712.308 206.899C710.973 206.51 709.941 205.859 709.214 204.946C708.504 204.033 708.149 202.993 708.149 201.827C708.149 200.829 708.394 199.95 708.885 199.189C709.375 198.411 710.043 197.803 710.888 197.363C711.75 196.924 712.722 196.704 713.804 196.704C714.937 196.704 715.952 196.915 716.848 197.338C717.761 197.744 718.53 198.285 719.156 198.961C719.781 199.637 720.229 200.39 720.5 201.218L718.724 201.928C718.319 200.812 717.685 199.967 716.822 199.392C715.977 198.817 714.98 198.53 713.83 198.53C713.103 198.53 712.46 198.657 711.902 198.91C711.361 199.164 710.939 199.527 710.634 200.001C710.33 200.474 710.178 201.032 710.178 201.674C710.178 202.452 710.423 203.154 710.913 203.779C711.404 204.388 712.156 204.844 713.17 205.149L716.163 206.036C717.651 206.476 718.775 207.11 719.536 207.938C720.297 208.767 720.677 209.807 720.677 211.058C720.677 212.072 720.415 212.968 719.891 213.746C719.384 214.507 718.665 215.107 717.735 215.546C716.822 215.986 715.766 216.206 714.565 216.206Z" fill="white"/>
<path d="M734.739 215.902V197.008H741.231C742.465 197.008 743.547 197.253 744.477 197.744C745.407 198.217 746.126 198.893 746.633 199.772C747.157 200.635 747.419 201.641 747.419 202.79C747.419 203.94 747.157 204.946 746.633 205.808C746.126 206.67 745.407 207.347 744.477 207.837C743.564 208.31 742.482 208.547 741.231 208.547H736.768V215.902H734.739ZM736.768 206.645H741.333C742.144 206.645 742.854 206.493 743.463 206.189C744.071 205.867 744.545 205.419 744.883 204.844C745.221 204.253 745.39 203.56 745.39 202.765C745.39 201.97 745.221 201.286 744.883 200.711C744.545 200.136 744.071 199.696 743.463 199.392C742.854 199.071 742.144 198.91 741.333 198.91H736.768V206.645Z" fill="white"/>
<path d="M761.179 215.902V197.008H773.352V198.91H763.208V205.478H772.844V207.381H763.208V213.999H773.352V215.902H761.179Z" fill="white"/>
<path d="M784.898 215.902L791.796 197.008H793.977L800.875 215.902H798.745L797.122 211.286H788.677L787.028 215.902H784.898ZM789.336 209.384H796.412L792.582 198.53H793.191L789.336 209.384Z" fill="white"/>
<path d="M813.539 215.902V197.008H815.567V208.04L815.111 207.812L824.621 197.008H827.157L819.524 205.681L819.625 204.236L827.613 215.902H825.179L818.737 206.594L815.567 210.195V215.902H813.539Z" fill="white"/>
<path d="M840.276 215.902V197.008H852.448V198.91H842.304V205.478H851.941V207.381H842.304V213.999H852.448V215.902H840.276Z" fill="white"/>
<path d="M865.948 215.902V197.008H872.44C873.674 197.008 874.756 197.253 875.686 197.744C876.616 198.217 877.334 198.893 877.842 199.772C878.366 200.635 878.628 201.641 878.628 202.79C878.628 204.126 878.273 205.267 877.563 206.214C876.87 207.161 875.923 207.829 874.722 208.217L879.135 215.902H876.751L872.136 207.761L873.505 208.547H867.977V215.902H865.948ZM867.977 206.645H872.541C873.353 206.645 874.063 206.493 874.672 206.189C875.28 205.867 875.754 205.419 876.092 204.844C876.43 204.253 876.599 203.56 876.599 202.765C876.599 201.97 876.43 201.286 876.092 200.711C875.754 200.136 875.28 199.696 874.672 199.392C874.063 199.071 873.353 198.91 872.541 198.91H867.977V206.645Z" fill="white"/>
</svg>
