<svg width="500" height="100" viewBox="0 0 500 100" fill="none" xmlns="http://www.w3.org/2000/svg">
<rect width="500" height="100" rx="16" fill="white"/>
<path d="M16 24C16 18.4772 20.4772 14 26 14H57.596C61.5574 14 65.1454 16.3385 66.7448 19.9627L78.2184 45.9627C79.3533 48.5346 79.3533 51.4654 78.2184 54.0373L66.7448 80.0373C65.1454 83.6615 61.5574 86 57.596 86H26C20.4771 86 16 81.5228 16 76V24Z" fill="#CFB8FF"/>
<path d="M34.604 33.96H32.132V33.06H38.012V33.96H35.564V42H34.604V33.96ZM40.8642 42.144C40.4162 42.144 40.0082 42.04 39.6402 41.832C39.2722 41.616 38.9802 41.316 38.7642 40.932C38.5562 40.548 38.4522 40.112 38.4522 39.624V35.568H39.3522V39.516C39.3522 40.036 39.5042 40.456 39.8082 40.776C40.1202 41.088 40.5242 41.244 41.0202 41.244C41.5242 41.244 41.9322 41.08 42.2442 40.752C42.5562 40.416 42.7122 39.964 42.7122 39.396V35.568H43.6122V42H42.7122V41.208C42.5202 41.504 42.2602 41.736 41.9322 41.904C41.6122 42.064 41.2562 42.144 40.8642 42.144ZM47.7191 42.144C47.1111 42.144 46.5751 41.996 46.1111 41.7C45.6471 41.396 45.3071 40.98 45.0911 40.452L45.8471 40.068C46.0391 40.46 46.2991 40.768 46.6271 40.992C46.9631 41.216 47.3271 41.328 47.7191 41.328C48.1111 41.328 48.4351 41.236 48.6911 41.052C48.9551 40.86 49.0871 40.612 49.0871 40.308C49.0871 40.004 48.9671 39.76 48.7271 39.576C48.4871 39.392 48.2431 39.288 47.9951 39.264L47.0711 39.156C46.4871 39.004 46.0551 38.764 45.7751 38.436C45.4951 38.1 45.3551 37.716 45.3551 37.284C45.3551 36.916 45.4511 36.592 45.6431 36.312C45.8351 36.024 46.0951 35.804 46.4231 35.652C46.7591 35.5 47.1311 35.424 47.5391 35.424C48.0751 35.424 48.5591 35.564 48.9911 35.844C49.4311 36.124 49.7431 36.504 49.9271 36.984L49.1711 37.368C49.0031 37.016 48.7671 36.74 48.4631 36.54C48.1671 36.34 47.8431 36.24 47.4911 36.24C47.1311 36.24 46.8391 36.332 46.6151 36.516C46.3991 36.692 46.2911 36.924 46.2911 37.212C46.2911 37.516 46.3951 37.756 46.6031 37.932C46.8191 38.108 47.0351 38.208 47.2511 38.232L48.3191 38.352C48.8471 38.496 49.2591 38.744 49.5551 39.096C49.8591 39.448 50.0111 39.848 50.0111 40.296C50.0111 40.648 49.9151 40.964 49.7231 41.244C49.5311 41.524 49.2591 41.744 48.9071 41.904C48.5631 42.064 48.1671 42.144 47.7191 42.144Z" fill="#0B0B0B"/>
<path d="M35.46 57.42H32.58V55.1H38.18V70H35.46V57.42ZM46.1864 64.54C45.9464 64.5667 45.7531 64.58 45.6064 64.58C44.7131 64.58 43.9064 64.3733 43.1864 63.96C42.4797 63.5467 41.9197 62.98 41.5064 62.26C41.1064 61.54 40.9064 60.7333 40.9064 59.84C40.9064 58.8933 41.1264 58.04 41.5664 57.28C42.0064 56.52 42.6197 55.9267 43.4064 55.5C44.2064 55.0733 45.0997 54.86 46.0864 54.86C47.0731 54.86 47.9597 55.0733 48.7464 55.5C49.5331 55.9267 50.1464 56.52 50.5864 57.28C51.0397 58.0267 51.2664 58.8667 51.2664 59.8C51.2664 60.5867 51.1331 61.3467 50.8664 62.08C50.5997 62.8 50.0997 63.64 49.3664 64.6L45.2064 70H41.9464L46.1864 64.54ZM43.6264 59.82C43.6264 60.5533 43.8597 61.1533 44.3264 61.62C44.7931 62.0733 45.3797 62.3 46.0864 62.3C46.7797 62.3 47.3597 62.0733 47.8264 61.62C48.2931 61.1533 48.5264 60.5533 48.5264 59.82C48.5264 59.0867 48.2931 58.4867 47.8264 58.02C47.3597 57.54 46.7797 57.3 46.0864 57.3C45.3931 57.3 44.8064 57.54 44.3264 58.02C43.8597 58.4867 43.6264 59.0867 43.6264 59.82Z" fill="#0B0B0B"/>
<path d="M249.876 59.642H243.558V57.572H252.45V59.642L246.996 71H244.296L249.876 59.642ZM254.153 57.374H256.511V62.18C256.787 61.796 257.153 61.502 257.609 61.298C258.065 61.094 258.575 60.992 259.139 60.992C259.847 60.992 260.483 61.148 261.047 61.46C261.611 61.772 262.049 62.21 262.361 62.774C262.673 63.338 262.829 63.98 262.829 64.7V71H260.471V65.258C260.471 64.622 260.285 64.112 259.913 63.728C259.553 63.344 259.079 63.152 258.491 63.152C257.915 63.152 257.441 63.344 257.069 63.728C256.697 64.112 256.511 64.622 256.511 65.258V71H254.153V57.374ZM272.198 71.216C271.466 71.216 270.77 71.078 270.11 70.802C269.462 70.526 268.904 70.136 268.436 69.632C267.98 69.128 267.668 68.546 267.5 67.886L269.642 67.13C269.858 67.73 270.188 68.192 270.632 68.516C271.076 68.84 271.598 69.002 272.198 69.002C272.918 69.002 273.494 68.798 273.926 68.39C274.37 67.982 274.592 67.43 274.592 66.734C274.592 66.05 274.37 65.51 273.926 65.114C273.494 64.706 272.912 64.502 272.18 64.502C271.676 64.502 271.22 64.598 270.812 64.79L270.254 63.62L273.728 59.66H268.256V57.59H276.482V59.516L273.728 62.738C274.736 62.894 275.54 63.326 276.14 64.034C276.74 64.73 277.04 65.606 277.04 66.662C277.04 67.514 276.83 68.288 276.41 68.984C275.99 69.68 275.408 70.226 274.664 70.622C273.932 71.018 273.11 71.216 272.198 71.216ZM284.3 71.216C283.244 71.216 282.308 70.928 281.492 70.352C280.688 69.776 280.058 68.966 279.602 67.922C279.158 66.866 278.936 65.654 278.936 64.286C278.936 62.918 279.158 61.712 279.602 60.668C280.058 59.624 280.688 58.814 281.492 58.238C282.296 57.662 283.226 57.374 284.282 57.374C285.35 57.374 286.292 57.662 287.108 58.238C287.924 58.814 288.554 59.624 288.998 60.668C289.454 61.712 289.682 62.918 289.682 64.286C289.682 65.654 289.454 66.866 288.998 67.922C288.554 68.966 287.924 69.776 287.108 70.352C286.304 70.928 285.368 71.216 284.3 71.216ZM281.384 64.286C281.384 65.738 281.642 66.884 282.158 67.724C282.674 68.564 283.388 68.984 284.3 68.984C285.212 68.984 285.926 68.57 286.442 67.742C286.97 66.902 287.234 65.75 287.234 64.286C287.234 62.834 286.97 61.694 286.442 60.866C285.926 60.026 285.206 59.606 284.282 59.606C283.37 59.606 282.656 60.02 282.14 60.848C281.636 61.676 281.384 62.822 281.384 64.286ZM291.77 61.208H293.984V62.432C294.236 61.964 294.596 61.61 295.064 61.37C295.544 61.118 296.096 60.992 296.72 60.992C297.368 60.992 297.962 61.136 298.502 61.424C299.042 61.7 299.456 62.084 299.744 62.576C300.068 62.048 300.488 61.652 301.004 61.388C301.532 61.124 302.126 60.992 302.786 60.992C303.47 60.992 304.088 61.148 304.64 61.46C305.192 61.772 305.624 62.21 305.936 62.774C306.248 63.338 306.404 63.98 306.404 64.7V71H304.046V65.258C304.046 64.61 303.872 64.1 303.524 63.728C303.188 63.344 302.732 63.152 302.156 63.152C301.592 63.152 301.136 63.344 300.788 63.728C300.44 64.112 300.266 64.622 300.266 65.258V71H297.908V65.258C297.908 64.61 297.734 64.1 297.386 63.728C297.05 63.344 296.594 63.152 296.018 63.152C295.454 63.152 294.998 63.344 294.65 63.728C294.302 64.112 294.128 64.622 294.128 65.258V71H291.77V61.208Z" fill="#0B0B0B"/>
<path d="M112.508 66.086C112.292 66.11 112.118 66.122 111.986 66.122C111.182 66.122 110.456 65.936 109.808 65.564C109.172 65.192 108.668 64.682 108.296 64.034C107.936 63.386 107.756 62.66 107.756 61.856C107.756 61.004 107.954 60.236 108.35 59.552C108.746 58.868 109.298 58.334 110.006 57.95C110.726 57.566 111.53 57.374 112.418 57.374C113.306 57.374 114.104 57.566 114.812 57.95C115.52 58.334 116.072 58.868 116.468 59.552C116.876 60.224 117.08 60.98 117.08 61.82C117.08 62.528 116.96 63.212 116.72 63.872C116.48 64.52 116.03 65.276 115.37 66.14L111.626 71H108.692L112.508 66.086ZM110.204 61.838C110.204 62.498 110.414 63.038 110.834 63.458C111.254 63.866 111.782 64.07 112.418 64.07C113.042 64.07 113.564 63.866 113.984 63.458C114.404 63.038 114.614 62.498 114.614 61.838C114.614 61.178 114.404 60.638 113.984 60.218C113.564 59.786 113.042 59.57 112.418 59.57C111.794 59.57 111.266 59.786 110.834 60.218C110.414 60.638 110.204 61.178 110.204 61.838ZM118.656 69.146L122.292 65.348C123.072 64.532 123.642 63.914 124.002 63.494C124.362 63.062 124.62 62.69 124.776 62.378C124.932 62.054 125.01 61.724 125.01 61.388C125.01 60.836 124.836 60.398 124.488 60.074C124.14 59.738 123.684 59.57 123.12 59.57C122.532 59.57 122.028 59.738 121.608 60.074C121.2 60.398 120.9 60.878 120.708 61.514L118.566 60.848C118.71 60.152 118.998 59.546 119.43 59.03C119.874 58.502 120.42 58.094 121.068 57.806C121.716 57.518 122.4 57.374 123.12 57.374C123.972 57.374 124.728 57.536 125.388 57.86C126.048 58.172 126.558 58.616 126.918 59.192C127.29 59.756 127.476 60.404 127.476 61.136C127.476 61.856 127.278 62.558 126.882 63.242C126.498 63.914 125.868 64.706 124.992 65.618L121.842 68.93H127.656V71H118.656V69.146ZM142.194 57.59H144.714L133.842 71H131.322L142.194 57.59ZM129.882 60.884C129.882 60.248 130.038 59.66 130.35 59.12C130.662 58.58 131.088 58.154 131.628 57.842C132.168 57.53 132.768 57.374 133.428 57.374C134.076 57.374 134.664 57.53 135.192 57.842C135.732 58.154 136.158 58.58 136.47 59.12C136.782 59.66 136.938 60.248 136.938 60.884C136.938 61.52 136.782 62.108 136.47 62.648C136.158 63.188 135.732 63.614 135.192 63.926C134.664 64.238 134.076 64.394 133.428 64.394C132.768 64.394 132.168 64.238 131.628 63.926C131.088 63.614 130.662 63.188 130.35 62.648C130.038 62.108 129.882 61.52 129.882 60.884ZM131.772 60.884C131.772 61.34 131.922 61.736 132.222 62.072C132.534 62.408 132.936 62.576 133.428 62.576C133.92 62.576 134.31 62.408 134.598 62.072C134.898 61.736 135.048 61.34 135.048 60.884C135.048 60.428 134.898 60.032 134.598 59.696C134.31 59.348 133.92 59.174 133.428 59.174C132.936 59.174 132.534 59.348 132.222 59.696C131.922 60.032 131.772 60.428 131.772 60.884ZM139.026 67.706C139.026 67.07 139.182 66.482 139.494 65.942C139.806 65.402 140.232 64.976 140.772 64.664C141.312 64.352 141.906 64.196 142.554 64.196C143.202 64.196 143.796 64.352 144.336 64.664C144.876 64.976 145.302 65.402 145.614 65.942C145.926 66.482 146.082 67.07 146.082 67.706C146.082 68.342 145.926 68.93 145.614 69.47C145.302 70.01 144.876 70.436 144.336 70.748C143.796 71.06 143.202 71.216 142.554 71.216C141.906 71.216 141.312 71.06 140.772 70.748C140.232 70.436 139.806 70.01 139.494 69.47C139.182 68.93 139.026 68.342 139.026 67.706ZM140.916 67.706C140.916 68.162 141.066 68.558 141.366 68.894C141.666 69.23 142.062 69.398 142.554 69.398C143.046 69.398 143.442 69.23 143.742 68.894C144.042 68.558 144.192 68.162 144.192 67.706C144.192 67.25 144.042 66.854 143.742 66.518C143.442 66.17 143.046 65.996 142.554 65.996C142.062 65.996 141.666 66.17 141.366 66.518C141.066 66.854 140.916 67.25 140.916 67.706Z" fill="#0B0B0B"/>
<path d="M379.688 71.216C378.74 71.216 377.906 71.036 377.186 70.676C376.466 70.304 375.908 69.812 375.512 69.2C375.116 68.576 374.918 67.886 374.918 67.13C374.918 66.398 375.086 65.756 375.422 65.204C375.77 64.652 376.268 64.208 376.916 63.872C376.46 63.596 376.1 63.206 375.836 62.702C375.584 62.186 375.458 61.628 375.458 61.028C375.458 60.332 375.638 59.708 375.998 59.156C376.358 58.604 376.856 58.172 377.492 57.86C378.14 57.536 378.872 57.374 379.688 57.374C380.492 57.374 381.212 57.53 381.848 57.842C382.496 58.154 383 58.592 383.36 59.156C383.72 59.708 383.9 60.332 383.9 61.028C383.9 61.616 383.774 62.162 383.522 62.666C383.27 63.17 382.916 63.572 382.46 63.872C383.108 64.22 383.6 64.67 383.936 65.222C384.284 65.774 384.458 66.416 384.458 67.148C384.458 67.892 384.26 68.576 383.864 69.2C383.468 69.812 382.904 70.304 382.172 70.676C381.452 71.036 380.624 71.216 379.688 71.216ZM377.384 67.058C377.384 67.682 377.594 68.186 378.014 68.57C378.434 68.954 378.992 69.146 379.688 69.146C380.384 69.146 380.942 68.954 381.362 68.57C381.794 68.186 382.01 67.682 382.01 67.058C382.01 66.434 381.794 65.936 381.362 65.564C380.942 65.18 380.384 64.988 379.688 64.988C378.992 64.988 378.434 65.18 378.014 65.564C377.594 65.936 377.384 66.434 377.384 67.058ZM377.906 61.172C377.906 61.676 378.068 62.096 378.392 62.432C378.728 62.756 379.16 62.918 379.688 62.918C380.204 62.918 380.624 62.756 380.948 62.432C381.284 62.096 381.452 61.676 381.452 61.172C381.452 60.668 381.284 60.254 380.948 59.93C380.624 59.606 380.204 59.444 379.688 59.444C379.16 59.444 378.728 59.606 378.392 59.93C378.068 60.254 377.906 60.668 377.906 61.172ZM386.471 57.374H388.829V62.18C389.105 61.796 389.471 61.502 389.927 61.298C390.383 61.094 390.893 60.992 391.457 60.992C392.165 60.992 392.801 61.148 393.365 61.46C393.929 61.772 394.367 62.21 394.679 62.774C394.991 63.338 395.147 63.98 395.147 64.7V71H392.789V65.258C392.789 64.622 392.603 64.112 392.231 63.728C391.871 63.344 391.397 63.152 390.809 63.152C390.233 63.152 389.759 63.344 389.387 63.728C389.015 64.112 388.829 64.622 388.829 65.258V71H386.471V57.374ZM406.046 68.048H399.89V65.996L405.902 57.59H408.458V65.996H410.42V68.048H408.458V71H406.046V68.048ZM406.046 65.996V60.614L402.302 65.996H406.046ZM416.366 71.216C415.658 71.216 414.98 71.084 414.332 70.82C413.684 70.556 413.132 70.178 412.676 69.686C412.22 69.194 411.908 68.618 411.74 67.958L413.864 67.202C414.068 67.79 414.392 68.24 414.836 68.552C415.28 68.852 415.79 69.002 416.366 69.002C417.05 69.002 417.608 68.786 418.04 68.354C418.472 67.91 418.688 67.34 418.688 66.644C418.688 65.948 418.472 65.384 418.04 64.952C417.608 64.52 417.05 64.304 416.366 64.304C415.886 64.304 415.46 64.412 415.088 64.628C414.716 64.832 414.446 65.12 414.278 65.492L412.28 65.042L413.342 57.59H420.65V59.66H415.088L414.674 62.738C415.214 62.39 415.916 62.216 416.78 62.216C417.644 62.216 418.406 62.408 419.066 62.792C419.738 63.164 420.254 63.686 420.614 64.358C420.974 65.03 421.154 65.792 421.154 66.644C421.154 67.508 420.944 68.288 420.524 68.984C420.116 69.68 419.546 70.226 418.814 70.622C418.082 71.018 417.266 71.216 416.366 71.216ZM423.192 61.208H425.406V62.432C425.658 61.964 426.018 61.61 426.486 61.37C426.966 61.118 427.518 60.992 428.142 60.992C428.79 60.992 429.384 61.136 429.924 61.424C430.464 61.7 430.878 62.084 431.166 62.576C431.49 62.048 431.91 61.652 432.426 61.388C432.954 61.124 433.548 60.992 434.208 60.992C434.892 60.992 435.51 61.148 436.062 61.46C436.614 61.772 437.046 62.21 437.358 62.774C437.67 63.338 437.826 63.98 437.826 64.7V71H435.468V65.258C435.468 64.61 435.294 64.1 434.946 63.728C434.61 63.344 434.154 63.152 433.578 63.152C433.014 63.152 432.558 63.344 432.21 63.728C431.862 64.112 431.688 64.622 431.688 65.258V71H429.33V65.258C429.33 64.61 429.156 64.1 428.808 63.728C428.472 63.344 428.016 63.152 427.44 63.152C426.876 63.152 426.42 63.344 426.072 63.728C425.724 64.112 425.55 64.622 425.55 65.258V71H423.192V61.208Z" fill="#0B0B0B"/>
<path d="M107.996 32.06H111.152C111.744 32.06 112.264 32.172 112.712 32.396C113.168 32.62 113.52 32.94 113.768 33.356C114.016 33.772 114.14 34.26 114.14 34.82C114.14 35.38 114.016 35.868 113.768 36.284C113.52 36.7 113.168 37.02 112.712 37.244C112.264 37.468 111.744 37.58 111.152 37.58H109.172V41H107.996V32.06ZM111.188 36.5C111.724 36.5 112.152 36.348 112.472 36.044C112.792 35.74 112.952 35.332 112.952 34.82C112.952 34.308 112.792 33.9 112.472 33.596C112.152 33.292 111.724 33.14 111.188 33.14H109.172V36.5H111.188ZM115.598 34.532H116.69V35.3C117.026 34.74 117.598 34.46 118.406 34.46H118.802V35.516H118.238C117.774 35.516 117.402 35.66 117.122 35.948C116.85 36.236 116.714 36.636 116.714 37.148V41H115.598V34.532ZM122.866 41.144C122.25 41.144 121.686 41 121.174 40.712C120.67 40.416 120.27 40.012 119.974 39.5C119.678 38.98 119.53 38.4 119.53 37.76C119.53 37.128 119.674 36.556 119.962 36.044C120.258 35.524 120.658 35.12 121.162 34.832C121.674 34.536 122.242 34.388 122.866 34.388C123.482 34.388 124.042 34.536 124.546 34.832C125.058 35.12 125.458 35.52 125.746 36.032C126.042 36.544 126.19 37.12 126.19 37.76C126.19 38.408 126.042 38.988 125.746 39.5C125.45 40.012 125.046 40.416 124.534 40.712C124.03 41 123.474 41.144 122.866 41.144ZM120.706 37.76C120.706 38.192 120.798 38.584 120.982 38.936C121.174 39.288 121.434 39.564 121.762 39.764C122.098 39.964 122.466 40.064 122.866 40.064C123.258 40.064 123.618 39.964 123.946 39.764C124.274 39.564 124.53 39.288 124.714 38.936C124.906 38.584 125.002 38.192 125.002 37.76C125.002 37.328 124.906 36.94 124.714 36.596C124.53 36.244 124.274 35.968 123.946 35.768C123.618 35.568 123.258 35.468 122.866 35.468C122.466 35.468 122.098 35.568 121.762 35.768C121.434 35.968 121.174 36.244 120.982 36.596C120.798 36.94 120.706 37.328 120.706 37.76ZM130.585 41.144C129.985 41.144 129.441 40.996 128.953 40.7C128.465 40.404 128.081 40 127.801 39.488C127.521 38.976 127.381 38.404 127.381 37.772C127.381 37.14 127.521 36.568 127.801 36.056C128.081 35.536 128.465 35.128 128.953 34.832C129.441 34.536 129.985 34.388 130.585 34.388C131.057 34.388 131.481 34.476 131.857 34.652C132.241 34.828 132.561 35.076 132.817 35.396V31.916H133.945V41H132.853V40.052C132.613 40.396 132.293 40.664 131.893 40.856C131.501 41.048 131.065 41.144 130.585 41.144ZM128.557 37.772C128.557 38.204 128.649 38.596 128.833 38.948C129.017 39.292 129.269 39.564 129.589 39.764C129.917 39.964 130.281 40.064 130.681 40.064C131.081 40.064 131.441 39.964 131.761 39.764C132.089 39.564 132.345 39.292 132.529 38.948C132.721 38.596 132.817 38.204 132.817 37.772C132.817 37.34 132.721 36.948 132.529 36.596C132.345 36.244 132.089 35.968 131.761 35.768C131.441 35.568 131.081 35.468 130.681 35.468C130.281 35.468 129.917 35.568 129.589 35.768C129.269 35.968 129.017 36.244 128.833 36.596C128.649 36.948 128.557 37.34 128.557 37.772ZM137.965 41.144C137.501 41.144 137.085 41.036 136.717 40.82C136.349 40.604 136.061 40.304 135.853 39.92C135.645 39.528 135.541 39.08 135.541 38.576V34.532H136.657V38.456C136.657 38.936 136.801 39.324 137.089 39.62C137.377 39.916 137.753 40.064 138.217 40.064C138.681 40.064 139.057 39.912 139.345 39.608C139.633 39.296 139.777 38.88 139.777 38.36V34.532H140.905V41H139.813V40.208C139.621 40.512 139.365 40.744 139.045 40.904C138.725 41.064 138.365 41.144 137.965 41.144ZM145.634 41.144C145.002 41.144 144.434 40.996 143.93 40.7C143.426 40.404 143.034 40 142.754 39.488C142.474 38.968 142.334 38.392 142.334 37.76C142.334 37.12 142.474 36.544 142.754 36.032C143.034 35.52 143.422 35.12 143.918 34.832C144.422 34.536 144.994 34.388 145.634 34.388C146.258 34.388 146.826 34.552 147.338 34.88C147.858 35.2 148.226 35.616 148.442 36.128L147.434 36.608C147.282 36.264 147.042 35.988 146.714 35.78C146.394 35.572 146.034 35.468 145.634 35.468C145.242 35.468 144.882 35.568 144.554 35.768C144.234 35.968 143.982 36.244 143.798 36.596C143.614 36.94 143.522 37.332 143.522 37.772C143.522 38.204 143.614 38.596 143.798 38.948C143.99 39.292 144.246 39.564 144.566 39.764C144.886 39.964 145.242 40.064 145.634 40.064C146.042 40.064 146.406 39.96 146.726 39.752C147.046 39.544 147.282 39.26 147.434 38.9L148.442 39.404C148.234 39.908 147.87 40.324 147.35 40.652C146.83 40.98 146.258 41.144 145.634 41.144ZM152.492 41.072C151.86 41.072 151.372 40.896 151.028 40.544C150.692 40.184 150.524 39.672 150.524 39.008V35.6H149.348V34.532H149.588C149.876 34.532 150.104 34.448 150.272 34.28C150.44 34.104 150.524 33.868 150.524 33.572V33.044H151.64V34.532H153.092V35.6H151.64V38.972C151.64 39.692 152 40.052 152.72 40.052C152.872 40.052 153.02 40.04 153.164 40.016V41.012C152.996 41.052 152.772 41.072 152.492 41.072ZM154.622 34.532H155.738V41H154.622V34.532ZM154.49 32.804C154.49 32.596 154.554 32.428 154.682 32.3C154.81 32.172 154.978 32.108 155.186 32.108C155.394 32.108 155.562 32.172 155.69 32.3C155.818 32.428 155.882 32.596 155.882 32.804C155.882 33.012 155.818 33.18 155.69 33.308C155.562 33.436 155.394 33.5 155.186 33.5C154.978 33.5 154.81 33.436 154.682 33.308C154.554 33.18 154.49 33.012 154.49 32.804ZM156.737 34.532H157.985L159.797 39.428L161.621 34.532H162.869L160.325 41H159.269L156.737 34.532ZM163.868 34.532H164.984V41H163.868V34.532ZM163.736 32.804C163.736 32.596 163.8 32.428 163.928 32.3C164.056 32.172 164.224 32.108 164.432 32.108C164.64 32.108 164.808 32.172 164.936 32.3C165.064 32.428 165.128 32.596 165.128 32.804C165.128 33.012 165.064 33.18 164.936 33.308C164.808 33.436 164.64 33.5 164.432 33.5C164.224 33.5 164.056 33.436 163.928 33.308C163.8 33.18 163.736 33.012 163.736 32.804ZM169.344 41.072C168.712 41.072 168.224 40.896 167.88 40.544C167.544 40.184 167.376 39.672 167.376 39.008V35.6H166.2V34.532H166.44C166.728 34.532 166.956 34.448 167.124 34.28C167.292 34.104 167.376 33.868 167.376 33.572V33.044H168.492V34.532H169.944V35.6H168.492V38.972C168.492 39.692 168.852 40.052 169.572 40.052C169.724 40.052 169.872 40.04 170.016 40.016V41.012C169.848 41.052 169.624 41.072 169.344 41.072ZM173.309 40.988L170.741 34.532H171.953L173.921 39.584L175.877 34.532H177.113L173.537 43.4H172.301L173.309 40.988Z" fill="#0B0B0B"/>
<path d="M243.996 32.06H247.152C247.744 32.06 248.264 32.172 248.712 32.396C249.168 32.62 249.52 32.94 249.768 33.356C250.016 33.772 250.14 34.26 250.14 34.82C250.14 35.38 250.016 35.868 249.768 36.284C249.52 36.7 249.168 37.02 248.712 37.244C248.264 37.468 247.744 37.58 247.152 37.58H245.172V41H243.996V32.06ZM247.188 36.5C247.724 36.5 248.152 36.348 248.472 36.044C248.792 35.74 248.952 35.332 248.952 34.82C248.952 34.308 248.792 33.9 248.472 33.596C248.152 33.292 247.724 33.14 247.188 33.14H245.172V36.5H247.188ZM251.598 34.532H252.69V35.3C253.026 34.74 253.598 34.46 254.406 34.46H254.802V35.516H254.238C253.774 35.516 253.402 35.66 253.122 35.948C252.85 36.236 252.714 36.636 252.714 37.148V41H251.598V34.532ZM258.866 41.144C258.25 41.144 257.686 41 257.174 40.712C256.67 40.416 256.27 40.012 255.974 39.5C255.678 38.98 255.53 38.4 255.53 37.76C255.53 37.128 255.674 36.556 255.962 36.044C256.258 35.524 256.658 35.12 257.162 34.832C257.674 34.536 258.242 34.388 258.866 34.388C259.482 34.388 260.042 34.536 260.546 34.832C261.058 35.12 261.458 35.52 261.746 36.032C262.042 36.544 262.19 37.12 262.19 37.76C262.19 38.408 262.042 38.988 261.746 39.5C261.45 40.012 261.046 40.416 260.534 40.712C260.03 41 259.474 41.144 258.866 41.144ZM256.706 37.76C256.706 38.192 256.798 38.584 256.982 38.936C257.174 39.288 257.434 39.564 257.762 39.764C258.098 39.964 258.466 40.064 258.866 40.064C259.258 40.064 259.618 39.964 259.946 39.764C260.274 39.564 260.53 39.288 260.714 38.936C260.906 38.584 261.002 38.192 261.002 37.76C261.002 37.328 260.906 36.94 260.714 36.596C260.53 36.244 260.274 35.968 259.946 35.768C259.618 35.568 259.258 35.468 258.866 35.468C258.466 35.468 258.098 35.568 257.762 35.768C257.434 35.968 257.174 36.244 256.982 36.596C256.798 36.94 256.706 37.328 256.706 37.76ZM266.585 41.144C265.985 41.144 265.441 40.996 264.953 40.7C264.465 40.404 264.081 40 263.801 39.488C263.521 38.976 263.381 38.404 263.381 37.772C263.381 37.14 263.521 36.568 263.801 36.056C264.081 35.536 264.465 35.128 264.953 34.832C265.441 34.536 265.985 34.388 266.585 34.388C267.057 34.388 267.481 34.476 267.857 34.652C268.241 34.828 268.561 35.076 268.817 35.396V31.916H269.945V41H268.853V40.052C268.613 40.396 268.293 40.664 267.893 40.856C267.501 41.048 267.065 41.144 266.585 41.144ZM264.557 37.772C264.557 38.204 264.649 38.596 264.833 38.948C265.017 39.292 265.269 39.564 265.589 39.764C265.917 39.964 266.281 40.064 266.681 40.064C267.081 40.064 267.441 39.964 267.761 39.764C268.089 39.564 268.345 39.292 268.529 38.948C268.721 38.596 268.817 38.204 268.817 37.772C268.817 37.34 268.721 36.948 268.529 36.596C268.345 36.244 268.089 35.968 267.761 35.768C267.441 35.568 267.081 35.468 266.681 35.468C266.281 35.468 265.917 35.568 265.589 35.768C265.269 35.968 265.017 36.244 264.833 36.596C264.649 36.948 264.557 37.34 264.557 37.772ZM273.965 41.144C273.501 41.144 273.085 41.036 272.717 40.82C272.349 40.604 272.061 40.304 271.853 39.92C271.645 39.528 271.541 39.08 271.541 38.576V34.532H272.657V38.456C272.657 38.936 272.801 39.324 273.089 39.62C273.377 39.916 273.753 40.064 274.217 40.064C274.681 40.064 275.057 39.912 275.345 39.608C275.633 39.296 275.777 38.88 275.777 38.36V34.532H276.905V41H275.813V40.208C275.621 40.512 275.365 40.744 275.045 40.904C274.725 41.064 274.365 41.144 273.965 41.144ZM281.634 41.144C281.002 41.144 280.434 40.996 279.93 40.7C279.426 40.404 279.034 40 278.754 39.488C278.474 38.968 278.334 38.392 278.334 37.76C278.334 37.12 278.474 36.544 278.754 36.032C279.034 35.52 279.422 35.12 279.918 34.832C280.422 34.536 280.994 34.388 281.634 34.388C282.258 34.388 282.826 34.552 283.338 34.88C283.858 35.2 284.226 35.616 284.442 36.128L283.434 36.608C283.282 36.264 283.042 35.988 282.714 35.78C282.394 35.572 282.034 35.468 281.634 35.468C281.242 35.468 280.882 35.568 280.554 35.768C280.234 35.968 279.982 36.244 279.798 36.596C279.614 36.94 279.522 37.332 279.522 37.772C279.522 38.204 279.614 38.596 279.798 38.948C279.99 39.292 280.246 39.564 280.566 39.764C280.886 39.964 281.242 40.064 281.634 40.064C282.042 40.064 282.406 39.96 282.726 39.752C283.046 39.544 283.282 39.26 283.434 38.9L284.442 39.404C284.234 39.908 283.87 40.324 283.35 40.652C282.83 40.98 282.258 41.144 281.634 41.144ZM288.492 41.072C287.86 41.072 287.372 40.896 287.028 40.544C286.692 40.184 286.524 39.672 286.524 39.008V35.6H285.348V34.532H285.588C285.876 34.532 286.104 34.448 286.272 34.28C286.44 34.104 286.524 33.868 286.524 33.572V33.044H287.64V34.532H289.092V35.6H287.64V38.972C287.64 39.692 288 40.052 288.72 40.052C288.872 40.052 289.02 40.04 289.164 40.016V41.012C288.996 41.052 288.772 41.072 288.492 41.072ZM290.622 34.532H291.738V41H290.622V34.532ZM290.49 32.804C290.49 32.596 290.554 32.428 290.682 32.3C290.81 32.172 290.978 32.108 291.186 32.108C291.394 32.108 291.562 32.172 291.69 32.3C291.818 32.428 291.882 32.596 291.882 32.804C291.882 33.012 291.818 33.18 291.69 33.308C291.562 33.436 291.394 33.5 291.186 33.5C290.978 33.5 290.81 33.436 290.682 33.308C290.554 33.18 290.49 33.012 290.49 32.804ZM292.737 34.532H293.985L295.797 39.428L297.621 34.532H298.869L296.325 41H295.269L292.737 34.532ZM302.727 41.144C302.119 41.144 301.567 40.996 301.071 40.7C300.575 40.404 300.187 40 299.907 39.488C299.627 38.968 299.487 38.388 299.487 37.748C299.487 37.108 299.623 36.532 299.895 36.02C300.175 35.508 300.551 35.108 301.023 34.82C301.503 34.532 302.039 34.388 302.631 34.388C303.247 34.388 303.783 34.532 304.239 34.82C304.703 35.108 305.055 35.492 305.295 35.972C305.543 36.444 305.667 36.952 305.667 37.496C305.667 37.68 305.647 37.88 305.607 38.096H300.663C300.679 38.504 300.783 38.86 300.975 39.164C301.167 39.468 301.415 39.704 301.719 39.872C302.031 40.04 302.371 40.124 302.739 40.124C303.523 40.124 304.127 39.768 304.551 39.056L305.487 39.536C305.279 40 304.927 40.384 304.431 40.688C303.935 40.992 303.367 41.144 302.727 41.144ZM304.455 37.136C304.439 36.632 304.255 36.216 303.903 35.888C303.559 35.552 303.135 35.384 302.631 35.384C302.135 35.384 301.707 35.544 301.347 35.864C300.987 36.176 300.767 36.6 300.687 37.136H304.455ZM311.824 41.072C311.192 41.072 310.704 40.896 310.36 40.544C310.024 40.184 309.856 39.672 309.856 39.008V35.6H308.68V34.532H308.92C309.208 34.532 309.436 34.448 309.604 34.28C309.772 34.104 309.856 33.868 309.856 33.572V33.044H310.972V34.532H312.424V35.6H310.972V38.972C310.972 39.692 311.332 40.052 312.052 40.052C312.204 40.052 312.352 40.04 312.496 40.016V41.012C312.328 41.052 312.104 41.072 311.824 41.072ZM313.954 34.532H315.07V41H313.954V34.532ZM313.822 32.804C313.822 32.596 313.886 32.428 314.014 32.3C314.142 32.172 314.31 32.108 314.518 32.108C314.726 32.108 314.894 32.172 315.022 32.3C315.15 32.428 315.214 32.596 315.214 32.804C315.214 33.012 315.15 33.18 315.022 33.308C314.894 33.436 314.726 33.5 314.518 33.5C314.31 33.5 314.142 33.436 314.014 33.308C313.886 33.18 313.822 33.012 313.822 32.804ZM316.802 34.532H317.894V35.336C318.078 35.032 318.326 34.8 318.638 34.64C318.958 34.472 319.31 34.388 319.694 34.388C320.134 34.388 320.534 34.496 320.894 34.712C321.262 34.92 321.542 35.204 321.734 35.564C321.942 35.188 322.222 34.9 322.574 34.7C322.934 34.492 323.33 34.388 323.762 34.388C324.202 34.388 324.606 34.496 324.974 34.712C325.342 34.92 325.634 35.208 325.85 35.576C326.066 35.944 326.174 36.356 326.174 36.812V41H325.046V37.172C325.046 36.644 324.906 36.228 324.626 35.924C324.354 35.62 323.998 35.468 323.558 35.468C323.11 35.468 322.746 35.624 322.466 35.936C322.186 36.24 322.046 36.652 322.046 37.172V41H320.918V37.172C320.918 36.644 320.782 36.228 320.51 35.924C320.238 35.62 319.878 35.468 319.43 35.468C318.99 35.468 318.626 35.624 318.338 35.936C318.058 36.24 317.918 36.652 317.918 37.172V41H316.802V34.532ZM330.735 41.144C330.127 41.144 329.575 40.996 329.079 40.7C328.583 40.404 328.195 40 327.915 39.488C327.635 38.968 327.495 38.388 327.495 37.748C327.495 37.108 327.631 36.532 327.903 36.02C328.183 35.508 328.559 35.108 329.031 34.82C329.511 34.532 330.047 34.388 330.639 34.388C331.255 34.388 331.791 34.532 332.247 34.82C332.711 35.108 333.063 35.492 333.303 35.972C333.551 36.444 333.675 36.952 333.675 37.496C333.675 37.68 333.655 37.88 333.615 38.096H328.671C328.687 38.504 328.791 38.86 328.983 39.164C329.175 39.468 329.423 39.704 329.727 39.872C330.039 40.04 330.379 40.124 330.747 40.124C331.531 40.124 332.135 39.768 332.559 39.056L333.495 39.536C333.287 40 332.935 40.384 332.439 40.688C331.943 40.992 331.375 41.144 330.735 41.144ZM332.463 37.136C332.447 36.632 332.263 36.216 331.911 35.888C331.567 35.552 331.143 35.384 330.639 35.384C330.143 35.384 329.715 35.544 329.355 35.864C328.995 36.176 328.775 36.6 328.695 37.136H332.463Z" fill="#0B0B0B"/>
<path d="M374.132 32.06H375.368L377.324 39.404L379.364 32.06H380.6L382.616 39.38L384.584 32.06H385.82L383.312 41H382.004L379.976 33.728L377.948 41H376.64L374.132 32.06ZM389.432 41.144C388.816 41.144 388.252 41 387.74 40.712C387.236 40.416 386.836 40.012 386.54 39.5C386.244 38.98 386.096 38.4 386.096 37.76C386.096 37.128 386.24 36.556 386.528 36.044C386.824 35.524 387.224 35.12 387.728 34.832C388.24 34.536 388.808 34.388 389.432 34.388C390.048 34.388 390.608 34.536 391.112 34.832C391.624 35.12 392.024 35.52 392.312 36.032C392.608 36.544 392.756 37.12 392.756 37.76C392.756 38.408 392.608 38.988 392.312 39.5C392.016 40.012 391.612 40.416 391.1 40.712C390.596 41 390.04 41.144 389.432 41.144ZM387.272 37.76C387.272 38.192 387.364 38.584 387.548 38.936C387.74 39.288 388 39.564 388.328 39.764C388.664 39.964 389.032 40.064 389.432 40.064C389.824 40.064 390.184 39.964 390.512 39.764C390.84 39.564 391.096 39.288 391.28 38.936C391.472 38.584 391.568 38.192 391.568 37.76C391.568 37.328 391.472 36.94 391.28 36.596C391.096 36.244 390.84 35.968 390.512 35.768C390.184 35.568 389.824 35.468 389.432 35.468C389.032 35.468 388.664 35.568 388.328 35.768C388 35.968 387.74 36.244 387.548 36.596C387.364 36.94 387.272 37.328 387.272 37.76ZM394.212 34.532H395.304V35.3C395.64 34.74 396.212 34.46 397.02 34.46H397.416V35.516H396.852C396.388 35.516 396.016 35.66 395.736 35.948C395.464 36.236 395.328 36.636 395.328 37.148V41H394.212V34.532ZM398.407 31.916H399.523V37.568L402.499 34.532H403.927L401.443 37.136L404.095 41H402.775L400.627 37.892L399.523 39.056V41H398.407V31.916ZM405.098 34.532H406.214V41H405.098V34.532ZM404.966 32.804C404.966 32.596 405.03 32.428 405.158 32.3C405.286 32.172 405.454 32.108 405.662 32.108C405.87 32.108 406.038 32.172 406.166 32.3C406.294 32.428 406.358 32.596 406.358 32.804C406.358 33.012 406.294 33.18 406.166 33.308C406.038 33.436 405.87 33.5 405.662 33.5C405.454 33.5 405.286 33.436 405.158 33.308C405.03 33.18 404.966 33.012 404.966 32.804ZM407.946 34.532H409.038V35.324C409.23 35.02 409.486 34.788 409.806 34.628C410.126 34.468 410.486 34.388 410.886 34.388C411.342 34.388 411.754 34.496 412.122 34.712C412.49 34.92 412.778 35.208 412.986 35.576C413.202 35.944 413.31 36.356 413.31 36.812V41H412.182V37.172C412.182 36.644 412.038 36.228 411.75 35.924C411.47 35.62 411.098 35.468 410.634 35.468C410.17 35.468 409.79 35.624 409.494 35.936C409.206 36.24 409.062 36.652 409.062 37.172V41H407.946V34.532ZM417.991 43.64C417.311 43.64 416.711 43.484 416.191 43.172C415.679 42.868 415.315 42.46 415.099 41.948L416.143 41.468C416.263 41.788 416.483 42.048 416.803 42.248C417.123 42.456 417.515 42.56 417.979 42.56C418.547 42.56 419.019 42.396 419.395 42.068C419.771 41.748 419.959 41.3 419.959 40.724V39.824C419.719 40.152 419.411 40.404 419.035 40.58C418.659 40.756 418.251 40.844 417.811 40.844C417.211 40.844 416.671 40.704 416.191 40.424C415.711 40.136 415.331 39.748 415.051 39.26C414.779 38.764 414.643 38.216 414.643 37.616C414.643 37.016 414.779 36.472 415.051 35.984C415.323 35.488 415.699 35.1 416.179 34.82C416.659 34.532 417.199 34.388 417.799 34.388C418.247 34.388 418.659 34.48 419.035 34.664C419.411 34.84 419.731 35.096 419.995 35.432V34.532H421.087V40.724C421.087 41.284 420.955 41.784 420.691 42.224C420.427 42.664 420.059 43.008 419.587 43.256C419.115 43.512 418.583 43.64 417.991 43.64ZM415.819 37.616C415.819 38.008 415.907 38.368 416.083 38.696C416.267 39.024 416.519 39.284 416.839 39.476C417.159 39.668 417.515 39.764 417.907 39.764C418.283 39.764 418.627 39.668 418.939 39.476C419.259 39.284 419.507 39.024 419.683 38.696C419.867 38.368 419.959 38.008 419.959 37.616C419.959 37.224 419.867 36.864 419.683 36.536C419.507 36.208 419.259 35.948 418.939 35.756C418.627 35.564 418.283 35.468 417.907 35.468C417.515 35.468 417.159 35.564 416.839 35.756C416.527 35.948 416.279 36.208 416.095 36.536C415.911 36.864 415.819 37.224 415.819 37.616ZM425.023 32.06H426.199V36.044H430.675V32.06H431.863V41H430.675V37.124H426.199V41H425.023V32.06ZM436.788 41.144C436.172 41.144 435.608 41 435.096 40.712C434.592 40.416 434.192 40.012 433.896 39.5C433.6 38.98 433.452 38.4 433.452 37.76C433.452 37.128 433.596 36.556 433.884 36.044C434.18 35.524 434.58 35.12 435.084 34.832C435.596 34.536 436.164 34.388 436.788 34.388C437.404 34.388 437.964 34.536 438.468 34.832C438.98 35.12 439.38 35.52 439.668 36.032C439.964 36.544 440.112 37.12 440.112 37.76C440.112 38.408 439.964 38.988 439.668 39.5C439.372 40.012 438.968 40.416 438.456 40.712C437.952 41 437.396 41.144 436.788 41.144ZM434.628 37.76C434.628 38.192 434.72 38.584 434.904 38.936C435.096 39.288 435.356 39.564 435.684 39.764C436.02 39.964 436.388 40.064 436.788 40.064C437.18 40.064 437.54 39.964 437.868 39.764C438.196 39.564 438.452 39.288 438.636 38.936C438.828 38.584 438.924 38.192 438.924 37.76C438.924 37.328 438.828 36.94 438.636 36.596C438.452 36.244 438.196 35.968 437.868 35.768C437.54 35.568 437.18 35.468 436.788 35.468C436.388 35.468 436.02 35.568 435.684 35.768C435.356 35.968 435.096 36.244 434.904 36.596C434.72 36.94 434.628 37.328 434.628 37.76ZM443.859 41.144C443.395 41.144 442.979 41.036 442.611 40.82C442.243 40.604 441.955 40.304 441.747 39.92C441.539 39.528 441.435 39.08 441.435 38.576V34.532H442.551V38.456C442.551 38.936 442.695 39.324 442.983 39.62C443.271 39.916 443.647 40.064 444.111 40.064C444.575 40.064 444.951 39.912 445.239 39.608C445.527 39.296 445.671 38.88 445.671 38.36V34.532H446.799V41H445.707V40.208C445.515 40.512 445.259 40.744 444.939 40.904C444.619 41.064 444.259 41.144 443.859 41.144ZM448.528 34.532H449.62V35.3C449.956 34.74 450.528 34.46 451.336 34.46H451.732V35.516H451.168C450.704 35.516 450.332 35.66 450.052 35.948C449.78 36.236 449.644 36.636 449.644 37.148V41H448.528V34.532ZM455.039 41.144C454.415 41.144 453.863 40.992 453.383 40.688C452.903 40.376 452.559 39.956 452.351 39.428L453.251 38.972C453.435 39.348 453.687 39.644 454.007 39.86C454.327 40.076 454.675 40.184 455.051 40.184C455.411 40.184 455.707 40.1 455.939 39.932C456.171 39.764 456.287 39.544 456.287 39.272C456.287 39.008 456.183 38.796 455.975 38.636C455.767 38.468 455.543 38.368 455.303 38.336L454.331 38.204C453.755 38.06 453.323 37.82 453.035 37.484C452.747 37.148 452.603 36.752 452.603 36.296C452.603 35.92 452.699 35.588 452.891 35.3C453.091 35.012 453.363 34.788 453.707 34.628C454.059 34.468 454.447 34.388 454.871 34.388C455.431 34.388 455.931 34.528 456.371 34.808C456.819 35.088 457.139 35.476 457.331 35.972L456.443 36.428C456.283 36.1 456.059 35.84 455.771 35.648C455.491 35.456 455.179 35.36 454.835 35.36C454.507 35.36 454.243 35.44 454.043 35.6C453.843 35.76 453.743 35.968 453.743 36.224C453.743 36.488 453.835 36.7 454.019 36.86C454.211 37.012 454.419 37.108 454.643 37.148L455.711 37.292C456.247 37.436 456.663 37.684 456.959 38.036C457.263 38.38 457.415 38.78 457.415 39.236C457.415 39.604 457.315 39.932 457.115 40.22C456.915 40.508 456.635 40.736 456.275 40.904C455.915 41.064 455.503 41.144 455.039 41.144Z" fill="#0B0B0B"/>
<path d="M155 72C155.729 69.5 158.828 64.9 165.391 66.5C173.594 68.5 175.508 72 178.789 66.5C182.07 61 186.172 59 190 59" stroke="#87C51E"/>
<rect x="216" y="26" width="1" height="48" rx="0.5" fill="#EBEBEB"/>
</svg>
