<svg width="1162" height="390" viewBox="0 0 1162 390" fill="none" xmlns="http://www.w3.org/2000/svg">
<path d="M0.400391 1.10008C0.400391 18.3001 0.400391 35.4999 0.400391 52.6999C40.1004 52.5999 79.7004 52.4999 119.4 52.3999C119.4 35.3999 119.5 18.3999 119.5 1.39988C79.8004 -0.700116 40.1004 0.100079 0.400391 1.10008Z" fill="white"/>
<path d="M422.2 52.5C422.2 35.5 422.2 18.6001 422.3 1.6001C321.4 1.6001 220.5 1.5 119.5 1.5C119.5 18.5 119.4 35.5 119.4 52.5C168.2 52.7 217.1 53.2 265.9 53.2C318 53.2 370.1 52.7 422.2 52.5Z" fill="#E0E0E0"/>
<path d="M1101.5 5.49951C1101.5 5.49951 1101.5 4.69961 1101.5 4.59961C991.2 4.59961 880.9 4.59961 770.6 4.59961C770.6 5.59961 770.6 6.49951 770.6 7.49951C770.6 22.3995 770.5 37.2995 770.5 52.1995C881 52.1995 991.6 52.1995 1102.1 52.1995C1102 37.7995 1101.9 23.2994 1101.7 8.89941C1101.5 7.69941 1101.5 6.59951 1101.5 5.49951Z" fill="#CCCCCC"/>
<path d="M575 52.9001C588.9 52.7001 607.9 60.1003 615.5 49.6003C623.4 38.7003 617.9 17.8002 617.3 1.2002C578.7 1.3002 540.1 1.50034 501.4 1.60034C501.4 18.5003 501.4 35.5001 501.5 52.4001C526 52.7001 550.5 53.3001 575 52.9001Z" fill="#F4F4F4"/>
<path d="M422.201 52.5002C448.601 52.5002 475.001 52.5002 501.501 52.5002C501.501 35.6002 501.501 18.6002 501.401 1.7002C475.001 1.7002 448.601 1.7002 422.301 1.7002C422.301 18.6002 422.301 35.5002 422.201 52.5002Z" fill="#EAEAEA"/>
<path d="M1161.1 5.29956C1141.2 5.09956 1121.3 4.79961 1101.4 4.59961C1101.4 4.69961 1101.4 5.49951 1101.4 5.49951C1101.4 6.59951 1101.5 7.79941 1101.5 8.89941C1101.6 23.2994 1101.7 37.7995 1101.9 52.1995C1121.5 52.1995 1141.1 52.1995 1160.7 52.1995C1161 36.7995 1161.2 21.2996 1161.5 5.79956L1161.1 5.29956Z" fill="white"/>
<path d="M695.7 2.99993C688.7 2.59993 686 5.29998 685.6 13.8C683.6 53.6 683.4 53.6 718.1 53.1C721.3 53.1 724.6 52.4999 727.8 52.1999C727.8 36.0999 727.8 19.9998 727.8 3.89983C717.2 3.59983 706.5 3.59993 695.7 2.99993Z" fill="#F2F2F2"/>
<path d="M770.5 4.60059C770.5 4.40059 770.5 4.20049 770.5 4.00049C756.3 4.00049 742.1 3.90039 728 3.90039C728 20.0004 728 36.1004 728 52.2004C742.1 52.2004 756.3 52.2006 770.4 52.1006C770.4 37.2006 770.5 22.3004 770.5 7.40039C770.5 6.50039 770.5 5.50059 770.5 4.60059Z" fill="#E2E2E2"/>
<path d="M667.201 49.3994C656.101 37.7994 644.901 26.1996 630.901 11.5996C630.901 104.2 630.901 192.699 630.901 283.899C562.601 211.599 495.101 143.6 425.701 74.9995C425.301 79.5995 425.201 80.5995 425.201 81.6995C425.201 183.799 425.201 286 425.201 388.1C439.401 388 453.501 387.999 467.701 387.899C467.701 323.399 467.601 258.899 467.801 194.399C467.801 190.799 463.601 182.8 472.601 183.6C509.001 220.8 545.201 258.3 582.001 295.1C612.601 325.8 641.901 358.3 674.001 387C674.001 275.7 674.001 164.3 674.101 52.9995C670.901 53.8995 669.201 51.1994 667.201 49.3994Z" fill="white"/>
<path d="M1157.5 91.4995C1142.7 91.4995 1128 91.4995 1113.2 91.4995C1112.7 126 1112.2 160.399 1111.7 194.899C1110.2 197.599 1107.8 197.399 1105.5 197.399C1066.2 197.399 1026.8 197.399 987.501 197.399C984.701 197.399 981.801 197.4 979.901 194.5L980.401 194.8C975.001 190.4 977.501 184 977.401 178.5C976.901 149.5 976.801 120.5 976.501 91.4995C973.901 91.1995 971.301 91.0995 968.701 91.1995C971.301 91.1995 973.901 91.1995 976.501 91.4995C976.701 90.4995 976.701 89.4996 976.501 88.5996C962.601 88.5996 948.701 88.6995 934.801 88.6995C933.901 89.5995 932.101 90.4994 932.101 91.3994C931.901 185.799 931.901 280.2 931.701 374.5C931.701 381.5 934.601 382.3 939.501 382.1C952.201 381.6 964.801 381.4 977.501 381.1C977.501 338.7 977.301 296.3 977.501 254C977.501 249.6 975.401 244.1 980.401 241C1021.3 240.8 1062.2 240.899 1103.1 240.199C1111.9 240.099 1113 244.299 1112.9 252.699C1112.6 280.599 1112.8 308.5 1112.8 336.3C1112.8 386.9 1112.8 386.9 1158.8 381C1158.7 291.5 1158.6 201.899 1158.4 112.399C1158.2 105.399 1157.8 98.3995 1157.5 91.4995Z" fill="white"/>
<path d="M399.601 91.1997C401.401 91.1997 403.101 91.2998 404.801 91.4998C405.001 90.4998 405.001 89.4998 404.801 88.4998C390.801 88.5998 376.901 88.6998 362.901 88.7998C356.701 92.6998 360.001 99.3999 360.001 104.6C359.701 160.5 360.901 216.5 359.501 272.4C358.401 316.8 343.501 332.2 312.701 342.7C295.601 348.5 278.901 345.4 262.001 338.2C251.001 333.6 242.801 327 235.601 316.9C226.901 304.7 227.701 289.5 224.201 275.7C225.701 275.2 226.901 274.5 226.501 272.3C225.701 272.2 224.901 272.1 224.101 272.1C223.801 271 223.601 270 223.301 268.9C224.101 208.7 224.601 148.4 223.001 88.1997C208.201 89.5997 193.001 83.7997 178.601 91.3997C177.101 158.8 175.801 226.3 179.101 293.6C181.301 338.2 202.901 369.3 241.901 381.9C250.901 384.8 260.101 386.6 269.201 388.9C284.301 388.9 299.401 388.9 314.501 389C318.101 388.1 321.801 387 325.401 386.4C352.701 381.5 375.801 368.6 392.501 342.3C399.601 331.1 400.101 317.8 404.901 306.1C405.001 240.9 405.201 175.8 405.301 110.6C405.301 104.2 404.801 97.7997 404.601 91.3997C403.101 91.2997 401.301 91.1997 399.601 91.1997Z" fill="white"/>
<path d="M913.4 105.3C869.7 77.7 823.6 73.0999 776.7 91.4999C725.6 111.5 692.3 151.8 684.1 213.9C677 267.4 692.2 313.4 728.1 349.5C751.5 373 780 383.3 810.1 389.1C824.3 389.1 838.4 389.1 852.6 389.2C875.5 384.2 898.3 379.1 917.5 362.6C917.5 344.4 917.5 326.1 917.4 307.9C914.6 309.8 911.7 311.5 909.1 313.7C885.6 334.4 857.4 343.6 829.3 345C802.7 346.3 778.3 333.1 758 310.1C731.5 280.1 726.8 242.2 735.5 206.8C749 151.5 784.7 128.4 832.4 127.4C863.4 126.8 891.2 139.1 916.1 160.3C920.6 148.9 918.5 137.2 922 127.2C926.1 115.4 920.2 109.6 913.4 105.3Z" fill="white"/>
<path d="M112.4 91.3001C76.1004 85.3001 39.6004 87.9001 3.20039 89.1001C2.30039 88.8001 1.30039 88.5 0.400391 88.2C0.400391 186.1 0.400391 284 0.400391 381.9C1.30039 381.7 2.2004 381.4 3.1004 381.1C17.4004 382.4 31.6004 383 45.9004 380.7C45.8004 340.5 45.7004 300.2 45.6004 260C45.6004 257 44.6004 253.4 48.1004 251.7C65.0004 251.1 81.9004 250.8 98.8004 249.9C129 248.2 153.4 236.1 165.3 201.4C170 187.7 165.7 173.7 167.6 160.1C172 128.6 138.3 90.6001 112.4 91.3001ZM94.7004 207C91.5004 207.6 88.2004 207.9 84.9004 208.2C49.6004 211.2 49.6004 211.2 49.6004 170.5C49.6004 167.3 49.6004 164.1 49.6004 160.9C49.6004 127.6 49.7004 127.4 79.4004 132C108.3 136.4 118.1 145.2 120.2 168.5C122.2 190 113.4 203.4 94.7004 207Z" fill="white"/>
<path d="M1157.5 88.5005C1142.7 89.4005 1127.7 83.9005 1113.2 91.5005C1128 91.5005 1142.7 91.5005 1157.5 91.5005C1157.7 90.5005 1157.7 89.5005 1157.5 88.5005Z" fill="white"/>
</svg>
