<svg width="882" height="278" viewBox="0 0 882 278" fill="none" xmlns="http://www.w3.org/2000/svg">
<path d="M308.499 132C293.199 121.3 275.999 115.5 258.099 111C231.899 104.4 205.899 97.7 179.799 90.6C172.799 88.7 165.699 85.7 165.999 76.3C166.299 67.1 173.699 63.6 180.499 62.5C208.099 58.2 235.899 55.9 256.099 81.3C259.399 85.4 262.699 85.1 266.199 84.3C294.899 77.8 324.599 75.9 354.299 67.4C342.799 45.1 324.299 28.6 297.899 18.3C248.399 -1.09997 197.099 -2.39999 145.199 5.40001C119.699 9.20001 95.2992 16.5 74.2992 32.4C32.6992 63.8 35.4992 116.2 80.3992 142.2C98.0992 152.4 117.599 157.8 137.199 163C159.999 169 182.899 174.7 205.699 181.1C212.099 182.9 218.499 186.6 219.799 194.3C220.899 200.9 216.899 205 211.499 208.2C190.599 220.9 134.299 216.5 117.999 198.5C109.099 188.7 101.099 187.5 89.4992 189.4C60.3992 194.1 31.0992 197.8 0.699219 202C16.7992 230.2 39.0992 248.3 67.0992 258.5C125.499 280 185.499 282.1 246.099 268.8C270.899 263.4 293.999 253.9 313.599 237.2C351.199 204.9 348.899 160.1 308.499 132Z" fill="white"/>
<path d="M614.498 92.3997C590.298 93.0997 566.098 93.0997 541.898 92.3997C532.598 92.0997 529.498 95.6997 527.698 104C521.898 130.4 515.798 156.6 509.398 182.8C505.898 197 500.998 210.8 488.298 219.6C478.298 226.6 466.298 230 455.598 223.4C445.498 217.1 450.598 205.8 452.598 196.7C460.398 162.5 468.698 128.4 476.798 94.2997C475.298 93.5997 474.498 92.8997 473.598 92.8997C455.198 92.6997 436.798 92.4997 418.398 92.5997C405.898 92.6997 390.598 88.9997 381.598 94.7997C372.398 100.7 374.198 117.5 371.198 129.5C363.798 159.4 356.998 189.5 350.398 219.6C347.198 234.3 347.098 248.6 360.398 259.4C385.098 279.4 413.698 280 442.998 275.4C463.498 272.2 480.598 261.4 496.098 245.5C498.598 252.3 497.498 256.1 496.098 259.7C491.898 270.5 495.198 273.7 506.798 273.2C528.998 272.3 551.298 272.4 573.598 273.2C582.298 273.5 585.398 270.2 587.098 262.6C599.098 210 611.098 157.4 623.698 104.9C626.198 95.2997 625.098 92.0997 614.498 92.3997Z" fill="white"/>
<path d="M841.6 91.1003C802.5 82.5003 764.7 84.9004 730.8 114.9C733.9 92.6004 733.9 92.6003 712.8 92.6003C694.4 92.6003 676 93.0004 657.6 92.4004C649.3 92.1004 645.8 94.7004 643.9 102.8C631.6 156.3 618.9 209.8 606.1 263.2C604.2 270.9 605.6 273.3 614 273.1C638.7 272.6 663.4 272.6 688 273.1C695.9 273.3 698.9 270.4 700.6 263.1C707.1 233.9 714.7 205 720.8 175.8C725.1 155.1 731.9 139.6 756.7 136.8C775.1 134.8 784.7 142.1 780.5 160.4C773.1 193.3 766.2 226.4 757.6 259C754.2 271.9 758 273.5 769.3 273.1C791.5 272.4 813.9 272 836.1 273.2C847.7 273.8 852 269.7 854.3 259.1C862 223.3 870.4 187.7 878.7 152C886.5 118.4 875.4 98.5003 841.6 91.1003Z" fill="white"/>
<path d="M499.199 70.1999C506.399 70.9999 518.699 76.3999 519.999 62.6999C521.599 45.6999 530.999 45.3999 544.099 48.5999C543.599 50.9999 542.599 53.3 542.699 55.5C543.099 60.6 535.199 68.3 544.899 70.3C553.299 72 564.099 74.5999 566.299 59.5999C568.199 46.2999 572.099 33.4 575.399 20.3C576.999 14 575.299 12.1 568.599 11.8C557.799 11.3 549.799 12.2 549.399 25.9C549.199 34.2 542.099 33.5 536.299 33C528.999 32.3 528.399 27.4 529.599 21.5C530.199 18.8 530.699 16.1 531.199 13.3C508.199 10.4 508.199 10.3999 503.099 32.5999C501.099 40.9999 498.899 49.4 497.399 57.9C496.699 62.2 490.499 69.1999 499.199 70.1999Z" fill="white"/>
<path d="M578.8 70.8998C594.7 70.6998 610.6 70.7998 626.5 70.8998C632.2 70.8998 633.8 67.6998 634.2 62.7998C634.8 56.4998 630.5 57.2997 626.7 57.1997C624.3 57.0997 621.8 57.4997 619.5 57.0997C612.9 55.8997 600.7 60.2998 600.7 53.9998C600.7 41.4998 613.2 48.0998 620.3 47.3998C630.7 46.1998 630.8 46.9998 632.1 35.4998C626.3 35.4998 620.5 35.8998 614.8 35.3998C611.2 35.0998 605 38.1997 605.4 30.6997C605.8 23.7997 611.7 26.3997 615.5 26.0997C620.3 25.6997 625.2 25.5997 629.9 26.0997C639.5 27.0997 644.6 23.4998 643.7 12.3998C626.5 12.3998 609.2 12.4998 591.9 12.2998C587.2 12.2998 585.4 14.0998 584.4 18.7998C581.2 33.7998 577.3 48.6997 573.7 63.5997C572.6 67.6997 572.9 70.8998 578.8 70.8998Z" fill="white"/>
<path d="M442.3 28.9003C456.3 27.5003 452.3 36.4002 450.8 43.5002C449.5 50.1002 447.5 56.6002 445.8 63.1002C444.4 68.4002 445.8 70.7002 451.9 71.1002C463.4 71.9002 471.8 70.3002 471.9 56.1002C471.9 51.9002 473.8 47.7002 474.7 43.5002C476.5 35.4002 477.1 27.0003 489.1 27.3003C497.7 27.5003 499.2 20.4003 499.3 12.3003C481.5 12.3003 463.7 12.6002 445.9 12.2002C438.1 12.0002 439.6 18.0002 438.3 22.0002C437.3 25.2002 437.3 29.4003 442.3 28.9003Z" fill="white"/>
</svg>
