<svg width="1301" height="353" viewBox="0 0 1301 353" fill="none" xmlns="http://www.w3.org/2000/svg">
<path fill-rule="evenodd" clip-rule="evenodd" d="M245.102 144.797L226.301 162.594C212.701 149.294 197.899 139.291 181.699 132.391C165.599 125.491 149.798 122.094 134.398 122.094C115.298 122.094 97.1984 126.794 79.8984 136.094C62.5984 145.394 49.2008 158.094 39.8008 174.094C30.3008 190.094 25.6016 206.997 25.6016 224.797C25.6016 242.997 30.5008 260.397 40.3008 276.797C50.1008 293.197 63.5984 306.1 80.8984 315.5C98.1984 324.9 117.099 329.594 137.699 329.594C162.699 329.594 183.802 322.594 201.102 308.594C218.402 294.594 228.601 276.4 231.801 254H154.5V230.391H259.199C258.999 267.791 247.801 297.594 225.801 319.594C203.701 341.594 174.199 352.594 137.199 352.594C92.2992 352.594 56.7 337.397 30.5 306.797C10.4 283.297 0.300781 256.087 0.300781 225.188C0.300781 202.288 6.10156 180.894 17.6016 161.094C29.2016 141.294 45.0992 125.887 65.1992 114.688C85.3992 103.587 108.202 98 133.602 98C154.202 98 173.601 101.694 191.801 109.094C210.001 116.594 227.802 128.497 245.102 144.797ZM480 167.391V346.594H457V315.797C447.3 327.597 436.5 336.387 424.5 342.188C412.5 347.988 399.302 351 385.102 351C359.802 351 338.099 341.8 320.199 323.5C302.299 305.1 293.301 282.8 293.301 256.5C293.301 230.8 302.4 208.7 320.5 190.5C338.6 172.2 360.301 163 385.801 163C400.501 163 413.799 166.097 425.699 172.297C437.599 178.497 448 187.791 457 200.391V167.391H480ZM387.602 185.188C374.802 185.188 362.902 188.294 352.102 194.594C341.202 200.794 332.599 209.694 326.199 221.094C319.799 232.494 316.602 244.488 316.602 257.188C316.602 269.688 319.801 281.797 326.301 293.297C332.801 304.797 341.398 313.694 352.398 320.094C363.298 326.494 375 329.688 387.5 329.688C400.1 329.688 412.001 326.588 423.301 320.188C434.601 313.787 443.301 305.291 449.301 294.391C455.401 283.591 458.398 271.397 458.398 257.797C458.398 237.197 451.598 219.9 437.898 206C424.298 192.1 407.502 185.188 387.602 185.188ZM517.199 167.391H649.199L547.602 326.094H645.801V346.688H507.699L609.801 187.391H517.199V167.391ZM826.801 287.188L846.301 297.391C839.901 309.791 832.502 319.894 824.102 327.594C815.702 335.194 806.298 341 795.898 345C785.398 349 773.601 351 760.301 351C730.901 351 708 341.397 691.5 322.297C675 303.197 666.699 281.6 666.699 257.5C666.699 234.8 673.699 214.597 687.699 196.797C705.399 174.197 729.2 162.891 759 162.891C789.7 162.891 814.2 174.494 832.5 197.594C845.5 213.894 852.098 234.297 852.398 258.797H690.398C690.798 279.597 697.498 296.597 710.398 309.797C723.298 323.097 739.301 329.688 758.301 329.688C767.501 329.688 776.402 328.1 785.102 325C793.802 321.9 801.099 317.7 807.199 312.5C813.199 307.2 819.801 298.788 826.801 287.188ZM827 238.891C823.9 226.591 819.4 216.791 813.5 209.391C807.5 201.991 799.7 196.094 790 191.594C780.3 187.094 770.001 184.797 759.301 184.797C741.601 184.797 726.399 190.387 713.699 201.688C704.399 209.988 697.402 222.297 692.602 238.797H827V238.891ZM914.801 100.5H937.801V167.297H974.301V187.188H937.801V346.5H914.801V187.188H883.398V167.297H914.801V100.5ZM1029.1 100.5H1052.1V167.297H1088.6V187.188H1052.1V346.5H1029.1V187.188H997.699V167.297H1029.1V100.5ZM1274.9 287.188L1294.4 297.391C1288 309.791 1280.6 319.894 1272.2 327.594C1263.8 335.194 1254.4 341 1244 345C1233.5 349 1221.7 351 1208.4 351C1179 351 1156.1 341.397 1139.6 322.297C1123.1 303.197 1114.8 281.6 1114.8 257.5C1114.8 234.8 1121.8 214.597 1135.8 196.797C1153.5 174.197 1177.3 162.891 1207.1 162.891C1237.8 162.891 1262.3 174.494 1280.6 197.594C1293.6 213.894 1300.2 234.297 1300.5 258.797H1138.5C1138.9 279.597 1145.6 296.597 1158.5 309.797C1171.4 323.097 1187.4 329.688 1206.4 329.688C1215.6 329.688 1224.5 328.1 1233.2 325C1241.9 321.9 1249.2 317.7 1255.3 312.5C1261.3 307.2 1267.9 298.788 1274.9 287.188ZM1275.2 238.891C1272.1 226.591 1267.6 216.791 1261.7 209.391C1255.7 201.991 1247.9 196.094 1238.2 191.594C1228.5 187.094 1218.2 184.797 1207.5 184.797C1189.8 184.797 1174.6 190.387 1161.9 201.688C1152.6 209.988 1145.6 222.297 1140.8 238.797H1275.2V238.891Z" fill="white"/>
<path fill-rule="evenodd" clip-rule="evenodd" d="M304.801 55.8906H321.102L353.699 140.688H336.898L330.301 123.188H295.5L288.699 140.688H271.898L304.801 55.8906ZM312.898 78.3906L301.398 107.594H324.301L312.898 78.3906ZM357 78H362.602C362.602 69.8 362.8 65 363 63.5C363.4 60.1 364.901 57.2969 367.301 55.2969C369.801 53.2969 373.301 52.2969 377.801 52.2969C381.101 52.2969 384.701 53 388.801 54.5V66.5C386.501 65.8 384.699 65.5 383.199 65.5C381.399 65.5 379.999 65.8938 379.199 66.5938C378.599 67.1938 378.301 68.3875 378.301 70.1875L378.199 78H388.199V91.2969H378.301V140.688H362.602V91.2969H357V78ZM393.801 78H407.398V86C408.898 82.9 410.799 80.4906 413.199 78.8906C415.599 77.2906 418.302 76.5 421.102 76.5C423.102 76.5 425.3 76.9937 427.5 78.0938L422.602 91.6875C420.802 90.7875 419.302 90.2969 418.102 90.2969C415.702 90.2969 413.7 91.7969 412 94.7969C410.3 97.7969 409.5 103.691 409.5 112.391L409.602 115.391V140.688H393.898V78H393.801ZM441.5 52.1875C444.3 52.1875 446.602 53.1875 448.602 55.1875C450.602 57.1875 451.602 59.5906 451.602 62.3906C451.602 65.1906 450.599 67.5938 448.699 69.5938C446.799 71.5938 444.399 72.5938 441.699 72.5938C438.899 72.5938 436.502 71.5938 434.602 69.5938C432.602 67.5938 431.602 65.0969 431.602 62.2969C431.602 59.4969 432.6 57.1969 434.5 55.2969C436.4 53.3969 438.7 52.1875 441.5 52.1875ZM433.602 78H449.301V140.688H433.602V78ZM525 90.6875L511.898 97.8906C509.398 95.2906 507.002 93.5 504.602 92.5C502.202 91.5 499.399 91 496.199 91C490.299 91 485.598 92.7875 481.898 96.1875C478.298 99.6875 476.398 104.188 476.398 109.688C476.398 114.988 478.202 119.287 481.602 122.688C485.102 126.088 489.698 127.688 495.398 127.688C502.398 127.688 507.901 125.3 511.801 120.5L524.199 129C517.499 137.7 507.999 142.094 495.699 142.094C484.699 142.094 476.001 138.797 469.801 132.297C463.601 125.797 460.398 118.191 460.398 109.391C460.398 103.291 461.898 97.7875 464.898 92.6875C467.998 87.5875 472.202 83.5875 477.602 80.6875C483.002 77.7875 489.101 76.2969 495.801 76.2969C502.001 76.2969 507.602 77.5 512.602 80C517.602 82.5 521.9 86.0875 525 90.6875ZM585.602 78H601.301V140.688H585.602V134C582.502 136.9 579.401 138.997 576.301 140.297C573.201 141.597 569.799 142.188 566.199 142.188C558.099 142.188 551.102 139.097 545.102 132.797C539.202 126.597 536.199 118.791 536.199 109.391C536.199 99.6906 539.101 91.7937 544.801 85.5938C550.501 79.3938 557.499 76.3906 565.699 76.3906C569.499 76.3906 573.001 77.1 576.301 78.5C579.601 79.9 582.7 81.9969 585.5 84.7969V78H585.602ZM569.102 90.7969C564.202 90.7969 560.2 92.5 557 96C553.8 99.4 552.199 103.787 552.199 109.188C552.199 114.588 553.802 119.094 557.102 122.594C560.402 126.094 564.399 127.797 569.199 127.797C574.099 127.797 578.3 126.094 581.5 122.594C584.8 119.194 586.398 114.694 586.398 109.094C586.398 103.594 584.8 99.1906 581.5 95.8906C578.2 92.4906 574.002 90.7969 569.102 90.7969Z" fill="white"/>
<path fill-rule="evenodd" clip-rule="evenodd" d="M631.301 83.8906H699.602L738.699 132.797H631.398V83.8906H631.301ZM656.898 87.5L661.801 103.5H677.801L664.801 113.391L669.801 129.391L656.898 119.5L644 129.391L649 113.391L636 103.5H652L656.898 87.5Z" fill="white"/>
<path fill-rule="evenodd" clip-rule="evenodd" d="M708.301 83.8906H865.199V132.797H747.398L708.301 83.8906Z" fill="white"/>
<path fill-rule="evenodd" clip-rule="evenodd" d="M292.898 0.5H316.301V8.5H308.602V42.8906H300.398V8.5H292.898V0.5ZM321.801 0.5H330V16.5H344.199V0.5H352.398V42.8906H344.199V24.2969H330V42.8906H321.801V0.5ZM362.102 0.5H385.199V8.39062H370.102V16H385.199V23.7969H370.102V35H385.199V42.8906H362.102V0.5Z" fill="white"/>
</svg>
