<svg width="1620" height="434" viewBox="0 0 1620 434" fill="none" xmlns="http://www.w3.org/2000/svg">
<path d="M277 0.799805C279.1 4.6998 281.3 8.59966 283.4 12.3997C297.5 13.9997 312 14.3998 325.9 17.4998C337.1 19.9998 348.7 23.9997 358.3 30.1997C385.7 47.8997 388.1 84.6997 362.6 104.9C350.2 114.8 335.2 122.6 320.1 127.5C292.7 136.4 264.5 142.4 236.6 149.6C232.3 150.7 228 151.6 222.3 153C236.2 157.2 248.9 159.8 260.7 164.8C297.4 180.1 308.3 215.1 283 245.8C267.9 264.1 246.2 276.8 227.4 292C225.1 293.8 222.3 294.9 220.2 297.5C252.6 296.3 282.8 287.6 311.8 274C314.8 272.6 316.8 268 318.5 264.5C335.4 228 365.7 206.4 400.9 190.1C401.7 189.7 402.7 189.2 403.5 189.3C412.3 190.4 424.4 188.6 429.2 193.6C437.3 202 431.5 213.5 423.9 221.2C416.7 228.5 408.8 235.7 400 240.8C383.7 250.2 366.7 258.8 349.4 266.3C341.1 269.9 337.4 275.4 339.4 282.7C341.1 288.8 345.6 297.2 350.5 298.5C359 300.8 369.6 300.5 377.9 297.4C390.4 292.8 402.4 285.9 413.4 278.2C454.6 249.3 493.5 219.1 524.7 177.6C553.6 139.1 591.8 107.4 626.8 73.6997C635.6 65.1997 647.5 59.1997 658.9 54.1997C669.8 49.3997 677.9 56.4999 674 67.5999C669.9 79.1999 663.6 90.5998 656.1 100.5C623.2 143.4 583.7 179.9 539.3 210.4C512.7 228.7 496.3 253.4 483.7 281.7C481.4 286.9 481.9 293.4 481.2 299.3C487.2 299 494.1 300.6 499.2 298.2C514.7 291 530.2 283.5 544.3 274.1C567.1 258.8 588.9 241.9 610.8 225.3C615 222.1 618.6 217.9 621.6 213.5C657.9 160.7 702 115.1 751 74.1997C759.9 66.7997 770.1 60.5997 780.5 55.3997C784.9 53.1997 793.4 53.1998 796.2 55.9998C799.2 58.9998 800 67.5998 797.9 71.7998C791.7 84.0998 784.5 96.2999 775.9 107.1C743.3 147.9 704.8 182.7 661.9 212.2C634.7 230.9 619.6 257 607.1 285.8C605.5 289.6 605.9 294.3 605.4 298.6C610.1 299.1 615.5 301.4 619.3 299.8C632.1 294.4 645.3 289.1 656.5 281C680.2 263.8 701.8 243.7 725.9 227.2C745.7 213.6 767.4 202.6 789.2 192.3C801 186.7 812.3 190.3 816.4 202.5C822.6 201.9 827.8 201.4 833.1 200.9C831.7 206.9 832 214.1 828.6 218.6C813 239 796.3 258.5 780.2 278.6C775.8 284 772.3 290.2 767.6 297.3C774.1 299.7 778.5 301.3 784.3 303.4C776.7 311.8 767.8 311.2 761.2 306.7C746.5 296.8 757.9 285.3 761.8 271.6C752.4 279.1 744.9 285.5 737 291.3C731.6 295.3 726.1 299.6 720 302.2C701.2 310.2 687.3 299.1 690.1 278.9C690.6 275 691.2 271.2 691.9 266.2C677.6 276.2 664.9 286.4 650.9 294.2C639.7 300.5 627.2 305.5 614.7 308.2C595.8 312.1 586.9 303.1 590.3 284C592.7 270.9 597.4 258.2 601.8 242.9C596.9 246.3 593.1 248.8 589.4 251.3C568.6 265.6 548.5 281 526.8 293.8C514.7 301 500.4 305.5 486.5 308.3C470.7 311.5 461.8 302.4 464.6 286.5C467.1 272 472.4 258.1 476.9 242.1C458.9 255.2 441.5 267.9 424.1 280.5C401.1 297.1 376.4 309.5 347 309.6C324.1 309.7 318.4 305.8 313 285.4C287.8 291.9 262.9 299.6 237.5 304.5C206.7 310.4 175.5 314.1 144.4 318.4C137.3 319.4 130 319.7 122.8 319.4C80.6004 317.6 63.8004 300.1 62.7004 253.7C49.3004 269.8 37.5004 284.1 25.7004 298.4C18.3004 307.4 10.3004 310.9 0.900391 301.1C0.900391 298.4 0.900391 295.7 0.900391 293C9.70039 281.6 18.1004 269.9 27.4004 259C49.1004 233.7 71.8004 209.2 93.0004 183.5C99.7004 175.3 111.8 170.8 109.7 155.4C107.3 137.1 128 147 136.2 137.4C163.9 104.9 194.8 75.0997 224.4 44.1997C226.3 42.1997 227.7 39.7998 230.3 36.2998C187.7 42.1998 147.2 48.3999 109.9 67.0999C107.5 68.2999 104.7 69.8999 102.3 69.5999C98.3004 69.0999 91.8004 67.9997 91.0004 65.6997C89.8004 61.9997 91.1004 55.6997 93.8004 52.8997C98.1004 48.5997 104.3 45.9998 110 43.4998C151.8 25.0998 196.1 17.4998 241.2 14.2998C252.6 13.4998 262.1 10.5998 268.6 0.799805C271.5 0.799805 274.2 0.799805 277 0.799805ZM179.5 156.9C165 160.1 149.5 158.9 142.6 165.9C120.2 189 98.8004 213.8 81.2004 240.6C61.7004 270.4 73.3004 293.4 108.7 296C171.1 300.6 223.9 277.7 267 232.6C268.2 231.3 269.2 229.8 270.3 228.3C286.7 204.4 281.9 184.2 254.6 175.1C229.7 166.8 203.5 162.5 179.5 156.9ZM162.5 141.4C167.8 141.4 171.3 142 174.5 141.3C215.3 132.4 256.6 124.8 296.8 113.6C316.3 108.2 334.5 96.9997 352.3 86.6997C362.5 80.7997 370.8 70.8999 367.9 57.5999C365.1 44.7999 353.6 39.8997 342.3 38.6997C317.8 35.9997 293.1 34.8999 268.4 33.5999C265.3 33.3999 261.2 35.2999 259 37.5999C227.1 71.6999 195.4 105.9 162.5 141.4ZM668.3 62.7998C647.6 66.0998 543.2 180.5 532 207.1C548.3 193.6 564.1 182.3 577.7 168.8C603.9 142.9 629.4 116.3 654.2 89.0999C660.7 81.8999 663.7 71.5998 668.3 62.7998ZM792.4 61.4998C790.7 60.3998 788.9 59.2997 787.2 58.1997C739.4 101.8 698.3 151.5 659.8 203.7C692.5 177.4 723.6 149.6 753.4 120.4C765.8 108.3 775.6 93.3997 785.8 79.1997C789.3 74.1997 790.3 67.3998 792.4 61.4998ZM713.7 295.1C719.8 291.9 724.3 290.5 727.5 287.6C750.8 267.3 774 246.8 796.9 225.9C800.7 222.4 803.4 217.2 805.5 212.4C806.7 209.5 807 203.8 805.3 202.7C802.6 200.8 797.8 200.8 794.3 201.5C791 202.2 787.6 204.4 785.1 206.8C763.3 226.9 741.5 246.9 720.2 267.6C715.6 272.1 712.6 278.7 710.2 284.9C709.4 287.1 712.2 290.9 713.7 295.1ZM347.3 257.3C370.9 246 393 232.4 409.1 211.3C411.8 207.8 411.4 201.8 412.5 197C407.9 197.7 402.5 197.1 398.9 199.4C376.1 213.3 359.2 232.9 347.3 257.3Z" fill="white"/>
<path d="M1248.3 433.7C1236.1 423.7 1240.3 411.7 1245 400.5C1263.6 356.7 1295.7 326.5 1340.1 310C1352.1 305.5 1361.2 299.4 1369 289.5C1386.2 267.5 1404.2 246.1 1420.4 222.7C1417.8 224.4 1415.1 226 1412.7 227.9C1386.8 248.2 1361.7 269.6 1334.8 288.3C1321.5 297.5 1305.2 303.7 1289.3 307.7C1269.8 312.6 1259 299 1267.9 280.9C1276.3 263.7 1288.1 248.1 1299 231C1296.5 232.4 1294 233.5 1292 235.1C1270.3 252 1249.4 270.1 1226.7 285.4C1212.4 295 1195.8 301.8 1179.3 307.3C1172.5 309.6 1160.9 307.7 1156.3 303C1152.6 299.3 1156.2 288.4 1156.8 280.7C1157 278.7 1158.2 276.8 1159.9 271.9C1148.8 280.7 1140.2 287.9 1131.2 294.4C1126.2 298 1120.6 301.7 1114.8 303.4C1098 308.2 1087.2 299 1088.4 281.8C1088.7 276.9 1089.8 272.1 1090.7 265.9C1078.3 274.7 1066.8 283.2 1054.9 291.2C1037.5 303 1019 312.9 997.501 312.1C990.001 311.8 979.401 308 976.201 302.4C972.901 296.6 974.501 285.3 978.301 278.9C985.101 267.4 994.501 257.2 1003.9 247.7C1053.3 197.6 1103.2 148 1152.5 97.8995C1166.7 83.4995 1179.9 68.0996 1192.5 52.1996C1197.4 46.0996 1199.1 37.4997 1202.3 30.0997C1201.1 28.9997 1199.9 27.8997 1198.7 26.7997C1191.3 29.2997 1183.2 30.4995 1176.7 34.3995C1144.2 53.6995 1110.9 71.9997 1080 93.5997C998.001 150.9 925.101 218.8 857.201 292C853.201 296.3 849.601 301.2 844.801 304.3C841.901 306.2 835.401 306.8 833.401 304.9C830.501 302.2 828.101 295.8 829.401 292.6C832.101 286.2 836.901 280.3 841.801 275.1C883.301 231.2 925.601 188 966.301 143.4C991.701 115.5 1015.3 85.6995 1038.5 55.8995C1043.7 49.2995 1044 38.8997 1046.6 30.2997C1038 32.3997 1028.2 32.5996 1020.9 36.9996C964.601 71.0996 915.201 113.7 870.801 162.1C868.101 165.1 865.801 168.9 862.501 170.9C859.601 172.6 855.501 172.3 851.901 172.8C851.401 169.2 849.801 165.2 850.701 162C851.701 158.3 854.601 154.9 857.201 151.9C898.601 105 944.401 62.9996 999.901 33.1996C1012 26.6996 1025.7 22.2996 1039.1 19.6996C1053.4 16.8996 1062.5 25.6996 1060 39.9996C1057.9 52.0996 1053.5 64.6997 1046.7 74.7997C1031.3 97.4997 1013.8 118.8 996.601 141.4C999.501 139.4 1001.9 137.8 1004.3 136C1045.7 105.7 1086.3 74.0996 1128.9 45.4996C1146.8 33.3996 1168.3 25.5997 1189.2 19.2997C1211.1 12.7997 1225.9 29.5996 1218.3 51.1996C1214.4 62.3996 1208.1 73.7997 1200 82.2997C1167.2 117.1 1133.4 150.8 1099.9 184.9C1069.6 215.8 1038.9 246.3 1009.1 277.6C1004.2 282.7 1002.7 291 999.601 297.8C1007.7 297.9 1016.7 300.2 1023.8 297.5C1036.3 292.8 1048.5 286.2 1059.2 278.2C1082 261.3 1102.9 241.8 1126.2 225.7C1144.9 212.8 1165.4 202.3 1186 192.6C1198 186.9 1210.1 189.1 1214.9 202C1221.8 202 1227.2 202 1232.7 202C1230.9 207.6 1230.4 214.2 1227 218.6C1211.5 238.5 1195.2 257.8 1179.3 277.4C1174.9 282.9 1171.2 289 1164.3 299C1173.8 299 1180.3 300.8 1184.8 298.7C1200.5 291.1 1216.9 283.8 1230.6 273.3C1262 249.2 1292 223.1 1322.7 198C1326.1 195.2 1330.2 192.4 1334.3 191.7C1338.2 191 1344.6 191.8 1346.3 194.3C1348.5 197.6 1348.6 204 1346.8 207.7C1343.7 214 1338.5 219.4 1334 225C1318 244.5 1301.7 263.8 1286.1 283.7C1283.3 287.3 1283.3 293.2 1282 298.1C1287.2 298.5 1293.1 300.9 1297.3 299.1C1309.2 294 1321.7 288.8 1331.8 280.9C1365.5 254.6 1398.4 227.1 1431.5 200.1C1437.4 195.3 1442.7 189.3 1449.4 185.9C1453.4 183.8 1461.1 183.9 1464.1 186.5C1466.6 188.7 1466.8 197.1 1464.6 200.7C1458.3 211 1450.4 220.4 1442.8 229.8C1426.3 250.1 1409.6 270.2 1390.9 292.9C1397.4 290.6 1401 289.6 1404.4 288.2C1444 271.4 1480.6 250 1514.5 223.1C1531 210 1551.5 201.4 1571 192.6C1583.2 187 1595.2 189.4 1599.8 202.2C1607.1 201.7 1613.1 201.3 1619.2 201C1619.2 204.6 1619.2 208.2 1619.2 211.8C1600.3 234.6 1581.2 257.2 1562.5 280.1C1550.2 295.2 1550.5 296.2 1567.3 304.6C1559.6 311.4 1550.9 311.2 1544.1 306.3C1530.1 296.3 1542 284.4 1544.7 272.4C1532 282 1520.9 291.1 1509.1 299.3C1500 305.6 1489.6 307.4 1480.1 300.6C1470.9 294.1 1472.5 284.1 1474.4 274.6C1475.3 270.1 1476.8 265.8 1477.7 262.5C1449.4 275.5 1421.1 288.1 1393.2 301.6C1385.1 305.5 1377.2 311.1 1370.8 317.5C1332.5 355.9 1294.7 394.8 1256.7 433.5C1253.7 433.7 1251 433.7 1248.3 433.7ZM1112.6 294.6C1117.5 292.3 1120.4 291.7 1122.3 290C1148.1 267.1 1174.1 244.5 1199.1 220.8C1203 217.1 1202.1 208.2 1203.4 201.7C1197.3 203.1 1189.4 202.6 1185.3 206.2C1162.1 226.7 1139.6 248 1117.3 269.5C1113.3 273.4 1110.5 279.2 1108.8 284.6C1108 287.1 1111.1 290.9 1112.6 294.6ZM1497.7 294.8C1503.4 291.8 1507.1 290.8 1509.7 288.5C1533.9 267.2 1558.1 245.9 1582 224.1C1585.5 220.9 1587.8 216 1589.3 211.5C1590.3 208.6 1589.6 204.1 1587.9 201.8C1586.7 200.2 1582.1 200.4 1579.3 201.1C1575.9 202 1572.4 203.7 1569.9 206.1C1547.2 227.1 1524.5 248.1 1502.2 269.7C1498.2 273.6 1495.6 279.4 1494 284.8C1493.1 287.3 1496.1 291 1497.7 294.8ZM1253.3 423.6C1287.1 389 1316 352.7 1348.4 315.8C1297.2 329.5 1242.3 390.2 1253.3 423.6Z" fill="white"/>
<path d="M1397 113.2C1398.8 115.7 1404 119.9 1404.7 124.8C1406.1 134.8 1389.2 147.1 1375.9 145.4C1371.8 144.9 1365.8 139.2 1365.1 135.2C1363.5 124.8 1379.8 112.7 1397 113.2Z" fill="white"/>
<path d="M1485.5 145.8C1483.9 143.6 1478.9 139.8 1478.3 135.5C1476.9 125 1493 112 1506 113.8C1510.5 114.4 1516.8 120.4 1517.8 124.9C1520 134.4 1503.5 145.7 1485.5 145.8Z" fill="white"/>
</svg>
