<svg width="2308" height="366" viewBox="0 0 2308 366" fill="none" xmlns="http://www.w3.org/2000/svg">
<path d="M2086 261.7C2104.4 257.9 2110.3 252 2111.1 234.8C2112.7 195.5 2112.5 156.2 2111.3 116.9C2111 105.8 2107.1 97.9995 2095.6 95.6995C2091.5 94.8995 2089 93.6995 2089.3 88.9995C2089.6 82.7995 2094.3 83.3995 2098.2 83.4995C2118.7 83.6995 2139 81.3996 2159.1 77.3996C2175.3 74.1996 2166.7 87.4995 2170.9 94.9995C2182.7 83.6995 2197.1 77.4995 2213.2 75.5995C2246.1 71.6995 2282.9 83.7995 2283.8 129.8C2284.5 165 2285.1 200.2 2285.5 235.4C2285.7 250.4 2292.2 259.5 2307.5 261.6C2307.5 265.7 2307.5 269.8 2307.5 273.9C2278.6 267.9 2249.4 272 2220.4 271.2C2216.3 271.1 2210.6 275.2 2208.1 269.1C2205 261.9 2211.9 261.1 2216 258.5C2222.8 254.3 2224.6 247.5 2225.3 240.1C2228.8 202.8 2227.3 165.6 2224.5 128.4C2223.7 118 2219 109.3 2208.4 106.3C2196.3 102.8 2184 103.1 2172.7 109.5C2168.5 111.9 2169.8 116.8 2169.8 120.8C2169.7 156.6 2169.4 192.4 2169.9 228.2C2170.1 241.2 2169.5 255.5 2185.6 261.7C2188.6 262.8 2188.2 265.8 2187.7 268.3C2187 271.6 2184.3 271.5 2181.7 271.5C2152.5 271.6 2123.3 271.5 2094.2 272.1C2085.4 272.3 2088.7 265.2 2086.3 261.6L2086 261.7Z" fill="white"/>
<path d="M936.8 320.4C939.2 318.2 935.1 312.6 941 312.2C945.4 311.9 947.3 314.2 948.3 318.3C949.5 323.6 951.1 328.8 952.7 334.4C958 328.7 956.9 321.3 959.8 315.4C961 312.9 963 311.5 965.9 312.4C969.6 313.5 968.4 316 967.6 318.5C962.4 334.3 959.8 351 951.5 365.8C947.4 365.8 943.3 365.8 939.2 365.8C951.7 349.8 946.3 334.7 936.5 320L936.8 320.4Z" fill="white"/>
<path d="M1724.5 257.1C1677.6 293 1620.5 273.4 1606 216.4C1599.5 191.1 1599.9 165.7 1607.3 140.7C1621.1 93.6999 1661.2 68.5999 1711.5 76.2999C1723.3 78.0999 1727.7 76.0999 1726.1 63.8999C1725.1 56.2999 1725 48.5999 1724.6 40.9999C1724.1 30.6999 1720.1 23.1999 1708.9 21.4999C1704.4 20.7999 1700.9 19.2999 1701.6 13.8999C1702.3 8.39993 1706.7 9.99991 1709.9 9.69991C1732.3 7.99991 1754.9 7.69993 1776.7 1.39993C1786.9 -1.60007 1784.5 5.7999 1784.4 10.9999C1784.2 77.9999 1783.9 145 1783.6 211.9C1783.6 217 1783.6 222.1 1783.8 227.2C1784.9 245.5 1792.3 255.9 1808 260.5C1810 261.1 1812.9 259.6 1815.1 258.5C1824.5 253.9 1827.8 245.7 1828.1 235.9C1829.7 196.6 1829.3 157.2 1828.4 117.8C1828.1 106.3 1824.8 97.5999 1812.2 95.4999C1807.8 94.7999 1806 92.7999 1806.4 88.3999C1806.9 83.2999 1810.7 83.2999 1814.2 83.3999C1835.3 83.6999 1856.1 81.6999 1876.7 77.2999C1887.7 74.8999 1886.7 81.6999 1886.7 88.6999C1886.6 130.6 1886.6 172.6 1886.7 214.5C1886.7 221.6 1887.7 228.7 1887.9 235.9C1888.2 247.8 1892.6 256.8 1904.6 260.5C1908.6 261.7 1911 263.7 1910.1 268.1C1909 273.6 1904.9 271.3 1901.6 271.3C1871.9 271.4 1841.6 275.4 1812.7 270.5C1785.3 265.8 1759.9 268.6 1733.4 272.8C1720.3 275 1730 261.9 1724.5 257.1ZM1725.9 174.2C1725.9 154.8 1725.3 135.3 1726.1 115.9C1726.6 102.9 1720.4 97.1999 1708.7 95.0999C1691 91.9999 1677.5 97.7999 1672 114.9C1660.1 151.8 1659.5 189.5 1672 226.3C1678.5 245.5 1696.8 252.4 1715.7 246.7C1723.4 244.4 1726.2 240.4 1726.1 232.4C1725.6 213.1 1725.9 193.6 1725.9 174.2Z" fill="white"/>
<path d="M542.4 98.3002C563.6 79.8002 586.6 76.2002 611.3 80.1002C634.4 83.7002 649.5 97.6002 653.4 120.5C659.2 155 655.2 189.9 656.2 224.6C656.7 241.3 653.6 259.6 676.6 265C679.7 265.7 679.6 269.1 679 271.4C677.9 276.2 673.7 275.5 670.2 275.2C648.2 273.3 626.2 273.8 604.2 274.3C598.1 274.4 592 275.1 585.8 275.3C582.8 275.4 579.3 275.6 578.8 271.3C578.4 268.2 578.6 265.4 582.5 264C594.8 259.6 597.2 249 597.3 237.9C597.5 205.7 597.8 173.5 596.9 141.3C596.2 117.9 587.8 108.8 569.5 107.7C545.8 106.2 540.7 110.8 540.9 134.2C541.1 169 541.6 203.7 541.8 238.5C541.9 249.8 543.4 260.3 556.2 264.3C560.2 265.5 560.6 268.2 560.1 271.4C559.5 275.5 556 275.5 553 275.3C524.4 273.3 495.8 273.5 467.1 275.3C463.7 275.5 459.7 276.2 459.2 270.7C458.8 266 461.3 265.2 465.2 263.9C476 260.2 481.7 251.8 482.1 240.6C482.9 219.7 483.2 198.7 483.3 177.8C483.5 136.9 483.6 96.0002 483.2 55.1002C483.1 41.4002 483.7 26.1002 463.7 24.6002C459.4 24.3002 459.5 21.1002 459.3 18.0002C458.9 12.4002 462.8 13.0002 466.4 12.9002C489.5 12.4002 512.4 11.2002 534.8 4.90022C545.7 1.80022 542.1 10.2002 542.2 14.7002C542.5 41.5002 542.4 68.5002 542.4 98.3002Z" fill="white"/>
<path d="M1017.5 159.7C1031.8 159.7 1046.2 159.6 1060.5 159.7C1063.9 159.7 1068.1 158.8 1068.6 164.2C1069 168.1 1066.5 169.4 1063.3 170.4C1048.9 175 1046.2 186.2 1046.2 199.5C1046.3 217.9 1045.6 236.3 1045.6 254.7C1045.6 261.3 1045.1 266.2 1036.6 267.9C997.399 275.7 958.299 278.1 919.599 266.5C879.599 254.5 853.6 228.6 845.5 186.7C839.6 156.2 839.399 125.5 848.199 95.5998C863.199 44.1998 900.4 18.2998 951.5 9.49982C980.1 4.59982 1008.6 6.09982 1037.2 9.49982C1039.2 9.69982 1041.4 9.59984 1043.3 10.3998C1048.6 12.3998 1047.2 17.3998 1046.6 20.8998C1044.6 32.7998 1050.6 45.5998 1043.8 56.3998C1041.7 59.6998 1035.8 56.7998 1034.3 50.6998C1030.8 35.7998 1019.8 29.7998 1005.5 27.0998C960.5 18.5998 927.2 37.1998 913.8 80.6998C900.8 123.3 901.4 166.6 914.8 209C924.8 240.6 945.899 255.3 977.199 256.4C985.699 256.7 989.2 254.6 988.9 245.5C988.2 229.2 988.4 212.8 988.5 196.4C988.6 184 985 174.2 971.9 170.3C968.8 169.4 966.2 168.2 966.5 164.2C966.9 158.8 970.9 159.5 974.4 159.5C988.8 159.6 1003.1 159.7 1017.5 159.7Z" fill="white"/>
<path d="M1188.1 256.5C1171.3 272.4 1149.2 276 1125.5 273.9C1097.3 271.4 1079.9 253.7 1077.4 225.4C1074.6 193.7 1076.3 162 1075.7 130.3C1075.4 115.9 1076.8 100.5 1056.7 97.2996C1052.8 96.6996 1053 93.0996 1053 89.9996C1053 85.9996 1055.3 84.6996 1058.9 84.6996C1082 84.0996 1104.8 81.9996 1127.5 77.2996C1138.4 74.9996 1135.3 83.7996 1135.3 89.2996C1135.5 130.2 1134.9 171.1 1135.8 212C1136.4 240.8 1153.7 251.7 1181.4 243.3C1188.6 241.1 1191.1 237.5 1191 230.2C1190.7 194.4 1191.1 158.6 1190.8 122.7C1190.7 109.7 1187.6 97.8996 1171.8 95.5996C1167.6 94.9996 1167.4 92.0996 1167.5 88.8996C1167.7 84.9996 1170.3 83.7996 1173.7 83.7996C1196.8 83.7996 1219.7 81.8996 1242.4 77.1996C1253.7 74.7996 1249.7 84.5996 1249.8 89.3996C1249.9 133.9 1249.7 178.4 1249.5 222.9C1249.4 237.2 1249.3 251.3 1268 254.7C1272.1 255.4 1272.2 258.7 1271.8 261.8C1271.3 265.8 1268.1 266.1 1264.9 266.2C1242.8 266.4 1221.1 268.5 1199.3 272.5C1185.5 275.2 1196 261.3 1188.1 256.5Z" fill="white"/>
<path d="M1449.8 261.3C1436.5 265 1425.6 274.8 1410.5 274.4C1390.5 273.8 1382.4 270.4 1371 252.4C1357 267.6 1340 275.2 1319.1 274.1C1292.3 272.7 1274.8 258 1271.4 233.2C1266.9 201.2 1279.7 177.9 1306.6 169.9C1323 165 1340 164.7 1356.8 164.7C1366.3 164.7 1371.4 162.7 1369.8 152.1C1369.2 148.1 1369.8 143.9 1369.7 139.8C1369.4 125.4 1367.1 111.4 1352 105.3C1336 98.7998 1320.8 101.6 1308 113.8C1303.9 117.8 1301.1 124.5 1293.4 117.9C1285.1 110.9 1291.5 106 1295.2 101.2C1317.2 72.5998 1377.5 65.0998 1406.3 87.0998C1423.7 100.4 1426.8 119.4 1426.8 139.2C1426.8 164.8 1425.8 190.3 1425.7 215.9C1425.5 239.7 1426 239.9 1449.2 240.9C1455.4 241.2 1456.6 244.9 1455.1 250.2C1453.9 254.3 1447.3 255.8 1449.6 261.6L1449.8 261.3ZM1369.7 210.9C1369.7 205.3 1369 199.6 1369.8 194.1C1371.8 180.9 1364.6 180.1 1354.6 181.6C1342.4 183.4 1333.1 189.4 1330.2 201.5C1327.1 214.5 1325.8 228.1 1336.1 239C1343.1 246.4 1352.2 246.1 1361.6 243.3C1371.4 240.4 1369.5 233 1369.6 226.1C1369.7 221 1369.7 216 1369.7 210.9Z" fill="white"/>
<path d="M2086.3 261.4C2075.5 265.3 2066.4 273.2 2054.1 274C2035 275.1 2018.2 272.3 2008.7 252.1C1994.7 268.3 1977.9 275 1957.7 274.2C1929.3 273.1 1912.2 257.8 1908.5 229.4C1904.9 201.6 1918.8 178.1 1943.9 170.2C1960.2 165.1 1977.3 164.8 1994.1 164.8C2005.2 164.8 2008.8 161 2007.6 150.6C2007 146.1 2007.6 141.4 2007.3 136.8C2006.6 122.9 2003.7 109.9 1988.5 104.8C1973.3 99.6003 1959.2 101.8 1947.2 113C1942.2 117.6 1938.5 125.4 1930.2 116.9C1922.4 109 1930.9 104.6 1934.1 100.4C1956.4 71.6003 2018.7 65.4003 2046.5 88.9003C2059.9 100.3 2064.6 115.8 2064.6 132.9C2064.7 162.6 2064.2 192.3 2064.3 221.9C2064.4 240.9 2066.8 242.9 2085.6 241.4C2094.4 240.7 2094.7 245.3 2092.1 251.4C2090.6 255 2086.1 257 2086 261.7L2086.3 261.4ZM2008 210.4C2008 205.3 2007.4 200.1 2008.1 195.1C2010.2 181.3 2002.9 179.7 1992 181.7C1980.6 183.8 1971.9 189.1 1968.5 200.7C1964.6 213.9 1964 227.3 1973.4 238.3C1979.9 245.8 1988.8 246.4 1998.7 243.6C2009.2 240.6 2008.1 233.2 2008 225.6C2008 220.6 2008 215.5 2008 210.4Z" fill="white"/>
<path d="M324.099 135.6C324.099 103.9 323.799 72.2 324.299 40.5C324.499 31.2 322.199 27.2999 312.499 28.5999C303.899 29.6999 295.099 29.1999 286.499 30.0999C273.499 31.4999 264.399 37.6999 262.299 51.5999C261.699 55.9999 260.599 59.6 254.999 59.4C248.299 59.1 250.099 54.3999 249.999 50.5999C249.099 11.2999 249.099 11.2999 288.199 11.2999C338.899 11.2999 389.599 11.9 440.299 10.9C454.499 10.6 458.099 15 456.599 28C455.699 36 456.799 44.3 456.899 52.5C456.899 55.5 457.399 58.9 452.999 59.4C448.899 59.9 446.899 58.2999 445.299 54.0999C436.999 33.0999 410.599 21.8999 387.999 28.7999C382.199 30.5999 383.199 34.6 383.199 38.4C383.199 102.8 383.099 167.3 383.299 231.7C383.299 247.7 389.199 259.8 407.499 261.2C411.499 261.5 414.499 262.1 413.899 267.3C413.299 272.5 410.299 272 406.299 271.8C370.999 270.4 335.699 270.1 300.399 271.9C297.199 272.1 294.099 272.5 293.599 268.2C292.999 264.1 294.299 262.5 298.899 261.2C320.199 255 323.999 249.9 324.199 227.8C324.299 197 324.099 166.3 324.099 135.6Z" fill="white"/>
<path d="M775.899 164.8C762.599 164.8 749.199 165.4 735.899 164.6C725.899 164 723.099 168.2 724.399 177.1C725.699 185.7 726.099 194.5 728.099 202.9C737.299 241.9 766.499 256.5 808.799 244.1C813.199 242.8 818.799 235.7 823.499 243.5C828.499 251.9 819.799 254.4 815.599 257.2C782.199 279.6 746.099 280.6 710.299 265.6C676.699 251.6 667.499 221.1 665.499 187.8C664.399 168.2 667.099 149.1 674.099 130.6C690.899 85.8997 737.299 63.6997 782.699 78.6997C812.799 88.6997 835.299 128 829.099 158.8C827.699 166 823.099 164.6 818.899 164.6C804.599 164.9 790.199 164.8 775.899 164.8ZM745.499 145.3C770.599 145.3 770.599 145.3 770.499 132.2C770.399 104 763.899 92.4997 748.099 92.5997C731.799 92.6997 724.699 105.6 724.399 135.1C724.199 155.4 739.999 140.3 745.499 145.3Z" fill="white"/>
<path d="M1449.5 261.6C1465.6 259.8 1473.1 249.5 1473.4 234.6C1474 194.8 1473.9 154.9 1473.5 115.1C1473.4 105.2 1468.7 97.2999 1457.6 95.5999C1453.4 94.8999 1450.9 93.2999 1451.3 88.6999C1451.8 83.8999 1455.3 83.3 1459.1 83.4C1480.2 83.8 1500.9 81.3 1521.6 77.4C1538.5 74.2 1527.4 90.0999 1534.2 95.4999C1549.4 80.3999 1567.5 72.2999 1590.1 77.0999C1610.4 81.3999 1613.2 86.1 1604.6 104.9C1601.4 111.9 1598.2 118.8 1595 125.7C1592.9 130.1 1592.7 136.3 1586.2 137C1579 137.9 1578.8 131 1576.4 127C1568.6 113.8 1557.6 107.2 1542.1 109.3C1536 110.1 1532 112.1 1532.1 119.8C1532.6 158.6 1532.5 197.5 1532.8 236.3C1532.9 250 1539.6 258.2 1553.3 260.7C1557.3 261.4 1563.8 260 1562.6 267.5C1561.6 273.6 1556.4 271.2 1552.7 271.3C1521 271.4 1489.2 270.9 1457.6 271.9C1447.3 272.2 1450.2 266.5 1449.9 261.4C1449.8 261.3 1449.5 261.6 1449.5 261.6Z" fill="white"/>
<path d="M0.69972 179.1C0.69972 125.9 0.999723 72.7001 0.499723 19.6001C0.399723 8.80009 2.29972 4.40012 14.4997 4.50012C82.0997 5.10012 149.7 5.10012 217.3 4.50012C229 4.40012 231.7 7.90013 231.7 19.2001C231.3 126.1 231.3 232.9 231.7 339.8C231.7 350.8 229.6 354.7 217.6 354.6C149.5 354 81.3997 354.1 13.2997 354.5C3.09973 354.6 0.499729 351.6 0.599729 341.6C0.899729 287.5 0.69972 233.3 0.69972 179.1ZM221.8 181.6C221.8 130.4 221.5 79.3001 222 28.1001C222.1 16.7001 218.7 13.1001 207.2 13.2001C145.7 13.7001 84.1997 13.7001 22.6997 13.2001C11.7997 13.1001 8.79972 16.7001 8.89972 27.2001C9.19972 129 9.19972 230.8 8.89972 332.6C8.89972 342.6 11.7997 345.8 21.8997 345.7C83.8997 345.3 145.9 345.2 207.9 345.8C220.2 345.9 222 341.1 221.9 330.4C221.6 280.9 221.9 231.3 221.8 181.6Z" fill="white"/>
<path d="M1856 64.5001C1846.5 64.0001 1833.7 63.5001 1827.6 50.1001C1822.4 38.7001 1824.5 27.8001 1834.8 20.0001C1846 11.4001 1874.5 12.5001 1884.1 21.9001C1892.9 30.5001 1893 41.1001 1888.2 51.6001C1884.2 60.3001 1873.8 64.4001 1856 64.5001Z" fill="white"/>
<path d="M409.2 340.199C408.6 334.999 403.4 334.999 400.4 332.899C396.2 329.899 394.2 326.199 394.9 321.199C396.1 313.699 401.6 311.499 408.2 311.199C411.9 310.999 416.299 311.299 416.099 316.099C415.699 324.199 406.4 315.199 404.2 323.099C408.7 326.199 413.8 329.799 420 334.099C422.9 323.699 423.9 311.699 438 311.199C441.4 311.099 445.9 310.299 446.9 314.999C448.3 321.599 443 318.899 440 319.399C430.6 321.099 431.1 328.299 432.4 334.799C433.9 342.799 440.8 343.599 446.9 341.799C455.4 339.299 448.8 331.699 450.7 326.799C452.6 322.099 446.9 312.999 454.9 312.899C464.7 312.699 459.7 322.499 459.7 327.299C459.6 334.799 464.9 345.399 456.2 349.399C442 355.799 428.499 349.599 420.599 336.099C414.299 351.799 409.6 353.699 394.7 346.999C393.9 346.599 393.4 345.299 392.7 345.199C380.6 343.799 380.8 343.799 379.9 330.899C379.6 326.899 382 319.999 374.9 320.299C369 320.599 370.6 327.199 369.7 331.499C368.3 337.699 374 349.099 365 348.999C356.3 348.899 361 337.399 360.9 331.199C360.8 323.399 355.1 313.099 372.4 312.099C387.1 311.299 389.3 315.999 389.4 327.599C389.4 345.199 389.6 345.199 409.2 340.199Z" fill="white"/>
<path d="M1075.8 319.1C1073.1 324.1 1074.3 329.8 1074.6 335.1C1075.1 344.6 1074.6 349.2 1061.8 350C1047.1 350.9 1045.2 345.3 1044.9 333.8C1044.7 329.1 1048.7 320.7 1040.4 320.4C1031.8 320.1 1033.3 328.6 1033 334.5C1032.8 337.6 1033 340.6 1032.9 343.7C1032.8 347 1032 349.8 1027.9 349.8C1023.9 349.9 1022.7 347.4 1022.7 344C1022.7 335.3 1022.4 326.6 1022.8 317.9C1023.3 306.3 1032.4 314 1036.9 312.8C1048.3 309.8 1057.4 312.3 1054.8 328C1054.1 332.3 1052.1 340.4 1058.8 340.7C1067.1 341.1 1064.2 332.8 1064.6 327.7C1065.2 319.9 1061.2 308.6 1076.8 312.9C1077.9 313.2 1080.5 310.9 1081.3 309.2C1083.4 305.1 1084.8 300.3 1090.8 304.5C1084 310.8 1109.5 311.3 1093.4 320.8C1088.1 323.9 1090.3 334.4 1093.7 340.8C1095.5 344.1 1103.3 346.1 1095.4 349.9C1090.9 352.1 1084.6 350.8 1083.3 344.2C1082.2 338.8 1082.3 333.1 1082 327.5C1081.9 323.4 1082.3 319 1075.8 319.1Z" fill="white"/>
<path d="M813 320C828.4 306.5 833.6 307.4 845.7 326.2C848.5 314.2 854.8 307.8 867.6 312.9C867.8 312 867.9 311.5 868.1 311.1C870.6 306.1 864.3 294 873.8 296.3C883.9 298.7 876.2 311.1 878 318.9C879 323.3 878.9 328.2 878 332.6C876.9 338.4 882.7 348.4 873.5 349.1C864.7 349.8 852.5 355.7 846.8 340.4C842.3 328.4 831.1 338 822.8 335.1C826.1 346 834.4 341.8 841 342.4C840.6 352.8 833 350.7 827.5 350.2C819.4 349.6 814.5 344.2 813.4 336.3C812.6 330.8 813.3 325.1 813.4 319.5L813 320ZM868.4 330.2C868.1 325.8 868.8 319.7 862.5 320C855.7 320.3 856.2 326.6 856.2 331.6C856.2 336.2 856.4 342 862.3 341.9C869.4 341.7 868.1 335.1 868.4 330.2Z" fill="white"/>
<path d="M659.299 330C659.299 321.6 659.199 313.2 659.399 304.8C659.399 302.5 658.899 299.4 662.599 299C666.599 298.6 667.999 301.1 667.999 304.6C668.099 316.9 668.099 329.1 667.999 341.4C667.999 344.7 669.299 349 663.899 349.8C659.399 350.6 655.899 349.3 653.899 344.9C650.299 336.7 646.699 328.6 640.299 321C640.299 327.9 640.399 334.7 640.299 341.6C640.199 345 641.099 349.5 635.899 349.7C629.899 350 631.799 344.9 631.699 341.9C631.499 330.1 631.499 318.4 631.699 306.6C631.799 303.5 630.199 299 636.099 298.7C639.899 298.6 642.899 299 644.599 303.2C648.399 312.4 652.799 321.3 656.999 330.3C657.799 330.4 658.499 330.2 659.299 330Z" fill="white"/>
<path d="M936.4 320.1C932.7 323.1 935.7 326.7 935.6 330C935 348.4 924.7 355.7 907.6 349.8C903.7 348.5 903.8 345.5 903.7 342.6C903.6 329.4 903.6 316.1 903.7 302.9C903.7 299.5 902.9 295.3 908.6 295.4C912.9 295.5 913.2 298.7 913 301.8C912.6 308.7 913.2 313.7 922.6 311.4C929.7 309.7 930.8 319.2 936.7 320.4C936.8 320.4 936.4 320.1 936.4 320.1ZM913.1 331.3C913.4 336.2 913.4 342.3 919.1 342C925.7 341.7 925.1 334.9 925 330.1C924.9 325.8 925 319.6 919 319.8C912 320.2 913.9 327 913.1 331.3Z" fill="white"/>
<path d="M1102.6 321.8C1102.6 315.2 1102.5 308.5 1102.6 301.9C1102.6 299 1102.1 295.6 1106.7 295.3C1110.8 295.1 1112.3 297.2 1111.8 300.8C1110.7 309 1112.8 312.8 1122.3 311.5C1128.4 310.6 1131 316.1 1131.9 321.4C1132.6 325.4 1132.9 329.6 1132.3 333.6C1131.4 339.1 1136 348.9 1128.5 349.2C1117.9 349.6 1124.8 339.1 1123.3 333.7C1121.9 328.8 1124.7 320.6 1117.2 320.7C1111.3 320.8 1112.1 328.3 1112 333.3C1111.9 335.8 1112.2 338.4 1111.9 340.9C1111.5 344.5 1113.8 350.2 1107 349.8C1100.5 349.4 1103 343.8 1102.7 340.3C1102.4 334.1 1102.6 328 1102.6 321.8Z" fill="white"/>
<path d="M711.6 328.3C706.9 315.4 715.2 311.4 728.2 311.3C731 311.3 734.6 313.2 735.9 308.9C737.4 303.7 740.1 301.3 745.5 304.1C741.4 310.2 757.5 311.4 748.7 319.8C743 325.2 745.1 333.9 747.7 341C748.7 343.7 755.7 342.6 753.3 348C751.8 351.3 748.1 350.6 745.1 350.4C740.4 350.1 737.6 347.1 736.9 342.7C736.3 338.7 736.9 334.5 736 330.5C735.2 326.6 740 319.2 730.4 319.7C723.5 320.1 720.5 324.1 720.8 330.8C720.9 334.9 720.9 339 720.8 343C720.7 345.9 721.2 349.4 716.7 349.7C711 350.2 711.7 346 711.6 342.6C711.5 338.7 711.6 334.6 711.6 328.3Z" fill="white"/>
<path d="M703.999 334.6C709.999 349.3 698.899 350.3 687.099 350.4C672.699 350.5 674.299 339.6 674.999 330.8C675.499 324.6 670.299 313.4 678.999 313C689.399 312.5 682.499 324 684.399 329.8C685.599 333.7 681.899 340.5 688.599 340.8C696.299 341.1 693.399 333.7 694.599 329.3C696.099 323.6 690.199 313 699.199 313C708.299 313 702.099 323.6 703.899 329.3C704.199 330.3 703.999 331.4 703.999 334.6Z" fill="white"/>
<path d="M482.199 350.6C472.899 350.2 467.099 345 465.899 335.8C464.699 326.5 465.199 317.2 475.499 312.3C481.199 309.6 486.699 310.9 490.899 315.2C494.599 318.9 496.499 324 495.599 329.2C494.399 336 488.399 332.9 484.399 333.7C481.599 334.2 477.299 333 476.799 336.6C476.299 340.7 480.399 341.9 483.899 343.2C487.099 344.4 492.999 337.4 493.199 345.2C493.399 351.3 486.799 350.1 482.199 350.6Z" fill="white"/>
<path d="M319.699 340.5C320.599 351.8 312.799 351.2 305.499 350.4C291.399 349 283.599 336.8 285.599 319.8C287.299 305.3 296.299 297.5 309.999 298.3C314.199 298.6 319.199 298.5 318.999 303.9C318.799 310 313.899 306.4 310.799 306.5C296.299 307.2 294.999 317.4 296.199 328.1C297.899 343.2 308.299 343.4 319.999 340.5H319.699Z" fill="white"/>
<path d="M561 341.4C565.7 335.3 560.6 327.9 563.8 321.3C567.1 314.5 571.7 310.7 579.2 311.3C586.1 311.8 590.5 316 591.6 322.7C592.5 328.2 594.1 334.1 584.5 334C580.9 334 573.8 330.3 573.8 337.8C573.8 343.1 580.2 343.2 584.6 344.3C586 344.6 587.3 345.1 590.2 346.1C576.9 356.8 569.4 345 560.6 341L561 341.4Z" fill="white"/>
<path d="M500.9 330C504.3 325.5 494 313.7 508.5 313C515 312.7 523.2 307 527.8 315.6C533.1 325.5 529.7 336.6 529.8 347.2C529.8 349.5 527.4 350 525.2 349.9C521.7 349.8 521.1 347.4 521.1 344.8C520.9 338.7 521.1 332.5 520.9 326.4C520.8 323.2 519.8 320 515.9 320C512 320 511.2 323.6 510.9 326.6C510.4 331.7 510.6 336.8 510.3 341.9C510.1 345.3 511 349.8 505.7 349.9C500.3 350 501.1 345.5 501 342.1C500.7 338.4 500.9 334.8 500.9 330Z" fill="white"/>
<path d="M320.099 340.6C326.599 338.1 321.799 333 322.199 329.3C323.299 320.5 325.699 313.2 335.399 311.4C343.899 309.8 351.099 313.1 353.499 321.5C356.199 330.8 357.299 341.1 347.999 347.8C340.499 353.2 332.799 351.8 326.099 345.1C324.299 343.3 324.299 338.7 319.799 340.6C319.699 340.5 320.099 340.6 320.099 340.6ZM331.899 331C334.299 334.3 330.899 341.8 338.599 341.9C344.599 342 345.099 336.5 344.999 332C344.899 326.6 345.699 319.6 337.899 319.7C331.699 319.6 333.799 326.5 331.899 331Z" fill="white"/>
<path d="M1004.4 298.799C1008 298.799 1011.6 298.499 1015.1 298.899C1020.4 299.399 1021.2 305.099 1017.9 305.699C1000.3 309.499 1011.4 322.799 1008.5 331.299C1006.4 337.299 1012.5 348.699 1003.6 348.999C993.4 349.399 999.8 338.099 998.1 332.199C995.4 323.099 1005.2 309.799 988.7 304.899C986.9 304.399 987.8 299.099 992.1 298.899C996.2 298.699 1000.3 298.799 1004.4 298.799Z" fill="white"/>
<path d="M785.9 332.5C780.9 336.1 795.6 350.9 776.6 348.9C770.5 348.3 762.4 354 759 346.1C754.7 336.2 756.8 325.1 758 314.6C758.3 312.2 760.9 312.3 762.9 312.8C765.2 313.4 766.2 315 766.2 317.2C766.3 323.3 766.2 329.4 766.4 335.5C766.5 337.9 766.5 340.9 770 341.2C773.8 341.5 775.6 339 775.8 335.7C776.1 330.6 775.8 325.5 776 320.4C776.2 317.2 774.5 312.7 780.1 312.2C786.7 311.7 785.6 316.7 785.7 320.6C786 324.2 785.9 327.8 785.9 332.5Z" fill="white"/>
<path d="M560.6 341C562.2 348.6 558.7 351 551.5 350.6C540.1 350 533.3 341.1 534.9 328C536.3 316.6 542.6 310.6 554.4 311.2C557.7 311.4 560.7 312.3 560.6 316.3C560.5 320 557.6 319.5 555.1 319.5C545.4 319.3 544.7 325.9 545.3 333.1C546.2 343.7 553.5 343 561.1 341.4C561 341.4 560.6 341 560.6 341Z" fill="white"/>
<path d="M813.4 319.6C799.7 320.3 803.3 330.8 802.3 338.8C801.8 342.8 804.8 349.5 797.7 349.6C790.6 349.7 793.3 342.9 793.1 338.9C792.7 332.8 793 326.7 793 320.6C793 315.8 792.9 310.9 800.2 312.8C805.1 314.1 814.3 307.7 813 320L813.4 319.6Z" fill="white"/>
<path d="M596.3 350.6C598.4 346.8 595.6 339.3 603.7 340C608.3 340.4 607.3 344.3 605.9 346.8C603.7 350.7 605.9 358.3 598.4 357.8C593.6 357.5 596 353.3 596.3 350.6Z" fill="white"/>
<path d="M140.799 168.1C141.799 174.3 149.999 170.7 151.999 176.8C155.399 187.1 149.999 196.8 138.699 196.3C126.199 195.7 124.399 201.4 124.999 212C126.499 240.8 138.099 267.7 140.399 296.2C142.099 317.2 130.799 328.4 110.299 326.2C94.5988 324.5 86.3988 314 88.9988 295.2C91.7988 275 96.7988 255.2 100.699 235.1C102.099 228.1 103.299 221 103.899 213.9C104.799 203.5 103.999 194.1 89.3988 195.4C83.6988 195.9 79.3988 193.2 78.2988 187.2C76.6988 178.9 77.9988 171.9 91.3988 168.5C65.5988 162.1 49.3988 149.5 39.4988 129.3C29.7988 109.4 26.8988 88.2998 29.5988 66.5998C32.1988 44.8998 45.4988 32.0999 62.5988 33.4999C75.7988 34.5999 85.6988 45.7999 84.1988 58.1999C83.2988 65.7999 80.2988 72.1998 72.0988 74.0998C67.1988 75.1998 61.3988 76.2999 57.7988 71.4999C51.9988 63.6999 59.1988 58.0999 63.8988 51.1999C54.4988 50.6999 51.3988 55.5999 48.8988 61.1999C33.7988 95.0999 57.6988 143.9 93.9988 153.5C94.4988 153.6 95.2988 152.4 96.2988 151.4C95.4988 145.3 83.3988 149.6 85.6988 140.2C87.0988 134.2 93.2988 136.9 96.0988 133.5C93.5988 129 84.8988 132 85.5988 124.5C86.1988 118.2 93.5988 121.9 95.9988 117.9C94.4988 111.9 83.6988 116.9 84.8988 108.2C85.7988 101.8 92.3988 104.4 96.3988 101C89.0988 95.2999 76.5988 90.5999 95.1988 81.9999C101.499 79.0999 99.8988 66.3998 93.8988 58.7998C89.2988 52.9998 85.1988 46.9998 88.5988 39.2998C92.2988 30.8998 100.099 34.5999 106.199 34.1999C113.299 33.6999 120.499 33.9998 127.699 34.0998C142.899 34.3998 147.199 40.9999 140.199 54.1999C133.899 66.0999 126.499 76.3999 143.699 87.1999C150.899 91.6999 140.999 96.4999 135.399 98.9999C138.699 103.4 146.499 102.2 145.399 109.3C144.399 115.9 136.599 112.9 133.499 116.7C136.399 121.7 145.199 118.4 144.499 125.9C143.999 131.6 137.699 131.1 133.499 133.9C137.099 135.3 140.699 135.6 142.499 137.5C151.299 147.1 150.799 146.9 161.499 137.4C179.699 121.4 194.699 80.5998 179.699 58.2998C172.299 61.2998 180.199 71.1999 171.999 74.3999C162.899 77.8999 150.299 71.6999 148.499 60.9999C146.599 49.4999 149.099 39.3998 160.899 34.0998C172.599 28.8998 189.199 34.2999 195.099 46.6999C206.199 70.1999 203.999 94.6999 195.599 118.2C186.399 144.4 167.899 161.5 140.799 168.1ZM115.699 82.6999C119.799 81.6999 121.899 79.1998 121.499 75.0998C121.099 71.2998 119.299 68.1999 114.899 68.6999C110.999 69.1999 108.699 71.8999 108.999 75.9999C109.399 79.8999 111.999 82.0999 115.699 82.6999ZM115.099 147.2C110.899 148 108.499 150.2 109.099 154.5C109.699 158.6 112.599 160.8 116.599 160.3C120.099 159.9 121.599 157 121.499 153.7C121.499 149.5 119.299 147.2 115.099 147.2Z" fill="white"/>
</svg>
