<svg width="3071" height="366" viewBox="0 0 3071 366" fill="none" xmlns="http://www.w3.org/2000/svg">
<path d="M826.201 66.5996C849.301 67.1996 877.401 65.1996 905.401 67.9996C933.801 70.7996 961.401 77.0996 984.601 94.6996C1015.9 118.3 1030.9 150.6 1032 189.4C1032.8 218.4 1027 246 1011.4 270.9C994.301 298.1 970.001 316.2 940.001 327.1C912.101 337.2 883.301 340.9 853.801 340.9C818.601 340.9 783.301 340.9 748.101 341C744.901 341 740.801 341.7 741.901 336.4C742.701 332.5 738.301 326 747.301 325.7C752.501 325.5 757.801 324 763.001 322.9C771.901 321 776.601 315.2 778.001 306.4C779.201 299.3 779.201 292.1 779.201 285C779.201 228.5 779.201 172 779.101 115.5C779.101 110.2 779.001 104.9 777.901 99.5996C776.001 90.1996 770.401 84.8996 761.001 83.5996C759.001 83.2996 757.001 82.6996 755.001 82.4996C745.301 81.3996 743.501 78.8996 745.501 69.1996C746.301 65.2996 749.201 66.5996 751.301 66.5996C774.601 66.4996 798.001 66.5996 826.201 66.5996ZM968.201 199C968.501 194.6 967.501 187.2 966.701 179.9C966.001 173 964.701 166.1 963.001 159.4C949.801 108 913.201 81.8996 862.501 84.0996C840.001 84.9996 836.501 89.3996 836.401 111.7C836.401 111.9 836.401 112.1 836.401 112.3C836.401 169.7 836.401 227 836.401 284.4C836.401 290.4 836.701 296.3 838.001 302.1C840.301 312.8 846.601 319.6 857.601 321.4C891.501 327 926.001 314.7 946.801 282.7C962.701 258.2 967.701 230.7 968.201 199Z" fill="white"/>
<path d="M2089.3 66.5995C2109.4 66.5995 2129.5 66.3994 2149.5 66.6994C2175.2 67.0994 2200.6 69.9994 2224.7 79.6994C2266.4 96.4994 2290.9 127.799 2297.8 171.699C2304.1 211.499 2296.4 248.8 2271.6 281.4C2251.3 308.1 2223.7 323.499 2191.8 332.199C2169.3 338.299 2146.5 340.999 2123.2 340.999C2087.4 340.999 2051.5 340.999 2015.7 341.099C2012.3 341.099 2008.6 341.5 2009.5 336.3C2010.2 332.3 2006.2 325.899 2015.1 325.599C2020.8 325.399 2026.4 324.199 2032 322.599C2040 320.199 2044.1 314.8 2045.6 306.9C2047 299.6 2046.9 292.2 2046.9 284.9C2046.9 228.2 2046.9 171.5 2046.8 114.8C2046.8 109.9 2046.6 104.999 2045.7 100.099C2044 90.9994 2038.9 85.3995 2029.7 83.7995C2026.1 83.0995 2022.5 82.2995 2018.8 82.0995C2014.6 81.7995 2012.9 80.2994 2013 75.6994C2013.5 64.5994 2012.5 66.6995 2022.3 66.5995C2044.7 66.4995 2067 66.5995 2089.3 66.5995ZM2104.1 198.3C2103.9 230.6 2102.8 263 2104.5 295.3C2105.4 311.7 2113.2 320.099 2129.1 322.199C2165.6 326.999 2201.3 309.099 2218.3 276.199C2239.7 234.799 2241.4 191.299 2227 147.599C2211.3 99.8994 2169.4 79.5994 2124.1 84.6994C2108 86.4994 2104.4 90.1994 2104.3 106.699C2103.9 137.299 2104.1 167.8 2104.1 198.3Z" fill="white"/>
<path d="M2588.6 136C2587.1 137.6 2587.8 139.6 2587.8 141.3C2587.8 175.3 2587.5 209.3 2588 243.3C2588.3 263.3 2589 283.4 2592.1 303.2C2593.9 314.8 2600.9 321.2 2612 323.7C2617 324.8 2622 326.1 2627.1 325.9C2631 325.8 2632.2 327.5 2631.8 331.1C2631.7 332.3 2631.6 333.6 2631.8 334.8C2632.5 339.5 2630.7 341.1 2625.7 341.1C2595.2 340.9 2564.6 341 2534.1 341C2531 341 2527.2 341.5 2528.2 336.7C2529 332.8 2524.4 326 2533.3 325.8C2535.3 325.7 2537.3 325.2 2539.4 324.8C2554.5 322.1 2561.1 314.6 2563.1 299.4C2567.9 263.3 2567.5 227.1 2567.4 190.9C2567.3 167.2 2568 143.4 2566.6 119.7C2565.4 98.8996 2553 85.3996 2532.5 82.6996C2523.4 81.4996 2521.2 78.1996 2523.3 68.9996C2523.8 66.6996 2525.2 66.6996 2526.8 66.6996C2550.8 66.6996 2574.7 66.6996 2598.7 66.5996C2601.6 66.5996 2603 68.3996 2604.7 70.1996C2627.3 96.0996 2649.9 121.9 2672.5 147.8C2701.4 180.9 2730.3 214 2759.3 247.1C2760.5 248.5 2761.6 251.3 2763.8 250.5C2765.9 249.6 2764.7 246.8 2764.7 244.9C2764.6 212.1 2764.7 179.4 2764.2 146.6C2764 134.4 2762.9 122.1 2761.7 109.9C2760 92.6997 2751.6 84.8996 2733.3 82.6996C2731.9 82.4996 2730.4 82.4997 2729 82.2997C2718.6 80.8997 2718.8 80.8996 2719.3 70.4996C2719.5 67.5996 2720.3 66.5996 2723.2 66.5996C2755.2 66.6996 2787.1 66.6996 2819.1 66.5996C2822.4 66.5996 2823.1 67.9996 2823.2 70.9996C2823.5 80.9996 2823.6 80.9997 2813.7 82.3997C2797.4 84.6997 2791.2 90.8996 2789.1 107.1C2788.5 111.6 2788.2 116.1 2787.8 120.5C2785.8 142.7 2785.1 165 2785.2 187.3C2785.3 237.7 2785.2 288.1 2785.4 338.4C2785.4 343.4 2784.6 346.3 2778.8 345.3C2776.6 344.9 2774.3 345 2772.1 345.3C2767.2 345.9 2763.9 344 2760.6 340.1C2719.3 290.4 2677.7 241 2636.2 191.4C2621.2 173.5 2606.3 155.6 2591.3 137.8C2590.8 136.9 2590.1 135.9 2588.6 136Z" fill="white"/>
<path d="M704.1 232.999C704.1 272.899 704.001 305.899 704.201 338.899C704.201 343.999 702.701 345.099 697.701 345.499C688.101 346.299 681.701 343.099 675.401 335.499C642.801 295.599 609.401 256.199 576.301 216.699C554.901 191.099 533.501 165.599 512.001 140.099C510.901 138.799 509.801 136.399 507.901 136.999C505.601 137.699 506.701 140.199 506.701 141.799C506.801 181.699 506.701 221.699 507.201 261.599C507.401 274.899 508.401 288.199 510.401 301.299C512.401 313.999 518.201 320.599 530.601 323.599C535.601 324.799 540.601 325.899 545.701 325.899C549.201 325.899 550.601 327.199 550.301 330.599C550.101 332.399 550.101 334.299 550.301 336.099C550.801 339.999 548.901 340.899 545.301 340.899C514.201 340.799 483.001 340.799 451.801 340.899C447.901 340.899 446.001 339.999 446.501 335.799C446.701 333.999 446.701 332.099 446.501 330.299C446.201 327.199 447.501 325.999 450.701 325.699C456.201 325.199 461.601 324.099 466.801 321.999C475.201 318.599 479.801 312.299 481.101 303.599C484.201 282.899 485.901 262.099 485.901 241.199C486.001 202.699 485.901 164.199 485.801 125.699C485.801 111.699 482.401 98.8994 470.501 89.8994C463.701 84.6994 455.801 82.9994 447.601 81.9994C445.701 81.7994 442.401 82.5994 442.001 79.4994C441.601 75.4994 441.101 71.2994 442.401 67.3994C442.901 65.8994 445.001 66.4994 446.301 66.4994C469.701 66.4994 493.001 66.4994 516.401 66.3994C519.101 66.3994 520.901 67.1994 522.701 69.2994C553.701 104.999 584.801 140.599 615.901 176.199C636.601 199.899 657.401 223.599 678.201 247.199C679.401 248.599 680.301 251.399 682.801 250.399C684.801 249.599 683.701 247.099 683.701 245.399C683.601 211.199 684.401 176.999 682.701 142.799C682.101 130.999 681.301 119.099 680.001 107.299C678.501 93.1994 669.901 85.1994 654.301 82.7994C650.901 82.2994 647.401 82.0994 644.001 81.4994C642.001 81.1994 638.801 82.5994 638.501 79.2994C638.201 75.2994 637.401 71.0994 639.101 67.2994C639.701 65.8994 641.701 66.5993 643.101 66.5993C674.301 66.5993 705.401 66.6994 736.501 66.4994C741.101 66.4994 741.801 68.3994 741.801 72.2994C741.701 77.4994 742.5 81.6994 734.6 82.2994C711.9 83.8994 709.001 95.2994 707.201 112.299C703.101 154.799 704.3 197.399 704.1 232.999Z" fill="white"/>
<path d="M1776.1 135.2C1774.5 138.7 1775.1 141.3 1775.1 143.9C1775.1 176.7 1774.8 209.5 1775.3 242.2C1775.6 262.6 1776.3 283.1 1779.5 303.4C1781.3 314.5 1787.9 320.8 1798.3 323.5C1803.4 324.8 1808.7 326.1 1814 325.9C1818 325.8 1819.7 327.3 1819.2 331.3C1819 332.7 1819 334.2 1819.2 335.6C1819.9 340.1 1817.7 341.1 1813.6 341C1791.3 340.8 1768.9 340.9 1746.6 340.9C1738 340.9 1729.4 340.7 1720.8 341C1716.7 341.1 1715.5 339.8 1715.5 335.8C1715.5 326.8 1715.3 326.8 1724 325.2C1725.2 325 1726.4 324.8 1727.6 324.6C1742 321.8 1748.6 314.3 1750.5 299.8C1754.2 272.3 1755.1 244.7 1754.9 217.1C1754.6 184.1 1755.9 151.1 1754 118.2C1753.1 102.5 1745 91.4 1730.6 85.1C1725.7 83 1720.3 82.5 1715 81.9C1711.6 81.5 1710.4 80.1 1710.8 76.8C1711 75 1711 73.1 1710.8 71.3C1710.3 67.4 1711.9 66.5 1715.6 66.5C1738.8 66.6 1761.9 66.6 1785.1 66.5C1788.1 66.5 1790 67.4 1791.9 69.6C1818.1 99.7 1844.3 129.8 1870.5 159.8C1896.3 189.4 1922.2 219 1948 248.6C1948.8 249.5 1950 250.7 1950.8 250.6C1952.8 250.3 1952.1 248.3 1952.1 247.1C1951.6 204.3 1953.9 161.5 1949.7 118.8C1949.2 113.9 1949.2 109 1948.2 104.2C1946.4 94.9 1941.2 88.8 1932.3 85.7C1925.7 83.4 1918.8 82.2 1911.9 81.8C1908 81.6 1907.2 80.1 1907.2 76.6C1907.1 66.7 1907 66.7 1916.9 66.7C1946 66.7 1975.1 66.7 2004.2 66.7C2006.9 66.7 2011.4 65.2 2010.5 70.5C2009.8 74.5 2014.8 81.5 2005.4 81.9C2001.9 82 1998.4 82.5 1995.1 83.5C1984.9 86.4 1978.8 92.9 1977.3 103.8C1974.2 127.2 1972.8 150.6 1972.8 174.2C1972.8 228.9 1972.7 283.6 1972.9 338.3C1972.9 344.2 1971.3 345.3 1965.5 345.8C1955.5 346.7 1949.7 342.6 1943.6 335.2C1914.9 300.2 1885.6 265.9 1856.5 231.2C1830.5 200.2 1804.5 169.1 1778.5 138.1C1778 137.2 1777.3 136.5 1776.1 135.2Z" fill="white"/>
<path d="M1298.9 204.1C1298.9 175.6 1298.9 147.2 1298.9 118.7C1298.9 113 1298.5 107.3 1297.7 101.6C1296.5 92.5996 1292.2 86.2997 1282.9 84.2997C1280.3 83.6997 1277.7 82.9996 1275.1 82.5996C1265.9 81.3996 1263.6 78.0996 1265.8 68.9996C1266.7 65.1996 1269.6 66.5996 1271.8 66.5996C1311.3 66.4996 1350.9 66.5996 1390.4 66.5996C1401.1 66.5996 1411.7 67.4996 1422.2 69.4996C1451.6 74.9996 1474.7 89.3996 1483.9 119C1497 161.3 1481.3 208 1430.7 226.2C1416.7 231.2 1402.3 234 1387.4 233.8C1377.9 233.7 1369 230.1 1359.8 228.2C1356 227.4 1355.1 228.4 1355.1 231.9C1355.3 254.2 1355 276.5 1355.5 298.9C1356 316.8 1361.4 322.2 1379.2 324.9C1382 325.3 1384.9 326.1 1387.7 325.9C1393.5 325.5 1395.4 327.7 1395.3 333.6C1395.2 339.2 1394.1 341.3 1387.9 341.2C1348.6 340.9 1309.2 341.1 1269.9 341C1267.1 341 1262.5 342.6 1263.3 336.9C1263.9 332.7 1260 325.8 1269.3 326C1272.5 326.1 1275.8 325.3 1279 324.7C1293.6 321.9 1298.6 314.8 1298.8 295.7C1299 265.1 1298.9 234.6 1298.9 204.1ZM1355.2 151.5C1355.2 169.3 1355.2 187.1 1355.2 204.9C1355.2 208 1355.5 210 1359.1 211.3C1382.4 219.7 1407.3 209.9 1418.6 188C1427.7 170.3 1428.7 151.3 1426.4 132.3C1422.9 103.3 1406 84.1996 1375.2 82.9996C1361.2 82.4996 1355.3 87.3996 1355.2 101.1C1355.2 117.9 1355.2 134.7 1355.2 151.5Z" fill="white"/>
<path d="M1142.6 341C1108.8 341 1075 341 1041.2 341C1038.1 341 1033.4 342.4 1034.3 336.4C1035 332.2 1030.9 325.6 1040.3 325.6C1046.4 325.6 1052.4 324.1 1058.4 322.6C1067.1 320.4 1071.4 314.7 1072.9 306.3C1073.8 301.2 1074.1 296.2 1074.1 291C1074.1 232.6 1074.1 174.2 1074.1 115.9C1074.1 110.4 1073.8 104.8 1072.8 99.4004C1071.2 90.9004 1066.7 85.2004 1057.8 83.8004C1054.2 83.2004 1050.5 82.4003 1046.9 82.2003C1041.5 81.9003 1039.5 80.1003 1039.5 74.1003C1039.5 67.6003 1041.6 66.4004 1047.6 66.4004C1109.3 66.6004 1171 66.6004 1232.7 66.4004C1237.7 66.4004 1240.3 67.0003 1240.5 73.1003C1241.2 90.3003 1242.5 107.4 1243.8 124.5C1244.1 128.5 1243.2 130.2 1238.7 130.6C1228.4 131.5 1228.3 131.8 1225.4 121.6C1223.6 115.2 1220.6 109.4 1217.4 103.7C1211.4 92.8003 1201.7 87.5003 1189.5 86.2003C1173.6 84.5003 1157.6 85.0003 1141.6 85.2003C1133.9 85.3003 1131.4 88.1004 1131.4 95.9004C1131.3 125.4 1131.4 154.9 1131.3 184.4C1131.3 187.5 1131.6 189.5 1135.5 189.4C1149 189 1162.5 189.9 1176 188.7C1195.9 186.9 1200.8 183 1205.2 163.7C1206.3 159 1207.9 157.2 1212.9 157.4C1223.4 157.8 1222.3 156.5 1222.3 167.2C1222.3 190.6 1222.3 213.9 1222.3 237.3C1222.3 240 1223.1 243.9 1218.5 243.1C1214.1 242.3 1207.8 246.8 1205.9 238.7C1200.3 215.3 1196.5 212.4 1172.6 211.2C1160.7 210.6 1148.8 211 1137 210.6C1132.7 210.5 1131.4 212 1131.4 216.2C1131.6 241.8 1131.6 267.4 1131.6 293C1131.6 293.6 1131.6 294.2 1131.6 294.8C1132.2 314 1136.1 319.2 1155.2 321.5C1170.8 323.4 1186.7 323.4 1202.4 321C1217.6 318.7 1228 310 1235.5 297.1C1240.1 289.1 1244.7 281.1 1248.1 272.5C1251.4 264.2 1257.1 269.7 1261.6 269.8C1266.3 269.9 1265 274.2 1264.5 277C1261.1 297 1256.5 316.7 1252 336.4C1251 340.8 1248.3 340.9 1244.8 340.9C1210.7 341 1176.6 341 1142.6 341Z" fill="white"/>
<path d="M2410.9 341C2377.1 341 2343.3 341 2309.5 341C2306.6 341 2302.5 342.7 2302.6 337C2302.7 325.4 2302 326.2 2308.8 325.7C2314.7 325.2 2320.5 324.4 2326.4 323C2335.3 320.9 2340.1 315.4 2341.6 306.7C2342.3 302.5 2342.9 298.2 2342.9 293.9C2343 233.5 2343 173.1 2342.9 112.6C2342.9 108.1 2342.2 103.6 2341.5 99.1996C2340.1 90.5996 2335 85.3997 2326.3 83.7997C2323.7 83.2997 2321.1 82.7996 2318.5 82.4996C2308.6 81.4996 2307 79.2996 2308.7 69.4996C2309.1 67.4996 2309.9 66.5996 2311.9 66.6996C2313.1 66.6996 2314.4 66.6996 2315.6 66.6996C2377.7 66.6996 2439.8 66.7996 2501.9 66.5996C2507.4 66.5996 2509.1 67.8996 2509.4 73.5996C2510.1 90.0996 2511.7 106.6 2512.6 123.2C2512.7 125.6 2515.1 129.5 2509.9 130.5C2498.7 132.8 2497.9 132.6 2495.7 126.3C2492.7 117.4 2489.7 108.5 2484.2 100.6C2478.2 91.8996 2469.6 87.6996 2459.4 86.4996C2442.9 84.4996 2426.3 85.0997 2409.7 85.3997C2402.8 85.4997 2400 88.5997 2400 95.3997C2399.9 125.3 2399.9 155.2 2399.8 185.1C2399.8 188.1 2400.4 189.6 2403.8 189.5C2417.3 189.1 2430.8 190.1 2444.3 188.8C2465.3 186.8 2469.4 183.4 2474.2 163.1C2475.2 158.9 2476.7 157.3 2481 157.5C2493 157.9 2490.6 156.4 2490.6 167.4C2490.7 190.5 2490.5 213.7 2490.8 236.8C2490.9 241.7 2489.3 243.1 2484.8 243.3C2476 243.7 2476 243.8 2473.7 235.5C2473.2 233.5 2472.6 231.6 2472.1 229.6C2469.3 218.8 2462.4 212.9 2451.3 211.8C2435.4 210.2 2419.4 210.8 2403.4 210.7C2400.9 210.7 2399.7 211.4 2399.7 214.2C2400.3 243.9 2398.3 273.6 2400.9 303.2C2401.9 313.8 2406.4 319.1 2416.7 320.7C2435.4 323.6 2454.2 323.9 2472.9 320.8C2489.6 318 2499.1 306.7 2506.5 292.9C2510.2 286.1 2513.8 279.2 2516.9 272C2518.4 268.5 2520.3 267.9 2523.5 268.7C2525.3 269.1 2527.1 269.6 2528.9 269.8C2533.4 270.2 2534 272.7 2533.3 276.6C2529.4 296.9 2525 317.1 2520.3 337.2C2519.3 341.7 2516.6 341.2 2513.5 341.2C2479.3 341 2445.1 341 2410.9 341Z" fill="white"/>
<path d="M1598.1 341C1564.1 341 1530.1 341 1496.1 341C1492.8 341 1488.8 341.6 1490 336.3C1490.8 332.4 1486.2 325.8 1495.4 325.7C1500.9 325.6 1506.4 324.5 1511.8 323.4C1522.3 321.4 1527.7 315.3 1529.2 304.8C1530 299.3 1530.3 293.8 1530.3 288.3C1530.3 232 1530.3 175.7 1530.3 119.3C1530.3 113.4 1530 107.4 1529.2 101.6C1527.8 90.2998 1522.1 84.4999 1510.7 82.7999C1507.9 82.3999 1505 82.1998 1502.2 81.6998C1500.2 81.2998 1496.8 82.6999 1496.3 79.8999C1495.6 75.8999 1495.8 71.6998 1496.4 67.6998C1496.7 65.7998 1499.6 66.5998 1501.4 66.5998C1517.4 66.4998 1533.4 66.5998 1549.3 66.5998C1596 66.5998 1642.7 66.6998 1689.4 66.4998C1694.9 66.4998 1696.2 68.0999 1696.4 73.2999C1697.2 90.2999 1698.5 107.2 1699.8 124.1C1700.2 128.7 1699.1 131.2 1694 130.7C1692.6 130.6 1691.1 130.9 1689.8 131.3C1686 132.6 1684.1 131 1683.1 127.4C1682.1 123.9 1680.7 120.4 1679.6 116.9C1673.1 97.1999 1660.2 85.5999 1638.6 85.3999C1624.9 85.2999 1611.1 84.9999 1597.4 85.2999C1589.7 85.3999 1587.1 88.1999 1587 95.8999C1586.9 125.6 1586.9 155.3 1586.8 185C1586.8 188.5 1588 189.6 1591.4 189.5C1606.3 189 1621.3 190 1636.2 188.5C1650 187.1 1656.8 181.5 1660.2 168C1660.5 167 1660.6 166 1660.8 165C1662.4 158.5 1669.9 155.1 1676.1 157.8C1677.9 158.6 1677.8 160 1677.8 161.3C1677.8 187.3 1677.8 213.3 1677.9 239.3C1677.9 242.2 1676.9 243.5 1674 243.3C1672.4 243.2 1670.7 243 1669.1 243.3C1663.9 244.2 1661.6 242.1 1661.2 236.9C1661 234.1 1659.8 231.4 1659 228.6C1656 217.8 1648.5 212.7 1637.5 211.7C1622.4 210.2 1607.2 211 1592.1 210.7C1588.2 210.6 1586.7 211.8 1586.7 215.9C1586.9 241.7 1586.7 267.5 1587 293.3C1587.3 315 1593.8 321.4 1615.4 322.2C1629.7 322.7 1644.1 323.6 1658.3 321.2C1670.6 319.1 1680.5 313.4 1687.5 302.8C1693.7 293.4 1699.6 283.7 1703.6 273.2C1706.9 264.5 1712.5 269.8 1717.3 270.3C1722.9 270.8 1720.5 274.9 1720 277.8C1716.9 297.2 1712.1 316.2 1708.1 335.4C1707.2 339.8 1705.3 341.3 1700.7 341.3C1666.5 341 1632.3 341.1 1598.1 341Z" fill="white"/>
<path d="M0.400391 365.3C13.8004 351.5 27.4004 338 40.6004 324C68.0004 294.9 94.3004 264.9 115.5 230.8C123.6 217.7 130.8 204.2 133.9 188.9C138.1 167.5 129.4 154.4 108.1 149.9C100 148.2 91.9004 147.7 83.7004 147.9C75.5004 148.1 67.4004 148.9 58.8004 149.2C62.2004 147.1 65.6004 144.9 69.0004 142.9C84.8004 133.6 101.3 126 119.7 123.5C148.2 119.7 171.7 130.9 192.8 148.7C199.6 154.5 199.7 154.8 206.5 149.1C219.2 138.3 227 125.6 219.9 108.2C218.7 105.2 220.7 104.6 222.5 103.8C230.5 100.1 238.2 95.8 245.6 91C263.5 79.4 276.8 64.1 285.2 44C285.2 49.7 285.4 55.3 285.2 61C285 66.9 284.6 72.9 283.8 78.8C276.5 137.6 250.1 187.2 210.9 230.7C166.9 279.6 113 314.7 54.1004 342.7C36.6004 351.1 18.7004 358.7 0.400391 365.3Z" fill="white"/>
<path d="M2974.6 195.5C2974.6 228.5 2974.6 261.4 2974.6 294.4C2974.6 296.2 2974.6 298.1 2974.8 299.9C2975.9 315.9 2980.6 321.2 2996.5 323.9C3001.3 324.7 3006.2 325.6 3011.1 325.8C3015 325.9 3016.1 327.6 3015.7 331.1C3015.6 332.1 3015.5 333.2 3015.7 334.2C3016.5 339.5 3014.7 341.2 3009.1 341.1C2975.7 340.8 2942.3 341 2908.9 340.9C2900.5 340.9 2892.1 340.7 2883.7 341C2879.4 341.1 2877.5 340.2 2877.6 335.3C2877.9 326.8 2877.6 326.7 2886 325.4C2891.6 324.5 2897.4 324 2902.9 322.3C2910.9 319.8 2914.7 314.1 2916.2 306.2C2917.5 299.3 2917.4 292.3 2917.4 285.4C2917.4 220.7 2917.4 155.9 2917.5 91.1999C2917.5 86.4999 2916.5 84.7 2911.4 84.9C2898.3 85.2 2885.2 85 2872.2 87.3C2861.6 89.2 2853.8 94.7999 2849 104.5C2844.3 113.9 2841.1 123.8 2838.3 133.8C2837.8 135.7 2838.2 138.9 2835 138.9C2830.8 139 2826.4 140 2822.3 138.3C2820.7 137.6 2821.5 135.3 2821.6 133.7C2823.1 109.2 2824.7 84.6999 2826.3 60.1999C2826.4 58.3999 2826.1 56 2828.5 55.8C2831.6 55.6 2835.5 53.9999 2837.8 57.0999C2843.7 65.1999 2852 66.4 2861.2 66.4C2917.8 66.3 2974.3 66.3 3030.9 66.4C3039.7 66.4 3047.5 64.1999 3053.7 57.6999C3056.7 54.4999 3060.7 55.1999 3064.1 55.9999C3067.5 56.7999 3066 60.5 3066.2 62.9C3067.6 85.8 3068.7 108.7 3070.3 131.5C3070.6 136.4 3069.7 138 3064.7 138.1C3055.5 138.2 3055.6 138.4 3053.1 129.8C3051.7 124.9 3050.1 120 3048.4 115.2C3040.2 93.0999 3030.4 85.9999 3006.7 85.1999C2998.1 84.8999 2989.5 85.3 2980.9 84.9C2975.7 84.6 2974.3 86.4999 2974.3 91.5999C2974.5 126.2 2974.4 160.8 2974.4 195.5C2974.3 195.5 2974.5 195.5 2974.6 195.5Z" fill="white"/>
<path d="M376.601 66.5997C395.601 66.5997 414.701 66.7998 433.701 66.4998C438.401 66.3998 439.701 67.8998 439.401 72.3998C438.901 83.1998 441.101 80.5998 430.401 82.4998C429.201 82.6998 427.901 82.6998 426.701 82.8998C410.901 85.4998 405.501 91.2998 404.801 107.3C403.101 148 404.201 188.8 404.001 229.5C403.901 253 403.501 276.6 404.801 300.1C405.701 317 410.101 321.9 426.801 324.9C429.201 325.3 431.701 326.1 434.101 325.9C438.801 325.6 439.401 328 439.301 331.9C439.201 341.1 439.301 341.1 430.301 341.1C393.001 341.1 355.701 341.1 318.501 341.1C315.601 341.1 311.401 342 312.501 337C313.301 333.1 308.401 326.3 317.401 326C319.201 325.9 321.001 325.4 322.901 325.1C341.201 322.6 346.601 316.9 347.101 298.4C347.501 282.2 347.301 266.1 347.301 249.9C347.301 205.3 347.301 160.6 347.201 116C347.201 111.5 346.901 107 346.301 102.6C344.501 90.5997 340.601 86.5998 328.601 83.8998C326.401 83.3998 324.201 82.9998 322.001 82.7998C312.301 81.7998 310.601 79.2998 312.501 69.4998C313.201 65.8998 315.701 66.8998 317.701 66.8998C337.301 66.4998 357.001 66.5997 376.601 66.5997Z" fill="white"/>
<path d="M197.801 34.5997C215.901 34.7997 230.201 49.0998 230.101 66.9998C230.001 84.9998 215.101 99.4998 197.001 99.3998C179.201 99.2998 164.801 84.6998 164.801 66.7998C164.801 48.5998 179.301 34.3997 197.801 34.5997Z" fill="white"/>
<path d="M2166.9 18.5002C2162.3 24.0002 2161.1 30.4002 2158.9 36.4002C2158.3 38.0002 2158.5 40.5002 2156.1 40.6002C2153.5 40.8002 2153.7 38.2002 2153.2 36.6002C2150.8 29.6002 2148.5 22.5002 2145 15.7002C2145 22.8002 2145 29.9002 2145 36.9002C2145 38.3002 2145.8 40.5002 2143.1 40.6002C2140.5 40.6002 2141 38.5002 2141 37.0002C2140.9 26.8002 2140.9 16.5003 2141 6.30026C2141 4.80026 2140.3 2.90019 2142.9 2.60019C2145.3 2.30019 2146.7 3.10021 2147.4 5.50021C2149.6 12.9002 2152.1 20.3002 2154.4 27.7002C2154.7 28.6002 2155.1 29.5002 2156.2 32.1002C2159 23.3002 2161.3 16.1002 2163.6 8.90024C2164 7.50024 2164.5 6.20026 2164.9 4.80026C2165.5 2.30026 2167.3 2.50019 2169.2 2.60019C2171.4 2.70019 2171 4.40026 2171 5.80026C2171 16.4003 2171 27.1002 2171 37.7002C2171 39.1002 2171.2 40.7002 2169 40.7002C2167 40.7002 2166.9 39.2002 2166.9 37.7002C2166.9 31.3002 2166.9 24.9002 2166.9 18.5002Z" fill="white"/>
<path d="M1903 15.3997C1901.6 22.2997 1900.3 29.1996 1898.7 36.0996C1898.3 37.9996 1898.9 40.8996 1895.4 40.9996C1891.6 41.0996 1892 38.2996 1891.5 35.9996C1889.4 25.9996 1887.3 15.9996 1885.2 5.99963C1884.9 4.69963 1883.9 3.09958 1886.2 2.69958C1888.1 2.39958 1889.1 3.09959 1889.5 5.19958C1890.5 10.9996 1891.7 16.7996 1892.9 22.6996C1893.4 24.9996 1894 27.2996 1894.5 29.4996C1895 29.4996 1895.6 29.4996 1896.1 29.5996C1897.6 22.1996 1899 14.7997 1900.6 7.39966C1901 5.49966 1900.3 2.69961 1904 2.59961C1907.6 2.59961 1907 5.49966 1907.4 7.39966C1909 14.8997 1910.5 22.4996 1912 29.9996C1912.6 29.9996 1913.1 30.0996 1913.7 30.0996C1915 23.2996 1916 16.4997 1917.8 9.79968C1918.5 7.39968 1916.9 1.89966 1921.4 2.89966C1925.4 3.79966 1922.1 7.99961 1921.7 10.5996C1920.2 19.2996 1918.2 27.7997 1916.4 36.3997C1915.9 38.5997 1916 40.8997 1912.6 40.8997C1909.1 40.8997 1909.5 38.0996 1909.1 36.0996C1907.6 29.1996 1906.3 22.1997 1904.9 15.2997C1904.3 15.3997 1903.7 15.3997 1903 15.3997Z" fill="white"/>
<path d="M1568.1 15.7997C1568.1 22.9997 1568.1 30.0997 1568.1 37.2997C1568.1 38.5997 1568.5 40.4996 1566.5 40.6996C1564 40.8996 1564.2 38.9997 1564.2 37.3997C1564.2 27.1997 1564.2 16.8996 1564.2 6.69964C1564.2 4.99964 1563.5 2.89966 1566.4 2.59966C1569 2.39966 1570 3.59971 1570.7 5.89971C1573.2 14.0997 1575.9 22.1997 1578.9 31.5997C1582.9 24.1997 1583.7 16.7997 1586.6 10.2997C1587.9 7.39974 1586.6 1.49971 1592.3 2.89971C1596.6 3.99971 1594 8.49974 1594.1 11.2997C1594.5 19.6997 1594.3 28.0997 1594.2 36.4997C1594.2 37.9997 1595.4 40.5996 1592.3 40.6996C1589.2 40.7996 1590.2 38.2996 1590.1 36.6996C1590 30.3996 1590.1 24.0996 1590.1 16.6996C1586.4 20.2996 1586.5 24.2997 1585.1 27.5997C1584.2 29.5997 1583.9 31.9997 1582.9 33.9997C1581.7 36.3997 1582.7 40.7997 1578.9 40.5997C1575.8 40.4997 1576.3 36.4996 1575.4 34.1996C1573.2 28.0996 1571.3 21.8997 1569.3 15.7997C1568.9 15.6997 1568.5 15.6997 1568.1 15.7997Z" fill="white"/>
<path d="M1831.7 14.8995C1831.7 21.7995 1831.8 28.6995 1831.6 35.4995C1831.6 37.2995 1832.9 40.2995 1829.8 40.3995C1826.2 40.4995 1827.8 37.0995 1827.8 35.2995C1827.6 26.0995 1827.6 16.8994 1827.8 7.69941C1827.8 5.89941 1826.3 3.19948 1829.1 2.39948C1832.4 1.39948 1833 4.49943 1834.1 6.59943C1837.3 12.6994 1840.6 18.8995 1843.9 24.9995C1844.4 25.9995 1845.1 26.8995 1845.7 27.8995C1846.2 27.7995 1846.8 27.6994 1847.3 27.5994C1847.3 20.7994 1847.2 14.0995 1847.4 7.29951C1847.4 5.59951 1846 2.59946 1849.3 2.49946C1852.8 2.39946 1851.4 5.39943 1851.4 7.09943C1851.5 16.8994 1851.5 26.6995 1851.4 36.4995C1851.4 37.9995 1852.2 39.9994 1849.9 40.5994C1847.6 41.1994 1846.7 39.4995 1845.8 37.7995C1841.7 30.0995 1837.6 22.3994 1833.5 14.6994C1832.8 14.7994 1832.3 14.8995 1831.7 14.8995Z" fill="white"/>
<path d="M2826.4 16.0003C2826.4 22.9003 2826.4 29.7002 2826.4 36.6002C2826.4 38.3002 2827.1 40.8002 2824.1 40.6002C2821.5 40.5002 2822.5 38.2003 2822.5 36.8003C2822.4 26.6003 2822.4 16.3002 2822.5 6.10024C2822.5 4.70024 2821.7 2.60029 2824.4 2.40029C2826.4 2.20029 2827.2 3.50026 2828 5.00026C2832 12.7003 2836.1 20.3003 2840.1 28.0003C2840.7 27.9003 2841.3 27.8002 2842 27.7002C2842 21.0002 2841.9 14.2003 2842.1 7.50026C2842.1 5.80026 2840.7 2.70026 2843.8 2.50026C2847.7 2.30026 2846 5.70026 2846 7.50026C2846.2 17.1003 2846.1 26.7003 2846.1 36.4003C2846.1 37.9003 2846.9 39.9002 2844.6 40.6002C2842.3 41.3002 2841.3 39.6003 2840.4 37.9003C2836.4 30.4003 2832.4 22.9003 2828.4 15.5003C2827.7 15.6003 2827.1 15.8003 2826.4 16.0003Z" fill="white"/>
<path d="M2231.1 28.1996C2231.1 20.8996 2231.1 13.4996 2231.1 6.19956C2231.1 4.69956 2230.4 2.59963 2232.9 2.39963C2236 2.19963 2235.2 4.69966 2235.2 6.29966C2235.2 16.0997 2235.3 25.9997 2235.1 35.7997C2235.1 37.3997 2236.3 39.7996 2233.7 40.5996C2231.1 41.3996 2230.2 39.1996 2229.3 37.3996C2225.3 29.8996 2221.2 22.2997 2217.2 14.7997C2216.6 14.7997 2216.1 14.7996 2215.5 14.8996C2215.5 20.7996 2215.7 26.5996 2215.4 32.4996C2215.3 35.1996 2217.1 40.2997 2213.7 40.2997C2208.9 40.2997 2211.7 35.0996 2211.6 32.3996C2211.2 23.7996 2211.4 15.1996 2211.5 6.59958C2211.5 5.19958 2210.6 3.09961 2213 2.49961C2215.2 1.89961 2216.3 3.39956 2217.2 5.19956C2221.3 13.0996 2225.4 20.9997 2229.6 28.7997C2230.1 28.5997 2230.6 28.3996 2231.1 28.1996Z" fill="white"/>
<path d="M2651.5 14.9998C2651.5 22.1998 2651.5 29.4998 2651.5 36.6998C2651.5 38.1998 2652.3 40.3998 2649.8 40.5998C2646.7 40.7998 2647.6 38.1998 2647.6 36.5998C2647.5 26.5998 2647.5 16.4998 2647.6 6.4998C2647.6 4.9998 2646.6 2.99983 2649 2.39983C2651.2 1.79983 2652.2 3.39975 2653.1 5.19975C2656 10.7998 2659 16.3998 2661.9 21.9998C2663.1 24.1998 2664.4 26.3999 2667 28.2999C2667 21.0999 2666.9 13.8998 2667 6.59978C2667 4.99978 2665.9 2.49983 2668.9 2.39983C2672 2.29983 2671.1 4.79983 2671.1 6.39983C2671.2 16.3998 2671.2 26.4998 2671.1 36.4998C2671.1 37.8998 2671.9 39.9998 2669.6 40.5998C2667.3 41.1998 2666.4 39.5998 2665.5 37.8998C2662.5 32.0998 2659.4 26.2998 2656.3 20.5998C2655.2 18.5998 2654 16.5998 2652.9 14.5998C2652.4 14.6998 2652 14.7998 2651.5 14.9998Z" fill="white"/>
<path d="M1699 21.1998C1699 18.6998 1698.9 16.2999 1699 13.7999C1699.2 10.1999 1697.3 4.59987 1699.9 3.29987C1704.2 1.09987 1710 1.69983 1714.9 2.99983C1721.6 4.69983 1723.7 17.1998 1717.9 22.1998C1714.7 24.9998 1715 26.7998 1716.8 29.6998C1718.2 31.9998 1719.3 34.3999 1720.4 36.7999C1720.9 37.8999 1722.6 39.3998 1720.7 40.3998C1719.2 41.1998 1717.5 40.6999 1716.6 38.7999C1715 35.4999 1713.2 32.2999 1711.9 28.7999C1710.7 25.7999 1708.6 24.8998 1705.7 25.3998C1702 25.9998 1703.8 28.7999 1703.5 30.7999C1703.2 32.7999 1703.5 34.8998 1703.4 36.8998C1703.4 38.4998 1703.8 40.3998 1701.3 40.4998C1698.8 40.5998 1699.1 38.5998 1699 36.9998C1698.9 31.7998 1698.9 26.4998 1699 21.1998ZM1703.3 13.6998C1704.3 16.3998 1700.6 21.9998 1708.3 21.4998C1714.5 20.9998 1716.9 19.2999 1716.8 13.7999C1716.8 8.19987 1714.5 6.69978 1708.2 6.19978C1701.7 5.69978 1703.6 10.0998 1703.3 13.6998Z" fill="white"/>
<path d="M2068.8 21.2999C2068.8 16.5999 2069.1 11.8998 2068.7 7.19976C2068.4 3.19976 2069.9 2.09981 2073.6 2.49981C2075.6 2.69981 2077.7 2.69981 2079.7 2.49981C2084.5 2.19981 2088.3 3.59984 2089.9 8.39984C2091.6 13.4998 2091.9 18.8998 2087.5 22.4998C2084.3 25.0998 2085 26.7998 2086.5 29.4998C2087.8 31.7998 2089 34.1998 2090 36.5998C2090.5 37.7998 2092.5 39.4998 2090 40.4998C2088.2 41.1998 2086.9 39.9999 2086.1 38.2999C2084.6 35.1999 2083 32.0998 2081.7 28.8998C2080.5 25.9998 2078.5 24.8998 2075.5 25.3998C2072 25.9998 2073.4 28.7999 2073.2 30.7999C2073 32.7999 2073.3 34.8998 2073.1 36.8998C2073 38.3998 2073.6 40.4998 2071 40.4998C2068 40.4998 2068.8 38.0998 2068.8 36.4998C2068.8 31.4998 2068.8 26.3999 2068.8 21.2999ZM2073.1 13.6998C2073.5 17.1998 2071.1 21.9998 2078.1 21.4998C2084 20.9998 2086.7 19.0999 2086.6 13.7999C2086.5 8.29986 2084.1 6.59976 2078 6.19976C2070.9 5.69976 2073.8 10.7998 2073.1 13.6998Z" fill="white"/>
<path d="M1628.2 22.9994C1627.7 25.7994 1627.3 29.4994 1626.4 32.9994C1624.9 38.5994 1620.8 41.4994 1615.2 41.5994C1609.5 41.6994 1605.4 38.9994 1603.6 33.4994C1601.1 25.4994 1601.1 17.3994 1603.6 9.39944C1605.3 3.79944 1609.7 1.39939 1615.3 1.59939C1620.7 1.69939 1624.5 4.29939 1626.4 9.59939C1627.8 13.6994 1627.8 17.8994 1628.2 22.9994ZM1623.8 20.5994C1623.6 17.8994 1623.8 14.3994 1622.6 11.0994C1621.3 7.39939 1618.8 5.29947 1614.9 5.29947C1611 5.29947 1608.3 7.39937 1607.3 11.1994C1605.4 18.1994 1605.5 25.2995 1607.5 32.2995C1608.5 35.6995 1611 37.8994 1614.7 37.8994C1618.6 37.9994 1621.2 35.7994 1622.5 32.1994C1623.7 28.6994 1623.7 24.9994 1623.8 20.5994Z" fill="white"/>
<path d="M2435.7 21.5995C2435.5 25.4995 2435.5 29.2995 2434.2 33.0995C2432.2 38.8995 2428.2 41.7995 2422.2 41.5995C2416.1 41.4995 2412.3 37.9996 2410.8 32.2996C2409 25.2996 2408.9 18.0995 2410.6 11.0995C2412.1 4.79954 2416.2 1.59957 2422.4 1.49957C2428.6 1.39957 2432.4 4.29952 2434.4 10.6995C2435.6 14.2995 2435.6 17.9995 2435.7 21.5995ZM2431.5 21.6995C2431.6 17.9995 2431.5 14.3996 2430.2 10.7996C2429 7.39962 2426.6 5.29952 2423 5.19952C2419.1 5.09952 2416.2 6.99952 2415.1 10.6995C2413.1 17.8995 2413.1 25.1996 2415.3 32.3996C2416.4 35.8996 2419 37.7996 2422.6 37.7996C2426.4 37.8996 2428.6 35.5996 2430 32.3996C2431.4 29.0996 2431.6 25.3995 2431.5 21.6995Z" fill="white"/>
<path d="M2205 20.1996C2204.6 25.2996 2204.4 29.3997 2203.1 33.2997C2201.3 38.8997 2197.3 41.5996 2191.6 41.5996C2185.9 41.5996 2181.9 38.8997 2180.2 33.2997C2177.9 25.6997 2177.9 17.9997 2180 10.3997C2181.6 4.49966 2185.7 1.59961 2191.7 1.59961C2197.7 1.59961 2201.9 4.49966 2203.3 10.3997C2204.3 13.8997 2204.6 17.5996 2205 20.1996ZM2182.9 20.0996C2182.9 24.7996 2182.9 28.8997 2184.4 32.7997C2185.7 36.1997 2188.3 38.0996 2191.9 37.9996C2195.2 37.8996 2197.8 36.0997 2198.8 32.8997C2201.1 25.4997 2201.2 18.0996 2199.1 10.6996C2198.1 7.19958 2195.4 5.39966 2191.7 5.39966C2187.8 5.39966 2185.3 7.49958 2184 11.1996C2182.9 14.1996 2183 17.4996 2182.9 20.0996Z" fill="white"/>
<path d="M2679.5 21.2996C2679.5 16.1996 2679.6 11.0995 2679.5 5.99955C2679.4 3.39955 2680.2 2.29955 2682.9 2.49955C2685.5 2.69955 2688.2 2.49952 2690.9 2.59952C2696.8 2.59952 2700.4 5.59955 2702.3 10.9995C2703.9 15.5995 2703.8 20.1996 2703.5 24.8996C2702.7 38.1996 2694.8 43.7996 2681.8 40.7996C2679.4 40.1996 2679.6 38.7995 2679.6 37.1995C2679.5 31.8995 2679.5 26.5996 2679.5 21.2996ZM2683.7 21.1995C2683.7 23.1995 2683.7 25.2996 2683.7 27.2996C2683.7 29.2996 2683.7 31.3996 2683.7 33.3996C2683.7 34.5996 2683.5 35.7995 2684.9 36.5995C2688.4 38.4995 2696.3 36.0995 2697.8 32.0995C2700.3 25.1995 2700.6 17.9995 2697.9 11.0995C2695.7 5.39952 2690.3 5.89952 2685.8 6.59952C2681.9 7.29952 2684.2 11.2995 2683.8 13.6995C2683.4 16.1995 2683.7 18.6995 2683.7 21.1995Z" fill="white"/>
<path d="M2721.5 21.4995C2721.5 19.0995 2721.3 16.5995 2721.5 14.1995C2721.8 10.3995 2719.6 4.69959 2722.5 3.29959C2726.8 1.19959 2732.5 1.89952 2737.5 3.09952C2744 4.79952 2745.9 13.3995 2741.1 19.0995C2739.5 20.9995 2739 21.5995 2741.1 23.5995C2744.5 26.8995 2744.5 31.2995 2742.7 35.5995C2740.9 39.8995 2737.4 40.6996 2733.2 40.7996C2721.6 40.9996 2721.6 41.0995 2721.6 29.4995C2721.5 26.7995 2721.5 24.1995 2721.5 21.4995ZM2730.7 23.5995C2726 21.9995 2725.1 24.8995 2725.6 29.0995C2726 32.3995 2723.4 37.3996 2730.5 36.7996C2735.2 36.3996 2739.4 36.1995 2739.3 30.0995C2739.3 24.8995 2736.2 22.9995 2730.7 23.5995ZM2725.7 12.7996C2725.5 16.6996 2724.7 20.3995 2730.8 19.6995C2735.5 19.1995 2739.5 18.7996 2739.3 12.7996C2739.2 7.29959 2735.5 6.79957 2731 6.39957C2725.3 5.89957 2725 8.79959 2725.7 12.7996Z" fill="white"/>
<path d="M2266.8 29.7002C2266.8 39.0002 2265.4 40.9002 2258 41.7002C2251.1 42.4002 2246.1 38.5002 2244.6 31.1002C2243.2 24.4002 2243.1 17.6002 2244.8 11.0002C2246.9 2.40024 2257.7 -1.79974 2265.1 2.90026C2266.1 3.50026 2266.6 4.30026 2266.3 5.40026C2266 6.70026 2264.9 6.80024 2263.9 6.50024C2259.5 5.50024 2254.8 4.10024 2251.2 8.00024C2247.4 12.3002 2247.9 17.9002 2248 23.2002C2248 26.9002 2248.2 30.6003 2250.2 33.9003C2252.4 37.5003 2257.7 38.8002 2261 36.6002C2262.5 35.6002 2263.7 27.2002 2262.6 25.7002C2262.3 25.3002 2261.6 25.0003 2261.1 24.8003C2259.5 24.3003 2256 25.7002 2257 22.2002C2257.9 19.1002 2261.2 21.1002 2263.4 20.7002C2265.9 20.2002 2267.2 21.3002 2267 24.1002C2266.7 26.0002 2266.8 27.8002 2266.8 29.7002Z" fill="white"/>
<path d="M2334.7 21.5996C2334.7 26.0996 2334.9 30.5996 2334.6 35.0996C2334.5 36.9996 2336.1 40.3996 2332.7 40.4996C2328.7 40.4996 2331.1 36.7997 2330.6 34.7997C2330.3 33.3997 2330.3 31.8996 2330.5 30.4996C2331.5 24.3996 2329.6 21.9997 2322.9 22.3997C2317.6 22.6997 2315 23.5997 2315.9 29.3997C2316.3 32.3997 2316 35.4996 2315.9 38.5996C2315.9 39.6996 2315.5 40.5996 2314.2 40.5996C2312.8 40.6996 2311.8 40.0996 2311.8 38.5996C2311.8 27.2996 2311.8 16.0997 2311.8 4.79968C2311.8 3.29968 2312.4 2.59961 2314 2.59961C2315.7 2.59961 2316 3.59963 2316 4.99963C2316 6.39963 2316 7.89968 2316 9.29968C2316 18.6997 2318.9 20.7997 2328.4 18.7997C2330.3 18.3997 2330.6 17.3997 2330.6 15.8997C2330.6 12.7997 2330.5 9.79958 2330.6 6.69958C2330.7 5.09958 2329.6 2.59958 2332.7 2.69958C2335.8 2.89958 2334.5 5.39966 2334.6 6.89966C2334.8 11.7997 2334.7 16.6996 2334.7 21.5996Z" fill="white"/>
<path d="M1517 21.9001C1517 27.0001 1517 32.1001 1517 37.2001C1517 38.7001 1517.6 40.8001 1514.9 40.7001C1512.2 40.6001 1513 38.5001 1513 37.1001C1512.9 33.8001 1512.7 30.5002 1513 27.3002C1513.4 23.3002 1511.7 22.1001 1508.1 22.7001C1507.7 22.8001 1507.3 22.7001 1506.9 22.7001C1498.3 22.7001 1498.3 22.7001 1498.4 31.0001C1498.4 33.5001 1498.4 35.9001 1498.4 38.4001C1498.4 39.7001 1498.1 40.8002 1496.4 40.8002C1494.8 40.8002 1494.3 39.8001 1494.3 38.4001C1494.3 27.3001 1494.3 16.3001 1494.3 5.20006C1494.3 3.90006 1494.5 2.80006 1496.2 2.70006C1498.3 2.50006 1498.5 3.80013 1498.5 5.40013C1498.5 7.20013 1498.8 9.10013 1498.5 10.9001C1497.5 17.2001 1499.8 19.1001 1506.3 19.0001C1511.9 18.9001 1513.6 17.5001 1513.3 11.9001C1513.2 9.00013 1510.9 3.10006 1514.9 3.20006C1519.7 3.20006 1516.5 9.00006 1517.1 12.2001C1517.4 15.2001 1517 18.6001 1517 21.9001Z" fill="white"/>
<path d="M2774.4 18.3002C2774.4 22.8002 2774.8 27.3002 2774.3 31.8002C2773.5 38.5002 2769.8 41.3001 2762.9 41.2001C2756.3 41.1001 2753.1 38.5002 2752.2 31.8002C2751 23.1002 2751.9 14.2002 2751.6 5.40018C2751.6 3.80018 2751.9 2.50013 2753.9 2.60013C2756 2.70013 2755.9 4.20013 2755.9 5.60013C2755.9 13.2001 2755.9 20.7002 2755.9 28.3002C2755.9 33.0002 2757.1 37.1002 2762.8 37.3002C2768.9 37.5002 2770.2 33.2002 2770.3 28.3002C2770.4 20.9002 2770.3 13.6001 2770.4 6.20011C2770.4 4.70011 2769.7 2.70013 2772.4 2.60013C2775.1 2.50013 2774.5 4.50016 2774.5 6.00016C2774.6 10.1002 2774.5 14.2002 2774.5 18.3002H2774.4Z" fill="white"/>
<path d="M2133.8 38.2998C2133.9 39.2998 2134.1 40.3997 2132.6 40.6997C2131.6 40.8997 2130.4 40.9997 2129.9 39.8997C2129.3 38.5997 2128.7 37.1997 2128.6 35.8997C2128.2 31.1997 2125.4 30.6998 2121.4 30.7998C2117.7 30.8998 2114.4 30.6997 2114 35.6997C2113.9 36.8997 2113.4 38.0997 2113 39.1997C2112.6 40.6997 2111.4 40.9998 2110.1 40.7998C2108.3 40.4998 2108.7 39.1997 2109 37.9997C2112.1 26.7997 2115.2 15.4998 2118.3 4.29977C2118.8 2.59977 2120 2.09967 2121.6 2.19967C2122.9 2.29967 2124 2.5997 2124.4 4.0997C2127.6 15.3997 2130.7 26.7998 2133.8 38.2998ZM2121.4 8.5997C2119.6 14.7997 2118.3 19.2997 2117 23.8997C2116.7 24.7997 2116.3 26.2997 2117.4 26.4997C2120 26.8997 2122.6 26.8997 2125.2 26.6997C2126.6 26.5997 2126.1 25.1998 2125.8 24.2998C2124.4 19.5998 2123.1 14.7997 2121.4 8.5997Z" fill="white"/>
<path d="M2618.6 40.6998C2615.5 40.6998 2615.6 39.2999 2616 37.7999C2619.1 26.5999 2622.2 15.3998 2625.3 4.19978C2625.8 2.49978 2626.8 1.89983 2628.4 1.99983C2630 1.99983 2631.1 2.69988 2631.5 4.29988C2634.5 15.4999 2637.6 26.6999 2640.6 37.8999C2640.9 39.0999 2641.2 40.3998 2639.3 40.5998C2636.8 40.8998 2636.1 39.1999 2635.8 37.2999C2635.1 33.2999 2634.4 30.1999 2628.8 30.3999C2623.9 30.5999 2621.1 31.3998 2620.6 36.6998C2620.4 38.3998 2620.3 40.6998 2618.6 40.6998ZM2628.7 9.79988C2625.7 14.1999 2625.5 18.8998 2624.1 23.1998C2623.7 24.4998 2622.6 26.2999 2624.6 26.7999C2626.9 27.2999 2629.6 27.2998 2631.9 26.6998C2633.9 26.1998 2632.4 24.2998 2632.1 23.0998C2631.1 18.8998 2630 14.6999 2628.7 9.79988Z" fill="white"/>
<path d="M2006 38.6998C2006 39.4998 2006 40.3998 2005 40.5998C2004 40.8998 2002.8 40.8998 2002.2 39.9998C2001.6 38.9998 2001.1 37.7998 2000.9 36.5998C2000.4 31.7998 1997.9 30.5998 1993.1 30.5998C1988.3 30.5998 1986.5 32.2998 1985.8 36.5998C1985.5 38.3998 1985.4 41.3998 1982.5 40.6998C1979.1 39.8998 1981.4 37.2998 1981.8 35.6998C1984.4 25.5998 1987.2 15.5998 1990 5.59978C1990.5 3.69978 1991 2.09976 1993.5 2.19976C1995.5 2.29976 1996.3 3.29978 1996.8 5.09978C1999.7 15.9998 2002.7 26.7998 2005.6 37.5998C2005.8 37.8998 2005.9 38.2998 2006 38.6998ZM1993.4 8.39983C1991.6 14.5998 1990.3 19.2998 1989 23.9998C1988.7 25.0998 1988.2 26.7998 1989.9 26.9998C1992.3 27.2998 1994.8 27.1998 1997.2 26.8998C1998.6 26.6998 1998 25.3998 1997.8 24.3998C1996.5 19.4998 1995.1 14.5998 1993.4 8.39983Z" fill="white"/>
<path d="M2572.7 38.3997C2572.9 39.1997 2573 40.2996 2571.6 40.5996C2570.6 40.7996 2569.4 40.8997 2568.8 39.8997C2568.1 38.6997 2567.6 37.2997 2567.5 35.8997C2567 31.3997 2564.5 30.5996 2560.4 30.6996C2556.3 30.7996 2553.1 30.9996 2552.8 36.0996C2552.8 37.0996 2552.3 38.0996 2552 38.9996C2551.5 40.3996 2550.4 40.8996 2549.1 40.6996C2547.3 40.3996 2547.7 39.0997 2548 37.8997C2551 26.8997 2554 15.7997 2557 4.79969C2557.5 2.99969 2558.5 1.99962 2560.5 2.09962C2562.1 2.19962 2563.1 2.89962 2563.5 4.59962C2566.6 15.6996 2569.6 26.9997 2572.7 38.3997ZM2560.3 8.49964C2558.6 14.5996 2557.2 19.1997 2555.9 23.7997C2555.6 24.8997 2555.1 26.5997 2556.7 26.7997C2559.1 27.0997 2561.6 27.1996 2564 26.6996C2565.7 26.3996 2564.8 24.6996 2564.5 23.6996C2563.2 19.0996 2561.9 14.3996 2560.3 8.49964Z" fill="white"/>
<path d="M1779 38.3997C1779.2 39.4997 1779 40.3996 1777.7 40.6996C1775.1 41.1996 1774.6 39.3996 1774.1 37.5996C1773.1 34.2996 1773.4 30.4996 1767.7 30.5996C1762.5 30.6996 1759.1 31.2997 1758.7 37.2997C1758.6 39.0997 1757.8 41.2996 1755.4 40.6996C1752.4 39.8996 1754.3 37.6997 1754.7 36.2997C1757.3 26.2997 1760.1 16.1996 1762.9 6.19958C1763.4 4.39959 1763.3 2.09961 1766.4 2.09961C1769.3 2.09961 1769.5 3.99961 1770 6.09961C1773 16.7996 1776 27.5997 1779 38.3997ZM1766.5 8.49963C1764.8 14.5996 1763.5 18.9996 1762.4 23.4996C1762.1 24.5996 1761 26.1996 1762.5 26.6996C1765 27.4996 1767.8 27.5996 1770.3 26.6996C1771.9 26.1996 1771 24.5996 1770.7 23.4996C1769.5 18.9996 1768.2 14.5996 1766.5 8.49963Z" fill="white"/>
<path d="M1785.8 21.5003C1785.8 16.4003 1785.8 11.3002 1785.8 6.20021C1785.8 4.90021 1785.2 3.50023 1787.1 2.60023C1796.8 -1.59977 1807.9 4.50028 1809.4 14.9003C1809.8 17.5003 1810 20.2003 1809.9 22.8003C1809.3 37.6003 1803.5 42.4002 1788.8 40.7002C1786.4 40.4002 1785.7 39.5003 1785.8 37.3003C1785.9 32.1003 1785.8 26.8003 1785.8 21.5003ZM1789.9 21.0003C1789.9 25.1003 1789.9 29.2002 1789.9 33.2002C1789.9 34.6002 1789.7 36.0002 1791.6 36.6002C1795.8 38.1002 1802.3 36.1002 1803.9 32.2002C1806.6 25.3002 1806.7 18.2003 1804.2 11.3003C1802.1 5.50031 1796.8 6.00021 1792.2 6.70021C1787.9 7.30021 1790.4 11.3002 1790 13.7002C1789.6 16.1002 1789.9 18.6003 1789.9 21.0003Z" fill="white"/>
<path d="M2915.6 41.7C2914.1 41.4 2911.7 41.0001 2909.3 40.5001C2907.9 40.2001 2907.1 39.4001 2907.3 37.9001C2907.6 36.2001 2908.9 36.5 2910.1 36.7C2912.5 37.1 2915 37.5001 2917.4 37.5001C2920.8 37.5001 2923.3 35.7001 2924.1 32.3001C2924.9 28.9001 2923.4 26.3 2920.4 24.7C2917.7 23.3 2914.7 22.4 2912.2 20.7C2906.9 17.2 2905.7 9.60006 2909.3 5.00006C2912.2 1.40006 2923 0.100063 2926.5 3.00006C2927 3.40006 2927.4 4.40004 2927.3 5.10004C2927.2 6.30004 2926.3 6.70006 2925.1 6.50006C2922.9 6.10006 2920.7 5.60006 2918.5 5.50006C2915.4 5.40006 2912.8 6.40002 2911.9 9.70002C2911 13.1 2912.2 15.8001 2915.2 17.5001C2917.1 18.6001 2919.3 19.2 2921.4 20.2C2927.2 22.9 2929.6 27.7 2928.1 33.7C2926.9 38.9 2922.7 41.8 2915.6 41.7Z" fill="white"/>
<path d="M2889.5 41.6996C2889.2 41.6996 2888.6 41.7997 2888 41.5997C2885.4 40.4997 2880.2 41.9996 2880.7 38.1996C2881.2 34.1996 2885.3 37.6996 2887.8 37.6996C2892.1 37.6996 2895.8 37.1997 2897.1 32.5997C2898.4 27.9997 2895.5 25.2996 2891.5 23.6996C2890.5 23.2996 2889.6 22.9997 2888.6 22.5997C2881.4 19.3997 2878.5 12.8997 2881.3 6.79975C2883.6 1.69975 2892.8 -0.400349 2898.8 2.69965C2900.1 3.39965 2900.7 4.0997 2900.3 5.4997C2899.9 6.8997 2898.8 6.5997 2897.8 6.4997C2895.8 6.1997 2893.8 5.5997 2891.8 5.4997C2888.4 5.2997 2885.6 6.49968 2884.8 10.0997C2884 13.4997 2885.6 16.0997 2888.6 17.7997C2890.4 18.7997 2892.4 19.2996 2894.3 20.1996C2900.3 22.8996 2902.7 27.4997 2901.3 33.4997C2900.1 38.7997 2896.1 41.6996 2889.5 41.6996Z" fill="white"/>
<path d="M1641.6 41.7003C1640.2 41.4003 1637.6 41.0004 1635 40.3004C1633.9 40.0004 1633.4 39.0004 1633.7 37.8004C1634 36.5004 1635 36.4003 1636.1 36.6003C1637.7 36.9003 1639.3 37.3003 1640.9 37.5003C1645.3 37.9003 1649.4 37.3003 1650.5 32.2003C1651.5 27.5003 1648.5 25.1003 1644.5 23.6003C1642.4 22.8003 1640.3 21.9003 1638.4 20.7003C1633.3 17.2003 1632.1 9.60035 1635.8 5.00035C1638.7 1.40035 1649.6 0.200299 1653 3.2003C1653.5 3.7003 1653.9 4.6004 1653.8 5.3004C1653.6 6.5004 1652.6 6.70032 1651.5 6.60032C1649.5 6.30032 1647.5 5.70032 1645.5 5.60032C1642.2 5.50032 1639.2 6.30035 1638.4 10.0003C1637.5 13.7003 1639.1 16.4003 1642.4 18.1003C1644.2 19.0003 1646.2 19.6004 1648.1 20.4004C1653.7 23.0004 1656.1 27.6004 1654.8 33.3004C1653.5 38.8004 1649.3 41.8003 1641.6 41.7003Z" fill="white"/>
<path d="M2792.8 1.5C2793.7 1.6 2794.6 1.39995 2795.3 1.69995C2797.4 2.69995 2802 1.29998 2801.3 5.09998C2800.7 8.39998 2797.3 5.69998 2795.1 5.59998C2791.3 5.39998 2787.2 5.30005 2786 9.80005C2784.6 14.7 2787.8 17.3 2792 19C2801.3 22.9 2804.1 26.9 2802.3 33.7C2800.3 41 2788.4 45 2782.4 40.3C2781.5 39.6 2781.2 38.7 2781.6 37.6C2782.1 36.3 2783.1 36.6 2784.2 36.8C2786.6 37.2 2789.1 37.7 2791.5 37.7C2794.9 37.7 2797.4 36 2798.2 32.5C2799 29.1 2797.6 26.4 2794.7 24.8C2792.4 23.5 2789.8 22.8 2787.5 21.5C2782.4 18.6 2780.7 14 2782.1 8.40002C2783.3 2.70002 2787.8 1.5 2792.8 1.5Z" fill="white"/>
<path d="M1938.8 41.6998C1937 41.6998 1936.6 41.7998 1936.2 41.6998C1933.3 40.6998 1927.7 41.9998 1928.1 38.4998C1928.5 33.9998 1933 37.9999 1935.6 37.7999C1939.8 37.4999 1943.5 36.8998 1944.5 32.1998C1945.5 27.6998 1942.7 25.2999 1939 23.7999C1934.6 22.0999 1930.1 20.3999 1928.4 15.2999C1926.9 10.5999 1927.6 6.29979 1931.7 3.19979C1934.9 0.799792 1944.6 0.899817 1947.1 3.09982C1947.8 3.69982 1948 4.49979 1947.8 5.19979C1947.4 6.39979 1946.5 6.59987 1945.4 6.39987C1943.4 6.09987 1941.4 5.59987 1939.4 5.39987C1936.1 5.19987 1933.2 6.29987 1932.3 9.89987C1931.4 13.2999 1932.9 15.9998 1935.9 17.5998C1937.8 18.6998 1940 19.2999 1942.1 20.2999C1947.7 22.8999 1950 27.4999 1948.7 33.2999C1947.2 39.3999 1943 41.4998 1938.8 41.6998Z" fill="white"/>
<path d="M2012.9 21.2999C2012.9 16.5999 2013.2 11.8998 2012.8 7.19976C2012.5 3.19976 2014.1 2.09981 2017.7 2.49981C2019.5 2.69981 2021.4 2.49981 2023.2 2.49981C2031.4 2.49981 2034.7 5.59986 2034.8 13.2999C2034.9 21.2999 2031.5 25.0999 2023.3 24.7999C2018.1 24.5999 2016.8 26.2999 2016.9 31.2999C2017 34.2999 2019.2 40.1998 2015.2 40.0998C2010.5 39.9998 2013.6 34.1998 2013 31.0998C2012.5 27.8998 2012.9 24.5999 2012.9 21.2999ZM2017.1 13.3998C2017.6 16.7998 2015.1 21.5998 2022.1 21.0998C2028.5 20.5998 2030.7 19.0998 2030.6 13.4998C2030.5 7.99981 2028.2 6.59976 2021.8 6.19976C2015.1 5.79976 2017.6 10.3998 2017.1 13.3998Z" fill="white"/>
<path d="M2381.8 21.6003C2381.8 16.7003 2381.8 11.8004 2381.8 6.90036C2381.8 5.60036 2381.3 4.00036 2382.7 2.90036C2384.6 1.50036 2398.7 2.90029 2400.5 4.70029C2404.3 8.30029 2404.9 16.8004 2401.8 21.3004C2399.2 25.0004 2395.3 25.3004 2391.3 24.9004C2386.9 24.5004 2385.4 26.1004 2385.9 30.4004C2386.2 32.8004 2385.9 35.3004 2385.9 37.8004C2385.9 39.3004 2385.7 40.8003 2383.7 40.7003C2381.6 40.6003 2381.7 39.0003 2381.7 37.6003C2381.8 32.2003 2381.8 26.9003 2381.8 21.6003ZM2386 13.7003C2386.2 17.2003 2384.4 21.7003 2391.2 21.1003C2396.2 20.7003 2399.4 19.4004 2399.5 13.8004C2399.5 8.30039 2397.2 6.60031 2391 6.10031C2384.2 5.70031 2386.3 10.3003 2386 13.7003Z" fill="white"/>
<path d="M1738.8 2.59963C1741 2.59963 1743.3 2.59963 1745.5 2.59963C1746.7 2.59963 1748 2.4997 1748.1 4.2997C1748.2 6.3997 1746.9 6.59963 1745.3 6.59963C1743.5 6.59963 1741.6 6.89963 1739.8 6.59963C1734.1 5.59963 1732.6 7.89965 1732.8 13.4997C1733 17.6997 1733.8 19.5997 1738.2 18.7997C1739.2 18.5997 1740.3 18.6997 1741.3 18.7997C1743.1 19.0997 1746.2 17.7997 1746.1 20.8997C1746.1 23.9997 1743 22.3997 1741.3 22.7997C1738.6 23.3997 1734.5 21.1997 1733.5 23.9997C1732.2 27.3997 1733 31.6997 1733.2 35.4997C1733.3 37.5997 1735.4 36.8997 1736.7 36.8997C1739.8 36.9997 1742.8 36.8997 1745.9 36.8997C1747.3 36.8997 1748.3 37.1997 1748.4 38.7997C1748.5 40.3997 1747.6 40.8997 1746.1 40.8997C1741.2 40.8997 1736.3 40.7997 1731.4 40.8997C1728.9 40.9997 1728.9 39.2996 1728.9 37.6996C1728.9 27.0996 1728.9 16.4997 1728.8 5.7997C1728.8 3.3997 1729.7 2.49961 1732 2.69961C1734.3 2.69961 1736.5 2.59963 1738.8 2.59963Z" fill="white"/>
<path d="M2947.4 21.7C2947.4 19.9 2947.3 18 2947.4 16.2C2947.7 11.8 2945.5 4.90012 2948.3 3.40012C2952.8 1.20012 2959 2.6001 2964.5 2.5001C2965.5 2.5001 2966.6 2.5001 2966.7 4.0001C2966.7 5.4001 2966.4 6.40012 2964.7 6.40012C2962.7 6.40012 2960.6 6.2001 2958.6 6.5001C2956.3 6.7001 2952.9 5.10005 2952 7.70005C2951 10.6 2951.2 14.3001 2951.9 17.4001C2952.5 19.9001 2955.4 18.2 2957.3 18.7C2959.8 19.4 2964.4 16.9001 2964.5 20.6001C2964.6 24.3001 2959.9 22.8001 2957.7 22.5001C2951.1 21.4001 2951.5 25.4 2951.6 29.7C2951.7 33.8 2950.8 37.9001 2957.6 37.0001C2960.5 36.6001 2966.6 34.8001 2966.5 38.5001C2966.4 43.2001 2960.6 40.5001 2957.5 40.6001C2947.5 41.0001 2947.5 40.8001 2947.5 31.0001C2947.4 27.9001 2947.4 24.8 2947.4 21.7Z" fill="white"/>
<path d="M1525.9 21.3C1525.9 16.2 1525.9 11.1 1525.9 6C1525.9 3.9 1526.2 2.5 1528.8 2.5C1533.5 2.6 1538.2 2.59998 1542.9 2.59998C1544.2 2.59998 1545.3 2.79998 1545.2 4.59998C1545.1 6.19998 1544.1 6.59998 1542.8 6.59998C1540.8 6.59998 1538.7 6.9 1536.7 6.5C1531.3 5.6 1529.7 7.59998 1530 13.1C1530.2 17.4 1530.8 19.7 1535.7 18.8C1537.5 18.5 1539.4 18.7 1541.2 18.8C1542.7 18.8 1543.4 19.7 1543.4 21.1C1543.4 22.5 1542.3 22.6 1541.3 22.7C1539.9 22.8 1538.4 22.9 1537 22.7C1531.3 21.7 1530.2 24.1 1530 29.5C1529.7 36 1531.9 37.8 1537.8 36.8C1539.6 36.5 1541.5 36.8 1543.3 36.8C1544.7 36.8 1545.6 37.4 1545.6 39C1545.5 40.2 1544.8 40.8 1543.6 40.8C1538.5 40.8 1533.4 40.8 1528.3 40.8C1525.8 40.8 1526.1 38.9 1526.1 37.3C1525.8 31.9 1525.8 26.6 1525.9 21.3C1525.8 21.3 1525.8 21.3 1525.9 21.3Z" fill="white"/>
<path d="M2342.7 21.2001C2342.7 16.3001 2342.8 11.4002 2342.7 6.50017C2342.6 3.80017 2343 2.30017 2346.3 2.50017C2350.4 2.80017 2354.5 2.50015 2358.6 2.60015C2360 2.60015 2362.3 1.90015 2362.1 4.60015C2361.9 7.10015 2359.8 6.40017 2358.3 6.50017C2356.5 6.60017 2354.6 6.80017 2352.8 6.50017C2347.8 5.70017 2346.9 7.90017 2346.8 12.5002C2346.6 17.7002 2348.1 19.6002 2353.2 18.8002C2355 18.5002 2356.9 18.7002 2358.7 18.9002C2359.9 19.0002 2360.3 20.0001 2360.2 21.1001C2360.1 22.2001 2359.3 22.4002 2358.5 22.5002C2356.9 22.6002 2355.2 22.8001 2353.6 22.6001C2348.5 21.9001 2346.7 23.2002 2346.7 29.0002C2346.7 35.4002 2348.3 37.9002 2354.7 36.8002C2356.5 36.5002 2358.4 36.7002 2360.2 36.8002C2361.7 36.8002 2362.5 37.5001 2362.4 39.1001C2362.3 40.4001 2361.4 40.8002 2360.3 40.8002C2355.2 40.8002 2350.1 40.8002 2345 40.8002C2342.4 40.8002 2343 38.7002 2342.9 37.3002C2342.6 31.9002 2342.7 26.5001 2342.7 21.2001Z" fill="white"/>
<path d="M3038.4 21.3997C3038.4 16.4997 3038.6 11.5996 3038.3 6.69962C3038.2 3.59962 3039 2.19967 3042.3 2.49967C3046.4 2.79967 3050.5 2.49964 3054.6 2.59964C3055.9 2.59964 3057.7 2.09969 3057.7 4.39969C3057.7 6.39969 3056.4 6.59967 3054.8 6.49967C3052.8 6.49967 3050.7 6.79969 3048.7 6.39969C3043.4 5.49969 3042.5 7.89972 3042.4 12.7997C3042.3 17.7997 3043.9 18.9997 3048.6 18.7997C3051 18.6997 3055.7 16.9997 3055.5 20.7997C3055.4 24.3997 3050.7 22.5997 3048.4 22.3997C3043.2 21.8997 3042.1 24.0996 3042.6 28.5996C3043.1 32.2996 3040.6 37.7996 3048.2 36.6996C3050.8 36.2996 3053.5 36.5996 3056.2 36.6996C3057.4 36.6996 3058.1 37.4996 3058 38.6996C3058 39.7996 3057.4 40.5996 3056.1 40.5996C3050.8 40.5996 3045.5 40.6997 3040.2 40.4997C3037.8 40.3997 3038.5 38.0996 3038.5 36.5996C3038.3 31.5996 3038.4 26.4997 3038.4 21.3997Z" fill="white"/>
<path d="M1859.7 21.6001C1859.7 20.0001 1859.7 18.3001 1859.7 16.7001C1859.7 1.2001 1860.6 0.400128 1876.4 2.60013C1877.6 2.80013 1879 2.5001 1879.1 4.2001C1879.3 6.2001 1877.9 6.50015 1876.3 6.50015C1874.3 6.50015 1872.2 6.80015 1870.2 6.50015C1865.1 5.70015 1863.6 7.7002 1863.7 12.8002C1863.8 17.5002 1864.9 19.6002 1869.8 18.8002C1871.4 18.5002 1873.1 18.8002 1874.7 18.8002C1876.1 18.8002 1877 19.4002 1877 21.0002C1877 22.8002 1875.7 22.7002 1874.4 22.8002C1873.2 22.8002 1871.9 23.0002 1870.7 22.8002C1865 21.8002 1863.6 24.2001 1863.6 29.7001C1863.5 35.6001 1865.2 37.9002 1871.1 37.0002C1872.9 36.7002 1874.8 36.9002 1876.6 37.0002C1877.9 37.0002 1879.1 37.2002 1879.2 38.8002C1879.3 40.4002 1878.3 40.9002 1876.9 40.9002C1872 40.9002 1867.1 40.9002 1862.2 40.9002C1859.4 40.9002 1859.6 39.0001 1859.6 37.1001C1859.7 31.8001 1859.7 26.7001 1859.7 21.6001Z" fill="white"/>
<path d="M2854.4 21.2C2854.4 16.3 2854.6 11.4 2854.3 6.5C2854.1 3.2 2855.4 2.3 2858.5 2.5C2862.6 2.7 2866.7 2.49998 2870.8 2.59998C2872.1 2.59998 2873.9 2.3 2873.9 4.5C2873.8 6.5 2872.2 6.5 2870.8 6.5C2869 6.5 2867.1 6.7 2865.3 6.5C2860.2 5.8 2858.2 7.20002 2858.4 12.9C2858.6 17.8 2860 19.1 2864.6 18.8C2867 18.7 2871.6 17 2871.5 20.8C2871.4 24.3 2866.7 22.7 2864.3 22.4C2858.3 21.7 2858.4 25.1 2858.5 29.3C2858.6 33.5 2857.9 37.4 2864.5 36.9C2867.5 36.7 2873.4 34.3 2873.5 38.9C2873.6 42.6 2867.7 40.4 2864.6 40.5C2854.5 40.8 2854.5 40.6 2854.5 30.3C2854.4 27.3 2854.4 24.3 2854.4 21.2Z" fill="white"/>
<path d="M2041.7 21.2999C2041.7 16.1999 2041.8 11.0998 2041.7 5.99984C2041.7 3.89984 2041.8 2.39984 2044.5 2.49984C2049.2 2.69984 2053.9 2.49981 2058.6 2.59981C2059.8 2.59981 2061.2 2.69984 2061.1 4.49984C2061 6.09984 2059.9 6.49984 2058.6 6.49984C2056.6 6.49984 2054.5 6.79984 2052.5 6.49984C2047.2 5.69984 2045.4 7.49981 2045.7 13.0998C2045.9 17.5998 2046.9 19.4999 2051.5 18.7999C2053.3 18.4999 2055.2 18.6999 2057 18.7999C2058.1 18.7999 2058.9 19.3998 2059 20.5998C2059.2 22.2998 2058.1 22.5998 2056.7 22.6998C2055.3 22.6998 2053.8 22.8998 2052.4 22.6998C2047 21.7998 2045.7 23.8999 2045.5 29.2999C2045.3 35.5999 2047.1 37.8999 2053.3 36.8999C2054.7 36.6999 2056.2 36.7999 2057.6 36.8999C2059.1 36.9999 2061.3 36.4998 2061.1 38.9998C2061 41.4998 2058.8 40.7999 2057.3 40.8999C2041.5 41.7999 2041.5 41.7999 2041.5 26.3999C2041.7 24.5999 2041.7 22.9999 2041.7 21.2999Z" fill="white"/>
<path d="M2522.7 22.5998C2522.7 23.2998 2522.8 25.0998 2523 26.8998C2524.2 36.0998 2527.5 38.4998 2536.6 37.1998C2538.2 36.9998 2540.6 35.0998 2541.3 37.8998C2542.1 40.9998 2538.9 40.5998 2537.2 40.9998C2526.2 43.3998 2520.2 39.2998 2518.9 28.0998C2518.2 21.9998 2518.1 15.7999 2520 9.79987C2522.5 2.09987 2534.3 -1.80018 2540.5 2.99982C2541 3.39982 2541.5 4.39982 2541.4 4.99982C2541.4 6.19982 2540.4 6.69982 2539.2 6.49982C2539 6.49982 2538.8 6.39984 2538.6 6.39984C2524.9 5.89984 2522.6 7.99979 2522.7 22.5998Z" fill="white"/>
<path d="M1956.9 21.8003C1956.9 17.3003 1957.3 12.8003 1956.8 8.40028C1956.2 3.30028 1958.4 2.00023 1962.9 2.60023C1964.7 2.80023 1966.6 2.60023 1968.4 2.60023C1975.6 2.70023 1978.9 6.30031 1978.9 13.8003C1978.9 21.3003 1975.6 25.3003 1968.3 24.8003C1962.2 24.4003 1960.6 26.5003 1960.9 32.3003C1961.1 35.0003 1963.5 40.3003 1959 40.3003C1954.7 40.3003 1957.4 35.1002 1957 32.2002C1956.5 28.8002 1956.9 25.2003 1956.9 21.8003ZM1961.1 13.7002C1961.7 16.7002 1959 21.6002 1966.1 21.1002C1972.3 20.7002 1974.8 18.9002 1974.7 13.6002C1974.6 8.20023 1972.2 6.60021 1965.9 6.20021C1959.4 5.80021 1961.4 10.2002 1961.1 13.7002Z" fill="white"/>
<path d="M2297.1 24.1994C2297.1 28.4994 2297.1 32.7994 2297.1 36.9994C2297.1 38.4994 2297.5 40.5994 2295 40.4994C2292.4 40.3994 2293.2 38.1995 2293.1 36.7995C2293 28.5995 2292.9 20.4995 2293.1 12.2995C2293.2 8.49947 2293.1 5.2994 2287.8 6.0994C2286.4 6.2994 2284.7 6.19937 2284.7 4.19937C2284.6 1.89937 2286.5 2.39945 2287.8 2.39945C2292.7 2.39945 2297.6 2.39945 2302.5 2.39945C2303.9 2.39945 2305.7 2.19945 2305.5 4.39945C2305.4 5.89945 2304 6.2994 2302.8 6.0994C2297.3 5.0994 2296.9 8.29942 2297.2 12.4994C2297.3 16.4994 2297.1 20.2994 2297.1 24.1994Z" fill="white"/>
<path d="M3019.9 23.6C3019.9 20.3 3019.8 17.1 3019.9 13.8C3020.1 9.30005 3020.5 4.79995 3013.6 6.19995C3012.1 6.49995 3011.3 5.5 3011.4 4C3011.5 2.6 3012.5 2.5 3013.6 2.5C3018.9 2.5 3024.2 2.5 3029.5 2.5C3030.7 2.5 3032.1 2.49995 3032.1 4.19995C3032.1 5.79995 3030.9 6.39998 3029.6 6.09998C3022.9 4.89998 3023.7 9.4 3023.7 13.5C3023.8 20.8 3023.8 28.2 3023.7 35.5C3023.7 37.3 3024.9 40.3 3021.9 40.4C3018.6 40.6 3019.9 37.5 3019.8 35.8C3019.7 31.8 3019.9 27.7 3019.9 23.6Z" fill="white"/>
<path d="M2579.7 21.7C2579.7 16.4 2579.7 11.1001 2579.7 5.80014C2579.7 4.10014 2579.7 2.40006 2582.1 2.60006C2584.3 2.80006 2583.9 4.40014 2583.9 5.80014C2583.9 14.6001 2584.1 23.3001 2583.8 32.1001C2583.7 36.0001 2585 37.2001 2588.7 36.8001C2590.9 36.6001 2593.2 36.7001 2595.4 36.8001C2596.9 36.8001 2599 36.3001 2598.9 38.9001C2598.8 41.5001 2596.6 40.7 2595.2 40.7C2579.7 41.6 2579.7 41.6001 2579.7 26.0001C2579.7 24.6001 2579.7 23.1 2579.7 21.7Z" fill="white"/>
<path d="M2442.7 21.5998C2442.7 16.4998 2442.7 11.3999 2442.7 6.29991C2442.7 4.79991 2442 2.79983 2444.6 2.59983C2447.6 2.49983 2447 4.79986 2447 6.49986C2447.1 14.8999 2447.2 23.1998 2447 31.5998C2446.9 35.4998 2448 36.6999 2452.1 36.8999C2455.4 37.0999 2461.5 33.9998 2461.7 39.0998C2461.8 42.5998 2455.5 40.4998 2452.1 40.5998C2442.8 40.8998 2442.8 40.6999 2442.8 31.3999C2442.7 28.0999 2442.7 24.8998 2442.7 21.5998Z" fill="white"/>
<path d="M2974.6 21.7C2974.6 16.4 2974.6 11.1001 2974.6 5.80014C2974.6 4.10014 2974.6 2.40006 2977 2.60006C2979.2 2.80006 2978.7 4.50014 2978.7 5.80014C2978.7 14.4001 2979 22.9001 2978.6 31.5001C2978.4 36.0001 2980 37.3001 2984.2 36.8001C2986.4 36.5001 2988.7 36.8001 2990.9 36.8001C2992.4 36.8001 2993.9 36.9001 2993.8 38.9001C2993.7 41.1001 2992 40.7001 2990.6 40.8001C2990.4 40.8001 2990.2 40.8001 2990 40.8001C2974.6 41.6001 2974.6 41.6 2974.6 21.7Z" fill="white"/>
<path d="M1477.2 2.59987C1479.9 2.59987 1482.5 2.59987 1485.2 2.59987C1486.4 2.59987 1487.8 2.59995 1487.8 4.29995C1487.7 5.79995 1486.6 6.39985 1485.2 6.19985C1479.3 5.19985 1479.2 8.6999 1479.4 12.9999C1479.6 20.6999 1479.5 28.4999 1479.4 36.2999C1479.4 37.8999 1480.3 40.4999 1477.5 40.5999C1474.6 40.6999 1475.4 38.0999 1475.4 36.4999C1475.3 28.2999 1475.3 20.1999 1475.5 11.9999C1475.6 8.1999 1475.1 5.49995 1470.4 6.29995C1468.8 6.59995 1466.8 6.49987 1467.1 4.09987C1467.3 1.99987 1469.3 2.69985 1470.5 2.69985C1472.7 2.49985 1474.9 2.49987 1477.2 2.59987Z" fill="white"/>
<path d="M1669.2 23.7002C1669.2 20.4002 1669.1 17.2003 1669.2 13.9003C1669.4 9.40029 1670 4.90031 1663 6.30031C1661.6 6.60031 1660.7 5.60024 1660.8 4.10024C1660.9 2.70024 1662.1 2.70022 1663.1 2.70022C1668.4 2.70022 1673.7 2.70022 1679 2.70022C1680.2 2.70022 1681.6 2.60029 1681.6 4.40029C1681.6 5.90029 1680.4 6.60029 1679.1 6.40029C1672.6 5.20029 1673 9.30024 1673.1 13.6002C1673.2 21.2002 1673.2 28.7003 1673.1 36.3003C1673.1 37.9003 1674.2 40.6002 1671.4 40.7002C1668.1 40.8002 1669.3 37.8002 1669.2 36.1002C1669.1 31.8002 1669.2 27.7002 1669.2 23.7002Z" fill="white"/>
<path d="M2488 23.5C2488 20 2487.8 16.5 2488 13.1C2488.3 8.79998 2488.1 5.19995 2482.2 6.19995C2481 6.39995 2479.7 6.00002 2479.6 4.40002C2479.4 2.50002 2480.8 2.5 2482 2.5C2487.3 2.5 2492.6 2.5 2498 2.5C2499.2 2.5 2500.6 2.50005 2500.4 4.30005C2500.3 5.90005 2499.1 6.39998 2497.8 6.09998C2491.1 4.79998 2491.8 9.20002 2491.9 13.4C2492 21.2 2492 29 2491.9 36.7C2491.9 38.1 2492.9 40.3 2490.2 40.4C2487.6 40.5 2488.1 38.4 2488.1 36.9C2488 32.6 2488 28.1 2488 23.5Z" fill="white"/>
<path d="M2810.6 21.6999C2810.6 16.3999 2810.6 11.1 2810.6 5.69995C2810.6 3.89995 2810.7 2.39997 2813.1 2.59997C2815.2 2.79997 2815 4.29995 2815 5.69995C2815 16.0999 2815 26.6 2815 37C2815 38.6 2815.3 40.6 2812.8 40.6C2810.3 40.6 2810.6 38.6 2810.6 37.1C2810.6 32 2810.6 26.7999 2810.6 21.6999Z" fill="white"/>
<path d="M2511.1 21.5001C2511.1 26.8001 2511.1 32.1001 2511.1 37.5001C2511.1 38.9001 2511.2 40.5001 2509.2 40.7001C2506.7 40.9001 2506.8 39.1002 2506.8 37.4002C2506.8 27.0002 2506.8 16.5001 2506.8 6.1001C2506.8 4.5001 2506.4 2.60008 2509 2.70008C2511.6 2.80008 2511.1 4.70008 2511.1 6.20008C2511.1 11.3001 2511.1 16.4001 2511.1 21.5001Z" fill="white"/>
<path d="M2473.1 21.6996C2473.1 26.9996 2473.1 32.2996 2473.1 37.5996C2473.1 39.0996 2473.1 40.5996 2471 40.5996C2469 40.5996 2468.8 39.1996 2468.8 37.6996C2468.8 26.8996 2468.8 15.9996 2468.8 5.19955C2468.8 3.49955 2469.3 2.39958 2471.2 2.59958C2473.3 2.79958 2473.1 4.29955 2473.1 5.69955C2473.1 11.0996 2473.1 16.3996 2473.1 21.6996Z" fill="white"/>
<path d="M3004.8 21.6996C3004.8 26.9996 3004.8 32.2996 3004.8 37.5996C3004.8 38.9996 3004.8 40.5996 3002.7 40.5996C3000.7 40.5996 3000.6 38.9996 3000.6 37.5996C3000.6 26.7996 3000.6 15.9996 3000.6 5.19955C3000.6 3.49955 3001 2.39958 3003 2.59958C3004.7 2.69958 3004.7 3.99955 3004.7 5.19955C3004.7 10.6996 3004.7 16.1996 3004.8 21.6996Z" fill="white"/>
</svg>
