<svg width="3069" height="641" viewBox="0 0 3069 641" fill="none" xmlns="http://www.w3.org/2000/svg">
<path d="M1533.3 640.1C1024.7 640.1 516 640.1 7.4 640.3C1.3 640.3 0 638.9 0 632.9C0.2 424.7 0.2 216.4 0 8.19971C0 2.09971 1.4 0.799805 7.4 0.799805C1025.2 0.999805 2043 0.999805 3060.8 0.799805C3066.9 0.799805 3068.2 2.19971 3068.2 8.19971C3068 216.4 3068 424.7 3068.2 632.9C3068.2 639 3066.8 640.3 3060.8 640.3C2551.7 640.1 2042.5 640.1 1533.3 640.1ZM1079.3 44.4998C740.9 44.4998 402.5 44.4998 64 44.2998C56.5 44.2998 54.9 46.3998 55 53.4998C55.3 104.3 55.2 155.2 55.1 206C55.1 211.3 56.5 214.7 60.9 218.1C101.6 249.5 142.1 281.2 182.9 312.6C188.3 316.7 187.6 318.3 182.7 322C142 352.5 101.5 383.4 60.9 414C56.8 417.1 55.2 420.1 55.2 425.3C55.4 476.1 55.5 527 55.1 577.8C55 585.7 57.1 587.3 64.8 587.2C740.8 587 1416.9 587 2092.9 587.2C2100.7 587.2 2103.1 585.9 2103.1 577.4C2102.8 403.1 2102.8 228.7 2103.1 54.3997C2103.1 46.4997 2101.6 44.2998 2093.2 44.2998C1755.1 44.4998 1417.2 44.4998 1079.3 44.4998ZM2576.2 44.4998C2427.9 44.4998 2279.6 44.5998 2131.3 44.2998C2123.6 44.2998 2121.6 45.9997 2121.6 53.8997C2121.9 228.5 2121.9 403.1 2121.6 577.7C2121.6 585.6 2123.6 587.2 2131.3 587.2C2427.7 587 2724 587 3020.4 587.2C3027.8 587.2 3029.5 585.3 3029.5 578.1C3029.3 403.2 3029.3 228.4 3029.5 53.4998C3029.5 46.1998 3027.8 44.2997 3020.4 44.3997C2872.3 44.5997 2724.3 44.4998 2576.2 44.4998ZM6.8 414.8C49 382.8 90.2 351.5 131.5 320.4C136.5 316.6 133.5 315.2 130.6 313C96.2 286.2 61.7 259.5 27.3 232.7C20.7 227.5 14.1 222.3 6.8 216.6C6.8 283.2 6.8 348.5 6.8 414.8Z" fill="#FEFDFD"/>
<path d="M1116.5 241.399C1118.2 307.199 1119.8 372 1121.6 436.7C1121.7 441.5 1122.7 446.3 1123.8 451C1126.8 463.2 1131.4 466.699 1144.2 467.399C1146.1 467.499 1148 467.4 1149.9 467.6C1153 468 1156 468.8 1155.6 472.8C1155.3 476.3 1152.6 476.9 1149.8 477C1146.3 477.1 1142.8 477.3 1139.3 477C1115.6 475.1 1091.9 476.2 1068.2 477C1064.9 477.1 1060.3 478.1 1060 473C1059.6 467.6 1064.2 467.7 1068 467.5C1085.2 466.4 1088.4 463.8 1089.3 447.1C1092.2 396.6 1091.6 346 1092.4 295.5C1093.1 249 1093.5 202.499 1094.1 155.899C1094.1 155.599 1094.1 155.4 1094.1 155.1C1094.5 150.6 1094.3 144.9 1099.1 143.3C1103.8 141.7 1106.5 146.6 1109.1 150C1132.9 181.2 1156.4 212.6 1180.5 243.5C1218.5 292.2 1256.1 341.299 1293.1 390.899C1295.9 389.199 1294.7 386.8 1294.7 385C1293.7 320.7 1292.5 256.5 1291.3 192.2C1291.2 186.8 1290.6 181.5 1289.7 176.2C1287.7 163.8 1282.1 159.5 1267.2 157.8C1263.4 157.4 1256.7 160 1256.8 153.7C1256.9 147.2 1263.8 149.299 1267.9 149.399C1291.9 149.799 1315.8 150.4 1339.8 149.3C1341.9 149.2 1344.2 149.2 1346.2 149.6C1348 150 1349.8 151.3 1349.5 153.5C1349.3 155.5 1348.1 156.9 1345.9 157.3C1345.6 157.3 1345.4 157.399 1345.1 157.399C1323.9 162.499 1323.9 162.5 1321.3 183.8C1320.8 187.5 1320.7 191.3 1320.7 195.1C1319.5 284.4 1318.4 373.699 1317.3 462.899C1317.2 467.499 1317.3 472 1316 476.5C1314.3 482.2 1311.1 482.899 1306.2 480.399C1301.5 477.999 1298.4 473.8 1295.3 469.8C1236.6 397 1177.5 324.4 1123.4 248.1C1121.6 246 1120.3 243.299 1116.5 241.399Z" fill="#FEFDFD"/>
<path d="M302 289.5C335.4 305.8 356.3 329.2 363.4 363.5C371.7 403.5 356 451.5 317.1 469.9C300.6 477.7 283.1 480.6 265.3 478.4C238.9 475.1 212.7 475.6 186.3 477.3C183.1 477.5 179.8 477.6 176.6 477.5C173.6 477.4 170.4 477.4 170.1 473.2C169.8 468.7 172.8 468 176.3 467.6C193 465.5 194.4 464.7 196.4 448.6C199.3 425.1 199 401.4 199 377.8C199.1 317 198.9 256.3 198.8 195.5C198.8 189.9 198.3 184.2 197.8 178.6C196.7 166 191.6 160.7 178.8 158.8C175.6 158.3 172.4 158 169.2 157.7C166.8 157.5 164.8 156.6 164.7 154C164.5 151 166.7 149.8 169.3 149.5C171.2 149.3 173.1 149.3 175 149.4C206.8 150.4 238.6 150.3 270.4 149.4C279.9 149.1 289.2 150.6 298.2 153.3C333.6 163.8 343.6 195.8 341 222.2C338.5 247.4 326.8 267.9 308.6 285.1C306.9 286.6 304.9 287.5 302 289.5ZM320.7 396.1C319.8 374.4 314.4 353.3 301.5 334.1C289.1 315.6 272.7 305.9 249.9 307.6C244.1 308 242.7 309.7 242.7 315.1C242.9 350.6 242.7 386.1 242.9 421.6C242.9 427.2 243.6 432.9 244.5 438.4C245.4 443.8 247.8 448.5 252.9 451.5C270.2 461.7 300.1 462.1 312.8 435.3C318.7 423.1 320.2 410.2 320.7 396.1ZM242.9 228.5C242.9 245.4 242.9 262.4 242.9 279.3C242.9 282.1 242.2 285 246 286.8C261.1 293.9 286.7 286.4 294 271.3C308.4 241.7 305.6 212.4 288.4 184.8C280.2 171.7 267 167.8 251.9 169.3C245.4 169.9 242.6 172.2 242.8 179.3C243.2 195.7 242.9 212.1 242.9 228.5Z" fill="#FEFDFD"/>
<path d="M611.8 275.8C611.8 248.6 611.8 221.5 611.8 194.3C611.8 190.3 611.8 186.2 611.5 182.2C610.1 165.2 605.3 160.2 588.4 158.1C587.6 158 586.8 158 586 157.9C582.9 157.5 578.8 158.3 579.2 153.3C579.5 149.3 583 149.5 586 149.4C586.8 149.4 587.6 149.4 588.4 149.4C613.5 150.1 638.5 150.3 663.6 149.4C665.5 149.3 667.4 149.3 669.2 149.6C671.5 150 673.3 151.2 673.1 153.9C673 156 671.6 157.3 669.5 157.6C669 157.7 668.4 157.7 667.9 157.8C650.4 159.5 645.9 161.6 645.1 182.7C644.5 199.1 644.4 215.5 644.1 231.9C643.3 276 645.8 320.1 642.5 364.2C641 384.6 637.7 404.8 629.2 423.5C608.3 469.7 569.8 486.8 520.6 481.3C467.4 475.4 444.2 439.1 435.4 395.2C431.6 376.5 430.4 357.5 430.4 338.3C430.5 290.2 430.5 242 430.4 193.9C430.4 188.3 430.4 182.6 429.4 177C427.2 165.2 422.7 160.6 410.5 158.8C407.6 158.4 404.6 158.1 401.7 157.8C399.1 157.6 396.7 157.1 396.6 153.9C396.5 150.2 399.2 149.7 402.1 149.5C403.4 149.4 404.8 149.4 406.1 149.5C436.3 150.1 466.5 150.8 496.6 149.5C498.5 149.4 500.4 149.4 502.2 149.7C504.4 150.1 506.3 151.4 506.1 154C505.9 156 504.6 157.4 502.4 157.6C502.1 157.6 501.9 157.7 501.6 157.7C477.9 159.4 479.7 168 478 184.7C477.4 190.3 477.4 196 477.4 201.6C477.3 249.7 477.1 297.9 477.5 346C477.7 369.1 478.9 392.3 487.4 414.1C502.7 453.2 536.1 464.8 568.4 452.2C590.7 443.5 601.7 424.4 606.9 401.9C611.3 382.9 612 363.6 611.9 344.3C611.8 321.4 611.9 298.6 611.9 275.7C611.9 275.8 611.8 275.8 611.8 275.8Z" fill="#FEFDFD"/>
<path d="M1463.4 151C1490 151 1509.9 150.9 1529.9 151.1C1538.9 151.2 1547.7 150.7 1556 147.2C1560.9 145.1 1562.2 147.3 1561.6 151.3C1558.4 170.2 1559.3 189.4 1556.8 208.3C1556.5 210.6 1556.2 213.7 1553.1 213.7C1549.5 213.6 1550.6 210.3 1550.4 208.1C1550.1 205.2 1550.2 202.2 1549.6 199.3C1546.3 182.8 1540.2 177.9 1523.3 176.8C1508.2 175.8 1493.2 175.2 1478.1 175.1C1473 175.1 1471 176.2 1471 181.7C1471.2 215.9 1471.1 250 1471.1 284.2C1471.1 287.2 1470.7 290.7 1475.1 290.5C1496.1 289.8 1517.1 291.6 1538 288.4C1542.8 287.7 1546.4 285.3 1549.4 281.4C1550.6 279.8 1551.6 276.8 1554.1 277.8C1556.5 278.7 1556.6 281.6 1556.4 284.1C1555.2 297.5 1554.1 310.9 1553.1 324.3C1552.6 331.5 1552.4 338.8 1552.1 346C1552 348.7 1551.5 352.1 1548.2 352.1C1545.1 352 1545.8 348.6 1545.6 346.3C1543.6 319.9 1539.9 316.4 1513.2 315.5C1501.3 315.1 1489.5 314.7 1477.7 314C1472.7 313.7 1471.2 315.5 1471.2 320.4C1471.4 353.8 1471 387.1 1471.4 420.5C1471.7 442.8 1481.1 451.8 1503.6 453.1C1512 453.6 1520.3 453.6 1528.6 453.1C1549.9 451.7 1558.8 443.5 1561.9 422.3C1562.4 418.9 1563.1 415.4 1563.9 412C1564.2 410.7 1565.2 409.6 1566.7 409.6C1568.4 409.6 1568.9 411.1 1569.3 412.3C1569.8 413.8 1569.9 415.5 1569.9 417C1569.9 434.5 1567.9 451.8 1565 469.1C1563.8 476 1559.7 478.9 1552.6 478.8C1532.9 478.5 1513.3 479 1493.6 477.2C1465.3 474.6 1437.1 475.7 1408.8 477.4C1406.1 477.6 1403.4 477.5 1400.7 477.3C1398.3 477.1 1396.9 475.7 1396.7 473.1C1396.6 470.6 1397.6 469 1399.9 468.2C1400.4 468 1400.9 467.8 1401.5 467.8C1407.6 467.4 1414.4 468.5 1418.6 462.8C1423.7 456 1423.8 447.7 1424.1 439.7C1424.8 419.5 1425.5 399.4 1425.5 379.2C1425.6 318.4 1425.4 257.6 1425.3 196.8C1425.3 190.6 1424.8 184.4 1424.3 178.3C1423.3 166.2 1418.1 160.7 1405.8 158.9C1402.1 158.3 1398.3 157.9 1394.6 157.6C1392.7 157.4 1391.5 156.4 1391.2 154.7C1390.8 152.5 1392 151 1394.1 150.7C1397 150.3 1400 149.8 1402.9 149.9C1425.2 150.6 1447.6 151.4 1463.4 151Z" fill="#FEFDFD"/>
<path d="M1767.9 185.6C1767.9 195.8 1768.1 206 1767.8 216.2C1767.7 218.5 1767.7 222.4 1763.8 222C1760.3 221.6 1760.9 218.1 1760.7 215.5C1759.3 192.3 1747 174.4 1728.7 168.8C1707.7 162.3 1685.4 169.5 1674.3 186.4C1662.3 204.6 1664.8 231.6 1680.2 249.2C1690.2 260.7 1702.6 269.2 1714.8 278.1C1737.5 294.6 1758.3 313.2 1767.5 340.5C1781.5 381.9 1778.9 421.3 1749.2 456.1C1736.8 470.7 1721.1 478.8 1702 480.8C1679.5 483.2 1657.4 482.2 1636.1 473.9C1624.3 469.3 1622.9 467.1 1623.1 454.8C1623.5 435.7 1624.2 416.6 1624.8 397.6C1624.9 396 1625.1 394.4 1625.6 392.9C1626.2 391 1626.3 388.2 1629.2 388.3C1632.5 388.5 1632.7 391.2 1632.7 393.6C1632.8 403.3 1634.4 412.8 1637.4 422.1C1645.6 448.1 1669.9 463.3 1696.8 459.3C1719 456 1734.8 435.3 1736.3 409.2C1737.8 382.9 1726.3 363.3 1706.5 347.3C1690.4 334.3 1673.1 322.7 1659 307.3C1632.1 278.1 1624 243.8 1633.2 205.8C1641.5 171.3 1673.5 146.4 1709.7 144.8C1727.6 144 1745.1 146.1 1762.4 150.9C1767.8 152.4 1769.7 155.2 1769.4 160.7C1769 169 1769.3 177.4 1769.3 185.7C1768.9 185.6 1768.4 185.6 1767.9 185.6Z" fill="#FEFDFD"/>
<path d="M1976.9 185.4C1976.9 195.3 1977.2 205.3 1976.7 215.2C1976.6 217.6 1976.9 222.2 1972.6 221.9C1968.6 221.6 1969.5 217.6 1969.3 214.8C1967.9 189.3 1951.1 169.2 1929.6 167.1C1906.9 164.9 1889.1 173.3 1880.5 190.3C1871.1 208.9 1874.7 233.3 1889.2 249.6C1899.1 260.7 1911.3 269.2 1923.3 277.9C1946 294.4 1966.8 312.9 1976.1 340.3C1990.2 381.7 1987.6 421 1958 455.9C1945.6 470.5 1930 478.6 1910.8 480.7C1888.6 483.1 1866.7 482.2 1845.7 474.2C1832.8 469.3 1831.6 467.4 1831.9 454.1C1832.3 435.3 1833 416.5 1833.6 397.7C1833.6 396.4 1833.6 394.9 1834.1 393.7C1835.1 391.5 1834.7 387.6 1838.7 388.3C1841.7 388.9 1841.6 391.8 1841.6 394.2C1841.7 403.7 1843.4 412.9 1846.2 421.9C1854.4 448 1878.4 463.1 1905.5 459.2C1927.6 456.1 1943.7 435.3 1945.2 409.2C1946.7 382.9 1935.3 363.2 1915.5 347.3C1899.2 334.1 1881.7 322.4 1867.4 306.7C1840.7 277.3 1832.7 243 1842.2 205.1C1850.9 170.6 1882.4 146.4 1918.3 144.7C1935.9 143.9 1953.1 145.9 1970.2 150.6C1976.3 152.3 1978.5 155 1978.1 161.3C1977.5 169.3 1978 177.4 1978 185.5C1977.7 185.4 1977.3 185.4 1976.9 185.4Z" fill="#FEFDFD"/>
<path d="M860.5 185.8C860.5 195.5 860.799 205.2 860.299 214.8C860.199 217.4 860.599 222.5 855.799 221.9C851.999 221.4 853 217.3 852.9 214.5C851.8 192.8 838.7 174.2 820.8 168.7C799.9 162.3 777.5 169.6 766.4 186.4C754.4 204.6 757.1 231.7 772.5 249.2C782.6 260.6 795 269.2 807.2 278.1C829.9 294.6 850.7 313.2 859.9 340.6C873.8 382 871.1 421.3 841.5 456.2C827.6 472.7 809.499 480.2 788.599 481.5C768.099 482.8 747.8 481.5 728.2 473.9C719.1 470.4 714.6 464.9 715.2 454.5C716.4 435.5 716.499 416.3 717.099 397.3C717.199 395.7 717.5 394.1 717.9 392.6C718.5 390.7 718.599 387.9 721.599 388.2C724.799 388.5 725 391.2 725 393.7C725 404 726.899 414 730.099 423.7C738.799 450.1 767 465 794 457.9C814.1 452.5 827.4 433.1 828.7 408.9C830.2 382.6 818.6 363 798.8 347.1C782.9 334.3 765.7 322.9 751.9 307.7C722.1 274.9 713.8 237 729.3 195.8C741.4 163.6 767.8 147.9 801.5 144.9C819 143.3 836.4 146 853.4 150.5C859.6 152.2 862.299 154.9 861.799 161.7C861.099 169.7 861.599 177.8 861.599 185.9C861.199 185.8 860.8 185.8 860.5 185.8Z" fill="#FEFDFD"/>
<path d="M964.5 149.4C979 149.4 993.6 149.4 1008.1 149.4C1011.4 149.4 1015.9 148.6 1016.1 153.6C1016.3 158.3 1011.9 157.4 1008.9 157.9C992.2 160.6 990.1 162.9 988.5 180.1C988 185.4 987.4 190.8 987.4 196.2C987.4 269.6 987.4 343 987.5 416.4C987.5 426.6 988.2 436.8 988.9 447C989.8 461.2 995.4 466.6 1009.6 467.3C1012.8 467.5 1016.1 467.3 1019.3 467.6C1022.1 467.8 1024.8 468.7 1024.8 472.2C1024.8 476.1 1022 477 1018.7 477C1012.2 477 1005.7 477.3 999.3 476.8C976.7 475.3 954.1 474.9 931.5 476.9C927.2 477.3 922.9 477 918.6 477C915.7 477 913.1 476.4 912.8 472.8C912.5 468.8 915.3 467.5 918.5 467.6C937.4 468.2 939.5 460.8 940.1 443C943.1 358.1 941.6 273.1 941.3 188.2C941.3 185.3 940.9 182.3 940.6 179.4C939.3 164.8 934.9 160.1 920.5 158C919.4 157.8 918.4 157.7 917.3 157.7C914.3 157.7 911.6 156.8 911.7 153.5C911.8 150.2 914.8 149.4 917.6 149.4C929.2 149.5 940.8 149.8 952.4 150C956.4 150.1 960.5 150.4 964.5 150.6C964.5 150.2 964.5 149.8 964.5 149.4Z" fill="#FEFDFD"/>
<path d="M2246.8 149.8C2278.8 149.6 2312 147.5 2344.9 153.1C2398.4 162.2 2433.3 193.299 2448.5 244.899C2466.4 305.399 2461.5 363.999 2427.7 418.399C2404.7 455.499 2368.9 472.8 2326.7 478.8C2298.6 482.8 2270.7 478.6 2242.9 476.5C2229.7 475.5 2216.5 475.7 2203.3 476.3C2196 476.7 2188.8 476.9 2181.5 477.1C2178.1 477.2 2174.6 476.999 2174.6 472.399C2174.5 468.399 2177.7 467.599 2180.8 467.699C2199 468.399 2201.1 459.9 2202.3 444.3C2203.6 426.9 2204 409.399 2204 391.899C2204.2 326.299 2204 260.6 2204 195C2204 191.2 2204 187.5 2203.8 183.7C2202.9 166 2197.1 159.999 2179.5 157.899C2175.7 157.499 2168.9 159.8 2169.1 153.7C2169.3 147.3 2176.1 149.599 2180.2 149.399C2202 148.699 2223.8 151.8 2246.8 149.8ZM2251.1 305.2C2251 325.1 2251 344.999 2251 364.899C2251 384.799 2251.3 404.7 2252.5 424.5C2253.5 441.7 2259.2 449.199 2275.4 454.399C2286.6 457.999 2298.2 457.899 2309.8 457.699C2352.4 456.899 2385.7 433.3 2398.1 392.8C2411.9 347.9 2412 302.3 2398.6 257.2C2381.3 198.8 2330.2 166.9 2266 172.3C2253.1 173.4 2251.2 175.8 2251.1 189.1C2251.1 227.8 2251.1 266.5 2251.1 305.2Z" fill="#FEFDFD"/>
<path d="M2591.1 367.3C2578.4 367.3 2565.8 367.4 2553.1 367.3C2549.8 367.3 2547.5 367.7 2546.4 371.4C2539 396.8 2528.9 421.5 2523.7 447.5C2520.7 462.9 2524 467 2539.4 467.7C2542.9 467.9 2547 467.4 2546.9 472.6C2546.9 478 2542.6 477.3 2539.2 477.1C2513.9 475 2488.6 476.5 2463.3 477.2C2459.8 477.3 2455.6 477.7 2455.7 472.6C2455.7 467.7 2459.7 467.5 2463.3 467.7C2478.3 468.4 2487.1 460 2491.9 447.2C2501 422.6 2509.4 397.8 2517.9 373C2542.6 300.6 2567.3 228.1 2592 155.7C2593.7 150.8 2594.4 143.8 2600.7 143.5C2607.9 143.1 2608.7 150.5 2610.4 155.6C2638.4 237.9 2666.3 320.3 2694.3 402.7C2699.5 417.9 2704.2 433.2 2711.7 447.6C2718.1 459.8 2726.2 469 2741.5 468C2744.6 467.8 2747.7 468.7 2747.6 472.7C2747.5 476.8 2744.1 477.2 2741.2 477.2C2714.3 477.2 2687.3 478.1 2660.4 475.9C2658.3 475.7 2655.9 475.9 2655.3 473.1C2654.8 470.5 2656.3 469.1 2658.5 468.3C2663.4 466.4 2663.6 462.8 2662.3 458.5C2653.5 429.8 2644.7 401.2 2636.1 372.5C2634.9 368.6 2632.7 367.7 2629 367.7C2616.4 367.4 2603.7 367.3 2591.1 367.3ZM2626.6 342.9C2615 305 2603.5 267.6 2592.1 230.3C2591.6 230.4 2591 230.5 2590.5 230.7C2578.8 267.9 2567.1 305.2 2555.2 342.9C2579.2 342.9 2602.5 342.9 2626.6 342.9Z" fill="#FEFDFD"/>
<path d="M2843 307.099C2848.4 294.999 2853.2 284.299 2858 273.699C2869.9 247.099 2881.9 220.399 2893.7 193.799C2897 186.399 2899.3 178.799 2899.9 170.599C2900.3 164.499 2898.7 160.099 2892.2 158.399C2889.5 157.699 2886 156.899 2886.7 152.799C2887.4 148.599 2891 149.299 2893.8 149.499C2916.7 150.599 2939.6 150.199 2962.5 149.499C2965.6 149.399 2969.8 148.699 2969.9 153.399C2970 157.099 2966.6 157.499 2963.4 157.999C2950.3 159.899 2940.7 166.999 2933.7 178.099C2914.4 208.799 2899.2 241.699 2883.8 274.399C2854 337.399 2857.8 323.999 2857.8 389.999C2857.8 409.099 2857 428.199 2859.1 447.199C2860.7 461.599 2865.7 466.499 2880.1 467.399C2883.1 467.599 2886 467.499 2889 467.699C2892.4 467.799 2896.1 468.599 2896.1 472.599C2896.1 476.699 2892.4 477.199 2888.9 477.199C2887.3 477.199 2885.7 477.199 2884 477.199C2853.3 476.299 2822.6 474.999 2791.9 477.199C2789.8 477.399 2787.6 477.299 2785.4 477.099C2783 476.899 2781.3 475.599 2781.1 473.099C2780.8 470.199 2782.6 468.599 2785.2 467.999C2786.5 467.699 2787.9 467.699 2789.2 467.599C2803 466.699 2807.9 462.699 2808.8 449.299C2811.1 413.899 2812.1 378.399 2809.1 342.999C2808.3 333.799 2805.4 325.099 2801.5 316.899C2781.2 274.399 2760.3 232.099 2738 190.599C2735.1 185.199 2731.6 179.999 2728.2 174.899C2722.1 165.899 2714 159.499 2702.9 157.899C2699.9 157.499 2697.4 156.499 2697.8 153.099C2698.2 150.299 2700.7 149.499 2703.3 149.499C2704.4 149.499 2705.5 149.399 2706.5 149.499C2732.6 150.599 2758.8 150.499 2784.9 149.599C2787.8 149.499 2791.9 148.199 2792.9 152.799C2793.8 157.499 2789.5 157.799 2786.7 158.699C2781.3 160.599 2779.5 163.999 2781.2 169.299C2782.4 173.099 2783.4 177.099 2785 180.699C2804.1 222.199 2823.2 263.799 2843 307.099Z" fill="#FEFDFD"/>
</svg>
