<svg width="1601" height="338" viewBox="0 0 1601 338" fill="none" xmlns="http://www.w3.org/2000/svg">
<path d="M0 3C0 4.47 15.53 49.88 34.87 103.5C53.92 157.12 72.96 211.92 77.36 225.39L85.56 249.42H120.43H155.59L160.86 236.82C163.79 230.08 191.63 175.29 222.39 114.93C253.16 54.5701 278.36 4.16996 278.36 2.70996C278.36 1.53996 264.3 0.369918 247.01 0.369918H215.36L199.24 34.95C190.45 53.7 169.94 96.7801 153.82 130.18L124.23 191.42L94.34 99.41C77.93 48.72 64.45 5.65004 64.45 3.89004C64.45 1.25004 55.07 0.369918 32.22 0.369918C14.06 0.369918 0 1.54 0 3Z" fill="white"/>
<path d="M1541.25 28.7909V57.5109H1505.21C1472.39 57.8009 1468 58.3909 1451.59 66.0109C1421.12 79.7809 1402.36 105.271 1394.75 142.491C1387.42 177.651 1398.27 216.331 1420.54 234.791C1448.67 257.941 1495.84 258.521 1525.15 235.961L1535.41 228.341V238.891V249.441H1561.49H1587.57L1589.33 219.261C1590.21 202.851 1592.26 155.091 1594.02 113.191C1595.78 71.2909 1598.12 28.8009 1599 18.8409L1600.76 0.380978H1570.87H1541.28V28.7909H1541.25ZM1532.17 99.1109C1538.91 100.871 1538.91 101.161 1536.86 130.171C1534.22 167.381 1528.66 186.431 1516.64 198.441C1504.04 211.041 1489.98 213.681 1473.27 206.061C1456.86 199.031 1450.41 186.431 1450.41 162.401C1450.41 142.481 1457.44 125.771 1470.33 113.761C1484.11 100.581 1512.83 93.8409 1532.17 99.1109Z" fill="white"/>
<path d="M305.899 60.4305C272.499 66.2905 273.379 65.7005 271.319 85.6305C270.149 95.5905 269.849 104.09 270.439 104.68C271.029 105.56 282.159 103.21 294.759 99.7004C325.229 91.2004 357.469 90.6205 365.959 98.2305C381.199 112 369.179 122.55 326.109 133.39C274.249 146.58 256.369 157.12 247.289 180.86C242.889 192.29 242.889 196.39 245.819 208.99C253.149 240.64 271.609 252.36 314.679 252.36C348.959 252.36 349.549 252.07 354.819 231.56C357.459 221.89 358.339 213.39 357.159 212.51C355.989 211.92 348.959 212.8 341.629 214.56C315.259 221.01 293.579 209.29 301.189 192.29C305.289 183.5 314.379 178.81 342.509 170.31C354.229 166.79 365.949 163.28 368.589 162.4C372.399 160.93 372.689 165.04 370.929 195.51C369.759 214.56 367.999 234.77 367.119 239.76L365.649 249.43H395.239H424.829V229.51C424.829 218.67 426.299 184.09 428.349 152.74C431.279 100.88 431.279 94.7204 426.879 85.3504C420.729 72.7504 407.249 63.0803 389.669 59.2703C372.129 55.1603 331.399 55.7505 305.899 60.4305Z" fill="white"/>
<path d="M543.25 60.1404C536.51 62.1904 526.26 67.7604 520.39 72.1504L509.84 80.0603L511.6 70.9805L513.65 61.9004H484.35H455.05L453 107.9C451.24 147.16 447.14 214.26 444.5 240.64L443.91 247.97L473.5 248.85L503.09 249.73L505.14 204.9C508.07 135.46 514.81 117 540.89 107.03C553.2 102.34 555.54 102.34 566.38 106.15C590.7 114.65 592.17 120.8 588.06 201.67L585.72 249.43H614.73H644.03L646.08 177.64C647.25 138.08 647.55 101.75 646.37 96.7703C643.73 83.5803 634.06 71.2804 620.29 64.2504C604.78 56.3304 561.71 53.9904 543.25 60.1404Z" fill="white"/>
<path d="M741.319 59.2604C707.919 65.7104 676.859 91.7804 664.839 122.84C657.219 142.76 655.759 179.39 661.909 200.2C666.889 217.19 682.419 235.95 698.539 244.15C713.779 252.06 745.129 254.41 763.299 249.42C770.629 247.37 782.049 241.8 788.789 237.11L800.799 228.32L798.459 245.61C795.529 269.05 790.259 280.48 778.829 287.22C760.659 298.35 746.599 298.06 682.139 285.46L674.229 283.99L675.989 305.38C676.869 317.39 678.919 327.94 680.679 328.82C685.659 332.34 733.719 337.32 760.379 337.32C793.199 337.32 816.639 330.87 831.579 317.98C850.919 301.57 852.969 292.19 855.899 214.25C857.369 176.45 859.709 127.81 861.469 106.13C863.229 84.7405 864.109 66.2804 863.229 65.6904C862.639 65.1004 850.339 62.4703 836.269 60.1203C807.839 55.7503 762.129 55.1604 741.319 59.2604ZM794.939 100.28L806.069 103.21L804.309 127.24C800.499 177.93 792.879 196.39 772.369 205.77C757.429 212.51 751.569 212.51 736.619 205.77C721.379 198.74 714.939 185.85 714.939 162.4C715.229 132.81 730.759 109.36 756.259 101.45C772.089 96.4704 780.589 96.1805 794.939 100.28Z" fill="white"/>
<path d="M1135.13 60.4305C1101.73 66.2905 1102.61 65.7005 1100.55 85.6305C1099.38 95.5905 1099.08 104.09 1099.67 104.68C1100.26 105.56 1111.39 103.21 1123.99 99.7004C1154.46 91.2004 1186.7 90.6205 1195.19 98.2305C1210.43 112 1198.41 122.55 1155.34 133.39C1103.48 146.58 1085.6 157.12 1076.52 180.86C1072.12 192.29 1072.12 196.39 1075.05 208.99C1082.38 240.64 1100.84 252.36 1143.91 252.36C1178.19 252.36 1178.78 252.07 1184.05 231.56C1186.69 221.89 1187.57 213.39 1186.39 212.51C1185.22 211.92 1178.19 212.8 1170.86 214.56C1144.49 221.01 1122.81 209.29 1130.42 192.29C1134.52 183.5 1143.61 178.81 1171.74 170.31C1183.46 166.79 1195.18 163.28 1197.82 162.4C1201.63 160.93 1201.92 165.04 1200.16 195.51C1198.99 214.56 1197.23 234.77 1196.35 239.76L1194.88 249.43H1224.47H1254.06V229.51C1254.06 218.67 1255.53 184.09 1257.58 152.74C1260.51 100.88 1260.51 94.7204 1256.11 85.3504C1249.96 72.7504 1236.48 63.0803 1218.9 59.2703C1201.36 55.1603 1160.63 55.7505 1135.13 60.4305Z" fill="white"/>
<path d="M1359.88 58.9699C1356.07 60.7299 1349.33 64.54 1344.64 68.05L1336.14 73.91V68.05C1336.14 62.19 1334.38 61.9 1308.89 61.9H1281.35L1279.59 131.34C1278.42 169.72 1276.66 211.92 1275.78 225.1L1273.73 249.42H1303.03H1332.62L1333.79 195.8C1335.26 139.25 1337.01 130.46 1349.91 116.98C1361.04 105.26 1375.11 101.45 1389.17 105.85C1395.62 107.9 1401.18 109.07 1402.06 108.49C1402.65 107.61 1402.35 95.89 1401.18 82.41L1399.13 57.5L1383.01 56.91C1374.23 56.62 1363.68 57.4999 1359.88 58.9699Z" fill="white"/>
<path d="M880.799 77.1408C879.919 85.6408 878.459 119.631 877.279 152.741C875.519 205.191 875.809 214.271 880.209 222.181C891.339 243.861 917.419 254.121 954.929 251.481C978.079 250.011 992.139 245.031 1004.16 233.901L1010.61 228.041L1008.85 238.881L1007.09 249.431H1035.22H1063.06L1064.82 222.471C1067.16 180.571 1072.44 75.9608 1072.44 68.3408C1072.44 62.1908 1071.56 61.8908 1044.6 61.8908C1024.38 61.8908 1016.76 62.7708 1016.76 65.4108C1016.47 67.4608 1015.29 90.9007 1013.83 117.271C1010.9 169.431 1006.21 185.841 990.099 197.561C978.969 205.471 961.679 206.941 949.369 200.491C931.789 191.411 930.319 184.961 934.429 129.581C936.189 102.921 937.649 76.5407 937.649 71.2707V61.8908H910.099H882.559L880.799 77.1408Z" fill="white"/>
</svg>
