<svg width="229" height="82" viewBox="0 0 229 82" fill="none" xmlns="http://www.w3.org/2000/svg">
<g clip-path="url(#clip0_433_7019)">
<path d="M81.132 41.0123C81.132 63.1733 63.1694 81.1575 40.9868 81.1575C18.8258 81.1359 0.863281 63.1733 0.863281 41.0123C0.863281 18.8514 18.8258 0.867188 41.0084 0.867188C63.1694 0.867188 81.132 18.8297 81.132 41.0123Z" fill="#E8F0FC" fill-opacity="0.32"/>
<path d="M41.0108 82C18.3954 82 0 63.6046 0 41.0108C0 18.3954 18.3954 0 41.0108 0C63.6263 0 82.0216 18.3954 82.0216 41.0108C82 63.6046 63.6046 82 41.0108 82ZM41.0108 1.73133C19.3476 1.73133 1.73133 19.3476 1.73133 41.0108C1.73133 62.6741 19.3476 80.2903 41.0108 80.2903C62.6741 80.2903 80.2903 62.6741 80.2903 41.0108C80.2687 19.3476 62.6524 1.73133 41.0108 1.73133Z" fill="white"/>
<path d="M41.0094 66.5052C26.964 66.5052 15.5156 55.0784 15.5156 41.0114C15.5156 26.9443 26.9424 15.5176 41.0094 15.5176C55.0765 15.5176 66.5032 26.9443 66.5032 41.0114C66.4816 55.0568 55.0548 66.5052 41.0094 66.5052ZM41.0094 16.1668C27.3103 16.1668 16.1649 27.3122 16.1649 41.0114C16.1649 54.7105 27.3103 65.8559 41.0094 65.8559C54.7086 65.8559 65.854 54.7105 65.854 41.0114C65.8323 27.3122 54.7086 16.1668 41.0094 16.1668Z" fill="white"/>
<path d="M41.0138 79.2073C19.9565 79.2073 2.81641 62.0672 2.81641 41.0099C2.81641 19.9526 19.9565 2.8125 41.0138 2.8125C62.0711 2.8125 79.2112 19.9526 79.2112 41.0099C79.2112 62.0672 62.0711 79.2073 41.0138 79.2073ZM41.0138 3.65652C20.4327 3.65652 3.68207 20.4071 3.68207 40.9883C3.68207 61.5694 20.4327 78.32 41.0138 78.32C61.595 78.32 78.3456 61.5694 78.3456 40.9883C78.3456 20.4071 61.595 3.65652 41.0138 3.65652Z" fill="white"/>
<path d="M40.9515 63.9088C28.3344 63.9088 18.0547 53.6291 18.0547 41.012C18.0547 28.395 28.3344 18.1152 40.9515 18.1152C53.5685 18.1152 63.8483 28.395 63.8483 41.012C63.8483 53.6291 53.5902 63.9088 40.9515 63.9088ZM40.9515 18.7645C28.6807 18.7645 18.7039 28.7413 18.7039 41.012C18.7039 53.2828 28.6807 63.2596 40.9515 63.2596C53.2223 63.2596 63.1991 53.2828 63.1991 41.012C63.1991 28.7413 53.2223 18.7645 40.9515 18.7645Z" fill="white"/>
<path d="M71.7008 36.4863L72.35 37.8065L73.8217 38.0012L72.7612 39.04L72.9993 40.49L71.7008 39.7975L70.4023 40.49L70.662 39.04L69.6016 38.0012L71.0515 37.8065L71.7008 36.4863Z" fill="white"/>
<path d="M67.9607 54.8184L68.61 56.1385L70.06 56.3549L68.9995 57.3721L69.2592 58.8221L67.9607 58.1512L66.6406 58.8221L66.9003 57.3721L65.8398 56.3549L67.2898 56.1385L67.9607 54.8184Z" fill="white"/>
<path d="M70.986 45.9277L71.6352 47.2479L73.0852 47.4643L72.0464 48.4814L72.2845 49.9314L70.986 49.2605L69.6875 49.9314L69.9255 48.4814L68.8867 47.4643L70.3367 47.2479L70.986 45.9277Z" fill="white"/>
<path d="M10.0037 36.4648L9.35444 37.785L7.88281 38.0014L8.94325 39.0402L8.70519 40.4902L10.0037 39.7976L11.3022 40.4902L11.0425 39.0402L12.1029 38.0014L10.6529 37.785L10.0037 36.4648Z" fill="white"/>
<path d="M14.4625 54.7109L13.8133 56.0311L12.3633 56.2475L13.4237 57.2646L13.164 58.7146L14.4625 58.0437L15.761 58.7146L15.523 57.2646L16.5834 56.2475L15.1118 56.0311L14.4625 54.7109Z" fill="white"/>
<path d="M10.7342 45.8594L10.0849 47.1795L8.61328 47.3959L9.67372 48.4347L9.43566 49.8847L10.7342 49.1922L12.0327 49.8847L11.773 48.4347L12.8334 47.3959L11.3834 47.1795L10.7342 45.8594Z" fill="white"/>
<path d="M55.2709 37.3913H27.6562V35.5301L41.4636 25.4668L55.2709 35.5301V37.3913Z" fill="white"/>
<path d="M54.0204 36.2676H28.8945V38.3885H54.0204V36.2676Z" fill="white"/>
<path d="M54.02 51.9805H28.418V53.5603H54.02V51.9805Z" fill="white"/>
<path d="M55.2588 53.5371H27.168V55.0087H55.2588V53.5371Z" fill="white"/>
<path d="M34.1272 38.7832H30.0586V39.7138H34.1272V38.7832Z" fill="white"/>
<path d="M34.1272 50.6836H30.0586V51.6142H34.1272V50.6836Z" fill="white"/>
<path d="M33.6991 39.2324H30.4961V50.7457H33.6991V39.2324Z" fill="white"/>
<path d="M43.5257 38.7832H39.457V39.7138H43.5257V38.7832Z" fill="white"/>
<path d="M43.5257 50.6836H39.457V51.6142H43.5257V50.6836Z" fill="white"/>
<path d="M43.0936 39.2324H39.8906V50.7457H43.0936V39.2324Z" fill="white"/>
<path d="M52.9163 38.7832H48.8477V39.7138H52.9163V38.7832Z" fill="white"/>
<path d="M52.9163 50.6836H48.8477V51.6142H52.9163V50.6836Z" fill="white"/>
<path d="M52.4803 39.2363H49.2773V50.7497H52.4803V39.2363Z" fill="white"/>
<path d="M25.3831 34.2584C24.9502 35.6002 23.5652 36.3793 23.5652 36.3793C23.5652 36.3793 22.851 34.9509 23.2838 33.6092C23.7166 32.2457 25.1017 31.4883 25.1017 31.4883C25.1017 31.4883 25.7942 32.9166 25.3831 34.2584Z" fill="white"/>
<path d="M25.5763 38.6315C24.4509 39.4971 22.8711 39.3456 22.8711 39.3456C22.8711 39.3456 23.1092 37.7658 24.2129 36.9001C25.3382 36.0345 26.9181 36.186 26.9181 36.186C26.9181 36.186 26.7017 37.7442 25.5763 38.6315Z" fill="white"/>
<path d="M20.6606 37.614C21.3315 38.8692 22.8248 39.367 22.8248 39.367C22.8248 39.367 23.2576 37.8304 22.5867 36.5752C21.9158 35.32 20.4225 34.8223 20.4225 34.8223C20.4225 34.8223 19.9897 36.3588 20.6606 37.614Z" fill="white"/>
<path d="M25.4489 41.4855C24.3884 42.4377 22.8086 42.3944 22.8086 42.3944C22.8086 42.3944 22.9168 40.8146 23.9772 39.8624C25.0377 38.9101 26.6175 38.9534 26.6175 38.9534C26.6175 38.9534 26.5093 40.5333 25.4489 41.4855Z" fill="white"/>
<path d="M20.4668 40.8383C21.2243 42.0286 22.7608 42.4182 22.7608 42.4182C22.7608 42.4182 23.0855 40.86 22.328 39.6697C21.5705 38.4794 20.034 38.0898 20.034 38.0898C20.034 38.0898 19.7094 39.6264 20.4668 40.8383Z" fill="white"/>
<path d="M25.6403 44.2988C24.7097 45.3592 23.1299 45.4891 23.1299 45.4891C23.1299 45.4891 23.065 43.9092 23.9955 42.8272C24.9261 41.7667 26.506 41.6152 26.506 41.6152C26.506 41.6152 26.5925 43.2384 25.6403 44.2988Z" fill="white"/>
<path d="M20.6196 44.2343C21.5069 45.3381 23.0867 45.5545 23.0867 45.5545C23.0867 45.5545 23.2166 43.9746 22.3293 42.8709C21.442 41.7672 19.8621 41.5508 19.8621 41.5508C19.8621 41.5508 19.7323 43.109 20.6196 44.2343Z" fill="white"/>
<path d="M26.6122 47.2429C25.9414 48.4982 24.4264 48.9959 24.4264 48.9959C24.4264 48.9959 23.9936 47.4594 24.6645 46.2041C25.3354 44.9489 26.8503 44.4512 26.8503 44.4512C26.8503 44.4512 27.2831 46.0094 26.6122 47.2429Z" fill="white"/>
<path d="M21.7207 48.3248C22.846 49.1905 24.4259 49.039 24.4259 49.039C24.4259 49.039 24.1878 47.4592 23.0841 46.5935C21.9587 45.7278 20.3789 45.8793 20.3789 45.8793C20.3789 45.8793 20.5953 47.4592 21.7207 48.3248Z" fill="white"/>
<path d="M28.2199 49.776C27.7871 51.1178 26.402 51.8969 26.402 51.8969C26.402 51.8969 25.7095 50.4685 26.1423 49.1267C26.5751 47.785 27.9602 47.0059 27.9602 47.0059C27.9602 47.0059 28.6527 48.4342 28.2199 49.776Z" fill="white"/>
<path d="M23.591 51.7235C24.8462 52.3727 26.3828 51.9399 26.3828 51.9399C26.3828 51.9399 25.8634 50.425 24.6082 49.7757C23.353 49.1265 21.8164 49.5593 21.8164 49.5593C21.8164 49.5593 22.3142 51.0742 23.591 51.7235Z" fill="white"/>
<path d="M27.6311 53.2819C27.6095 53.2819 27.6095 53.2603 27.5878 53.2603C26.3976 52.4812 24.6013 50.4252 23.4976 47.2656C22.6103 44.7551 21.9177 40.7298 23.5625 35.7739C23.5841 35.6873 23.6924 35.644 23.7789 35.6657C23.8655 35.6873 23.9088 35.7955 23.8871 35.8821C21.0954 44.3007 25.0341 51.1611 27.7826 52.9573C27.8692 53.0006 27.8908 53.1088 27.8259 53.1954C27.7826 53.2819 27.7177 53.3036 27.6311 53.2819Z" fill="white"/>
<path d="M56.9156 34.2584C57.3484 35.6002 58.7335 36.3793 58.7335 36.3793C58.7335 36.3793 59.4476 34.9509 59.0148 33.6092C58.582 32.2457 57.1969 31.4883 57.1969 31.4883C57.1969 31.4883 56.5044 32.9166 56.9156 34.2584Z" fill="white"/>
<path d="M56.7168 38.6315C57.8421 39.4971 59.422 39.3456 59.422 39.3456C59.422 39.3456 59.1839 37.7658 58.0802 36.9001C56.9548 36.0345 55.375 36.186 55.375 36.186C55.375 36.186 55.5914 37.7442 56.7168 38.6315Z" fill="white"/>
<path d="M61.6297 37.614C60.9588 38.8692 59.4655 39.367 59.4655 39.367C59.4655 39.367 59.0327 37.8304 59.7036 36.5752C60.3745 35.32 61.8677 34.8223 61.8677 34.8223C61.8677 34.8223 62.3006 36.3588 61.6297 37.614Z" fill="white"/>
<path d="M56.8483 41.4855C57.9088 42.4377 59.4886 42.3944 59.4886 42.3944C59.4886 42.3944 59.3804 40.8146 58.32 39.8624C57.2595 38.9101 55.6797 38.9534 55.6797 38.9534C55.6797 38.9534 55.8095 40.5333 56.8483 41.4855Z" fill="white"/>
<path d="M61.8514 40.8383C61.094 42.0286 59.5574 42.4182 59.5574 42.4182C59.5574 42.4182 59.2328 40.86 59.9903 39.6697C60.7477 38.4794 62.2843 38.0898 62.2843 38.0898C62.2843 38.0898 62.5873 39.6264 61.8514 40.8383Z" fill="white"/>
<path d="M56.6518 44.2988C57.5824 45.3592 59.1622 45.4891 59.1622 45.4891C59.1622 45.4891 59.2271 43.9092 58.2966 42.8272C57.366 41.7667 55.7861 41.6152 55.7861 41.6152C55.7861 41.6152 55.7212 43.2384 56.6518 44.2988Z" fill="white"/>
<path d="M61.6769 44.2343C60.7896 45.3381 59.2098 45.5545 59.2098 45.5545C59.2098 45.5545 59.0799 43.9746 59.9672 42.8709C60.8545 41.7672 62.4344 41.5508 62.4344 41.5508C62.4344 41.5508 62.5642 43.109 61.6769 44.2343Z" fill="white"/>
<path d="M55.6801 47.2429C56.351 48.4982 57.8659 48.9959 57.8659 48.9959C57.8659 48.9959 58.2988 47.4594 57.6279 46.2041C56.957 44.9489 55.4421 44.4512 55.4421 44.4512C55.4421 44.4512 55.0092 46.0094 55.6801 47.2429Z" fill="white"/>
<path d="M60.5919 48.3248C59.4666 49.1905 57.8867 49.039 57.8867 49.039C57.8867 49.039 58.1248 47.4592 59.2285 46.5935C60.3539 45.7278 61.9337 45.8793 61.9337 45.8793C61.9337 45.8793 61.6956 47.4592 60.5919 48.3248Z" fill="white"/>
<path d="M54.0993 49.776C54.5322 51.1178 55.9172 51.8969 55.9172 51.8969C55.9172 51.8969 56.6098 50.4685 56.1769 49.1267C55.7441 47.785 54.359 47.0059 54.359 47.0059C54.359 47.0059 53.6665 48.4342 54.0993 49.776Z" fill="white"/>
<path d="M58.7332 51.7235C57.478 52.3727 55.9414 51.9399 55.9414 51.9399C55.9414 51.9399 56.4608 50.425 57.716 49.7757C58.9712 49.1265 60.5078 49.5593 60.5078 49.5593C60.5078 49.5593 59.9884 51.0742 58.7332 51.7235Z" fill="white"/>
<path d="M54.6622 53.2819C54.6839 53.2819 54.6839 53.2603 54.7055 53.2603C55.8958 52.4812 57.692 50.4252 58.7958 47.2656C59.6831 44.7551 60.3756 40.7298 58.7308 35.7739C58.7092 35.6873 58.601 35.644 58.5144 35.6657C58.4278 35.6873 58.3846 35.7955 58.4062 35.8821C61.198 44.3007 57.2592 51.1611 54.5107 52.9573C54.4242 53.0006 54.4025 53.1088 54.4674 53.1954C54.5107 53.2819 54.5973 53.3036 54.6622 53.2819Z" fill="white"/>
<path d="M9.13281 31.8124L9.30595 31.2714L12.141 32.1587L12.5738 30.752L13.0499 30.9034L12.444 32.8512L9.13281 31.8124Z" fill="white"/>
<path d="M10.818 27.1797L13.9993 28.5864L13.7829 29.1058L10.6016 27.6991L10.818 27.1797Z" fill="white"/>
<path d="M13.0725 23.0039L13.5053 23.2636L12.6829 24.6703L13.5486 25.1897L14.2411 24.0427L14.674 24.3024L13.9814 25.4494L15.2583 26.2069L14.9769 26.683L11.9688 24.8867L13.0725 23.0039Z" fill="white"/>
<path d="M15.8833 19.2598L16.2728 19.5844L15.2124 20.8829L15.9698 21.4889L16.8355 20.4068L17.225 20.7098L16.3594 21.7918L17.1385 22.4194L18.2206 21.0777L18.6101 21.4023L17.1601 23.1769L14.4766 21.0127L15.8833 19.2598Z" fill="white"/>
<path d="M18.1549 17.1829C18.2414 16.9015 18.4146 16.6635 18.6526 16.4254C18.8474 16.2523 19.0422 16.1441 19.2802 16.0792C19.4967 16.0142 19.7131 16.0142 19.9511 16.0575C20.1675 16.1008 20.384 16.209 20.5571 16.3605L20.1243 16.75C19.9295 16.6202 19.7347 16.5553 19.5399 16.5769C19.3452 16.5985 19.1504 16.6851 18.9773 16.8366C18.8258 16.9881 18.7176 17.1396 18.6743 17.3344C18.631 17.5291 18.631 17.7239 18.6959 17.9187C18.7608 18.1135 18.869 18.3082 19.0422 18.503C19.2153 18.6761 19.3884 18.8276 19.5832 18.9142C19.778 19.0008 19.9728 19.0224 20.1675 19.0008C20.3623 18.9791 20.5354 18.8926 20.6869 18.7411C20.8601 18.5896 20.9683 18.3948 20.9899 18.2C21.0332 18.0053 20.9899 17.7888 20.8817 17.5941L21.2929 17.2262C21.4228 17.4426 21.5093 17.6373 21.531 17.8754C21.5526 18.0918 21.531 18.3082 21.4444 18.5247C21.3578 18.7411 21.228 18.9358 21.0332 19.109C20.7951 19.3254 20.5138 19.4769 20.2325 19.5418C19.9511 19.6067 19.6698 19.5851 19.3884 19.4769C19.1071 19.3687 18.8474 19.1739 18.6093 18.9142C18.3713 18.6545 18.2198 18.3732 18.1332 18.0918C18.0467 17.8105 18.0683 17.4642 18.1549 17.1829Z" fill="white"/>
<path d="M22.5078 13.5027L23.0705 13.1348L26.0354 15.3638L25.5376 15.6885L24.8018 15.1474L23.6115 15.9049L23.8063 16.7922L23.3086 17.1168L22.5078 13.5027ZM24.4123 14.8228L23.1354 13.8489L23.5033 15.4288L24.4123 14.8228Z" fill="white"/>
<path d="M28.1364 10.6675C28.3312 10.6892 28.526 10.7324 28.6775 10.8623C28.8289 10.9705 28.9588 11.1436 29.0454 11.3384C29.1319 11.5548 29.1752 11.7712 29.1319 11.966C29.0886 12.1824 29.0021 12.3556 28.8289 12.5071L30.0625 13.4809L29.4998 13.7406L28.3961 12.8533L27.7036 13.1563L28.223 14.3033L27.7036 14.5197L26.2969 11.3384L27.5304 10.7974C27.7252 10.6892 27.9416 10.6459 28.1364 10.6675ZM28.1581 12.3772C28.3528 12.2906 28.461 12.1824 28.526 12.0309C28.5909 11.8794 28.5909 11.728 28.5043 11.5548C28.4178 11.3817 28.3095 11.2735 28.1581 11.2302C28.0066 11.1869 27.8334 11.1869 27.6387 11.2735L26.9678 11.5765L27.4655 12.7018L28.1581 12.3772Z" fill="white"/>
<path d="M32.0469 9.19683C32.3932 9.11026 32.6962 9.11026 32.9775 9.17519C33.2589 9.24011 33.5186 9.3916 33.7133 9.60802C33.9081 9.82443 34.0596 10.1058 34.1462 10.4304C34.2327 10.755 34.2327 11.0796 34.1678 11.361C34.1029 11.6423 33.9514 11.902 33.735 12.1184C33.5185 12.3349 33.2372 12.4647 32.9126 12.5729L31.8521 12.8543L30.9648 9.47817L32.0469 9.19683ZM33.5402 11.5341C33.67 11.2744 33.6917 10.9498 33.6051 10.5819C33.4969 10.214 33.3238 9.95428 33.0857 9.78115C32.826 9.60802 32.523 9.58638 32.1768 9.67294L31.6574 9.80279L32.285 12.205L32.8044 12.0752C33.1723 11.9886 33.4103 11.7938 33.5402 11.5341Z" fill="white"/>
<path d="M39.883 10.04C39.883 10.3646 39.9479 10.6243 40.0778 10.7758C40.2076 10.9273 40.4024 11.0139 40.6621 11.0139C40.9434 11.0139 41.1382 10.9273 41.2681 10.7758C41.3979 10.6027 41.4628 10.3646 41.4628 10.04V8.02734H42.0255V10.0184C42.0255 10.5161 41.9173 10.884 41.6792 11.1437C41.4412 11.4034 41.1166 11.5333 40.6621 11.5333C40.2293 11.5333 39.883 11.4034 39.6666 11.1437C39.4285 10.884 39.3203 10.5161 39.3203 10.0184V8.02734H39.883V10.04Z" fill="white"/>
<path d="M44.6504 8.22266L45.1482 8.30922L46.4034 11.0144L46.7929 8.56892L47.334 8.65549L46.7929 12.0965L46.2952 12.0099L45.04 9.30474L44.6504 11.7502L44.1094 11.6637L44.6504 8.22266Z" fill="white"/>
<path d="M50.4037 9.4329L49.4082 12.7657L48.8672 12.5926L49.8843 9.25977L50.4037 9.4329Z" fill="white"/>
<path d="M53.1036 10.3434L52.8872 13.2866L54.8566 11.0792L55.3976 11.3172L52.9089 14.0657L52.2812 13.806L52.5409 10.127L53.1036 10.3434Z" fill="white"/>
<path d="M59.3609 13.5923L59.1012 14.0251L57.6728 13.1595L57.1751 13.9819L58.3437 14.696L58.084 15.1072L56.9154 14.3931L56.396 15.2587L57.8676 16.1677L57.6079 16.6005L55.6602 15.4102L57.478 12.4453L59.3609 13.5923Z" fill="white"/>
<path d="M62.8236 16.4456C62.9102 16.6404 62.9318 16.8135 62.8885 17.0083C62.8669 17.2031 62.7803 17.3762 62.6288 17.5493C62.4773 17.7225 62.3042 17.8523 62.0878 17.8956C61.8714 17.9605 61.6766 17.9389 61.4818 17.874L61.1356 19.4105L60.6594 18.9993L60.9841 17.6143L60.3997 17.1165L59.5774 18.0904L59.1445 17.7225L61.3953 15.0605L62.4341 15.9262C62.6288 16.0993 62.7587 16.2508 62.8236 16.4456ZM61.3087 17.2247C61.4602 17.3546 61.6333 17.4195 61.7848 17.3978C61.9363 17.3762 62.0878 17.3113 62.2176 17.1814C62.3475 17.0299 62.3908 16.8784 62.3691 16.727C62.3475 16.5755 62.2609 16.424 62.1094 16.2941L61.5467 15.818L60.7677 16.7486L61.3087 17.2247Z" fill="white"/>
<path d="M63.4293 20.8388C63.4293 21.0336 63.5158 21.2284 63.6673 21.4015C63.7972 21.553 63.9487 21.6612 64.1002 21.6829C64.2516 21.7261 64.3815 21.6829 64.5113 21.5746C64.5979 21.4881 64.6412 21.4015 64.6412 21.3149C64.6412 21.2067 64.6196 21.1202 64.5763 20.9903C64.533 20.8821 64.4464 20.7306 64.3166 20.5359C64.2084 20.3411 64.1218 20.1679 64.0569 19.9948C63.9919 19.8433 63.9919 19.6702 64.0136 19.5187C64.0352 19.3672 64.1434 19.1941 64.3166 19.0642C64.4681 18.9344 64.6412 18.8478 64.8143 18.8262C65.0091 18.8045 65.1822 18.8262 65.377 18.9127C65.5718 18.9993 65.7449 19.1291 65.8964 19.3023C66.0479 19.4754 66.1777 19.6702 66.221 19.8866C66.286 20.103 66.286 20.2978 66.2427 20.4926C66.1994 20.6873 66.0912 20.8605 65.9397 20.9903L65.5718 20.5791C65.7016 20.4493 65.7449 20.2978 65.7449 20.1247C65.7449 19.9515 65.6583 19.7784 65.5285 19.6269C65.3986 19.4754 65.2688 19.3888 65.1173 19.3456C64.9658 19.3239 64.836 19.3456 64.7278 19.4538C64.6412 19.5187 64.5979 19.6053 64.5979 19.7135C64.5979 19.8 64.6196 19.9082 64.6628 20.0165C64.7061 20.1247 64.7927 20.2762 64.9225 20.4709C65.0307 20.6657 65.1173 20.8388 65.1822 21.012C65.2472 21.1851 65.2472 21.3366 65.2255 21.5097C65.2039 21.6612 65.0957 21.8127 64.9442 21.9642C64.7927 22.094 64.6196 22.1806 64.4248 22.2023C64.23 22.2239 64.0352 22.2023 63.8405 22.1157C63.6457 22.0291 63.4725 21.8993 63.2994 21.7045C63.1263 21.5097 62.9964 21.2933 62.9315 21.0769C62.8666 20.8605 62.8666 20.6441 62.9315 20.4493C62.9964 20.2545 63.1046 20.0597 63.2778 19.9082L63.6457 20.3194C63.4942 20.4709 63.4293 20.6441 63.4293 20.8388Z" fill="white"/>
<path d="M68.5428 22.767L65.6645 24.7364L65.3398 24.2819L68.2182 22.3125L68.5428 22.767Z" fill="white"/>
<path d="M71.0475 27.1148L70.593 27.3529L70.0953 26.4223L67.455 27.8073L67.1953 27.3096L69.8356 25.9245L69.3378 24.9939L69.7923 24.7559L71.0475 27.1148Z" fill="white"/>
<path d="M72.1299 29.7564L70.8963 31.1198L72.7142 31.4877L72.909 32.0936L70.4202 31.5959L69.2083 32.0071L69.0352 31.466L70.2471 31.0549L71.9135 29.1504L72.1299 29.7564Z" fill="white"/>
<path d="M25.5613 65.5742L25.2584 65.9854L23.8949 64.9899L23.3323 65.769L24.4576 66.5914L24.1763 66.9809L23.0509 66.1585L22.445 66.9809L23.8733 68.0197L23.5703 68.4309L21.6875 67.0458L23.7435 64.2324L25.5613 65.5742Z" fill="white"/>
<path d="M27.3614 69.8796C27.448 70.0527 27.5995 70.2042 27.8159 70.3124C28.0106 70.399 28.1838 70.4422 28.3353 70.4206C28.4868 70.399 28.6166 70.3124 28.6815 70.1609C28.7248 70.0527 28.7465 69.9661 28.7032 69.8579C28.6599 69.7714 28.595 69.6848 28.5084 69.5982C28.4218 69.5117 28.2703 69.4035 28.0972 69.2736C27.9024 69.1438 27.7509 69.0139 27.6427 68.8841C27.5345 68.7542 27.448 68.6027 27.4263 68.4512C27.383 68.2781 27.4263 68.105 27.5129 67.9102C27.5995 67.737 27.7293 67.5856 27.8808 67.499C28.0323 67.4124 28.2271 67.3691 28.4435 67.3691C28.6599 67.3691 28.8547 67.4341 29.0711 67.5423C29.2875 67.6505 29.4823 67.7803 29.6121 67.9535C29.742 68.1266 29.8285 68.2997 29.8718 68.4945C29.9151 68.6893 29.8718 68.8841 29.7853 69.0788L29.2875 68.8408C29.3524 68.6676 29.3308 68.5161 29.2659 68.343C29.2009 68.1915 29.0494 68.0617 28.8763 67.9751C28.7032 67.8885 28.53 67.8453 28.3786 67.8885C28.2271 67.9102 28.1189 67.9967 28.0539 68.1482C28.0106 68.2564 27.989 68.343 28.0323 68.4296C28.0756 68.5162 28.1405 68.6027 28.2271 68.6893C28.3136 68.7758 28.4651 68.8841 28.6383 69.0139C28.833 69.1438 28.9845 69.2736 29.0927 69.4035C29.2009 69.5333 29.2875 69.6848 29.3308 69.8363C29.3741 69.9878 29.3308 70.1826 29.2442 70.3557C29.1577 70.5505 29.0278 70.6803 28.8547 70.7885C28.6815 70.8967 28.4868 70.94 28.2703 70.94C28.0539 70.94 27.8375 70.8751 27.6211 70.7669C27.383 70.637 27.1666 70.5072 27.0368 70.3124C26.9069 70.1176 26.7987 69.9445 26.7771 69.7281C26.7554 69.5117 26.7771 69.3169 26.8853 69.1005L27.383 69.3602C27.2748 69.5117 27.2748 69.7064 27.3614 69.8796Z" fill="white"/>
<path d="M35.1704 69.7298L35.0405 70.2276L34.0017 69.9462L33.201 72.8245L32.6599 72.6731L33.4607 69.7947L32.4219 69.5134L32.5517 69.0156L35.1704 69.7298Z" fill="white"/>
<path d="M37.3078 72.9531C37.416 72.9748 37.481 73.0181 37.5459 73.083C37.6108 73.1479 37.6324 73.2345 37.6108 73.3427C37.5892 73.4509 37.5459 73.5158 37.481 73.5807C37.416 73.624 37.3295 73.6457 37.2213 73.6457C37.113 73.624 37.0481 73.5807 36.9832 73.5158C36.9183 73.4509 36.8966 73.3643 36.9183 73.2561C36.9399 73.1479 36.9832 73.083 37.0481 73.018C37.1347 72.9748 37.2213 72.9531 37.3078 72.9531Z" fill="white"/>
<path d="M42.5051 71.8486C42.5916 71.7187 42.6349 71.5672 42.6349 71.4157C42.6349 71.221 42.57 71.0695 42.4402 70.9613C42.3103 70.8531 42.1588 70.8098 41.9424 70.8098C41.7476 70.8098 41.5745 70.8747 41.4663 71.0046C41.3581 71.1344 41.2932 71.3075 41.2932 71.524V71.5889L40.7305 71.6105V71.524C40.7305 71.3075 40.7738 71.1128 40.8603 70.9396C40.9685 70.7665 41.0984 70.6366 41.2715 70.5284C41.4446 70.4202 41.6611 70.377 41.8991 70.377C42.2887 70.377 42.5916 70.4635 42.8081 70.6583C43.0245 70.8531 43.1327 71.1128 43.1543 71.4374C43.1543 71.6754 43.111 71.8702 42.9812 72.065C42.8513 72.2381 42.6782 72.4329 42.4402 72.6493L41.5312 73.4284L43.2193 73.3851V73.8612L40.7521 73.9045V73.4717L42.0722 72.3031C42.2887 72.1299 42.4185 72.0001 42.5051 71.8486Z" fill="white"/>
<path d="M46.1862 70.81C46.2511 70.5286 46.3593 70.3122 46.5325 70.1174C46.7056 69.9443 46.922 69.8145 47.1817 69.7712C47.4414 69.7279 47.6795 69.7279 47.9175 69.8361C48.1556 69.9227 48.3503 70.0958 48.5235 70.3122C48.6966 70.5286 48.8048 70.81 48.8697 71.1346L48.913 71.2861C48.978 71.6324 48.978 71.9353 48.9347 72.195C48.8697 72.4764 48.7615 72.6928 48.5884 72.8659C48.4153 73.0391 48.1989 73.1473 47.9392 73.2122C47.6795 73.2771 47.4198 73.2555 47.2033 73.1689C46.9869 73.0823 46.7705 72.9092 46.619 72.6928C46.4459 72.4764 46.3377 72.1734 46.2728 71.8488L46.2295 71.6973C46.1429 71.3727 46.1213 71.0697 46.1862 70.81ZM47.3116 70.2257C47.0735 70.2689 46.9004 70.4204 46.7922 70.6585C46.6839 70.8965 46.6839 71.2212 46.7489 71.5891L46.7705 71.6973C46.8571 72.0652 46.9869 72.3465 47.1817 72.5413C47.3765 72.7144 47.5929 72.7794 47.8309 72.7361C48.069 72.6928 48.2421 72.5413 48.3503 72.3032C48.4586 72.0652 48.4586 71.7406 48.3936 71.3727L48.372 71.2644C48.2854 70.8965 48.1556 70.6152 47.9608 70.4204C47.766 70.2473 47.5496 70.1824 47.3116 70.2257Z" fill="white"/>
<path d="M53.2852 69.4478C53.3284 69.2963 53.3068 69.1449 53.2419 69.015C53.1769 68.8419 53.0471 68.712 52.8956 68.6687C52.7441 68.6038 52.571 68.6255 52.3762 68.6904C52.1814 68.7553 52.0732 68.8852 52.0083 69.0583C51.9434 69.2314 51.9434 69.4046 52.0299 69.5993L52.0516 69.6643L51.5322 69.8807L51.4889 69.7941C51.4023 69.5993 51.3807 69.3829 51.4023 69.1881C51.424 68.9934 51.5105 68.8202 51.6404 68.6471C51.7702 68.4956 51.9434 68.3658 52.1814 68.2576C52.5493 68.1061 52.8523 68.0844 53.1337 68.1926C53.415 68.3008 53.6098 68.4956 53.718 68.7986C53.8046 69.015 53.8262 69.2314 53.7829 69.4478C53.7396 69.6643 53.6314 69.9023 53.4799 70.1837L52.9172 71.2441L54.4754 70.6165L54.6486 71.071L52.3546 72.0016L52.1814 71.5904L52.9822 70.0322C53.1769 69.7725 53.2419 69.5993 53.2852 69.4478Z" fill="white"/>
<path d="M56.3373 67.1323C56.294 66.8509 56.3157 66.5912 56.4239 66.3748C56.5321 66.1367 56.6836 65.9636 56.9 65.8121C57.1164 65.6606 57.3545 65.5957 57.6142 65.5957C57.8739 65.5957 58.1119 65.6823 58.35 65.8338C58.588 65.9853 58.8044 66.2017 58.9776 66.483L59.0641 66.6129C59.2589 66.8942 59.3671 67.1755 59.4104 67.4569C59.4537 67.7382 59.4321 67.9763 59.3238 68.2143C59.2156 68.4308 59.0641 68.6255 58.8261 68.777C58.588 68.9285 58.35 68.9934 58.1119 68.9934C57.8739 68.9934 57.6142 68.9069 57.3977 68.7554C57.1813 68.6039 56.9433 68.3875 56.7701 68.0845L56.6836 67.9546C56.4888 67.6949 56.3806 67.4136 56.3373 67.1323ZM57.1597 66.2017C56.9433 66.3315 56.8351 66.5263 56.8351 66.8076C56.8351 67.0673 56.9216 67.3703 57.138 67.6949L57.203 67.8031C57.4194 68.1278 57.6358 68.3442 57.8739 68.4308C58.1119 68.539 58.35 68.5173 58.5448 68.3875C58.7612 68.2576 58.8694 68.0628 58.8694 67.7815C58.8694 67.5002 58.7828 67.2188 58.5664 66.8942L58.5015 66.786C58.285 66.4614 58.0686 66.245 57.8306 66.1584C57.5925 66.0502 57.3761 66.0718 57.1597 66.2017Z" fill="white"/>
</g>
<path d="M93.8342 37.3707V16.8295H98.2359V33.5853H106.394V37.3707H93.8342Z" fill="white"/>
<path d="M112.227 16.6827C112.667 17.1229 112.902 17.6805 112.902 18.326C112.902 19.001 112.667 19.5585 112.227 19.9987C111.758 20.4682 111.2 20.6736 110.525 20.6736C109.821 20.6736 109.263 20.4682 108.794 19.9987C108.324 19.5585 108.119 19.001 108.119 18.326C108.119 17.6805 108.324 17.1229 108.794 16.6827C109.263 16.2426 109.821 16.0078 110.525 16.0078C111.2 16.0078 111.758 16.2426 112.227 16.6827ZM108.442 22.2876H112.579V37.3707H108.442V22.2876Z" fill="white"/>
<path d="M116.431 22.2876V20.9671C116.431 19.6466 116.812 18.6195 117.575 17.9152C118.338 17.2109 119.454 16.8295 120.979 16.8295H124.354V20.3508H121.801C121.361 20.3508 121.038 20.4682 120.862 20.6443C120.657 20.8497 120.569 21.1725 120.569 21.5833V22.2876H124.354V25.7796H120.569V37.3707H116.431V25.7796H113.937V22.2876H116.431Z" fill="white"/>
<path d="M125.73 25.7796C126.376 24.6058 127.256 23.7255 128.4 23.0799C129.545 22.4343 130.865 22.1115 132.391 22.1115C133.917 22.1115 135.238 22.4343 136.412 23.0212C137.585 23.6081 138.495 24.4591 139.141 25.5448C139.786 26.6306 140.138 27.8924 140.168 29.3596C140.168 29.8879 140.109 30.3574 140.05 30.7682H129.105V30.8856C129.193 32.0007 129.545 32.8517 130.161 33.4679C130.748 34.1135 131.599 34.4069 132.655 34.4069C133.477 34.4069 134.181 34.2309 134.739 33.8787C135.296 33.5266 135.678 32.969 135.854 32.2648H139.933C139.757 33.2625 139.375 34.1722 138.788 34.9645C138.172 35.7861 137.38 36.4024 136.382 36.8719C135.384 37.3414 134.24 37.5468 132.949 37.5468C131.247 37.5468 129.809 37.2534 128.577 36.6078C127.344 35.9915 126.405 35.1112 125.759 33.9374C125.114 32.7636 124.791 31.4138 124.791 29.8585C124.791 28.3032 125.084 26.9534 125.73 25.7796ZM136.03 28.0685C135.883 27.1588 135.502 26.4545 134.886 25.9557C134.269 25.4568 133.506 25.1927 132.567 25.1927C131.658 25.1927 130.895 25.4568 130.278 25.985C129.662 26.5132 129.31 27.1881 129.193 28.0685H136.03Z" fill="white"/>
<path d="M154.578 35.9915C153.286 37.048 151.643 37.5468 149.618 37.5468C148.034 37.5468 146.684 37.2534 145.51 36.6078C144.336 35.9622 143.427 35.0525 142.781 33.8787C142.135 32.7049 141.842 31.3551 141.842 29.8292C141.842 28.3032 142.135 26.9534 142.781 25.7796C143.427 24.6058 144.336 23.7255 145.51 23.0799C146.684 22.4343 148.063 22.1115 149.648 22.1115C151.643 22.1115 153.286 22.6397 154.578 23.6668C155.839 24.6938 156.632 26.1024 156.925 27.9218H152.641C152.465 27.1881 152.113 26.6012 151.584 26.1611C151.056 25.7209 150.381 25.4861 149.618 25.4861C148.532 25.4861 147.682 25.897 147.036 26.6893C146.39 27.5109 146.068 28.538 146.068 29.8292C146.068 31.1203 146.39 32.1767 147.036 32.969C147.682 33.7907 148.532 34.1722 149.618 34.1722C150.411 34.1722 151.085 33.9668 151.614 33.4973C152.142 33.0571 152.494 32.4408 152.67 31.6485H156.925C156.632 33.4973 155.869 34.9351 154.578 35.9915Z" fill="white"/>
<path d="M174.013 33.8787V37.3707H171.9C169.993 37.3707 169.054 36.5491 169.112 34.9058C168.555 35.7861 167.88 36.4317 167.088 36.8719C166.266 37.3414 165.297 37.5468 164.182 37.5468C162.48 37.5468 161.131 37.1653 160.103 36.4024C159.076 35.6394 158.578 34.5243 158.578 33.1158C158.578 31.5312 159.164 30.2987 160.338 29.4183C161.512 28.538 163.243 28.0978 165.503 28.0978H168.496V27.3642C168.496 26.6893 168.232 26.1611 167.733 25.7503C167.205 25.3394 166.53 25.134 165.679 25.134C164.916 25.134 164.27 25.3101 163.801 25.6329C163.302 25.985 163.009 26.4252 162.921 26.9827H158.93C159.047 25.4568 159.751 24.2537 160.984 23.4027C162.216 22.5517 163.83 22.1115 165.884 22.1115C167.997 22.1115 169.641 22.581 170.814 23.5201C171.988 24.4591 172.575 25.8383 172.575 27.599V32.9104C172.575 33.2918 172.634 33.5559 172.81 33.6733C172.956 33.82 173.191 33.8787 173.543 33.8787H174.013ZM168.496 30.8562H165.474C164.593 30.8562 163.918 31.0323 163.449 31.3844C162.979 31.7366 162.744 32.2061 162.744 32.8223C162.744 33.3505 162.921 33.7907 163.331 34.0841C163.742 34.4069 164.27 34.5537 164.975 34.5537C166.031 34.5537 166.882 34.2602 167.528 33.644C168.144 33.0277 168.467 32.2061 168.496 31.1497V30.8562Z" fill="white"/>
<path d="M184.798 22.2876V26.0437H183.155C181.981 26.0437 181.101 26.3958 180.573 27.1001C180.015 27.8044 179.751 28.7728 179.751 29.9759V37.3707H175.614V22.2876H179.37L179.751 24.5471C180.191 23.8135 180.749 23.256 181.424 22.8745C182.069 22.493 182.979 22.2876 184.094 22.2876H184.798Z" fill="white"/>
<path d="M201.242 16.8295V37.3707H197.633L197.222 35.2873C196.048 36.8132 194.493 37.5468 192.527 37.5468C191.177 37.5468 190.003 37.2534 188.947 36.6078C187.891 35.9622 187.04 35.0525 186.453 33.8787C185.866 32.7049 185.572 31.3551 185.572 29.7998C185.572 28.2739 185.866 26.9534 186.453 25.7796C187.04 24.6058 187.891 23.7255 188.947 23.0799C190.003 22.4343 191.207 22.1115 192.556 22.1115C194.493 22.1115 196.019 22.8158 197.105 24.1656V16.8295H201.242ZM196.166 32.9984C196.811 32.2061 197.164 31.1497 197.164 29.8585C197.164 28.5673 196.811 27.5109 196.166 26.6893C195.491 25.897 194.611 25.4861 193.495 25.4861C192.38 25.4861 191.471 25.897 190.796 26.6893C190.121 27.5109 189.798 28.538 189.798 29.8292C189.798 31.1203 190.121 32.1767 190.796 32.969C191.471 33.7907 192.38 34.1722 193.495 34.1722C194.611 34.1722 195.491 33.7907 196.166 32.9984Z" fill="white"/>
<path d="M98.0892 45.5166V57.4305C98.0892 59.1032 98.412 60.365 99.0576 61.1866C99.7032 62.0376 100.701 62.4484 102.109 62.4484C103.489 62.4484 104.516 62.0376 105.161 61.1866C105.807 60.365 106.159 59.1032 106.159 57.4305V45.5166H110.561V57.1957C110.561 60.1302 109.827 62.3898 108.389 63.9157C106.951 65.471 104.868 66.2339 102.109 66.2339C99.351 66.2339 97.2382 65.471 95.8297 63.9157C94.3918 62.3898 93.6875 60.1302 93.6875 57.1957V45.5166H98.0892Z" fill="white"/>
<path d="M126.6 52.4419C127.715 53.557 128.302 55.347 128.302 57.8707V66.0578H124.164V58.1054C124.164 55.5231 123.137 54.2026 121.112 54.2026C120.026 54.2026 119.205 54.5841 118.618 55.2883C118.031 56.022 117.738 57.049 117.738 58.3402V66.0578H113.6V50.9747H117.209L117.591 52.8527C118.119 52.2071 118.735 51.7083 119.498 51.3562C120.232 51.004 121.142 50.7986 122.257 50.7986C124.017 50.7986 125.455 51.3562 126.6 52.4419Z" fill="white"/>
<path d="M134.694 45.3698C135.134 45.81 135.369 46.3676 135.369 47.0131C135.369 47.6881 135.134 48.2456 134.694 48.6858C134.225 49.1553 133.667 49.3607 132.992 49.3607C132.288 49.3607 131.73 49.1553 131.261 48.6858C130.791 48.2456 130.586 47.6881 130.586 47.0131C130.586 46.3676 130.791 45.81 131.261 45.3698C131.73 44.9297 132.288 44.6949 132.992 44.6949C133.667 44.6949 134.225 44.9297 134.694 45.3698ZM130.909 50.9747H135.046V66.0578H130.909V50.9747Z" fill="white"/>
<path d="M136.462 50.9747H140.893L144.532 61.8322L148.112 50.9747H152.455L147.027 66.0578H141.891L136.462 50.9747Z" fill="white"/>
<path d="M153.613 54.4667C154.259 53.2929 155.139 52.4126 156.284 51.767C157.428 51.1214 158.749 50.7986 160.275 50.7986C161.8 50.7986 163.121 51.1214 164.295 51.7083C165.469 52.2952 166.378 53.1462 167.024 54.2319C167.669 55.3177 168.022 56.5795 168.051 58.0467C168.051 58.5749 167.992 59.0445 167.933 59.4553H156.988V59.5727C157.076 60.6878 157.428 61.5388 158.044 62.155C158.631 62.8006 159.482 63.094 160.539 63.094C161.36 63.094 162.065 62.918 162.622 62.5658C163.18 62.2137 163.561 61.6561 163.737 60.9519H167.816C167.64 61.9496 167.259 62.8593 166.672 63.6516C166.055 64.4732 165.263 65.0895 164.265 65.559C163.268 66.0285 162.123 66.2339 160.832 66.2339C159.13 66.2339 157.692 65.9405 156.46 65.2949C155.227 64.6786 154.288 63.7983 153.643 62.6245C152.997 61.4507 152.674 60.1009 152.674 58.5456C152.674 56.9903 152.968 55.6405 153.613 54.4667ZM163.913 56.7556C163.767 55.8459 163.385 55.1416 162.769 54.6428C162.153 54.1439 161.39 53.8798 160.451 53.8798C159.541 53.8798 158.778 54.1439 158.162 54.6721C157.545 55.2003 157.193 55.8752 157.076 56.7556H163.913Z" fill="white"/>
<path d="M179.497 50.9747V54.7308H177.854C176.68 54.7308 175.799 55.0829 175.271 55.7872C174.714 56.4915 174.45 57.4599 174.45 58.663V66.0578H170.312V50.9747H174.068L174.45 53.2342C174.89 52.5006 175.447 51.943 176.122 51.5616C176.768 51.1801 177.678 50.9747 178.793 50.9747H179.497Z" fill="white"/>
<path d="M184.433 61.0399C184.492 61.7148 184.814 62.243 185.401 62.6539C185.988 63.0647 186.722 63.2701 187.661 63.2701C188.541 63.2701 189.216 63.1527 189.744 62.8593C190.243 62.5658 190.507 62.155 190.507 61.6268C190.507 61.2453 190.39 60.9519 190.155 60.7465C189.92 60.5704 189.568 60.4237 189.157 60.3356C188.717 60.2476 188.013 60.1302 187.045 60.0128C185.695 59.8368 184.609 59.6314 183.729 59.3379C182.848 59.0738 182.144 58.6336 181.616 58.0467C181.088 57.4599 180.824 56.6969 180.824 55.6992C180.824 54.7308 181.088 53.8798 181.616 53.1168C182.144 52.3539 182.907 51.767 183.905 51.3562C184.873 50.9453 185.988 50.7399 187.279 50.7399C189.334 50.7693 190.977 51.2094 192.239 52.0604C193.5 52.9408 194.175 54.1146 194.293 55.6405H190.361C190.302 55.0829 189.979 54.6134 189.451 54.2613C188.923 53.9091 188.218 53.7037 187.397 53.7037C186.604 53.7037 185.959 53.8505 185.489 54.1439C185.02 54.4373 184.785 54.8482 184.785 55.3177C184.785 55.6698 184.902 55.9339 185.167 56.11C185.401 56.2861 185.753 56.4328 186.164 56.4915C186.575 56.5795 187.25 56.6675 188.218 56.7556C190.243 56.9903 191.798 57.4305 192.884 58.0761C193.97 58.7217 194.528 59.8074 194.528 61.3333C194.528 62.3311 194.234 63.1821 193.647 63.9157C193.06 64.6786 192.268 65.2362 191.241 65.647C190.214 66.0578 189.04 66.2339 187.69 66.2339C185.577 66.2339 183.875 65.7937 182.584 64.8547C181.264 63.9157 180.559 62.6539 180.501 61.0399H184.433Z" fill="white"/>
<path d="M200.691 45.3698C201.131 45.81 201.366 46.3676 201.366 47.0131C201.366 47.6881 201.131 48.2456 200.691 48.6858C200.222 49.1553 199.664 49.3607 198.989 49.3607C198.285 49.3607 197.727 49.1553 197.258 48.6858C196.788 48.2456 196.583 47.6881 196.583 47.0131C196.583 46.3676 196.788 45.81 197.258 45.3698C197.727 44.9297 198.285 44.6949 198.989 44.6949C199.664 44.6949 200.222 44.9297 200.691 45.3698ZM196.906 50.9747H201.043V66.0578H196.906V50.9747Z" fill="white"/>
<path d="M204.895 54.4667H202.401V50.9747H204.895V46.749H209.033V50.9747H212.466V54.4667H209.033V61.0692C209.033 61.5975 209.121 61.9789 209.355 62.2137C209.59 62.4484 209.972 62.5658 210.5 62.5658H212.642V66.0578H209.209C206.333 66.0578 204.895 64.62 204.895 61.7442V54.4667Z" fill="white"/>
<path d="M217.321 50.9747L220.989 61.8029L224.569 50.9747H229L222.309 68.2C221.957 69.139 221.605 69.8433 221.312 70.3715C220.989 70.8997 220.578 71.2812 220.109 71.5453C219.639 71.8094 219.023 71.9268 218.26 71.9268H214.24V68.4348H216.529C217.057 68.4348 217.438 68.3467 217.673 68.1707C217.908 67.9946 218.113 67.6718 218.348 67.1436L218.729 66.1459L212.919 50.9747H217.321Z" fill="white"/>
<defs>
<clipPath id="clip0_433_7019">
<rect width="82" height="82" fill="white"/>
</clipPath>
</defs>
</svg>
