<svg width="404" height="103" viewBox="0 0 404 103" fill="none" xmlns="http://www.w3.org/2000/svg">
<path d="M1.37286 66.0001V4.18192H25.7621C30.4306 4.18192 34.415 5.01703 37.7152 6.68725C41.0355 8.33734 43.561 10.6817 45.2915 13.7203C47.0423 16.7387 47.9176 20.2905 47.9176 24.3755C47.9176 28.4806 47.0322 32.0122 45.2614 34.9703C43.4905 37.9082 40.9248 40.162 37.5643 41.7316C34.2238 43.3012 30.1791 44.086 25.43 44.086H9.10014V33.5818H23.3171C25.8124 33.5818 27.8851 33.2397 29.5352 32.5555C31.1852 31.8713 32.4128 30.845 33.2177 29.4767C34.0427 28.1083 34.4552 26.4079 34.4552 24.3755C34.4552 22.3229 34.0427 20.5923 33.2177 19.1837C32.4128 17.7751 31.1752 16.7086 29.505 15.9841C27.8549 15.2396 25.7721 14.8673 23.2567 14.8673H14.4428V66.0001H1.37286ZM34.7571 37.868L50.1211 66.0001H35.6928L20.6609 37.868H34.7571Z" fill="white"/>
<path d="M77.1137 66.9056C72.425 66.9056 68.3702 65.9095 64.9493 63.9174C61.5485 61.9051 58.9224 59.1079 57.0711 55.526C55.2198 51.924 54.2941 47.7484 54.2941 42.9994C54.2941 38.2101 55.2198 34.0245 57.0711 30.4426C58.9224 26.8405 61.5485 24.0434 64.9493 22.0512C68.3702 20.0389 72.425 19.0328 77.1137 19.0328C81.8024 19.0328 85.8471 20.0389 89.248 22.0512C92.6689 24.0434 95.305 26.8405 97.1563 30.4426C99.0077 34.0245 99.9333 38.2101 99.9333 42.9994C99.9333 47.7484 99.0077 51.924 97.1563 55.526C95.305 59.1079 92.6689 61.9051 89.248 63.9174C85.8471 65.9095 81.8024 66.9056 77.1137 66.9056ZM77.1741 56.9447C79.3071 56.9447 81.088 56.341 82.5168 55.1336C83.9455 53.9061 85.0221 52.2359 85.7465 50.123C86.4911 48.01 86.8634 45.6053 86.8634 42.9088C86.8634 40.2123 86.4911 37.8076 85.7465 35.6947C85.0221 33.5818 83.9455 31.9116 82.5168 30.6841C81.088 29.4565 79.3071 28.8428 77.1741 28.8428C75.0209 28.8428 73.2098 29.4565 71.7409 30.6841C70.292 31.9116 69.1953 33.5818 68.4507 35.6947C67.7263 37.8076 67.3641 40.2123 67.3641 42.9088C67.3641 45.6053 67.7263 48.01 68.4507 50.123C69.1953 52.2359 70.292 53.9061 71.7409 55.1336C73.2098 56.341 75.0209 56.9447 77.1741 56.9447Z" fill="white"/>
<path d="M129.243 66.9056C124.554 66.9056 120.499 65.9095 117.078 63.9174C113.677 61.9051 111.051 59.1079 109.2 55.526C107.349 51.924 106.423 47.7484 106.423 42.9994C106.423 38.2101 107.349 34.0245 109.2 30.4426C111.051 26.8405 113.677 24.0434 117.078 22.0512C120.499 20.0389 124.554 19.0328 129.243 19.0328C133.931 19.0328 137.976 20.0389 141.377 22.0512C144.798 24.0434 147.434 26.8405 149.285 30.4426C151.137 34.0245 152.062 38.2101 152.062 42.9994C152.062 47.7484 151.137 51.924 149.285 55.526C147.434 59.1079 144.798 61.9051 141.377 63.9174C137.976 65.9095 133.931 66.9056 129.243 66.9056ZM129.303 56.9447C131.436 56.9447 133.217 56.341 134.646 55.1336C136.074 53.9061 137.151 52.2359 137.875 50.123C138.62 48.01 138.992 45.6053 138.992 42.9088C138.992 40.2123 138.62 37.8076 137.875 35.6947C137.151 33.5818 136.074 31.9116 134.646 30.6841C133.217 29.4565 131.436 28.8428 129.303 28.8428C127.15 28.8428 125.339 29.4565 123.87 30.6841C122.421 31.9116 121.324 33.5818 120.58 35.6947C119.855 37.8076 119.493 40.2123 119.493 42.9088C119.493 45.6053 119.855 48.01 120.58 50.123C121.324 52.2359 122.421 53.9061 123.87 55.1336C125.339 56.341 127.15 56.9447 129.303 56.9447Z" fill="white"/>
<path d="M160.423 66.0001V19.6365H172.678V27.8165H173.222C174.188 25.0999 175.797 22.9568 178.051 21.3872C180.305 19.8176 183.002 19.0328 186.141 19.0328C189.32 19.0328 192.027 19.8276 194.26 21.4174C196.494 22.987 197.983 25.12 198.728 27.8165H199.211C200.156 25.1603 201.867 23.0373 204.342 21.4475C206.837 19.8377 209.785 19.0328 213.186 19.0328C217.513 19.0328 221.024 20.4112 223.721 23.1681C226.437 25.9048 227.796 29.7886 227.796 34.8194V66.0001H214.967V37.3549C214.967 34.7791 214.283 32.8473 212.915 31.5594C211.546 30.2715 209.836 29.6276 207.783 29.6276C205.449 29.6276 203.628 30.3721 202.32 31.8613C201.012 33.3302 200.358 35.2721 200.358 37.6869V66.0001H187.891V37.0832C187.891 34.8093 187.237 32.9982 185.929 31.65C184.642 30.3017 182.941 29.6276 180.828 29.6276C179.399 29.6276 178.112 29.9898 176.965 30.7142C175.838 31.4185 174.942 32.4146 174.278 33.7025C173.614 34.9703 173.282 36.4594 173.282 38.1698V66.0001H160.423Z" fill="white"/>
<path d="M261.323 4.18192V66.0001H248.253V16.5878H247.891L233.734 25.4621V13.8712L249.038 4.18192H261.323Z" fill="white"/>
<path d="M298.382 3.33675C301.562 3.33675 304.621 3.87001 307.559 4.93654C310.517 6.00306 313.153 7.70347 315.467 10.0377C317.801 12.372 319.642 15.471 320.991 19.3346C322.359 23.1781 323.053 27.897 323.073 33.4912C323.073 38.7434 322.48 43.432 321.293 47.5573C320.125 51.6624 318.445 55.1538 316.252 58.0314C314.058 60.909 311.412 63.1024 308.313 64.6116C305.214 66.1007 301.753 66.8453 297.93 66.8453C293.804 66.8453 290.162 66.0504 287.003 64.4607C283.843 62.8508 281.298 60.6675 279.366 57.9106C277.454 55.1336 276.297 52.0145 275.895 48.5534H288.784C289.287 50.8072 290.343 52.5579 291.953 53.8055C293.563 55.033 295.555 55.6468 297.93 55.6468C301.954 55.6468 305.013 53.8961 307.106 50.3946C309.199 46.8731 310.255 42.0536 310.275 35.9362H309.853C308.927 37.7473 307.679 39.3068 306.11 40.6148C304.54 41.9027 302.739 42.8988 300.707 43.6031C298.694 44.3074 296.551 44.6595 294.277 44.6595C290.635 44.6595 287.385 43.8043 284.528 42.0939C281.67 40.3834 279.416 38.029 277.766 35.0306C276.116 32.0323 275.291 28.6114 275.291 24.7679C275.271 20.6225 276.227 16.9299 278.159 13.6901C280.09 10.4503 282.787 7.91476 286.248 6.08356C289.729 4.23223 293.774 3.31663 298.382 3.33675ZM298.473 13.5995C296.44 13.5995 294.629 14.0825 293.04 15.0484C291.47 16.0143 290.222 17.3122 289.297 18.9422C288.391 20.5722 287.949 22.3933 287.969 24.4056C287.969 26.4381 288.411 28.2693 289.297 29.8993C290.202 31.5091 291.43 32.797 292.979 33.7629C294.549 34.7087 296.34 35.1816 298.352 35.1816C299.861 35.1816 301.26 34.8998 302.548 34.3364C303.836 33.7729 304.953 32.9982 305.898 32.0122C306.864 31.006 307.619 29.8489 308.162 28.5409C308.706 27.2329 308.977 25.8444 308.977 24.3755C308.957 22.4235 308.494 20.6326 307.589 19.0026C306.683 17.3726 305.436 16.0646 303.846 15.0786C302.256 14.0925 300.465 13.5995 298.473 13.5995Z" fill="white"/>
<path d="M356.367 67.3584C351.175 67.3383 346.708 66.0605 342.965 63.525C339.242 60.9895 336.375 57.317 334.362 52.5076C332.37 47.6981 331.384 41.9127 331.404 35.1514C331.404 28.4101 332.4 22.665 334.393 17.9159C336.405 13.1669 339.273 9.55479 342.995 7.07965C346.738 4.58438 351.195 3.33675 356.367 3.33675C361.539 3.33675 365.986 4.58438 369.709 7.07965C373.452 9.57491 376.329 13.1971 378.342 17.9461C380.354 22.6751 381.35 28.4101 381.33 35.1514C381.33 41.9329 380.324 47.7283 378.311 52.5377C376.319 57.3472 373.462 61.0196 369.739 63.5551C366.016 66.0907 361.559 67.3584 356.367 67.3584ZM356.367 56.5221C359.909 56.5221 362.736 54.7412 364.849 51.1794C366.962 47.6176 368.008 42.275 367.988 35.1514C367.988 30.4627 367.505 26.5588 366.539 23.4397C365.594 20.3207 364.245 17.9763 362.495 16.4067C360.764 14.8371 358.721 14.0523 356.367 14.0523C352.846 14.0523 350.028 15.8131 347.915 19.3346C345.802 22.8562 344.736 28.1284 344.716 35.1514C344.716 39.9004 345.189 43.8647 346.134 47.0441C347.1 50.2035 348.459 52.578 350.209 54.1677C351.96 55.7373 354.013 56.5221 356.367 56.5221Z" fill="white"/>
<circle cx="397" cy="7" r="6" stroke="white" stroke-width="2"/>
<path d="M0.761353 102V87.4547H5.84658C6.85984 87.4547 7.69554 87.6299 8.35368 87.9803C9.01183 88.3259 9.50188 88.7923 9.82385 89.3794C10.1458 89.9618 10.3068 90.6081 10.3068 91.3184C10.3068 91.9434 10.1955 92.4595 9.973 92.8667C9.7552 93.2739 9.46637 93.5958 9.10652 93.8326C8.75141 94.0693 8.36552 94.2445 7.94885 94.3581V94.5002C8.39393 94.5286 8.84137 94.6848 9.29118 94.9689C9.74099 95.253 10.1174 95.6602 10.4204 96.1905C10.7235 96.7208 10.875 97.3695 10.875 98.1365C10.875 98.8657 10.7093 99.5215 10.3778 100.104C10.0464 100.686 9.52319 101.148 8.80823 101.489C8.09327 101.83 7.16287 102 6.01703 102H0.761353ZM2.52272 100.438H6.01703C7.1676 100.438 7.98436 100.215 8.46732 99.7701C8.95501 99.3203 9.19885 98.7757 9.19885 98.1365C9.19885 97.6441 9.07338 97.1896 8.82243 96.7729C8.57149 96.3515 8.214 96.0153 7.74999 95.7644C7.28597 95.5087 6.73673 95.3809 6.10226 95.3809H2.52272V100.438ZM2.52272 93.8468H5.78976C6.32006 93.8468 6.79828 93.7426 7.22442 93.5343C7.65529 93.3259 7.9962 93.0324 8.24715 92.6536C8.50283 92.2748 8.63067 91.8297 8.63067 91.3184C8.63067 90.6792 8.40813 90.137 7.96306 89.6919C7.51798 89.2421 6.81249 89.0172 5.84658 89.0172H2.52272V93.8468Z" fill="white"/>
<path d="M18.7192 87.4547H20.7362L24.7703 94.2445H24.9408L28.9748 87.4547H30.9919L25.7362 96.0059V102H23.9748V96.0059L18.7192 87.4547Z" fill="white"/>
<path d="M61.2381 92.0002C61.0819 91.522 60.8759 91.0935 60.6202 90.7147C60.3693 90.3311 60.0686 90.0044 59.7182 89.7346C59.3726 89.4647 58.9796 89.2587 58.5393 89.1167C58.0989 88.9746 57.616 88.9036 57.0904 88.9036C56.2287 88.9036 55.445 89.1261 54.7395 89.5712C54.0341 90.0163 53.473 90.6721 53.0563 91.5385C52.6396 92.405 52.4313 93.468 52.4313 94.7275C52.4313 95.9869 52.642 97.0499 53.0634 97.9164C53.4848 98.7828 54.0554 99.4386 54.7751 99.8837C55.4948 100.329 56.3044 100.551 57.204 100.551C58.0374 100.551 58.7713 100.374 59.4057 100.019C60.0449 99.6588 60.5421 99.1522 60.8972 98.4988C61.2571 97.8406 61.437 97.0665 61.437 96.1763L61.9768 96.29H57.6018V94.7275H63.1415V96.29C63.1415 97.4879 62.8859 98.5295 62.3745 99.415C61.8679 100.3 61.1671 100.987 60.2722 101.475C59.3821 101.958 58.3593 102.199 57.204 102.199C55.9162 102.199 54.7845 101.896 53.8092 101.29C52.8385 100.684 52.0809 99.8221 51.5364 98.7047C50.9967 97.5873 50.7268 96.2615 50.7268 94.7275C50.7268 93.5769 50.8806 92.5423 51.1884 91.6238C51.5009 90.7005 51.9413 89.9145 52.5094 89.2658C53.0776 88.6171 53.75 88.12 54.5265 87.7743C55.303 87.4287 56.1576 87.2559 57.0904 87.2559C57.8574 87.2559 58.5724 87.3719 59.2353 87.6039C59.9029 87.8311 60.4971 88.1555 61.018 88.5769C61.5435 88.9935 61.9815 89.4931 62.3319 90.0755C62.6823 90.6531 62.9237 91.2947 63.0563 92.0002H61.2381Z" fill="white"/>
<path d="M72.3582 102V87.4547H77.273C78.4094 87.4547 79.3421 87.6489 80.0713 88.0371C80.8005 88.4206 81.3402 88.9486 81.6906 89.6209C82.041 90.2933 82.2162 91.0579 82.2162 91.915C82.2162 92.772 82.041 93.5319 81.6906 94.1948C81.3402 94.8577 80.8028 95.3785 80.0784 95.7573C79.354 96.1313 78.4283 96.3184 77.3014 96.3184H73.3241V94.7275H77.2446C78.0211 94.7275 78.6461 94.6138 79.1196 94.3865C79.5978 94.1593 79.9435 93.8373 80.1565 93.4206C80.3743 92.9992 80.4832 92.4973 80.4832 91.915C80.4832 91.3326 80.3743 90.8236 80.1565 90.388C79.9387 89.9524 79.5907 89.6162 79.1125 89.3794C78.6343 89.138 78.0022 89.0172 77.2162 89.0172H74.1196V102H72.3582ZM79.2048 95.4661L82.7844 102H80.7389L77.2162 95.4661H79.2048Z" fill="white"/>
<path d="M91.9478 102H90.1012L95.4421 87.4547H97.2603L102.601 102H100.755L96.408 89.7559H96.2944L91.9478 102ZM92.6296 96.3184H100.073V97.8809H92.6296V96.3184Z" fill="white"/>
<path d="M122.088 92.0002H120.326C120.222 91.4935 120.04 91.0485 119.78 90.665C119.524 90.2814 119.211 89.9595 118.842 89.699C118.477 89.4339 118.073 89.235 117.628 89.1025C117.182 88.9699 116.718 88.9036 116.235 88.9036C115.355 88.9036 114.557 89.1261 113.842 89.5712C113.132 90.0163 112.566 90.6721 112.145 91.5385C111.728 92.405 111.52 93.468 111.52 94.7275C111.52 95.9869 111.728 97.0499 112.145 97.9164C112.566 98.7828 113.132 99.4386 113.842 99.8837C114.557 100.329 115.355 100.551 116.235 100.551C116.718 100.551 117.182 100.485 117.628 100.352C118.073 100.22 118.477 100.023 118.842 99.763C119.211 99.4978 119.524 99.1735 119.78 98.79C120.04 98.4017 120.222 97.9566 120.326 97.4547H122.088C121.955 98.1981 121.714 98.8633 121.363 99.4505C121.013 100.038 120.577 100.537 120.057 100.949C119.536 101.356 118.951 101.666 118.302 101.879C117.658 102.093 116.969 102.199 116.235 102.199C114.995 102.199 113.892 101.896 112.926 101.29C111.96 100.684 111.2 99.8221 110.646 98.7047C110.092 97.5873 109.815 96.2615 109.815 94.7275C109.815 93.1934 110.092 91.8676 110.646 90.7502C111.2 89.6328 111.96 88.771 112.926 88.165C113.892 87.5589 114.995 87.2559 116.235 87.2559C116.969 87.2559 117.658 87.3624 118.302 87.5755C118.951 87.7885 119.536 88.101 120.057 88.513C120.577 88.9202 121.013 89.4173 121.363 90.0044C121.714 90.5868 121.955 91.2521 122.088 92.0002Z" fill="white"/>
<path d="M131.134 102V87.4547H139.912V89.0172H132.895V93.932H139.458V95.4945H132.895V100.438H140.026V102H131.134Z" fill="white"/>
<path d="M173.385 94.7275C173.385 96.2615 173.108 97.5873 172.554 98.7047C172 99.8221 171.24 100.684 170.274 101.29C169.308 101.896 168.205 102.199 166.964 102.199C165.724 102.199 164.621 101.896 163.655 101.29C162.689 100.684 161.929 99.8221 161.375 98.7047C160.821 97.5873 160.544 96.2615 160.544 94.7275C160.544 93.1934 160.821 91.8676 161.375 90.7502C161.929 89.6328 162.689 88.771 163.655 88.165C164.621 87.5589 165.724 87.2559 166.964 87.2559C168.205 87.2559 169.308 87.5589 170.274 88.165C171.24 88.771 172 89.6328 172.554 90.7502C173.108 91.8676 173.385 93.1934 173.385 94.7275ZM171.68 94.7275C171.68 93.468 171.47 92.405 171.048 91.5385C170.632 90.6721 170.066 90.0163 169.351 89.5712C168.641 89.1261 167.845 88.9036 166.964 88.9036C166.084 88.9036 165.286 89.1261 164.571 89.5712C163.861 90.0163 163.295 90.6721 162.874 91.5385C162.457 92.405 162.249 93.468 162.249 94.7275C162.249 95.9869 162.457 97.0499 162.874 97.9164C163.295 98.7828 163.861 99.4386 164.571 99.8837C165.286 100.329 166.084 100.551 166.964 100.551C167.845 100.551 168.641 100.329 169.351 99.8837C170.066 99.4386 170.632 98.7828 171.048 97.9164C171.47 97.0499 171.68 95.9869 171.68 94.7275Z" fill="white"/>
<path d="M182.547 102V87.4547H191.268V89.0172H184.308V93.932H190.615V95.4945H184.308V102H182.547Z" fill="white"/>
<path d="M210.03 87.4547H211.792V97.0854C211.792 98.0797 211.557 98.9675 211.088 99.7488C210.624 100.525 209.969 101.138 209.121 101.588C208.274 102.033 207.279 102.256 206.138 102.256C204.997 102.256 204.003 102.033 203.155 101.588C202.308 101.138 201.65 100.525 201.181 99.7488C200.717 98.9675 200.485 98.0797 200.485 97.0854V87.4547H202.246V96.9434C202.246 97.6536 202.402 98.2857 202.715 98.8397C203.027 99.3889 203.472 99.8221 204.05 100.139C204.633 100.452 205.329 100.608 206.138 100.608C206.948 100.608 207.644 100.452 208.226 100.139C208.809 99.8221 209.254 99.3889 209.561 98.8397C209.874 98.2857 210.03 97.6536 210.03 96.9434V87.4547Z" fill="white"/>
<path d="M221.509 102V87.4547H226.424C227.56 87.4547 228.493 87.6489 229.222 88.0371C229.951 88.4206 230.491 88.9486 230.841 89.6209C231.192 90.2933 231.367 91.0579 231.367 91.915C231.367 92.772 231.192 93.5319 230.841 94.1948C230.491 94.8577 229.954 95.3785 229.229 95.7573C228.505 96.1313 227.579 96.3184 226.452 96.3184H222.475V94.7275H226.395C227.172 94.7275 227.797 94.6138 228.27 94.3865C228.749 94.1593 229.094 93.8373 229.307 93.4206C229.525 92.9992 229.634 92.4973 229.634 91.915C229.634 91.3326 229.525 90.8236 229.307 90.388C229.089 89.9524 228.741 89.6162 228.263 89.3794C227.785 89.138 227.153 89.0172 226.367 89.0172H223.27V102H221.509ZM228.356 95.4661L231.935 102H229.89L226.367 95.4661H228.356Z" fill="white"/>
<path d="M240.502 102V87.4547H249.28V89.0172H242.263V93.932H248.826V95.4945H242.263V100.438H249.394V102H240.502Z" fill="white"/>
</svg>
