<svg width="164" height="83" viewBox="0 0 164 83" fill="none" xmlns="http://www.w3.org/2000/svg">
<path d="M13.8908 38.6457C11.1898 38.6457 8.80452 38.1897 6.73493 37.2777C4.66535 36.3306 3.03423 34.9976 1.84158 33.2788C0.648939 31.5249 0.0350779 29.4027 0 26.9122H7.10325C7.17341 28.631 7.78727 30.0868 8.94483 31.2794C10.1375 32.437 11.7686 33.0158 13.8382 33.0158C15.6272 33.0158 17.0478 32.5948 18.1001 31.753C19.1525 30.876 19.6786 29.7184 19.6786 28.2803C19.6786 26.7719 19.2051 25.5968 18.258 24.7549C17.346 23.9131 16.1182 23.229 14.5748 22.7029C13.0314 22.1767 11.3827 21.6155 9.62885 21.0192C6.78755 20.037 4.61273 18.7742 3.10438 17.2308C1.63112 15.6873 0.894483 13.6353 0.894483 11.0746C0.859406 8.89978 1.36803 7.04066 2.42037 5.49723C3.50778 3.91873 4.98105 2.70855 6.84017 1.86668C8.69929 0.98974 10.839 0.551268 13.2594 0.551268C15.7148 0.551268 17.8721 0.98974 19.7313 1.86668C21.6255 2.74363 23.0987 3.97135 24.1511 5.54985C25.2385 7.12835 25.8172 9.00501 25.8874 11.1798H18.6789C18.6438 9.88196 18.1352 8.74193 17.153 7.75975C16.2059 6.74249 14.873 6.23387 13.1542 6.23387C11.6809 6.19879 10.4356 6.56711 9.41838 7.33882C8.43621 8.07545 7.94512 9.16286 7.94512 10.6011C7.94512 11.8288 8.33097 12.811 9.10268 13.5476C9.8744 14.2491 10.9267 14.8455 12.2597 15.3366C13.5926 15.8276 15.1185 16.3538 16.8373 16.9151C18.6614 17.5464 20.3276 18.2831 21.8359 19.125C23.3443 19.9668 24.5544 21.0893 25.4665 22.4924C26.3785 23.8605 26.8345 25.6319 26.8345 27.8067C26.8345 29.736 26.3434 31.5249 25.3612 33.1736C24.3791 34.8223 22.9233 36.1552 20.9941 37.1725C19.0648 38.1546 16.697 38.6457 13.8908 38.6457Z" fill="white"/>
<path d="M41.6556 38.6457C39.13 38.6457 36.8499 38.067 34.8154 36.9094C32.8159 35.7518 31.2199 34.1558 30.0273 32.1213C28.8697 30.0517 28.2909 27.6664 28.2909 24.9654C28.2909 22.2644 28.8872 19.8967 30.0799 17.8622C31.2725 15.7926 32.8686 14.179 34.868 13.0214C36.9025 11.8639 39.1826 11.2851 41.7082 11.2851C44.1987 11.2851 46.4437 11.8639 48.4431 13.0214C50.4776 14.179 52.0737 15.7926 53.2312 17.8622C54.4239 19.8967 55.0202 22.2644 55.0202 24.9654C55.0202 27.6664 54.4239 30.0517 53.2312 32.1213C52.0737 34.1558 50.4776 35.7518 48.4431 36.9094C46.4086 38.067 44.1461 38.6457 41.6556 38.6457ZM41.6556 32.8053C43.4094 32.8053 44.9353 32.1563 46.2332 30.8585C47.5311 29.5255 48.18 27.5612 48.18 24.9654C48.18 22.3696 47.5311 20.4228 46.2332 19.125C44.9353 17.792 43.427 17.1255 41.7082 17.1255C39.9192 17.1255 38.3758 17.792 37.0779 19.125C35.8151 20.4228 35.1837 22.3696 35.1837 24.9654C35.1837 27.5612 35.8151 29.5255 37.0779 30.8585C38.3758 32.1563 39.9017 32.8053 41.6556 32.8053Z" fill="white"/>
<path d="M70.4077 38.6457C67.7418 38.6457 65.3916 38.067 63.3571 36.9094C61.3225 35.7518 59.709 34.1382 58.5163 32.0686C57.3587 29.9991 56.78 27.6313 56.78 24.9654C56.78 22.2995 57.3587 19.9317 58.5163 17.8622C59.709 15.7926 61.3225 14.179 63.3571 13.0214C65.3916 11.8639 67.7418 11.2851 70.4077 11.2851C73.7401 11.2851 76.5463 12.162 78.8263 13.9159C81.1064 15.6347 82.5621 18.02 83.1935 21.0718H76.0903C75.7395 19.809 75.0379 18.8268 73.9856 18.1252C72.9684 17.3886 71.7582 17.0203 70.3551 17.0203C68.4959 17.0203 66.9174 17.7218 65.6196 19.125C64.3217 20.5281 63.6727 22.4749 63.6727 24.9654C63.6727 27.4559 64.3217 29.4027 65.6196 30.8059C66.9174 32.209 68.4959 32.9105 70.3551 32.9105C71.7582 32.9105 72.9684 32.5597 73.9856 31.8582C75.0379 31.1566 75.7395 30.1569 76.0903 28.859H83.1935C82.5621 31.8056 81.1064 34.1733 78.8263 35.9623C76.5463 37.7513 73.7401 38.6457 70.4077 38.6457Z" fill="white"/>
<path d="M89.3817 7.86498C88.154 7.86498 87.1368 7.49667 86.33 6.76003C85.5583 6.0234 85.1724 5.09384 85.1724 3.97135C85.1724 2.84886 85.5583 1.93684 86.33 1.23528C87.1368 0.49865 88.154 0.130334 89.3817 0.130334C90.6095 0.130334 91.6092 0.49865 92.3809 1.23528C93.1877 1.93684 93.5911 2.84886 93.5911 3.97135C93.5911 5.09384 93.1877 6.0234 92.3809 6.76003C91.6092 7.49667 90.6095 7.86498 89.3817 7.86498ZM86.0143 38.0143V11.9165H92.7492V38.0143H86.0143Z" fill="white"/>
<path d="M105.356 38.6457C103.111 38.6457 101.27 38.295 99.8315 37.5934C98.3933 36.8568 97.3234 35.8921 96.6219 34.6995C95.9203 33.5068 95.5695 32.1914 95.5695 30.7532C95.5695 28.3329 96.5167 26.3685 98.4109 24.8602C100.305 23.3518 103.146 22.5977 106.935 22.5977H113.564V21.9663C113.564 20.1773 113.056 18.8619 112.039 18.02C111.021 17.1781 109.759 16.7572 108.25 16.7572C106.882 16.7572 105.689 17.0904 104.672 17.7569C103.655 18.3883 103.024 19.3354 102.778 20.5982H96.201C96.3763 18.704 97.0077 17.0554 98.0951 15.6523C99.2176 14.2491 100.656 13.1793 102.41 12.4426C104.164 11.6709 106.128 11.2851 108.303 11.2851C112.021 11.2851 114.95 12.2146 117.09 14.0738C119.23 15.9329 120.299 18.5637 120.299 21.9663V38.0143H114.564L113.933 33.805C113.161 35.2081 112.074 36.3657 110.671 37.2777C109.303 38.1897 107.531 38.6457 105.356 38.6457ZM106.882 33.3841C108.811 33.3841 110.302 32.7527 111.355 31.4899C112.442 30.2271 113.126 28.6661 113.407 26.807H107.671C105.882 26.807 104.602 27.1402 103.83 27.8067C103.059 28.4381 102.673 29.2274 102.673 30.1745C102.673 31.1917 103.059 31.981 103.83 32.5422C104.602 33.1034 105.619 33.3841 106.882 33.3841Z" fill="white"/>
<path d="M123.306 38.0143V0.130334H130.041V38.0143H123.306Z" fill="white"/>
<path d="M17.4161 82.0907C13.9434 82.0907 10.9092 81.3014 8.31343 79.7229C5.71768 78.1444 3.70071 75.9521 2.26252 73.1459C0.824328 70.3046 0.105233 67.0072 0.105233 63.2539C0.105233 59.4655 0.841867 56.1331 2.31513 53.2568C3.82348 50.3453 5.94568 48.0828 8.68175 46.4692C11.4529 44.8205 14.7327 43.9962 18.5211 43.9962C22.8356 43.9962 26.4136 45.031 29.2549 47.1006C32.0962 49.1702 33.9378 52.029 34.7796 55.6771H27.2554C26.6942 53.9583 25.6769 52.6254 24.2037 51.6783C22.7304 50.6961 20.8362 50.205 18.5211 50.205C14.8379 50.205 11.9966 51.3801 9.99717 53.7303C7.99773 56.0454 6.99802 59.2375 6.99802 63.3065C6.99802 67.3756 7.9802 70.5326 9.94455 72.7775C11.944 74.9874 14.645 76.0924 18.0475 76.0924C21.3799 76.0924 23.888 75.1979 25.5717 73.4089C27.2905 71.5849 28.3253 69.1996 28.6761 66.2531H19.3629V61.2019H35.4636V81.4593H29.2549L28.7287 76.6186C27.5361 78.3724 26.0453 79.7229 24.2563 80.67C22.4673 81.6171 20.1873 82.0907 17.4161 82.0907Z" fill="white"/>
<path d="M50.8507 82.0907C48.2199 82.0907 45.8872 81.5294 43.8527 80.407C41.8182 79.2845 40.2222 77.706 39.0646 75.6715C37.907 73.6369 37.3282 71.2867 37.3282 68.6208C37.3282 65.9198 37.8895 63.517 39.012 61.4123C40.1695 59.3077 41.748 57.6766 43.7475 56.519C45.782 55.3263 48.1673 54.73 50.9033 54.73C53.464 54.73 55.7265 55.2913 57.6909 56.4138C59.6553 57.5362 61.1811 59.0797 62.2685 61.044C63.391 62.9733 63.9523 65.1306 63.9523 67.5159C63.9523 67.9017 63.9347 68.3051 63.8997 68.7261C63.8997 69.147 63.8821 69.5855 63.847 70.0415H44.0106C44.1509 72.076 44.8524 73.672 46.1152 74.8296C47.4131 75.9872 48.9741 76.5659 50.7981 76.5659C52.1661 76.5659 53.3062 76.2678 54.2182 75.6715C55.1653 75.0401 55.8668 74.2333 56.3229 73.2511H63.163C62.6719 74.8997 61.8476 76.4081 60.69 77.7761C59.5676 79.1091 58.1644 80.1614 56.4807 80.9331C54.8321 81.7048 52.9554 82.0907 50.8507 82.0907ZM50.9033 60.2022C49.2547 60.2022 47.799 60.6757 46.5362 61.6228C45.2734 62.5348 44.4666 63.9379 44.1158 65.8321H57.1121C57.0069 64.1133 56.3755 62.7453 55.2179 61.728C54.0603 60.7108 52.6222 60.2022 50.9033 60.2022Z" fill="white"/>
<path d="M65.9336 81.4593V55.3614H71.8793L72.4055 59.7812C73.2123 58.2378 74.3698 57.0101 75.8782 56.0981C77.4216 55.186 79.2281 54.73 81.2977 54.73C84.5248 54.73 87.0329 55.7473 88.8219 57.7818C90.6108 59.8163 91.5053 62.7979 91.5053 66.7266V81.4593H84.7704V67.358C84.7704 65.113 84.3144 63.3942 83.4024 62.2016C82.4903 61.0089 81.0697 60.4126 79.1404 60.4126C77.2462 60.4126 75.6852 61.0791 74.4575 62.4121C73.2649 63.745 72.6686 65.6041 72.6686 67.9894V81.4593H65.9336Z" fill="white"/>
<path d="M97.8929 51.3099C96.6652 51.3099 95.6479 50.9416 94.8411 50.205C94.0694 49.4684 93.6836 48.5388 93.6836 47.4163C93.6836 46.2938 94.0694 45.3818 94.8411 44.6802C95.6479 43.9436 96.6652 43.5753 97.8929 43.5753C99.1206 43.5753 100.12 43.9436 100.892 44.6802C101.699 45.3818 102.102 46.2938 102.102 47.4163C102.102 48.5388 101.699 49.4684 100.892 50.205C100.12 50.9416 99.1206 51.3099 97.8929 51.3099ZM94.5254 81.4593V55.3614H101.26V81.4593H94.5254Z" fill="white"/>
<path d="M114.394 82.0907C111.131 82.0907 108.606 81.0734 106.817 79.0389C105.063 77.0044 104.186 74.0228 104.186 70.0941V55.3614H110.868V69.4627C110.868 71.7077 111.324 73.4265 112.236 74.6191C113.148 75.8118 114.587 76.4081 116.551 76.4081C118.41 76.4081 119.936 75.7416 121.129 74.4087C122.356 73.0757 122.97 71.2166 122.97 68.8313V55.3614H129.705V81.4593H123.759L123.233 77.0395C122.426 78.5829 121.251 79.8106 119.708 80.7227C118.2 81.6347 116.428 82.0907 114.394 82.0907Z" fill="white"/>
<path d="M143.722 82.0907C141.407 82.0907 139.372 81.7224 137.618 80.9857C135.865 80.214 134.461 79.1617 133.409 77.8287C132.357 76.4958 131.725 74.9524 131.515 73.1985H138.303C138.513 74.2157 139.074 75.0927 139.986 75.8293C140.933 76.5309 142.144 76.8816 143.617 76.8816C145.09 76.8816 146.16 76.5835 146.826 75.9872C147.528 75.3908 147.879 74.7068 147.879 73.9351C147.879 72.8126 147.388 72.0584 146.405 71.6726C145.423 71.2517 144.055 70.8483 142.301 70.4624C141.179 70.2169 140.039 69.9187 138.881 69.5679C137.724 69.2171 136.654 68.7787 135.672 68.2525C134.725 67.6913 133.953 66.9897 133.357 66.1478C132.76 65.2709 132.462 64.201 132.462 62.9382C132.462 60.6231 133.374 58.6763 135.198 57.0978C137.057 55.5193 139.653 54.73 142.985 54.73C146.072 54.73 148.528 55.4491 150.352 56.8873C152.211 58.3255 153.316 60.3074 153.667 62.833H147.3C146.914 60.9037 145.458 59.9391 142.933 59.9391C141.67 59.9391 140.688 60.1846 139.986 60.6757C139.32 61.1668 138.987 61.7807 138.987 62.5173C138.987 63.289 139.495 63.9029 140.512 64.3589C141.53 64.8149 142.88 65.2358 144.564 65.6217C146.388 66.0426 148.054 66.5162 149.562 67.0423C151.106 67.5334 152.334 68.2876 153.246 69.3048C154.158 70.287 154.614 71.7077 154.614 73.5668C154.649 75.1804 154.228 76.6361 153.351 77.934C152.474 79.2319 151.211 80.2491 149.562 80.9857C147.914 81.7224 145.967 82.0907 143.722 82.0907Z" fill="white"/>
<path d="M159.791 81.8276C158.563 81.8276 157.546 81.4417 156.739 80.67C155.967 79.8983 155.581 78.9688 155.581 77.8814C155.581 76.7589 155.967 75.8118 156.739 75.0401C157.546 74.2683 158.563 73.8825 159.791 73.8825C161.018 73.8825 162.018 74.2683 162.79 75.0401C163.597 75.8118 164 76.7589 164 77.8814C164 78.9688 163.597 79.8983 162.79 80.67C162.018 81.4417 161.018 81.8276 159.791 81.8276Z" fill="white"/>
<path d="M134.336 4.22382V0.416348H133.075V0H136.104V0.416348H134.843V4.22382H134.336Z" fill="white"/>
<path d="M137.537 4.22382V0H138.128L139.649 2.9446L141.158 0H141.755V4.22382H141.248V0.905103L139.836 3.62041H139.456L138.044 0.911137V4.22382H137.537Z" fill="white"/>
</svg>
