<?xml version="1.0" encoding="utf-8"?>
<!-- Generator: Adobe Illustrator 25.4.1, SVG Export Plug-In . SVG Version: 6.00 Build 0)  -->
<svg version="1.1" id="Layer_1" xmlns="http://www.w3.org/2000/svg" xmlns:xlink="http://www.w3.org/1999/xlink" x="0px" y="0px"
	 viewBox="0 0 1000 1000" style="enable-background:new 0 0 1000 1000;" xml:space="preserve">
<style type="text/css">
	.st0{fill-rule:evenodd;clip-rule:evenodd;fill:#FFFFFF;}
</style>
<path id="Path-3" class="st0" d="M78.8,443.7c262.2-114.2,437-189.5,524.5-225.9C853,114,904.9,95.9,938.7,95.3
	c7.4-0.1,24.1,1.7,34.8,10.5c9.1,7.4,11.6,17.4,12.8,24.4c1.2,7,2.7,22.9,1.5,35.4C974.4,307.7,915.8,652.8,886,812.1
	c-12.6,67.4-37.4,90-61.5,92.2c-52.2,4.8-91.9-34.5-142.5-67.7c-79.2-51.9-123.9-84.2-200.7-134.8c-88.8-58.5-31.2-90.7,19.4-143.2
	c13.2-13.8,243.3-223,247.8-242c0.6-2.4,1.1-11.2-4.2-15.9c-5.3-4.7-13-3.1-18.6-1.8c-7.9,1.8-134.4,85.4-379.3,250.7
	c-35.9,24.6-68.4,36.7-97.5,36c-32.1-0.7-93.9-18.2-139.8-33.1c-56.3-18.3-101.1-28-97.2-59.1C13.9,477.2,36.2,460.7,78.8,443.7z"/>
</svg>
