<svg id="Layer_1" data-name="Layer 1" xmlns="http://www.w3.org/2000/svg" viewBox="0 0 200 200"><defs><style>.cls-1{fill:#fff;}</style></defs><path class="cls-1" d="M175.16,57.25a43.3,43.3,0,0,1-42.48-34.8,42.28,42.28,0,0,1-.83-8.09h-28V90.78l0,41.86a25.38,25.38,0,1,1-17.39-24V80.22a55.35,55.35,0,0,0-8.07-.6,53.62,53.62,0,0,0-40.29,18,52.53,52.53,0,0,0,2.37,72.46,53.5,53.5,0,0,0,37.92,15.53,55.35,55.35,0,0,0,8.07-.59,53.5,53.5,0,0,0,29.86-14.94A52.37,52.37,0,0,0,132,132.85l-.14-62.5a70.8,70.8,0,0,0,15.71,9.16,70.59,70.59,0,0,0,27.65,5.57V57.24s-.07,0-.08,0Z"/></svg>