<svg width="82" height="62" viewBox="0 0 82 62" fill="none" xmlns="http://www.w3.org/2000/svg">
<path d="M75.7345 30.6206C72.993 30.7009 70.6731 30.827 68.3565 30.8212C64.4276 30.8273 60.5472 30.6584 56.8542 29.0057C53.109 27.3251 51.0063 24.4442 50.9584 20.4262C50.9328 17.959 51.5768 15.4913 52.0088 13.0446C52.1827 12.0888 52.6289 11.1664 53.0956 9.78645C51.2016 10.8307 49.7268 11.6742 48.2183 12.4552C44.5403 14.3792 40.9377 16.4548 37.1517 18.1206C31.9753 20.4294 27.9231 18.697 25.7845 13.4104C24.9474 11.3367 24.6092 9.03787 24.0662 6.83071C23.9069 6.16601 23.8448 5.48616 23.7155 4.68128C21.1296 7.65476 18.7139 10.518 16.2042 13.2644C10.3425 19.6696 4.53623 16.2455 2.04179 10.7472C1.37436 9.27686 1.05539 7.61272 0.72605 6.00998C0.542001 4.93064 0.94754 3.87505 2.14154 3.6851C3.22088 3.50105 3.79852 4.34372 4.1261 5.321C4.46292 6.28089 4.73724 7.27443 5.17246 8.17515C5.68312 9.22754 6.21116 10.2892 6.91861 11.2232C8.91338 13.846 11.0194 14.1636 13.5401 12.0253C15.3224 10.5202 16.8913 8.74531 18.4591 7.01449C19.9182 5.40423 21.3088 3.71296 22.6994 2.02168C23.426 1.15922 24.1873 0.315262 25.4234 0.549201C26.8437 0.814237 27.1206 2.05449 27.3823 3.19746C27.7243 4.65077 27.845 6.14252 28.2668 7.57143C28.7759 9.38133 29.329 11.1924 30.1055 12.8769C31.1664 15.1588 32.4897 15.7738 34.8959 15.0244C37.1956 14.3075 39.5078 13.4412 41.667 12.3596C46.2805 10.0189 50.7919 7.53466 55.3126 5.03305C56.3846 4.44361 57.3607 4.16005 58.3449 4.95136C59.2861 5.69755 59.1632 6.72506 58.7935 7.75513C58.1304 9.58817 57.3793 11.419 56.8124 13.2809C56.3217 14.9157 55.8473 16.6038 55.6636 18.2904C55.1617 22.7966 56.8273 25.1996 61.1167 26.612C64.34 27.6803 67.6682 28.0906 71.0422 28.0792C73.4734 28.0792 75.8999 27.9205 78.316 27.8232C79.5947 27.7675 80.9174 27.713 81.5419 29.1382C82.1154 30.4917 81.3311 31.5465 80.5131 32.5388C80.1591 32.9526 79.7448 33.3121 79.3479 33.6808C78.5366 34.409 77.759 35.1997 76.8793 35.8468C70.3698 40.7028 69.6684 47.1772 71.759 54.3565C72.1483 55.6789 72.9545 56.8885 73.6101 58.1295C73.9293 58.7454 74.4441 59.287 74.6833 59.9273C74.8656 60.3812 74.9346 61.1317 74.672 61.4157C74.3908 61.7345 73.6496 61.7862 73.192 61.7658C72.1982 61.7053 71.1759 61.0276 70.5775 60.3077C69.3982 58.8772 68.2662 57.3158 67.5603 55.6242C65.9815 51.8845 65.6244 47.9027 65.9737 43.8507C66.2727 40.3964 67.9553 37.6114 70.3843 35.2682C71.9905 33.7585 73.6988 32.3924 75.7345 30.6206Z" fill="#B16CEA"/>
</svg>
